ISO-10303-21;
HEADER;
/* Generated by software containing ST-Developer
 * from STEP Tools, Inc. (www.steptools.com) 
 */

FILE_DESCRIPTION(
/* description */ ('',
'CAx-IF Rec.Pracs.---Representation and Presentation of Product Manufa
cturing Information (PMI)---4.0---2014-10-13'),
/* implementation_level */ '2;1');

FILE_NAME(
/* name */ 'D Emission Baffle.step',
/* time_stamp */ '2024-12-01T16:52:04+10:00',
/* author */ (''),
/* organization */ (''),
/* preprocessor_version */ 'ST-DEVELOPER v20',
/* originating_system */ 'Autodesk Translation Framework v13.20.0.188',

/* authorisation */ '');

FILE_SCHEMA (('AP242_MANAGED_MODEL_BASED_3D_ENGINEERING_MIM_LF { 1 0 10303 442 1 1 4 }'));
ENDSEC;

DATA;
#10=MECHANICAL_DESIGN_GEOMETRIC_PRESENTATION_REPRESENTATION('',(#13),#1173);
#11=SHAPE_REPRESENTATION_RELATIONSHIP('SRR','None',#1180,#12);
#12=ADVANCED_BREP_SHAPE_REPRESENTATION('',(#14),#1172);
#13=STYLED_ITEM('',(#1189),#14);
#14=MANIFOLD_SOLID_BREP('D Emission Baffle',#597);
#15=CYLINDRICAL_SURFACE('',#624,3.);
#16=CYLINDRICAL_SURFACE('',#628,2.);
#17=CIRCLE('',#619,2.);
#18=CIRCLE('',#621,3.);
#19=CIRCLE('',#625,3.);
#20=CIRCLE('',#627,2.);
#21=FACE_BOUND('',#97,.T.);
#22=FACE_BOUND('',#99,.T.);
#23=FACE_BOUND('',#100,.T.);
#24=FACE_BOUND('',#102,.T.);
#25=FACE_BOUND('',#107,.T.);
#26=PLANE('',#611);
#27=PLANE('',#612);
#28=PLANE('',#613);
#29=PLANE('',#614);
#30=PLANE('',#615);
#31=PLANE('',#616);
#32=PLANE('',#617);
#33=PLANE('',#618);
#34=PLANE('',#620);
#35=PLANE('',#622);
#36=PLANE('',#623);
#37=PLANE('',#626);
#38=PLANE('',#629);
#39=PLANE('',#630);
#40=PLANE('',#631);
#41=FACE_OUTER_BOUND('',#74,.T.);
#42=FACE_OUTER_BOUND('',#75,.T.);
#43=FACE_OUTER_BOUND('',#76,.T.);
#44=FACE_OUTER_BOUND('',#77,.T.);
#45=FACE_OUTER_BOUND('',#78,.T.);
#46=FACE_OUTER_BOUND('',#79,.T.);
#47=FACE_OUTER_BOUND('',#80,.T.);
#48=FACE_OUTER_BOUND('',#81,.T.);
#49=FACE_OUTER_BOUND('',#82,.T.);
#50=FACE_OUTER_BOUND('',#83,.T.);
#51=FACE_OUTER_BOUND('',#84,.T.);
#52=FACE_OUTER_BOUND('',#85,.T.);
#53=FACE_OUTER_BOUND('',#86,.T.);
#54=FACE_OUTER_BOUND('',#87,.T.);
#55=FACE_OUTER_BOUND('',#88,.T.);
#56=FACE_OUTER_BOUND('',#89,.T.);
#57=FACE_OUTER_BOUND('',#90,.T.);
#58=FACE_OUTER_BOUND('',#91,.T.);
#59=FACE_OUTER_BOUND('',#92,.T.);
#60=FACE_OUTER_BOUND('',#93,.T.);
#61=FACE_OUTER_BOUND('',#94,.T.);
#62=FACE_OUTER_BOUND('',#95,.T.);
#63=FACE_OUTER_BOUND('',#96,.T.);
#64=FACE_OUTER_BOUND('',#98,.T.);
#65=FACE_OUTER_BOUND('',#101,.T.);
#66=FACE_OUTER_BOUND('',#103,.T.);
#67=FACE_OUTER_BOUND('',#104,.T.);
#68=FACE_OUTER_BOUND('',#105,.T.);
#69=FACE_OUTER_BOUND('',#106,.T.);
#70=FACE_OUTER_BOUND('',#108,.T.);
#71=FACE_OUTER_BOUND('',#109,.T.);
#72=FACE_OUTER_BOUND('',#110,.T.);
#73=FACE_OUTER_BOUND('',#111,.T.);
#74=EDGE_LOOP('',(#380,#381,#382,#383));
#75=EDGE_LOOP('',(#384,#385,#386,#387));
#76=EDGE_LOOP('',(#388,#389,#390,#391));
#77=EDGE_LOOP('',(#392,#393,#394,#395));
#78=EDGE_LOOP('',(#396,#397,#398,#399));
#79=EDGE_LOOP('',(#400,#401,#402,#403));
#80=EDGE_LOOP('',(#404,#405,#406,#407));
#81=EDGE_LOOP('',(#408,#409,#410,#411));
#82=EDGE_LOOP('',(#412,#413,#414,#415));
#83=EDGE_LOOP('',(#416,#417,#418,#419));
#84=EDGE_LOOP('',(#420,#421,#422,#423));
#85=EDGE_LOOP('',(#424,#425,#426,#427));
#86=EDGE_LOOP('',(#428,#429,#430,#431));
#87=EDGE_LOOP('',(#432,#433,#434,#435));
#88=EDGE_LOOP('',(#436,#437,#438,#439));
#89=EDGE_LOOP('',(#440,#441,#442,#443));
#90=EDGE_LOOP('',(#444,#445,#446,#447));
#91=EDGE_LOOP('',(#448,#449,#450,#451));
#92=EDGE_LOOP('',(#452,#453,#454,#455));
#93=EDGE_LOOP('',(#456,#457,#458,#459));
#94=EDGE_LOOP('',(#460,#461,#462,#463));
#95=EDGE_LOOP('',(#464,#465,#466,#467));
#96=EDGE_LOOP('',(#468,#469,#470,#471,#472,#473,#474,#475,#476,#477,#478));
#97=EDGE_LOOP('',(#479,#480,#481,#482,#483,#484,#485,#486,#487,#488,#489));
#98=EDGE_LOOP('',(#490,#491,#492,#493));
#99=EDGE_LOOP('',(#494));
#100=EDGE_LOOP('',(#495,#496,#497,#498,#499,#500,#501,#502,#503,#504,#505));
#101=EDGE_LOOP('',(#506,#507,#508,#509));
#102=EDGE_LOOP('',(#510));
#103=EDGE_LOOP('',(#511,#512,#513,#514));
#104=EDGE_LOOP('',(#515,#516,#517,#518));
#105=EDGE_LOOP('',(#519,#520,#521,#522));
#106=EDGE_LOOP('',(#523));
#107=EDGE_LOOP('',(#524));
#108=EDGE_LOOP('',(#525,#526,#527,#528));
#109=EDGE_LOOP('',(#529,#530,#531,#532));
#110=EDGE_LOOP('',(#533,#534,#535,#536));
#111=EDGE_LOOP('',(#537,#538,#539,#540,#541,#542,#543,#544,#545,#546,#547));
#112=LINE('',#743,#160);
#113=LINE('',#750,#161);
#114=LINE('',#768,#162);
#115=LINE('',#791,#163);
#116=LINE('',#814,#164);
#117=LINE('',#837,#165);
#118=LINE('',#860,#166);
#119=LINE('',#883,#167);
#120=LINE('',#906,#168);
#121=LINE('',#914,#169);
#122=LINE('',#916,#170);
#123=LINE('',#917,#171);
#124=LINE('',#920,#172);
#125=LINE('',#922,#173);
#126=LINE('',#923,#174);
#127=LINE('',#925,#175);
#128=LINE('',#926,#176);
#129=LINE('',#930,#177);
#130=LINE('',#932,#178);
#131=LINE('',#934,#179);
#132=LINE('',#935,#180);
#133=LINE('',#953,#181);
#134=LINE('',#976,#182);
#135=LINE('',#999,#183);
#136=LINE('',#1022,#184);
#137=LINE('',#1045,#185);
#138=LINE('',#1068,#186);
#139=LINE('',#1091,#187);
#140=LINE('',#1114,#188);
#141=LINE('',#1122,#189);
#142=LINE('',#1124,#190);
#143=LINE('',#1125,#191);
#144=LINE('',#1127,#192);
#145=LINE('',#1128,#193);
#146=LINE('',#1133,#194);
#147=LINE('',#1135,#195);
#148=LINE('',#1137,#196);
#149=LINE('',#1138,#197);
#150=LINE('',#1144,#198);
#151=LINE('',#1146,#199);
#152=LINE('',#1148,#200);
#153=LINE('',#1149,#201);
#154=LINE('',#1153,#202);
#155=LINE('',#1154,#203);
#156=LINE('',#1156,#204);
#157=LINE('',#1157,#205);
#158=LINE('',#1161,#206);
#159=LINE('',#1166,#207);
#160=VECTOR('',#634,10.);
#161=VECTOR('',#635,10.);
#162=VECTOR('',#636,10.);
#163=VECTOR('',#637,10.);
#164=VECTOR('',#638,10.);
#165=VECTOR('',#639,10.);
#166=VECTOR('',#640,10.);
#167=VECTOR('',#641,10.);
#168=VECTOR('',#642,10.);
#169=VECTOR('',#645,10.);
#170=VECTOR('',#646,10.);
#171=VECTOR('',#647,10.);
#172=VECTOR('',#650,10.);
#173=VECTOR('',#651,10.);
#174=VECTOR('',#652,10.);
#175=VECTOR('',#655,10.);
#176=VECTOR('',#656,10.);
#177=VECTOR('',#659,10.);
#178=VECTOR('',#660,10.);
#179=VECTOR('',#661,10.);
#180=VECTOR('',#662,10.);
#181=VECTOR('',#663,10.);
#182=VECTOR('',#664,10.);
#183=VECTOR('',#665,10.);
#184=VECTOR('',#666,10.);
#185=VECTOR('',#667,10.);
#186=VECTOR('',#668,10.);
#187=VECTOR('',#669,10.);
#188=VECTOR('',#670,10.);
#189=VECTOR('',#673,10.);
#190=VECTOR('',#674,10.);
#191=VECTOR('',#675,10.);
#192=VECTOR('',#678,10.);
#193=VECTOR('',#679,10.);
#194=VECTOR('',#684,10.);
#195=VECTOR('',#685,10.);
#196=VECTOR('',#686,10.);
#197=VECTOR('',#687,10.);
#198=VECTOR('',#692,10.);
#199=VECTOR('',#693,10.);
#200=VECTOR('',#694,10.);
#201=VECTOR('',#695,10.);
#202=VECTOR('',#700,10.);
#203=VECTOR('',#701,10.);
#204=VECTOR('',#704,10.);
#205=VECTOR('',#705,10.);
#206=VECTOR('',#710,3.);
#207=VECTOR('',#717,2.);
#208=B_SPLINE_CURVE_WITH_KNOTS('',3,(#737,#738,#739,#740,#741),
 .UNSPECIFIED.,.F.,.F.,(4,1,4),(0.,0.0314968673146105,0.0830966198378268),
 .UNSPECIFIED.);
#209=B_SPLINE_CURVE_WITH_KNOTS('',3,(#745,#746,#747,#748,#749),
 .UNSPECIFIED.,.F.,.F.,(4,1,4),(0.,0.0314968673146105,0.0830966198378268),
 .UNSPECIFIED.);
#210=B_SPLINE_CURVE_WITH_KNOTS('',3,(#762,#763,#764,#765,#766),
 .UNSPECIFIED.,.F.,.F.,(4,1,4),(0.,0.0254752756108823,0.0528181890009132),
 .UNSPECIFIED.);
#211=B_SPLINE_CURVE_WITH_KNOTS('',3,(#769,#770,#771,#772,#773),
 .UNSPECIFIED.,.F.,.F.,(4,1,4),(0.,0.0254752756108823,0.0528181890009132),
 .UNSPECIFIED.);
#212=B_SPLINE_CURVE_WITH_KNOTS('',3,(#785,#786,#787,#788,#789),
 .UNSPECIFIED.,.F.,.F.,(4,1,4),(0.,0.0302318530043779,0.0567055443590021),
 .UNSPECIFIED.);
#213=B_SPLINE_CURVE_WITH_KNOTS('',3,(#792,#793,#794,#795,#796),
 .UNSPECIFIED.,.F.,.F.,(4,1,4),(0.,0.0302318530043779,0.0567055443590021),
 .UNSPECIFIED.);
#214=B_SPLINE_CURVE_WITH_KNOTS('',3,(#808,#809,#810,#811,#812),
 .UNSPECIFIED.,.F.,.F.,(4,1,4),(0.,0.051308688726028,0.0898531571622681),
 .UNSPECIFIED.);
#215=B_SPLINE_CURVE_WITH_KNOTS('',3,(#815,#816,#817,#818,#819),
 .UNSPECIFIED.,.F.,.F.,(4,1,4),(0.,0.051308688726028,0.0898531571622681),
 .UNSPECIFIED.);
#216=B_SPLINE_CURVE_WITH_KNOTS('',3,(#831,#832,#833,#834,#835),
 .UNSPECIFIED.,.F.,.F.,(4,1,4),(0.,0.0404263606311167,0.0923737919042558),
 .UNSPECIFIED.);
#217=B_SPLINE_CURVE_WITH_KNOTS('',3,(#838,#839,#840,#841,#842),
 .UNSPECIFIED.,.F.,.F.,(4,1,4),(0.,0.0404263606311167,0.0923737919042558),
 .UNSPECIFIED.);
#218=B_SPLINE_CURVE_WITH_KNOTS('',3,(#854,#855,#856,#857,#858),
 .UNSPECIFIED.,.F.,.F.,(4,1,4),(0.,0.0243438027463447,0.0554966427924077),
 .UNSPECIFIED.);
#219=B_SPLINE_CURVE_WITH_KNOTS('',3,(#861,#862,#863,#864,#865),
 .UNSPECIFIED.,.F.,.F.,(4,1,4),(0.,0.0243438027463447,0.0554966427924077),
 .UNSPECIFIED.);
#220=B_SPLINE_CURVE_WITH_KNOTS('',3,(#877,#878,#879,#880,#881),
 .UNSPECIFIED.,.F.,.F.,(4,1,4),(0.,0.0239415909733165,0.0461139033450193),
 .UNSPECIFIED.);
#221=B_SPLINE_CURVE_WITH_KNOTS('',3,(#884,#885,#886,#887,#888),
 .UNSPECIFIED.,.F.,.F.,(4,1,4),(0.,0.0239415909733165,0.0461139033450193),
 .UNSPECIFIED.);
#222=B_SPLINE_CURVE_WITH_KNOTS('',3,(#900,#901,#902,#903,#904),
 .UNSPECIFIED.,.F.,.F.,(4,1,4),(0.,0.0364281813490658,0.0613289244588568),
 .UNSPECIFIED.);
#223=B_SPLINE_CURVE_WITH_KNOTS('',3,(#907,#908,#909,#910,#911),
 .UNSPECIFIED.,.F.,.F.,(4,1,4),(0.,0.0364281813490658,0.0613289244588568),
 .UNSPECIFIED.);
#224=B_SPLINE_CURVE_WITH_KNOTS('',3,(#947,#948,#949,#950,#951),
 .UNSPECIFIED.,.F.,.F.,(4,1,4),(0.,0.0398487929540896,0.0902251611275141),
 .UNSPECIFIED.);
#225=B_SPLINE_CURVE_WITH_KNOTS('',3,(#954,#955,#956,#957,#958),
 .UNSPECIFIED.,.F.,.F.,(4,1,4),(0.,0.0398487929540896,0.0902251611275141),
 .UNSPECIFIED.);
#226=B_SPLINE_CURVE_WITH_KNOTS('',3,(#970,#971,#972,#973,#974),
 .UNSPECIFIED.,.F.,.F.,(4,1,4),(0.,0.0383539204376296,0.0819398526803833),
 .UNSPECIFIED.);
#227=B_SPLINE_CURVE_WITH_KNOTS('',3,(#977,#978,#979,#980,#981),
 .UNSPECIFIED.,.F.,.F.,(4,1,4),(0.,0.0383539204376296,0.0819398526803833),
 .UNSPECIFIED.);
#228=B_SPLINE_CURVE_WITH_KNOTS('',3,(#993,#994,#995,#996,#997),
 .UNSPECIFIED.,.F.,.F.,(4,1,4),(0.,0.0543653844763019,0.104022839271044),
 .UNSPECIFIED.);
#229=B_SPLINE_CURVE_WITH_KNOTS('',3,(#1000,#1001,#1002,#1003,#1004),
 .UNSPECIFIED.,.F.,.F.,(4,1,4),(0.,0.0543653844763019,0.104022839271044),
 .UNSPECIFIED.);
#230=B_SPLINE_CURVE_WITH_KNOTS('',3,(#1016,#1017,#1018,#1019,#1020),
 .UNSPECIFIED.,.F.,.F.,(4,1,4),(0.,0.057597253964292,0.107875390839724),
 .UNSPECIFIED.);
#231=B_SPLINE_CURVE_WITH_KNOTS('',3,(#1023,#1024,#1025,#1026,#1027),
 .UNSPECIFIED.,.F.,.F.,(4,1,4),(0.,0.057597253964292,0.107875390839724),
 .UNSPECIFIED.);
#232=B_SPLINE_CURVE_WITH_KNOTS('',3,(#1039,#1040,#1041,#1042,#1043),
 .UNSPECIFIED.,.F.,.F.,(4,1,4),(0.,0.0548951901701952,0.119698852468201),
 .UNSPECIFIED.);
#233=B_SPLINE_CURVE_WITH_KNOTS('',3,(#1046,#1047,#1048,#1049,#1050),
 .UNSPECIFIED.,.F.,.F.,(4,1,4),(0.,0.0548951901701952,0.119698852468201),
 .UNSPECIFIED.);
#234=B_SPLINE_CURVE_WITH_KNOTS('',3,(#1062,#1063,#1064,#1065,#1066),
 .UNSPECIFIED.,.F.,.F.,(4,1,4),(0.,0.0460095238149198,0.0945840871411129),
 .UNSPECIFIED.);
#235=B_SPLINE_CURVE_WITH_KNOTS('',3,(#1069,#1070,#1071,#1072,#1073),
 .UNSPECIFIED.,.F.,.F.,(4,1,4),(0.,0.0460095238149198,0.0945840871411129),
 .UNSPECIFIED.);
#236=B_SPLINE_CURVE_WITH_KNOTS('',3,(#1085,#1086,#1087,#1088,#1089),
 .UNSPECIFIED.,.F.,.F.,(4,1,4),(0.,0.0446294003223435,0.0891205027175269),
 .UNSPECIFIED.);
#237=B_SPLINE_CURVE_WITH_KNOTS('',3,(#1092,#1093,#1094,#1095,#1096),
 .UNSPECIFIED.,.F.,.F.,(4,1,4),(0.,0.0446294003223435,0.0891205027175269),
 .UNSPECIFIED.);
#238=B_SPLINE_CURVE_WITH_KNOTS('',3,(#1108,#1109,#1110,#1111,#1112),
 .UNSPECIFIED.,.F.,.F.,(4,1,4),(0.,0.0550483909987185,0.0958423707524926),
 .UNSPECIFIED.);
#239=B_SPLINE_CURVE_WITH_KNOTS('',3,(#1115,#1116,#1117,#1118,#1119),
 .UNSPECIFIED.,.F.,.F.,(4,1,4),(0.,0.0550483909987185,0.0958423707524926),
 .UNSPECIFIED.);
#240=VERTEX_POINT('',#735);
#241=VERTEX_POINT('',#736);
#242=VERTEX_POINT('',#742);
#243=VERTEX_POINT('',#744);
#244=VERTEX_POINT('',#761);
#245=VERTEX_POINT('',#767);
#246=VERTEX_POINT('',#784);
#247=VERTEX_POINT('',#790);
#248=VERTEX_POINT('',#807);
#249=VERTEX_POINT('',#813);
#250=VERTEX_POINT('',#830);
#251=VERTEX_POINT('',#836);
#252=VERTEX_POINT('',#853);
#253=VERTEX_POINT('',#859);
#254=VERTEX_POINT('',#876);
#255=VERTEX_POINT('',#882);
#256=VERTEX_POINT('',#899);
#257=VERTEX_POINT('',#905);
#258=VERTEX_POINT('',#913);
#259=VERTEX_POINT('',#915);
#260=VERTEX_POINT('',#919);
#261=VERTEX_POINT('',#921);
#262=VERTEX_POINT('',#928);
#263=VERTEX_POINT('',#929);
#264=VERTEX_POINT('',#931);
#265=VERTEX_POINT('',#933);
#266=VERTEX_POINT('',#946);
#267=VERTEX_POINT('',#952);
#268=VERTEX_POINT('',#969);
#269=VERTEX_POINT('',#975);
#270=VERTEX_POINT('',#992);
#271=VERTEX_POINT('',#998);
#272=VERTEX_POINT('',#1015);
#273=VERTEX_POINT('',#1021);
#274=VERTEX_POINT('',#1038);
#275=VERTEX_POINT('',#1044);
#276=VERTEX_POINT('',#1061);
#277=VERTEX_POINT('',#1067);
#278=VERTEX_POINT('',#1084);
#279=VERTEX_POINT('',#1090);
#280=VERTEX_POINT('',#1107);
#281=VERTEX_POINT('',#1113);
#282=VERTEX_POINT('',#1121);
#283=VERTEX_POINT('',#1123);
#284=VERTEX_POINT('',#1131);
#285=VERTEX_POINT('',#1132);
#286=VERTEX_POINT('',#1134);
#287=VERTEX_POINT('',#1136);
#288=VERTEX_POINT('',#1139);
#289=VERTEX_POINT('',#1142);
#290=VERTEX_POINT('',#1143);
#291=VERTEX_POINT('',#1145);
#292=VERTEX_POINT('',#1147);
#293=VERTEX_POINT('',#1150);
#294=VERTEX_POINT('',#1159);
#295=VERTEX_POINT('',#1163);
#296=EDGE_CURVE('',#240,#241,#208,.T.);
#297=EDGE_CURVE('',#240,#242,#112,.T.);
#298=EDGE_CURVE('',#242,#243,#209,.T.);
#299=EDGE_CURVE('',#241,#243,#113,.T.);
#300=EDGE_CURVE('',#244,#240,#210,.T.);
#301=EDGE_CURVE('',#244,#245,#114,.T.);
#302=EDGE_CURVE('',#245,#242,#211,.T.);
#303=EDGE_CURVE('',#246,#244,#212,.T.);
#304=EDGE_CURVE('',#246,#247,#115,.T.);
#305=EDGE_CURVE('',#247,#245,#213,.T.);
#306=EDGE_CURVE('',#248,#246,#214,.T.);
#307=EDGE_CURVE('',#248,#249,#116,.T.);
#308=EDGE_CURVE('',#249,#247,#215,.T.);
#309=EDGE_CURVE('',#250,#248,#216,.T.);
#310=EDGE_CURVE('',#250,#251,#117,.T.);
#311=EDGE_CURVE('',#251,#249,#217,.T.);
#312=EDGE_CURVE('',#252,#250,#218,.T.);
#313=EDGE_CURVE('',#252,#253,#118,.T.);
#314=EDGE_CURVE('',#253,#251,#219,.T.);
#315=EDGE_CURVE('',#254,#252,#220,.T.);
#316=EDGE_CURVE('',#254,#255,#119,.T.);
#317=EDGE_CURVE('',#255,#253,#221,.T.);
#318=EDGE_CURVE('',#256,#254,#222,.T.);
#319=EDGE_CURVE('',#256,#257,#120,.T.);
#320=EDGE_CURVE('',#257,#255,#223,.T.);
#321=EDGE_CURVE('',#258,#256,#121,.T.);
#322=EDGE_CURVE('',#258,#259,#122,.T.);
#323=EDGE_CURVE('',#259,#257,#123,.T.);
#324=EDGE_CURVE('',#260,#258,#124,.T.);
#325=EDGE_CURVE('',#260,#261,#125,.T.);
#326=EDGE_CURVE('',#261,#259,#126,.T.);
#327=EDGE_CURVE('',#241,#260,#127,.T.);
#328=EDGE_CURVE('',#243,#261,#128,.T.);
#329=EDGE_CURVE('',#262,#263,#129,.T.);
#330=EDGE_CURVE('',#262,#264,#130,.T.);
#331=EDGE_CURVE('',#264,#265,#131,.T.);
#332=EDGE_CURVE('',#263,#265,#132,.T.);
#333=EDGE_CURVE('',#266,#262,#224,.T.);
#334=EDGE_CURVE('',#266,#267,#133,.T.);
#335=EDGE_CURVE('',#267,#264,#225,.T.);
#336=EDGE_CURVE('',#268,#266,#226,.T.);
#337=EDGE_CURVE('',#268,#269,#134,.T.);
#338=EDGE_CURVE('',#269,#267,#227,.T.);
#339=EDGE_CURVE('',#270,#268,#228,.T.);
#340=EDGE_CURVE('',#270,#271,#135,.T.);
#341=EDGE_CURVE('',#271,#269,#229,.T.);
#342=EDGE_CURVE('',#272,#270,#230,.T.);
#343=EDGE_CURVE('',#272,#273,#136,.T.);
#344=EDGE_CURVE('',#273,#271,#231,.T.);
#345=EDGE_CURVE('',#274,#272,#232,.T.);
#346=EDGE_CURVE('',#274,#275,#137,.T.);
#347=EDGE_CURVE('',#275,#273,#233,.T.);
#348=EDGE_CURVE('',#276,#274,#234,.T.);
#349=EDGE_CURVE('',#276,#277,#138,.T.);
#350=EDGE_CURVE('',#277,#275,#235,.T.);
#351=EDGE_CURVE('',#278,#276,#236,.T.);
#352=EDGE_CURVE('',#278,#279,#139,.T.);
#353=EDGE_CURVE('',#279,#277,#237,.T.);
#354=EDGE_CURVE('',#280,#278,#238,.T.);
#355=EDGE_CURVE('',#280,#281,#140,.T.);
#356=EDGE_CURVE('',#281,#279,#239,.T.);
#357=EDGE_CURVE('',#282,#280,#141,.T.);
#358=EDGE_CURVE('',#282,#283,#142,.T.);
#359=EDGE_CURVE('',#283,#281,#143,.T.);
#360=EDGE_CURVE('',#263,#282,#144,.T.);
#361=EDGE_CURVE('',#265,#283,#145,.T.);
#362=EDGE_CURVE('',#284,#285,#146,.T.);
#363=EDGE_CURVE('',#286,#284,#147,.T.);
#364=EDGE_CURVE('',#286,#287,#148,.T.);
#365=EDGE_CURVE('',#285,#287,#149,.T.);
#366=EDGE_CURVE('',#288,#288,#17,.T.);
#367=EDGE_CURVE('',#289,#290,#150,.T.);
#368=EDGE_CURVE('',#290,#291,#151,.T.);
#369=EDGE_CURVE('',#291,#292,#152,.T.);
#370=EDGE_CURVE('',#292,#289,#153,.T.);
#371=EDGE_CURVE('',#293,#293,#18,.T.);
#372=EDGE_CURVE('',#284,#289,#154,.T.);
#373=EDGE_CURVE('',#286,#292,#155,.T.);
#374=EDGE_CURVE('',#287,#291,#156,.T.);
#375=EDGE_CURVE('',#285,#290,#157,.T.);
#376=EDGE_CURVE('',#294,#294,#19,.T.);
#377=EDGE_CURVE('',#294,#293,#158,.T.);
#378=EDGE_CURVE('',#295,#295,#20,.T.);
#379=EDGE_CURVE('',#295,#288,#159,.T.);
#380=ORIENTED_EDGE('',*,*,#296,.F.);
#381=ORIENTED_EDGE('',*,*,#297,.T.);
#382=ORIENTED_EDGE('',*,*,#298,.T.);
#383=ORIENTED_EDGE('',*,*,#299,.F.);
#384=ORIENTED_EDGE('',*,*,#300,.F.);
#385=ORIENTED_EDGE('',*,*,#301,.T.);
#386=ORIENTED_EDGE('',*,*,#302,.T.);
#387=ORIENTED_EDGE('',*,*,#297,.F.);
#388=ORIENTED_EDGE('',*,*,#303,.F.);
#389=ORIENTED_EDGE('',*,*,#304,.T.);
#390=ORIENTED_EDGE('',*,*,#305,.T.);
#391=ORIENTED_EDGE('',*,*,#301,.F.);
#392=ORIENTED_EDGE('',*,*,#306,.F.);
#393=ORIENTED_EDGE('',*,*,#307,.T.);
#394=ORIENTED_EDGE('',*,*,#308,.T.);
#395=ORIENTED_EDGE('',*,*,#304,.F.);
#396=ORIENTED_EDGE('',*,*,#309,.F.);
#397=ORIENTED_EDGE('',*,*,#310,.T.);
#398=ORIENTED_EDGE('',*,*,#311,.T.);
#399=ORIENTED_EDGE('',*,*,#307,.F.);
#400=ORIENTED_EDGE('',*,*,#312,.F.);
#401=ORIENTED_EDGE('',*,*,#313,.T.);
#402=ORIENTED_EDGE('',*,*,#314,.T.);
#403=ORIENTED_EDGE('',*,*,#310,.F.);
#404=ORIENTED_EDGE('',*,*,#315,.F.);
#405=ORIENTED_EDGE('',*,*,#316,.T.);
#406=ORIENTED_EDGE('',*,*,#317,.T.);
#407=ORIENTED_EDGE('',*,*,#313,.F.);
#408=ORIENTED_EDGE('',*,*,#318,.F.);
#409=ORIENTED_EDGE('',*,*,#319,.T.);
#410=ORIENTED_EDGE('',*,*,#320,.T.);
#411=ORIENTED_EDGE('',*,*,#316,.F.);
#412=ORIENTED_EDGE('',*,*,#321,.F.);
#413=ORIENTED_EDGE('',*,*,#322,.T.);
#414=ORIENTED_EDGE('',*,*,#323,.T.);
#415=ORIENTED_EDGE('',*,*,#319,.F.);
#416=ORIENTED_EDGE('',*,*,#324,.F.);
#417=ORIENTED_EDGE('',*,*,#325,.T.);
#418=ORIENTED_EDGE('',*,*,#326,.T.);
#419=ORIENTED_EDGE('',*,*,#322,.F.);
#420=ORIENTED_EDGE('',*,*,#327,.F.);
#421=ORIENTED_EDGE('',*,*,#299,.T.);
#422=ORIENTED_EDGE('',*,*,#328,.T.);
#423=ORIENTED_EDGE('',*,*,#325,.F.);
#424=ORIENTED_EDGE('',*,*,#329,.F.);
#425=ORIENTED_EDGE('',*,*,#330,.T.);
#426=ORIENTED_EDGE('',*,*,#331,.T.);
#427=ORIENTED_EDGE('',*,*,#332,.F.);
#428=ORIENTED_EDGE('',*,*,#333,.F.);
#429=ORIENTED_EDGE('',*,*,#334,.T.);
#430=ORIENTED_EDGE('',*,*,#335,.T.);
#431=ORIENTED_EDGE('',*,*,#330,.F.);
#432=ORIENTED_EDGE('',*,*,#336,.F.);
#433=ORIENTED_EDGE('',*,*,#337,.T.);
#434=ORIENTED_EDGE('',*,*,#338,.T.);
#435=ORIENTED_EDGE('',*,*,#334,.F.);
#436=ORIENTED_EDGE('',*,*,#339,.F.);
#437=ORIENTED_EDGE('',*,*,#340,.T.);
#438=ORIENTED_EDGE('',*,*,#341,.T.);
#439=ORIENTED_EDGE('',*,*,#337,.F.);
#440=ORIENTED_EDGE('',*,*,#342,.F.);
#441=ORIENTED_EDGE('',*,*,#343,.T.);
#442=ORIENTED_EDGE('',*,*,#344,.T.);
#443=ORIENTED_EDGE('',*,*,#340,.F.);
#444=ORIENTED_EDGE('',*,*,#345,.F.);
#445=ORIENTED_EDGE('',*,*,#346,.T.);
#446=ORIENTED_EDGE('',*,*,#347,.T.);
#447=ORIENTED_EDGE('',*,*,#343,.F.);
#448=ORIENTED_EDGE('',*,*,#348,.F.);
#449=ORIENTED_EDGE('',*,*,#349,.T.);
#450=ORIENTED_EDGE('',*,*,#350,.T.);
#451=ORIENTED_EDGE('',*,*,#346,.F.);
#452=ORIENTED_EDGE('',*,*,#351,.F.);
#453=ORIENTED_EDGE('',*,*,#352,.T.);
#454=ORIENTED_EDGE('',*,*,#353,.T.);
#455=ORIENTED_EDGE('',*,*,#349,.F.);
#456=ORIENTED_EDGE('',*,*,#354,.F.);
#457=ORIENTED_EDGE('',*,*,#355,.T.);
#458=ORIENTED_EDGE('',*,*,#356,.T.);
#459=ORIENTED_EDGE('',*,*,#352,.F.);
#460=ORIENTED_EDGE('',*,*,#357,.F.);
#461=ORIENTED_EDGE('',*,*,#358,.T.);
#462=ORIENTED_EDGE('',*,*,#359,.T.);
#463=ORIENTED_EDGE('',*,*,#355,.F.);
#464=ORIENTED_EDGE('',*,*,#360,.F.);
#465=ORIENTED_EDGE('',*,*,#332,.T.);
#466=ORIENTED_EDGE('',*,*,#361,.T.);
#467=ORIENTED_EDGE('',*,*,#358,.F.);
#468=ORIENTED_EDGE('',*,*,#361,.F.);
#469=ORIENTED_EDGE('',*,*,#331,.F.);
#470=ORIENTED_EDGE('',*,*,#335,.F.);
#471=ORIENTED_EDGE('',*,*,#338,.F.);
#472=ORIENTED_EDGE('',*,*,#341,.F.);
#473=ORIENTED_EDGE('',*,*,#344,.F.);
#474=ORIENTED_EDGE('',*,*,#347,.F.);
#475=ORIENTED_EDGE('',*,*,#350,.F.);
#476=ORIENTED_EDGE('',*,*,#353,.F.);
#477=ORIENTED_EDGE('',*,*,#356,.F.);
#478=ORIENTED_EDGE('',*,*,#359,.F.);
#479=ORIENTED_EDGE('',*,*,#328,.F.);
#480=ORIENTED_EDGE('',*,*,#298,.F.);
#481=ORIENTED_EDGE('',*,*,#302,.F.);
#482=ORIENTED_EDGE('',*,*,#305,.F.);
#483=ORIENTED_EDGE('',*,*,#308,.F.);
#484=ORIENTED_EDGE('',*,*,#311,.F.);
#485=ORIENTED_EDGE('',*,*,#314,.F.);
#486=ORIENTED_EDGE('',*,*,#317,.F.);
#487=ORIENTED_EDGE('',*,*,#320,.F.);
#488=ORIENTED_EDGE('',*,*,#323,.F.);
#489=ORIENTED_EDGE('',*,*,#326,.F.);
#490=ORIENTED_EDGE('',*,*,#362,.F.);
#491=ORIENTED_EDGE('',*,*,#363,.F.);
#492=ORIENTED_EDGE('',*,*,#364,.T.);
#493=ORIENTED_EDGE('',*,*,#365,.F.);
#494=ORIENTED_EDGE('',*,*,#366,.F.);
#495=ORIENTED_EDGE('',*,*,#329,.T.);
#496=ORIENTED_EDGE('',*,*,#360,.T.);
#497=ORIENTED_EDGE('',*,*,#357,.T.);
#498=ORIENTED_EDGE('',*,*,#354,.T.);
#499=ORIENTED_EDGE('',*,*,#351,.T.);
#500=ORIENTED_EDGE('',*,*,#348,.T.);
#501=ORIENTED_EDGE('',*,*,#345,.T.);
#502=ORIENTED_EDGE('',*,*,#342,.T.);
#503=ORIENTED_EDGE('',*,*,#339,.T.);
#504=ORIENTED_EDGE('',*,*,#336,.T.);
#505=ORIENTED_EDGE('',*,*,#333,.T.);
#506=ORIENTED_EDGE('',*,*,#367,.T.);
#507=ORIENTED_EDGE('',*,*,#368,.T.);
#508=ORIENTED_EDGE('',*,*,#369,.T.);
#509=ORIENTED_EDGE('',*,*,#370,.T.);
#510=ORIENTED_EDGE('',*,*,#371,.F.);
#511=ORIENTED_EDGE('',*,*,#363,.T.);
#512=ORIENTED_EDGE('',*,*,#372,.T.);
#513=ORIENTED_EDGE('',*,*,#370,.F.);
#514=ORIENTED_EDGE('',*,*,#373,.F.);
#515=ORIENTED_EDGE('',*,*,#365,.T.);
#516=ORIENTED_EDGE('',*,*,#374,.T.);
#517=ORIENTED_EDGE('',*,*,#368,.F.);
#518=ORIENTED_EDGE('',*,*,#375,.F.);
#519=ORIENTED_EDGE('',*,*,#376,.F.);
#520=ORIENTED_EDGE('',*,*,#377,.T.);
#521=ORIENTED_EDGE('',*,*,#371,.T.);
#522=ORIENTED_EDGE('',*,*,#377,.F.);
#523=ORIENTED_EDGE('',*,*,#376,.T.);
#524=ORIENTED_EDGE('',*,*,#378,.T.);
#525=ORIENTED_EDGE('',*,*,#378,.F.);
#526=ORIENTED_EDGE('',*,*,#379,.T.);
#527=ORIENTED_EDGE('',*,*,#366,.T.);
#528=ORIENTED_EDGE('',*,*,#379,.F.);
#529=ORIENTED_EDGE('',*,*,#364,.F.);
#530=ORIENTED_EDGE('',*,*,#373,.T.);
#531=ORIENTED_EDGE('',*,*,#369,.F.);
#532=ORIENTED_EDGE('',*,*,#374,.F.);
#533=ORIENTED_EDGE('',*,*,#362,.T.);
#534=ORIENTED_EDGE('',*,*,#375,.T.);
#535=ORIENTED_EDGE('',*,*,#367,.F.);
#536=ORIENTED_EDGE('',*,*,#372,.F.);
#537=ORIENTED_EDGE('',*,*,#296,.T.);
#538=ORIENTED_EDGE('',*,*,#327,.T.);
#539=ORIENTED_EDGE('',*,*,#324,.T.);
#540=ORIENTED_EDGE('',*,*,#321,.T.);
#541=ORIENTED_EDGE('',*,*,#318,.T.);
#542=ORIENTED_EDGE('',*,*,#315,.T.);
#543=ORIENTED_EDGE('',*,*,#312,.T.);
#544=ORIENTED_EDGE('',*,*,#309,.T.);
#545=ORIENTED_EDGE('',*,*,#306,.T.);
#546=ORIENTED_EDGE('',*,*,#303,.T.);
#547=ORIENTED_EDGE('',*,*,#300,.T.);
#548=B_SPLINE_SURFACE_WITH_KNOTS('',3,1,((#725,#726),(#727,#728),(#729,
#730),(#731,#732),(#733,#734)),.UNSPECIFIED.,.F.,.F.,.F.,(4,1,4),(2,2),
(0.,0.0314968673146105,0.0830966198378268),(0.,0.05),.UNSPECIFIED.);
#549=B_SPLINE_SURFACE_WITH_KNOTS('',3,1,((#751,#752),(#753,#754),(#755,
#756),(#757,#758),(#759,#760)),.UNSPECIFIED.,.F.,.F.,.F.,(4,1,4),(2,2),
(0.,0.0254752756108823,0.0528181890009132),(0.,0.05),.UNSPECIFIED.);
#550=B_SPLINE_SURFACE_WITH_KNOTS('',3,1,((#774,#775),(#776,#777),(#778,
#779),(#780,#781),(#782,#783)),.UNSPECIFIED.,.F.,.F.,.F.,(4,1,4),(2,2),
(0.,0.0302318530043779,0.0567055443590021),(0.,0.05),.UNSPECIFIED.);
#551=B_SPLINE_SURFACE_WITH_KNOTS('',3,1,((#797,#798),(#799,#800),(#801,
#802),(#803,#804),(#805,#806)),.UNSPECIFIED.,.F.,.F.,.F.,(4,1,4),(2,2),
(0.,0.051308688726028,0.0898531571622681),(0.,0.05),.UNSPECIFIED.);
#552=B_SPLINE_SURFACE_WITH_KNOTS('',3,1,((#820,#821),(#822,#823),(#824,
#825),(#826,#827),(#828,#829)),.UNSPECIFIED.,.F.,.F.,.F.,(4,1,4),(2,2),
(0.,0.0404263606311167,0.0923737919042558),(0.,0.05),.UNSPECIFIED.);
#553=B_SPLINE_SURFACE_WITH_KNOTS('',3,1,((#843,#844),(#845,#846),(#847,
#848),(#849,#850),(#851,#852)),.UNSPECIFIED.,.F.,.F.,.F.,(4,1,4),(2,2),
(0.,0.0243438027463447,0.0554966427924077),(0.,0.05),.UNSPECIFIED.);
#554=B_SPLINE_SURFACE_WITH_KNOTS('',3,1,((#866,#867),(#868,#869),(#870,
#871),(#872,#873),(#874,#875)),.UNSPECIFIED.,.F.,.F.,.F.,(4,1,4),(2,2),
(0.,0.0239415909733165,0.0461139033450193),(0.,0.05),.UNSPECIFIED.);
#555=B_SPLINE_SURFACE_WITH_KNOTS('',3,1,((#889,#890),(#891,#892),(#893,
#894),(#895,#896),(#897,#898)),.UNSPECIFIED.,.F.,.F.,.F.,(4,1,4),(2,2),
(0.,0.0364281813490658,0.0613289244588568),(0.,0.05),.UNSPECIFIED.);
#556=B_SPLINE_SURFACE_WITH_KNOTS('',3,1,((#936,#937),(#938,#939),(#940,
#941),(#942,#943),(#944,#945)),.UNSPECIFIED.,.F.,.F.,.F.,(4,1,4),(2,2),
(0.,0.0398487929540896,0.0902251611275141),(0.,0.05),.UNSPECIFIED.);
#557=B_SPLINE_SURFACE_WITH_KNOTS('',3,1,((#959,#960),(#961,#962),(#963,
#964),(#965,#966),(#967,#968)),.UNSPECIFIED.,.F.,.F.,.F.,(4,1,4),(2,2),
(0.,0.0383539204376296,0.0819398526803833),(0.,0.05),.UNSPECIFIED.);
#558=B_SPLINE_SURFACE_WITH_KNOTS('',3,1,((#982,#983),(#984,#985),(#986,
#987),(#988,#989),(#990,#991)),.UNSPECIFIED.,.F.,.F.,.F.,(4,1,4),(2,2),
(0.,0.0543653844763019,0.104022839271044),(0.,0.05),.UNSPECIFIED.);
#559=B_SPLINE_SURFACE_WITH_KNOTS('',3,1,((#1005,#1006),(#1007,#1008),(#1009,
#1010),(#1011,#1012),(#1013,#1014)),.UNSPECIFIED.,.F.,.F.,.F.,(4,1,4),(2,
2),(0.,0.057597253964292,0.107875390839724),(0.,0.05),.UNSPECIFIED.);
#560=B_SPLINE_SURFACE_WITH_KNOTS('',3,1,((#1028,#1029),(#1030,#1031),(#1032,
#1033),(#1034,#1035),(#1036,#1037)),.UNSPECIFIED.,.F.,.F.,.F.,(4,1,4),(2,
2),(0.,0.0548951901701952,0.119698852468201),(0.,0.05),.UNSPECIFIED.);
#561=B_SPLINE_SURFACE_WITH_KNOTS('',3,1,((#1051,#1052),(#1053,#1054),(#1055,
#1056),(#1057,#1058),(#1059,#1060)),.UNSPECIFIED.,.F.,.F.,.F.,(4,1,4),(2,
2),(0.,0.0460095238149198,0.0945840871411129),(0.,0.05),.UNSPECIFIED.);
#562=B_SPLINE_SURFACE_WITH_KNOTS('',3,1,((#1074,#1075),(#1076,#1077),(#1078,
#1079),(#1080,#1081),(#1082,#1083)),.UNSPECIFIED.,.F.,.F.,.F.,(4,1,4),(2,
2),(0.,0.0446294003223435,0.0891205027175269),(0.,0.05),.UNSPECIFIED.);
#563=B_SPLINE_SURFACE_WITH_KNOTS('',3,1,((#1097,#1098),(#1099,#1100),(#1101,
#1102),(#1103,#1104),(#1105,#1106)),.UNSPECIFIED.,.F.,.F.,.F.,(4,1,4),(2,
2),(0.,0.0550483909987185,0.0958423707524926),(0.,0.05),.UNSPECIFIED.);
#564=ADVANCED_FACE('',(#41),#548,.F.);
#565=ADVANCED_FACE('',(#42),#549,.F.);
#566=ADVANCED_FACE('',(#43),#550,.F.);
#567=ADVANCED_FACE('',(#44),#551,.F.);
#568=ADVANCED_FACE('',(#45),#552,.F.);
#569=ADVANCED_FACE('',(#46),#553,.F.);
#570=ADVANCED_FACE('',(#47),#554,.F.);
#571=ADVANCED_FACE('',(#48),#555,.F.);
#572=ADVANCED_FACE('',(#49),#26,.F.);
#573=ADVANCED_FACE('',(#50),#27,.F.);
#574=ADVANCED_FACE('',(#51),#28,.F.);
#575=ADVANCED_FACE('',(#52),#29,.F.);
#576=ADVANCED_FACE('',(#53),#556,.F.);
#577=ADVANCED_FACE('',(#54),#557,.F.);
#578=ADVANCED_FACE('',(#55),#558,.F.);
#579=ADVANCED_FACE('',(#56),#559,.F.);
#580=ADVANCED_FACE('',(#57),#560,.F.);
#581=ADVANCED_FACE('',(#58),#561,.F.);
#582=ADVANCED_FACE('',(#59),#562,.F.);
#583=ADVANCED_FACE('',(#60),#563,.F.);
#584=ADVANCED_FACE('',(#61),#30,.F.);
#585=ADVANCED_FACE('',(#62),#31,.F.);
#586=ADVANCED_FACE('',(#63,#21),#32,.T.);
#587=ADVANCED_FACE('',(#64,#22,#23),#33,.F.);
#588=ADVANCED_FACE('',(#65,#24),#34,.T.);
#589=ADVANCED_FACE('',(#66),#35,.T.);
#590=ADVANCED_FACE('',(#67),#36,.T.);
#591=ADVANCED_FACE('',(#68),#15,.T.);
#592=ADVANCED_FACE('',(#69,#25),#37,.T.);
#593=ADVANCED_FACE('',(#70),#16,.F.);
#594=ADVANCED_FACE('',(#71),#38,.T.);
#595=ADVANCED_FACE('',(#72),#39,.T.);
#596=ADVANCED_FACE('',(#73),#40,.F.);
#597=CLOSED_SHELL('',(#564,#565,#566,#567,#568,#569,#570,#571,#572,#573,
#574,#575,#576,#577,#578,#579,#580,#581,#582,#583,#584,#585,#586,#587,#588,
#589,#590,#591,#592,#593,#594,#595,#596));
#598=DERIVED_UNIT_ELEMENT(#600,1.);
#599=DERIVED_UNIT_ELEMENT(#1175,-3.);
#600=(
MASS_UNIT()
NAMED_UNIT(*)
SI_UNIT(.KILO.,.GRAM.)
);
#601=DERIVED_UNIT((#598,#599));
#602=MEASURE_REPRESENTATION_ITEM('density measure',
POSITIVE_RATIO_MEASURE(7850.),#601);
#603=PROPERTY_DEFINITION_REPRESENTATION(#608,#605);
#604=PROPERTY_DEFINITION_REPRESENTATION(#609,#606);
#605=REPRESENTATION('material name',(#607),#1172);
#606=REPRESENTATION('density',(#602),#1172);
#607=DESCRIPTIVE_REPRESENTATION_ITEM('Steel','Steel');
#608=PROPERTY_DEFINITION('material property','material name',#1182);
#609=PROPERTY_DEFINITION('material property','density of part',#1182);
#610=AXIS2_PLACEMENT_3D('',#724,#632,#633);
#611=AXIS2_PLACEMENT_3D('',#912,#643,#644);
#612=AXIS2_PLACEMENT_3D('',#918,#648,#649);
#613=AXIS2_PLACEMENT_3D('',#924,#653,#654);
#614=AXIS2_PLACEMENT_3D('',#927,#657,#658);
#615=AXIS2_PLACEMENT_3D('',#1120,#671,#672);
#616=AXIS2_PLACEMENT_3D('',#1126,#676,#677);
#617=AXIS2_PLACEMENT_3D('',#1129,#680,#681);
#618=AXIS2_PLACEMENT_3D('',#1130,#682,#683);
#619=AXIS2_PLACEMENT_3D('',#1140,#688,#689);
#620=AXIS2_PLACEMENT_3D('',#1141,#690,#691);
#621=AXIS2_PLACEMENT_3D('',#1151,#696,#697);
#622=AXIS2_PLACEMENT_3D('',#1152,#698,#699);
#623=AXIS2_PLACEMENT_3D('',#1155,#702,#703);
#624=AXIS2_PLACEMENT_3D('',#1158,#706,#707);
#625=AXIS2_PLACEMENT_3D('',#1160,#708,#709);
#626=AXIS2_PLACEMENT_3D('',#1162,#711,#712);
#627=AXIS2_PLACEMENT_3D('',#1164,#713,#714);
#628=AXIS2_PLACEMENT_3D('',#1165,#715,#716);
#629=AXIS2_PLACEMENT_3D('',#1167,#718,#719);
#630=AXIS2_PLACEMENT_3D('',#1168,#720,#721);
#631=AXIS2_PLACEMENT_3D('',#1169,#722,#723);
#632=DIRECTION('axis',(0.,0.,1.));
#633=DIRECTION('refdir',(1.,0.,0.));
#634=DIRECTION('',(0.,-3.44509284839766E-16,1.));
#635=DIRECTION('',(0.,-3.44509284839766E-16,1.));
#636=DIRECTION('',(0.,-3.44509284839766E-16,1.));
#637=DIRECTION('',(0.,-3.44509284839766E-16,1.));
#638=DIRECTION('',(0.,-3.44509284839766E-16,1.));
#639=DIRECTION('',(0.,-3.44509284839766E-16,1.));
#640=DIRECTION('',(0.,-3.44509284839766E-16,1.));
#641=DIRECTION('',(0.,-3.44509284839766E-16,1.));
#642=DIRECTION('',(0.,-3.44509284839766E-16,1.));
#643=DIRECTION('center_axis',(0.,1.,3.44509284839766E-16));
#644=DIRECTION('ref_axis',(-1.,0.,0.));
#645=DIRECTION('',(-1.,0.,0.));
#646=DIRECTION('',(0.,-3.44509284839766E-16,1.));
#647=DIRECTION('',(-1.,0.,0.));
#648=DIRECTION('center_axis',(-1.,0.,0.));
#649=DIRECTION('ref_axis',(0.,-1.,-3.44509284839766E-16));
#650=DIRECTION('',(0.,-1.,-3.44509284839766E-16));
#651=DIRECTION('',(0.,-3.44509284839766E-16,1.));
#652=DIRECTION('',(0.,-1.,-3.44509284839766E-16));
#653=DIRECTION('center_axis',(0.,-1.,-3.44509284839766E-16));
#654=DIRECTION('ref_axis',(1.,0.,0.));
#655=DIRECTION('',(1.,0.,0.));
#656=DIRECTION('',(1.,0.,0.));
#657=DIRECTION('center_axis',(0.,-1.,-3.44509284839766E-16));
#658=DIRECTION('ref_axis',(1.,0.,0.));
#659=DIRECTION('',(1.,0.,0.));
#660=DIRECTION('',(0.,-3.44509284839766E-16,1.));
#661=DIRECTION('',(1.,0.,0.));
#662=DIRECTION('',(0.,-3.44509284839766E-16,1.));
#663=DIRECTION('',(0.,-3.44509284839766E-16,1.));
#664=DIRECTION('',(0.,-3.44509284839766E-16,1.));
#665=DIRECTION('',(0.,-3.44509284839766E-16,1.));
#666=DIRECTION('',(0.,-3.44509284839766E-16,1.));
#667=DIRECTION('',(0.,-3.44509284839766E-16,1.));
#668=DIRECTION('',(0.,-3.44509284839766E-16,1.));
#669=DIRECTION('',(0.,-3.44509284839766E-16,1.));
#670=DIRECTION('',(0.,-3.44509284839766E-16,1.));
#671=DIRECTION('center_axis',(0.,1.,3.44509284839766E-16));
#672=DIRECTION('ref_axis',(-1.,0.,0.));
#673=DIRECTION('',(-1.,0.,0.));
#674=DIRECTION('',(0.,-3.44509284839766E-16,1.));
#675=DIRECTION('',(-1.,0.,0.));
#676=DIRECTION('center_axis',(1.,0.,0.));
#677=DIRECTION('ref_axis',(0.,1.,3.44509284839766E-16));
#678=DIRECTION('',(0.,1.,3.44509284839766E-16));
#679=DIRECTION('',(0.,1.,3.44509284839766E-16));
#680=DIRECTION('center_axis',(0.,3.44509284839766E-16,-1.));
#681=DIRECTION('ref_axis',(-1.,0.,0.));
#682=DIRECTION('center_axis',(0.,-3.44509284839766E-16,1.));
#683=DIRECTION('ref_axis',(1.,0.,0.));
#684=DIRECTION('',(0.,1.,3.44509284839766E-16));
#685=DIRECTION('',(1.,0.,0.));
#686=DIRECTION('',(0.,1.,3.44509284839766E-16));
#687=DIRECTION('',(-1.,0.,0.));
#688=DIRECTION('center_axis',(0.,3.44509284839766E-16,-1.));
#689=DIRECTION('ref_axis',(1.,0.,0.));
#690=DIRECTION('center_axis',(0.,-3.44509284839766E-16,1.));
#691=DIRECTION('ref_axis',(1.,0.,0.));
#692=DIRECTION('',(0.,1.,3.44509284839766E-16));
#693=DIRECTION('',(-1.,0.,0.));
#694=DIRECTION('',(0.,-1.,-3.44509284839766E-16));
#695=DIRECTION('',(1.,0.,0.));
#696=DIRECTION('center_axis',(0.,-3.44509284839766E-16,1.));
#697=DIRECTION('ref_axis',(1.,0.,0.));
#698=DIRECTION('center_axis',(0.,-1.,-3.44509284839766E-16));
#699=DIRECTION('ref_axis',(-1.,0.,0.));
#700=DIRECTION('',(0.,-3.44509284839766E-16,1.));
#701=DIRECTION('',(0.,-3.44509284839766E-16,1.));
#702=DIRECTION('center_axis',(0.,1.,3.44509284839766E-16));
#703=DIRECTION('ref_axis',(1.,0.,0.));
#704=DIRECTION('',(0.,-3.44509284839766E-16,1.));
#705=DIRECTION('',(0.,-3.44509284839766E-16,1.));
#706=DIRECTION('center_axis',(0.,-3.44509284839766E-16,1.));
#707=DIRECTION('ref_axis',(1.,0.,0.));
#708=DIRECTION('center_axis',(0.,-3.44509284839766E-16,1.));
#709=DIRECTION('ref_axis',(1.,0.,0.));
#710=DIRECTION('',(0.,3.44509284839766E-16,-1.));
#711=DIRECTION('center_axis',(0.,-3.44509284839766E-16,1.));
#712=DIRECTION('ref_axis',(1.,0.,0.));
#713=DIRECTION('center_axis',(0.,3.44509284839766E-16,-1.));
#714=DIRECTION('ref_axis',(1.,0.,0.));
#715=DIRECTION('center_axis',(0.,-3.44509284839766E-16,1.));
#716=DIRECTION('ref_axis',(1.,0.,0.));
#717=DIRECTION('',(0.,3.44509284839766E-16,-1.));
#718=DIRECTION('center_axis',(-1.,0.,0.));
#719=DIRECTION('ref_axis',(0.,-1.,-3.44509284839766E-16));
#720=DIRECTION('center_axis',(1.,0.,0.));
#721=DIRECTION('ref_axis',(0.,1.,3.44509284839766E-16));
#722=DIRECTION('center_axis',(0.,-3.44509284839766E-16,1.));
#723=DIRECTION('ref_axis',(1.,0.,0.));
#724=CARTESIAN_POINT('',(0.,0.,0.));
#725=CARTESIAN_POINT('Ctrl Pts',(-6.09195021093244,-0.513587909638891,-0.0999997764825866));
#726=CARTESIAN_POINT('Ctrl Pts',(-6.09195021093244,-0.513587909638891,0.400000223517414));
#727=CARTESIAN_POINT('Ctrl Pts',(-5.98776519241716,-0.499848671529195,-0.0999997764825866));
#728=CARTESIAN_POINT('Ctrl Pts',(-5.98776519241716,-0.499848671529195,0.400000223517414));
#729=CARTESIAN_POINT('Ctrl Pts',(-5.71289903541541,-0.463601122379025,-0.0999997764825866));
#730=CARTESIAN_POINT('Ctrl Pts',(-5.71289903541541,-0.463601122379025,0.400000223517414));
#731=CARTESIAN_POINT('Ctrl Pts',(-5.43544976413151,-0.464981664218249,-0.0999997764825866));
#732=CARTESIAN_POINT('Ctrl Pts',(-5.43544976413151,-0.464981664218249,0.400000223517414));
#733=CARTESIAN_POINT('Ctrl Pts',(-5.2631646126544,-0.465838926732549,-0.0999997764825866));
#734=CARTESIAN_POINT('Ctrl Pts',(-5.2631646126544,-0.465838926732549,0.400000223517414));
#735=CARTESIAN_POINT('',(-6.09195021093244,-0.513587909638891,-0.0999997764825866));
#736=CARTESIAN_POINT('',(-5.2631646126544,-0.465838926732549,-0.0999997764825866));
#737=CARTESIAN_POINT('Ctrl Pts',(-6.09195021093244,-0.513587909638891,-0.0999997764825866));
#738=CARTESIAN_POINT('Ctrl Pts',(-5.98776519241716,-0.499848671529195,-0.0999997764825866));
#739=CARTESIAN_POINT('Ctrl Pts',(-5.71289903541541,-0.463601122379025,-0.0999997764825866));
#740=CARTESIAN_POINT('Ctrl Pts',(-5.43544976413151,-0.464981664218249,-0.0999997764825866));
#741=CARTESIAN_POINT('Ctrl Pts',(-5.2631646126544,-0.465838926732549,-0.0999997764825866));
#742=CARTESIAN_POINT('',(-6.09195021093244,-0.513587909638891,0.400000223517414));
#743=CARTESIAN_POINT('',(-6.09195021093244,-0.513587909638891,-0.0999997764825866));
#744=CARTESIAN_POINT('',(-5.2631646126544,-0.465838926732549,0.400000223517414));
#745=CARTESIAN_POINT('Ctrl Pts',(-6.09195021093244,-0.513587909638891,0.400000223517414));
#746=CARTESIAN_POINT('Ctrl Pts',(-5.98776519241716,-0.499848671529195,0.400000223517414));
#747=CARTESIAN_POINT('Ctrl Pts',(-5.71289903541541,-0.463601122379025,0.400000223517414));
#748=CARTESIAN_POINT('Ctrl Pts',(-5.43544976413151,-0.464981664218249,0.400000223517414));
#749=CARTESIAN_POINT('Ctrl Pts',(-5.2631646126544,-0.465838926732549,0.400000223517414));
#750=CARTESIAN_POINT('',(-5.2631646126544,-0.465838926732549,-0.0999997764825866));
#751=CARTESIAN_POINT('Ctrl Pts',(-6.55920830667371,-0.748921948373327,-0.0999997764825866));
#752=CARTESIAN_POINT('Ctrl Pts',(-6.55920830667371,-0.748921948373327,0.400000223517414));
#753=CARTESIAN_POINT('Ctrl Pts',(-6.49213130364435,-0.695304992080068,-0.0999997764825866));
#754=CARTESIAN_POINT('Ctrl Pts',(-6.49213130364435,-0.695304992080068,0.400000223517414));
#755=CARTESIAN_POINT('Ctrl Pts',(-6.35305976315409,-0.584140325035549,-0.0999997764825866));
#756=CARTESIAN_POINT('Ctrl Pts',(-6.35305976315409,-0.584140325035549,0.400000223517414));
#757=CARTESIAN_POINT('Ctrl Pts',(-6.18101455334738,-0.537653304526304,-0.0999997764825866));
#758=CARTESIAN_POINT('Ctrl Pts',(-6.18101455334738,-0.537653304526304,0.400000223517414));
#759=CARTESIAN_POINT('Ctrl Pts',(-6.09195021093244,-0.513587909638891,-0.0999997764825866));
#760=CARTESIAN_POINT('Ctrl Pts',(-6.09195021093244,-0.513587909638891,0.400000223517414));
#761=CARTESIAN_POINT('',(-6.55920830667371,-0.748921948373327,-0.0999997764825866));
#762=CARTESIAN_POINT('Ctrl Pts',(-6.55920830667371,-0.748921948373327,-0.0999997764825866));
#763=CARTESIAN_POINT('Ctrl Pts',(-6.49213130364435,-0.695304992080068,-0.0999997764825866));
#764=CARTESIAN_POINT('Ctrl Pts',(-6.35305976315409,-0.584140325035549,-0.0999997764825866));
#765=CARTESIAN_POINT('Ctrl Pts',(-6.18101455334738,-0.537653304526304,-0.0999997764825866));
#766=CARTESIAN_POINT('Ctrl Pts',(-6.09195021093244,-0.513587909638891,-0.0999997764825866));
#767=CARTESIAN_POINT('',(-6.55920830667371,-0.748921948373327,0.400000223517414));
#768=CARTESIAN_POINT('',(-6.55920830667371,-0.748921948373327,-0.0999997764825866));
#769=CARTESIAN_POINT('Ctrl Pts',(-6.55920830667371,-0.748921948373327,0.400000223517414));
#770=CARTESIAN_POINT('Ctrl Pts',(-6.49213130364435,-0.695304992080068,0.400000223517414));
#771=CARTESIAN_POINT('Ctrl Pts',(-6.35305976315409,-0.584140325035549,0.400000223517414));
#772=CARTESIAN_POINT('Ctrl Pts',(-6.18101455334738,-0.537653304526304,0.400000223517414));
#773=CARTESIAN_POINT('Ctrl Pts',(-6.09195021093244,-0.513587909638891,0.400000223517414));
#774=CARTESIAN_POINT('Ctrl Pts',(-6.84570220411176,-1.23323323100806,-0.0999997764825866));
#775=CARTESIAN_POINT('Ctrl Pts',(-6.84570220411176,-1.23323323100806,0.400000223517414));
#776=CARTESIAN_POINT('Ctrl Pts',(-6.81047617147168,-1.13770899551054,-0.0999997764825866));
#777=CARTESIAN_POINT('Ctrl Pts',(-6.81047617147168,-1.13770899551054,0.400000223517414));
#778=CARTESIAN_POINT('Ctrl Pts',(-6.74440310092006,-0.95853526862784,-0.0999997764825866));
#779=CARTESIAN_POINT('Ctrl Pts',(-6.74440310092006,-0.95853526862784,0.400000223517414));
#780=CARTESIAN_POINT('Ctrl Pts',(-6.61815077929081,-0.815636174545604,-0.0999997764825866));
#781=CARTESIAN_POINT('Ctrl Pts',(-6.61815077929081,-0.815636174545604,0.400000223517414));
#782=CARTESIAN_POINT('Ctrl Pts',(-6.55920830667371,-0.748921948373327,-0.0999997764825866));
#783=CARTESIAN_POINT('Ctrl Pts',(-6.55920830667371,-0.748921948373327,0.400000223517414));
#784=CARTESIAN_POINT('',(-6.84570220411176,-1.23323323100806,-0.0999997764825866));
#785=CARTESIAN_POINT('Ctrl Pts',(-6.84570220411176,-1.23323323100806,-0.0999997764825866));
#786=CARTESIAN_POINT('Ctrl Pts',(-6.81047617147168,-1.13770899551054,-0.0999997764825866));
#787=CARTESIAN_POINT('Ctrl Pts',(-6.74440310092006,-0.95853526862784,-0.0999997764825866));
#788=CARTESIAN_POINT('Ctrl Pts',(-6.61815077929081,-0.815636174545604,-0.0999997764825866));
#789=CARTESIAN_POINT('Ctrl Pts',(-6.55920830667371,-0.748921948373327,-0.0999997764825866));
#790=CARTESIAN_POINT('',(-6.84570220411176,-1.23323323100806,0.400000223517414));
#791=CARTESIAN_POINT('',(-6.84570220411176,-1.23323323100806,-0.0999997764825866));
#792=CARTESIAN_POINT('Ctrl Pts',(-6.84570220411176,-1.23323323100806,0.400000223517414));
#793=CARTESIAN_POINT('Ctrl Pts',(-6.81047617147168,-1.13770899551054,0.400000223517414));
#794=CARTESIAN_POINT('Ctrl Pts',(-6.74440310092006,-0.95853526862784,0.400000223517414));
#795=CARTESIAN_POINT('Ctrl Pts',(-6.61815077929081,-0.815636174545604,0.400000223517414));
#796=CARTESIAN_POINT('Ctrl Pts',(-6.55920830667371,-0.748921948373327,0.400000223517414));
#797=CARTESIAN_POINT('Ctrl Pts',(-6.94802132547254,-2.12341042131186,-0.0999997764825866));
#798=CARTESIAN_POINT('Ctrl Pts',(-6.94802132547254,-2.12341042131186,0.400000223517414));
#799=CARTESIAN_POINT('Ctrl Pts',(-6.94678213343293,-1.95167729484345,-0.0999997764825866));
#800=CARTESIAN_POINT('Ctrl Pts',(-6.94678213343293,-1.95167729484345,0.400000223517414));
#801=CARTESIAN_POINT('Ctrl Pts',(-6.94461202696845,-1.6509336199285,-0.0999997764825866));
#802=CARTESIAN_POINT('Ctrl Pts',(-6.94461202696845,-1.6509336199285,0.400000223517414));
#803=CARTESIAN_POINT('Ctrl Pts',(-6.87539454871208,-1.35862526517926,-0.0999997764825866));
#804=CARTESIAN_POINT('Ctrl Pts',(-6.87539454871208,-1.35862526517926,0.400000223517414));
#805=CARTESIAN_POINT('Ctrl Pts',(-6.84570220411176,-1.23323323100806,-0.0999997764825866));
#806=CARTESIAN_POINT('Ctrl Pts',(-6.84570220411176,-1.23323323100806,0.400000223517414));
#807=CARTESIAN_POINT('',(-6.94802132547254,-2.12341042131186,-0.0999997764825866));
#808=CARTESIAN_POINT('Ctrl Pts',(-6.94802132547254,-2.12341042131186,-0.0999997764825866));
#809=CARTESIAN_POINT('Ctrl Pts',(-6.94678213343293,-1.95167729484345,-0.0999997764825866));
#810=CARTESIAN_POINT('Ctrl Pts',(-6.94461202696845,-1.6509336199285,-0.0999997764825866));
#811=CARTESIAN_POINT('Ctrl Pts',(-6.87539454871208,-1.35862526517926,-0.0999997764825866));
#812=CARTESIAN_POINT('Ctrl Pts',(-6.84570220411176,-1.23323323100806,-0.0999997764825866));
#813=CARTESIAN_POINT('',(-6.94802132547254,-2.12341042131186,0.400000223517414));
#814=CARTESIAN_POINT('',(-6.94802132547254,-2.12341042131186,-0.0999997764825866));
#815=CARTESIAN_POINT('Ctrl Pts',(-6.94802132547254,-2.12341042131186,0.400000223517414));
#816=CARTESIAN_POINT('Ctrl Pts',(-6.94678213343293,-1.95167729484345,0.400000223517414));
#817=CARTESIAN_POINT('Ctrl Pts',(-6.94461202696845,-1.6509336199285,0.400000223517414));
#818=CARTESIAN_POINT('Ctrl Pts',(-6.87539454871208,-1.35862526517926,0.400000223517414));
#819=CARTESIAN_POINT('Ctrl Pts',(-6.84570220411176,-1.23323323100806,0.400000223517414));
#820=CARTESIAN_POINT('Ctrl Pts',(-6.84570220411176,-3.0391678389907,-0.0999997764825888));
#821=CARTESIAN_POINT('Ctrl Pts',(-6.84570220411176,-3.0391678389907,0.400000223517412));
#822=CARTESIAN_POINT('Ctrl Pts',(-6.8754272837818,-2.90736376846823,-0.0999997764825888));
#823=CARTESIAN_POINT('Ctrl Pts',(-6.8754272837818,-2.90736376846823,0.400000223517412));
#824=CARTESIAN_POINT('Ctrl Pts',(-6.94334876572849,-2.60619290884834,-0.0999997764825888));
#825=CARTESIAN_POINT('Ctrl Pts',(-6.94334876572849,-2.60619290884834,0.400000223517412));
#826=CARTESIAN_POINT('Ctrl Pts',(-6.94633946974246,-2.297184655891,-0.0999997764825866));
#827=CARTESIAN_POINT('Ctrl Pts',(-6.94633946974246,-2.297184655891,0.400000223517414));
#828=CARTESIAN_POINT('Ctrl Pts',(-6.94802132547254,-2.12341042131186,-0.0999997764825866));
#829=CARTESIAN_POINT('Ctrl Pts',(-6.94802132547254,-2.12341042131186,0.400000223517414));
#830=CARTESIAN_POINT('',(-6.84570220411176,-3.0391678389907,-0.0999997764825888));
#831=CARTESIAN_POINT('Ctrl Pts',(-6.84570220411176,-3.0391678389907,-0.0999997764825888));
#832=CARTESIAN_POINT('Ctrl Pts',(-6.8754272837818,-2.90736376846823,-0.0999997764825888));
#833=CARTESIAN_POINT('Ctrl Pts',(-6.94334876572849,-2.60619290884834,-0.0999997764825888));
#834=CARTESIAN_POINT('Ctrl Pts',(-6.94633946974246,-2.297184655891,-0.0999997764825866));
#835=CARTESIAN_POINT('Ctrl Pts',(-6.94802132547254,-2.12341042131186,-0.0999997764825866));
#836=CARTESIAN_POINT('',(-6.84570220411176,-3.0391678389907,0.400000223517412));
#837=CARTESIAN_POINT('',(-6.84570220411176,-3.0391678389907,-0.0999997764825888));
#838=CARTESIAN_POINT('Ctrl Pts',(-6.84570220411176,-3.0391678389907,0.400000223517412));
#839=CARTESIAN_POINT('Ctrl Pts',(-6.8754272837818,-2.90736376846823,0.400000223517412));
#840=CARTESIAN_POINT('Ctrl Pts',(-6.94334876572849,-2.60619290884834,0.400000223517412));
#841=CARTESIAN_POINT('Ctrl Pts',(-6.94633946974246,-2.297184655891,0.400000223517414));
#842=CARTESIAN_POINT('Ctrl Pts',(-6.94802132547254,-2.12341042131186,0.400000223517414));
#843=CARTESIAN_POINT('Ctrl Pts',(-6.58137765825147,-3.52177353471518,-0.0999997764825888));
#844=CARTESIAN_POINT('Ctrl Pts',(-6.58137765825147,-3.52177353471518,0.400000223517412));
#845=CARTESIAN_POINT('Ctrl Pts',(-6.63446090555138,-3.45942078007743,-0.0999997764825888));
#846=CARTESIAN_POINT('Ctrl Pts',(-6.63446090555138,-3.45942078007743,0.400000223517412));
#847=CARTESIAN_POINT('Ctrl Pts',(-6.75547494942778,-3.31727501150913,-0.0999997764825888));
#848=CARTESIAN_POINT('Ctrl Pts',(-6.75547494942778,-3.31727501150913,0.400000223517412));
#849=CARTESIAN_POINT('Ctrl Pts',(-6.81326305801547,-3.13915491308877,-0.0999997764825888));
#850=CARTESIAN_POINT('Ctrl Pts',(-6.81326305801547,-3.13915491308877,0.400000223517412));
#851=CARTESIAN_POINT('Ctrl Pts',(-6.84570220411176,-3.0391678389907,-0.0999997764825888));
#852=CARTESIAN_POINT('Ctrl Pts',(-6.84570220411176,-3.0391678389907,0.400000223517412));
#853=CARTESIAN_POINT('',(-6.58137765825147,-3.52177353471518,-0.0999997764825888));
#854=CARTESIAN_POINT('Ctrl Pts',(-6.58137765825147,-3.52177353471518,-0.0999997764825888));
#855=CARTESIAN_POINT('Ctrl Pts',(-6.63446090555138,-3.45942078007743,-0.0999997764825888));
#856=CARTESIAN_POINT('Ctrl Pts',(-6.75547494942778,-3.31727501150913,-0.0999997764825888));
#857=CARTESIAN_POINT('Ctrl Pts',(-6.81326305801547,-3.13915491308877,-0.0999997764825888));
#858=CARTESIAN_POINT('Ctrl Pts',(-6.84570220411176,-3.0391678389907,-0.0999997764825888));
#859=CARTESIAN_POINT('',(-6.58137765825147,-3.52177353471518,0.400000223517412));
#860=CARTESIAN_POINT('',(-6.58137765825147,-3.52177353471518,-0.0999997764825888));
#861=CARTESIAN_POINT('Ctrl Pts',(-6.58137765825147,-3.52177353471518,0.400000223517412));
#862=CARTESIAN_POINT('Ctrl Pts',(-6.63446090555138,-3.45942078007743,0.400000223517412));
#863=CARTESIAN_POINT('Ctrl Pts',(-6.75547494942778,-3.31727501150913,0.400000223517412));
#864=CARTESIAN_POINT('Ctrl Pts',(-6.81326305801547,-3.13915491308877,0.400000223517412));
#865=CARTESIAN_POINT('Ctrl Pts',(-6.84570220411176,-3.0391678389907,0.400000223517412));
#866=CARTESIAN_POINT('Ctrl Pts',(-6.17380586564893,-3.72982235521079,-0.0999997764825888));
#867=CARTESIAN_POINT('Ctrl Pts',(-6.17380586564893,-3.72982235521079,0.400000223517412));
#868=CARTESIAN_POINT('Ctrl Pts',(-6.25105033071155,-3.70680752743752,-0.0999997764825888));
#869=CARTESIAN_POINT('Ctrl Pts',(-6.25105033071155,-3.70680752743752,0.400000223517412));
#870=CARTESIAN_POINT('Ctrl Pts',(-6.39983091090797,-3.66247866288454,-0.0999997764825888));
#871=CARTESIAN_POINT('Ctrl Pts',(-6.39983091090797,-3.66247866288454,0.400000223517412));
#872=CARTESIAN_POINT('Ctrl Pts',(-6.52243001925995,-3.56746003266103,-0.0999997764825888));
#873=CARTESIAN_POINT('Ctrl Pts',(-6.52243001925995,-3.56746003266103,0.400000223517412));
#874=CARTESIAN_POINT('Ctrl Pts',(-6.58137765825147,-3.52177353471518,-0.0999997764825888));
#875=CARTESIAN_POINT('Ctrl Pts',(-6.58137765825147,-3.52177353471518,0.400000223517412));
#876=CARTESIAN_POINT('',(-6.17380586564893,-3.72982235521079,-0.0999997764825888));
#877=CARTESIAN_POINT('Ctrl Pts',(-6.17380586564893,-3.72982235521079,-0.0999997764825888));
#878=CARTESIAN_POINT('Ctrl Pts',(-6.25105033071155,-3.70680752743752,-0.0999997764825888));
#879=CARTESIAN_POINT('Ctrl Pts',(-6.39983091090797,-3.66247866288454,-0.0999997764825888));
#880=CARTESIAN_POINT('Ctrl Pts',(-6.52243001925995,-3.56746003266103,-0.0999997764825888));
#881=CARTESIAN_POINT('Ctrl Pts',(-6.58137765825147,-3.52177353471518,-0.0999997764825888));
#882=CARTESIAN_POINT('',(-6.17380586564893,-3.72982235521079,0.400000223517412));
#883=CARTESIAN_POINT('',(-6.17380586564893,-3.72982235521079,-0.0999997764825888));
#884=CARTESIAN_POINT('Ctrl Pts',(-6.17380586564893,-3.72982235521079,0.400000223517412));
#885=CARTESIAN_POINT('Ctrl Pts',(-6.25105033071155,-3.70680752743752,0.400000223517412));
#886=CARTESIAN_POINT('Ctrl Pts',(-6.39983091090797,-3.66247866288454,0.400000223517412));
#887=CARTESIAN_POINT('Ctrl Pts',(-6.52243001925995,-3.56746003266103,0.400000223517412));
#888=CARTESIAN_POINT('Ctrl Pts',(-6.58137765825147,-3.52177353471518,0.400000223517412));
#889=CARTESIAN_POINT('Ctrl Pts',(-5.56330097020025,-3.77757163614036,-0.0999997764825888));
#890=CARTESIAN_POINT('Ctrl Pts',(-5.56330097020025,-3.77757163614036,0.400000223517412));
#891=CARTESIAN_POINT('Ctrl Pts',(-5.68501857658978,-3.77759744311473,-0.0999997764825888));
#892=CARTESIAN_POINT('Ctrl Pts',(-5.68501857658978,-3.77759744311473,0.400000223517412));
#893=CARTESIAN_POINT('Ctrl Pts',(-5.88993712072588,-3.77764089063044,-0.0999997764825888));
#894=CARTESIAN_POINT('Ctrl Pts',(-5.88993712072588,-3.77764089063044,0.400000223517412));
#895=CARTESIAN_POINT('Ctrl Pts',(-6.09183242317219,-3.74363102570605,-0.0999997764825888));
#896=CARTESIAN_POINT('Ctrl Pts',(-6.09183242317219,-3.74363102570605,0.400000223517412));
#897=CARTESIAN_POINT('Ctrl Pts',(-6.17380586564893,-3.72982235521079,-0.0999997764825888));
#898=CARTESIAN_POINT('Ctrl Pts',(-6.17380586564893,-3.72982235521079,0.400000223517412));
#899=CARTESIAN_POINT('',(-5.56330097020025,-3.77757163614036,-0.0999997764825888));
#900=CARTESIAN_POINT('Ctrl Pts',(-5.56330097020025,-3.77757163614036,-0.0999997764825888));
#901=CARTESIAN_POINT('Ctrl Pts',(-5.68501857658978,-3.77759744311473,-0.0999997764825888));
#902=CARTESIAN_POINT('Ctrl Pts',(-5.88993712072588,-3.77764089063044,-0.0999997764825888));
#903=CARTESIAN_POINT('Ctrl Pts',(-6.09183242317219,-3.74363102570605,-0.0999997764825888));
#904=CARTESIAN_POINT('Ctrl Pts',(-6.17380586564893,-3.72982235521079,-0.0999997764825888));
#905=CARTESIAN_POINT('',(-5.56330097020025,-3.77757163614036,0.400000223517412));
#906=CARTESIAN_POINT('',(-5.56330097020025,-3.77757163614036,-0.0999997764825888));
#907=CARTESIAN_POINT('Ctrl Pts',(-5.56330097020025,-3.77757163614036,0.400000223517412));
#908=CARTESIAN_POINT('Ctrl Pts',(-5.68501857658978,-3.77759744311473,0.400000223517412));
#909=CARTESIAN_POINT('Ctrl Pts',(-5.88993712072588,-3.77764089063044,0.400000223517412));
#910=CARTESIAN_POINT('Ctrl Pts',(-6.09183242317219,-3.74363102570605,0.400000223517412));
#911=CARTESIAN_POINT('Ctrl Pts',(-6.17380586564893,-3.72982235521079,0.400000223517412));
#912=CARTESIAN_POINT('Origin',(-4.80954927504415,-3.77757163614036,-0.0999997764825888));
#913=CARTESIAN_POINT('',(-4.80954927504415,-3.77757163614036,-0.0999997764825888));
#914=CARTESIAN_POINT('',(-7.05477437675352,-3.77757163614036,-0.0999997764825888));
#915=CARTESIAN_POINT('',(-4.80954927504415,-3.77757163614036,0.400000223517412));
#916=CARTESIAN_POINT('',(-4.80954927504415,-3.77757163614036,-0.0999997764825888));
#917=CARTESIAN_POINT('',(-4.80954927504415,-3.77757163614036,0.400000223517412));
#918=CARTESIAN_POINT('Origin',(-4.80954927504415,-0.465838926732549,-0.0999997764825866));
#919=CARTESIAN_POINT('',(-4.80954927504415,-0.465838926732549,-0.0999997764825866));
#920=CARTESIAN_POINT('',(-4.80954927504415,-5.29291946336628,-0.0999997764825888));
#921=CARTESIAN_POINT('',(-4.80954927504415,-0.465838926732549,0.400000223517414));
#922=CARTESIAN_POINT('',(-4.80954927504415,-0.465838926732549,-0.0999997764825866));
#923=CARTESIAN_POINT('',(-4.80954927504415,-0.465838926732549,0.400000223517414));
#924=CARTESIAN_POINT('Origin',(-5.2631646126544,-0.465838926732549,-0.0999997764825866));
#925=CARTESIAN_POINT('',(-7.28158204555864,-0.465838926732549,-0.0999997764825866));
#926=CARTESIAN_POINT('',(-5.2631646126544,-0.465838926732549,0.400000223517414));
#927=CARTESIAN_POINT('Origin',(-5.69972661435957,-4.61999984353782,-0.0999997764825888));
#928=CARTESIAN_POINT('',(-5.69972661435957,-4.61999984353782,-0.0999997764825888));
#929=CARTESIAN_POINT('',(-3.79999947846288,-4.61999984353782,-0.0999997764825888));
#930=CARTESIAN_POINT('',(-7.49986304641122,-4.61999984353782,-0.0999997764825888));
#931=CARTESIAN_POINT('',(-5.69972661435957,-4.61999984353782,0.400000223517412));
#932=CARTESIAN_POINT('',(-5.69972661435957,-4.61999984353782,-0.0999997764825888));
#933=CARTESIAN_POINT('',(-3.79999947846288,-4.61999984353782,0.400000223517412));
#934=CARTESIAN_POINT('',(-5.69972661435957,-4.61999984353782,0.400000223517412));
#935=CARTESIAN_POINT('',(-3.79999947846288,-4.61999984353782,-0.0999997764825888));
#936=CARTESIAN_POINT('Ctrl Pts',(-6.59331468046064,-4.51427014440299,-0.0999997764825888));
#937=CARTESIAN_POINT('Ctrl Pts',(-6.59331468046064,-4.51427014440299,0.400000223517412));
#938=CARTESIAN_POINT('Ctrl Pts',(-6.46368814924791,-4.54500062194243,-0.0999997764825888));
#939=CARTESIAN_POINT('Ctrl Pts',(-6.46368814924791,-4.54500062194243,0.400000223517412));
#940=CARTESIAN_POINT('Ctrl Pts',(-6.17018930529187,-4.61458020220015,-0.0999997764825888));
#941=CARTESIAN_POINT('Ctrl Pts',(-6.17018930529187,-4.61458020220015,0.400000223517412));
#942=CARTESIAN_POINT('Ctrl Pts',(-5.86828951583085,-4.61805803075134,-0.0999997764825888));
#943=CARTESIAN_POINT('Ctrl Pts',(-5.86828951583085,-4.61805803075134,0.400000223517412));
#944=CARTESIAN_POINT('Ctrl Pts',(-5.69972661435957,-4.61999984353782,-0.0999997764825888));
#945=CARTESIAN_POINT('Ctrl Pts',(-5.69972661435957,-4.61999984353782,0.400000223517412));
#946=CARTESIAN_POINT('',(-6.59331468046064,-4.51427014440299,-0.0999997764825888));
#947=CARTESIAN_POINT('Ctrl Pts',(-6.59331468046064,-4.51427014440299,-0.0999997764825888));
#948=CARTESIAN_POINT('Ctrl Pts',(-6.46368814924791,-4.54500062194243,-0.0999997764825888));
#949=CARTESIAN_POINT('Ctrl Pts',(-6.17018930529187,-4.61458020220015,-0.0999997764825888));
#950=CARTESIAN_POINT('Ctrl Pts',(-5.86828951583085,-4.61805803075134,-0.0999997764825888));
#951=CARTESIAN_POINT('Ctrl Pts',(-5.69972661435957,-4.61999984353782,-0.0999997764825888));
#952=CARTESIAN_POINT('',(-6.59331468046064,-4.51427014440299,0.400000223517412));
#953=CARTESIAN_POINT('',(-6.59331468046064,-4.51427014440299,-0.0999997764825888));
#954=CARTESIAN_POINT('Ctrl Pts',(-6.59331468046064,-4.51427014440299,0.400000223517412));
#955=CARTESIAN_POINT('Ctrl Pts',(-6.46368814924791,-4.54500062194243,0.400000223517412));
#956=CARTESIAN_POINT('Ctrl Pts',(-6.17018930529187,-4.61458020220015,0.400000223517412));
#957=CARTESIAN_POINT('Ctrl Pts',(-5.86828951583085,-4.61805803075134,0.400000223517412));
#958=CARTESIAN_POINT('Ctrl Pts',(-5.69972661435957,-4.61999984353782,0.400000223517412));
#959=CARTESIAN_POINT('Ctrl Pts',(-7.30272797048444,-4.11522479623557,-0.0999997764825888));
#960=CARTESIAN_POINT('Ctrl Pts',(-7.30272797048444,-4.11522479623557,0.400000223517412));
#961=CARTESIAN_POINT('Ctrl Pts',(-7.20327129401792,-4.19710678032715,-0.0999997764825888));
#962=CARTESIAN_POINT('Ctrl Pts',(-7.20327129401792,-4.19710678032715,0.400000223517412));
#963=CARTESIAN_POINT('Ctrl Pts',(-6.99079065775545,-4.3720405977071,-0.0999997764825888));
#964=CARTESIAN_POINT('Ctrl Pts',(-6.99079065775545,-4.3720405977071,0.400000223517412));
#965=CARTESIAN_POINT('Ctrl Pts',(-6.73132904161442,-4.46488421633251,-0.0999997764825888));
#966=CARTESIAN_POINT('Ctrl Pts',(-6.73132904161442,-4.46488421633251,0.400000223517412));
#967=CARTESIAN_POINT('Ctrl Pts',(-6.59331468046064,-4.51427014440299,-0.0999997764825888));
#968=CARTESIAN_POINT('Ctrl Pts',(-6.59331468046064,-4.51427014440299,0.400000223517412));
#969=CARTESIAN_POINT('',(-7.30272797048444,-4.11522479623557,-0.0999997764825888));
#970=CARTESIAN_POINT('Ctrl Pts',(-7.30272797048444,-4.11522479623557,-0.0999997764825888));
#971=CARTESIAN_POINT('Ctrl Pts',(-7.20327129401792,-4.19710678032715,-0.0999997764825888));
#972=CARTESIAN_POINT('Ctrl Pts',(-6.99079065775545,-4.3720405977071,-0.0999997764825888));
#973=CARTESIAN_POINT('Ctrl Pts',(-6.73132904161442,-4.46488421633251,-0.0999997764825888));
#974=CARTESIAN_POINT('Ctrl Pts',(-6.59331468046064,-4.51427014440299,-0.0999997764825888));
#975=CARTESIAN_POINT('',(-7.30272797048444,-4.11522479623557,0.400000223517412));
#976=CARTESIAN_POINT('',(-7.30272797048444,-4.11522479623557,-0.0999997764825888));
#977=CARTESIAN_POINT('Ctrl Pts',(-7.30272797048444,-4.11522479623557,0.400000223517412));
#978=CARTESIAN_POINT('Ctrl Pts',(-7.20327129401792,-4.19710678032715,0.400000223517412));
#979=CARTESIAN_POINT('Ctrl Pts',(-6.99079065775545,-4.3720405977071,0.400000223517412));
#980=CARTESIAN_POINT('Ctrl Pts',(-6.73132904161442,-4.46488421633251,0.400000223517412));
#981=CARTESIAN_POINT('Ctrl Pts',(-6.59331468046064,-4.51427014440299,0.400000223517412));
#982=CARTESIAN_POINT('Ctrl Pts',(-7.83819881379957,-3.23186905950309,-0.0999997764825888));
#983=CARTESIAN_POINT('Ctrl Pts',(-7.83819881379957,-3.23186905950309,0.400000223517412));
#984=CARTESIAN_POINT('Ctrl Pts',(-7.77183537909744,-3.40227564887697,-0.0999997764825888));
#985=CARTESIAN_POINT('Ctrl Pts',(-7.77183537909744,-3.40227564887697,0.400000223517412));
#986=CARTESIAN_POINT('Ctrl Pts',(-7.64485544567119,-3.72833196997026,-0.0999997764825888));
#987=CARTESIAN_POINT('Ctrl Pts',(-7.64485544567119,-3.72833196997026,0.400000223517412));
#988=CARTESIAN_POINT('Ctrl Pts',(-7.41327681955062,-3.99021128589927,-0.0999997764825888));
#989=CARTESIAN_POINT('Ctrl Pts',(-7.41327681955062,-3.99021128589927,0.400000223517412));
#990=CARTESIAN_POINT('Ctrl Pts',(-7.30272797048444,-4.11522479623557,-0.0999997764825888));
#991=CARTESIAN_POINT('Ctrl Pts',(-7.30272797048444,-4.11522479623557,0.400000223517412));
#992=CARTESIAN_POINT('',(-7.83819881379957,-3.23186905950309,-0.0999997764825888));
#993=CARTESIAN_POINT('Ctrl Pts',(-7.83819881379957,-3.23186905950309,-0.0999997764825888));
#994=CARTESIAN_POINT('Ctrl Pts',(-7.77183537909744,-3.40227564887697,-0.0999997764825888));
#995=CARTESIAN_POINT('Ctrl Pts',(-7.64485544567119,-3.72833196997026,-0.0999997764825888));
#996=CARTESIAN_POINT('Ctrl Pts',(-7.41327681955062,-3.99021128589927,-0.0999997764825888));
#997=CARTESIAN_POINT('Ctrl Pts',(-7.30272797048444,-4.11522479623557,-0.0999997764825888));
#998=CARTESIAN_POINT('',(-7.83819881379957,-3.23186905950309,0.400000223517412));
#999=CARTESIAN_POINT('',(-7.83819881379957,-3.23186905950309,-0.0999997764825888));
#1000=CARTESIAN_POINT('Ctrl Pts',(-7.83819881379957,-3.23186905950309,0.400000223517412));
#1001=CARTESIAN_POINT('Ctrl Pts',(-7.77183537909744,-3.40227564887697,0.400000223517412));
#1002=CARTESIAN_POINT('Ctrl Pts',(-7.64485544567119,-3.72833196997026,0.400000223517412));
#1003=CARTESIAN_POINT('Ctrl Pts',(-7.41327681955062,-3.99021128589927,0.400000223517412));
#1004=CARTESIAN_POINT('Ctrl Pts',(-7.30272797048444,-4.11522479623557,0.400000223517412));
#1005=CARTESIAN_POINT('Ctrl Pts',(-7.99167779386396,-2.16774882644416,-0.0999997764825866));
#1006=CARTESIAN_POINT('Ctrl Pts',(-7.99167779386396,-2.16774882644416,0.400000223517414));
#1007=CARTESIAN_POINT('Ctrl Pts',(-7.98720793680389,-2.36056068065543,-0.0999997764825866));
#1008=CARTESIAN_POINT('Ctrl Pts',(-7.98720793680389,-2.36056068065544,0.400000223517414));
#1009=CARTESIAN_POINT('Ctrl Pts',(-7.97883622558217,-2.7216830033354,-0.0999997764825888));
#1010=CARTESIAN_POINT('Ctrl Pts',(-7.97883622558217,-2.7216830033354,0.400000223517412));
#1011=CARTESIAN_POINT('Ctrl Pts',(-7.88290845222222,-3.0696772656524,-0.0999997764825888));
#1012=CARTESIAN_POINT('Ctrl Pts',(-7.88290845222222,-3.0696772656524,0.400000223517412));
#1013=CARTESIAN_POINT('Ctrl Pts',(-7.83819881379957,-3.23186905950309,-0.0999997764825888));
#1014=CARTESIAN_POINT('Ctrl Pts',(-7.83819881379957,-3.23186905950309,0.400000223517412));
#1015=CARTESIAN_POINT('',(-7.99167779386396,-2.16774882644416,-0.0999997764825866));
#1016=CARTESIAN_POINT('Ctrl Pts',(-7.99167779386396,-2.16774882644416,-0.0999997764825866));
#1017=CARTESIAN_POINT('Ctrl Pts',(-7.98720793680389,-2.36056068065543,-0.0999997764825866));
#1018=CARTESIAN_POINT('Ctrl Pts',(-7.97883622558217,-2.7216830033354,-0.0999997764825888));
#1019=CARTESIAN_POINT('Ctrl Pts',(-7.88290845222222,-3.0696772656524,-0.0999997764825888));
#1020=CARTESIAN_POINT('Ctrl Pts',(-7.83819881379957,-3.23186905950309,-0.0999997764825888));
#1021=CARTESIAN_POINT('',(-7.99167779386396,-2.16774882644416,0.400000223517414));
#1022=CARTESIAN_POINT('',(-7.99167779386396,-2.16774882644416,-0.0999997764825866));
#1023=CARTESIAN_POINT('Ctrl Pts',(-7.99167779386396,-2.16774882644416,0.400000223517414));
#1024=CARTESIAN_POINT('Ctrl Pts',(-7.98720793680389,-2.36056068065543,0.400000223517414));
#1025=CARTESIAN_POINT('Ctrl Pts',(-7.97883622558217,-2.7216830033354,0.400000223517412));
#1026=CARTESIAN_POINT('Ctrl Pts',(-7.88290845222222,-3.0696772656524,0.400000223517412));
#1027=CARTESIAN_POINT('Ctrl Pts',(-7.83819881379957,-3.23186905950309,0.400000223517412));
#1028=CARTESIAN_POINT('Ctrl Pts',(-7.82796648443098,-0.985961574018011,
-0.0999997764825866));
#1029=CARTESIAN_POINT('Ctrl Pts',(-7.82796648443098,-0.985961574018011,
0.400000223517414));
#1030=CARTESIAN_POINT('Ctrl Pts',(-7.8756291390584,-1.1633304416195,-0.0999997764825866));
#1031=CARTESIAN_POINT('Ctrl Pts',(-7.8756291390584,-1.1633304416195,0.400000223517414));
#1032=CARTESIAN_POINT('Ctrl Pts',(-7.97955746222848,-1.55008290298559,-0.0999997764825866));
#1033=CARTESIAN_POINT('Ctrl Pts',(-7.97955746222848,-1.55008290298559,0.400000223517414));
#1034=CARTESIAN_POINT('Ctrl Pts',(-7.98742071433721,-1.95080319853489,-0.0999997764825866));
#1035=CARTESIAN_POINT('Ctrl Pts',(-7.98742071433721,-1.95080319853489,0.400000223517414));
#1036=CARTESIAN_POINT('Ctrl Pts',(-7.99167779386396,-2.16774882644416,-0.0999997764825866));
#1037=CARTESIAN_POINT('Ctrl Pts',(-7.99167779386396,-2.16774882644416,0.400000223517414));
#1038=CARTESIAN_POINT('',(-7.82796648443098,-0.985961574018011,-0.0999997764825866));
#1039=CARTESIAN_POINT('Ctrl Pts',(-7.82796648443098,-0.985961574018011,
-0.0999997764825866));
#1040=CARTESIAN_POINT('Ctrl Pts',(-7.8756291390584,-1.1633304416195,-0.0999997764825866));
#1041=CARTESIAN_POINT('Ctrl Pts',(-7.97955746222848,-1.55008290298559,-0.0999997764825866));
#1042=CARTESIAN_POINT('Ctrl Pts',(-7.98742071433721,-1.95080319853489,-0.0999997764825866));
#1043=CARTESIAN_POINT('Ctrl Pts',(-7.99167779386396,-2.16774882644416,-0.0999997764825866));
#1044=CARTESIAN_POINT('',(-7.82796648443098,-0.985961574018011,0.400000223517414));
#1045=CARTESIAN_POINT('',(-7.82796648443098,-0.985961574018011,-0.0999997764825866));
#1046=CARTESIAN_POINT('Ctrl Pts',(-7.82796648443098,-0.985961574018011,
0.400000223517414));
#1047=CARTESIAN_POINT('Ctrl Pts',(-7.8756291390584,-1.1633304416195,0.400000223517414));
#1048=CARTESIAN_POINT('Ctrl Pts',(-7.97955746222848,-1.55008290298559,0.400000223517414));
#1049=CARTESIAN_POINT('Ctrl Pts',(-7.98742071433721,-1.95080319853489,0.400000223517414));
#1050=CARTESIAN_POINT('Ctrl Pts',(-7.99167779386396,-2.16774882644416,0.400000223517414));
#1051=CARTESIAN_POINT('Ctrl Pts',(-7.35047725141401,-0.175934451520452,
-0.0999997764825866));
#1052=CARTESIAN_POINT('Ctrl Pts',(-7.35047725141401,-0.175934451520452,
0.400000223517414));
#1053=CARTESIAN_POINT('Ctrl Pts',(-7.44950918676859,-0.29445395638501,-0.0999997764825866));
#1054=CARTESIAN_POINT('Ctrl Pts',(-7.44950918676859,-0.29445395638501,0.400000223517414));
#1055=CARTESIAN_POINT('Ctrl Pts',(-7.65309410629548,-0.538100450557071,
-0.0999997764825866));
#1056=CARTESIAN_POINT('Ctrl Pts',(-7.65309410629548,-0.538100450557071,
0.400000223517414));
#1057=CARTESIAN_POINT('Ctrl Pts',(-7.76863126872437,-0.833999688153058,
-0.0999997764825866));
#1058=CARTESIAN_POINT('Ctrl Pts',(-7.76863126872437,-0.833999688153058,
0.400000223517414));
#1059=CARTESIAN_POINT('Ctrl Pts',(-7.82796648443098,-0.985961574018011,
-0.0999997764825866));
#1060=CARTESIAN_POINT('Ctrl Pts',(-7.82796648443098,-0.985961574018011,
0.400000223517414));
#1061=CARTESIAN_POINT('',(-7.35047725141401,-0.175934451520452,-0.0999997764825866));
#1062=CARTESIAN_POINT('Ctrl Pts',(-7.35047725141401,-0.175934451520452,
-0.0999997764825866));
#1063=CARTESIAN_POINT('Ctrl Pts',(-7.44950918676859,-0.29445395638501,-0.0999997764825866));
#1064=CARTESIAN_POINT('Ctrl Pts',(-7.65309410629548,-0.538100450557071,
-0.0999997764825866));
#1065=CARTESIAN_POINT('Ctrl Pts',(-7.76863126872437,-0.833999688153058,
-0.0999997764825866));
#1066=CARTESIAN_POINT('Ctrl Pts',(-7.82796648443098,-0.985961574018011,
-0.0999997764825866));
#1067=CARTESIAN_POINT('',(-7.35047725141401,-0.175934451520452,0.400000223517414));
#1068=CARTESIAN_POINT('',(-7.35047725141401,-0.175934451520452,-0.0999997764825866));
#1069=CARTESIAN_POINT('Ctrl Pts',(-7.35047725141401,-0.175934451520452,
0.400000223517414));
#1070=CARTESIAN_POINT('Ctrl Pts',(-7.44950918676859,-0.29445395638501,0.400000223517414));
#1071=CARTESIAN_POINT('Ctrl Pts',(-7.65309410629548,-0.538100450557071,
0.400000223517414));
#1072=CARTESIAN_POINT('Ctrl Pts',(-7.76863126872437,-0.833999688153058,
0.400000223517414));
#1073=CARTESIAN_POINT('Ctrl Pts',(-7.82796648443098,-0.985961574018011,
0.400000223517414));
#1074=CARTESIAN_POINT('Ctrl Pts',(-6.59672525823469,0.2845021906495,-0.0999997764825844));
#1075=CARTESIAN_POINT('Ctrl Pts',(-6.59672525823469,0.2845021906495,0.400000223517416));
#1076=CARTESIAN_POINT('Ctrl Pts',(-6.73804322969958,0.233002073192625,-0.0999997764825844));
#1077=CARTESIAN_POINT('Ctrl Pts',(-6.73804322969958,0.233002073192625,0.400000223517416));
#1078=CARTESIAN_POINT('Ctrl Pts',(-7.02024125541821,0.130161427236861,-0.0999997764825844));
#1079=CARTESIAN_POINT('Ctrl Pts',(-7.02024125541821,0.130161427236861,0.400000223517416));
#1080=CARTESIAN_POINT('Ctrl Pts',(-7.24051252567008,-0.0740081025850658,
-0.0999997764825844));
#1081=CARTESIAN_POINT('Ctrl Pts',(-7.24051252567008,-0.074008102585066,
0.400000223517416));
#1082=CARTESIAN_POINT('Ctrl Pts',(-7.35047725141401,-0.175934451520452,
-0.0999997764825866));
#1083=CARTESIAN_POINT('Ctrl Pts',(-7.35047725141401,-0.175934451520452,
0.400000223517414));
#1084=CARTESIAN_POINT('',(-6.59672525823469,0.2845021906495,-0.0999997764825844));
#1085=CARTESIAN_POINT('Ctrl Pts',(-6.59672525823469,0.2845021906495,-0.0999997764825844));
#1086=CARTESIAN_POINT('Ctrl Pts',(-6.73804322969958,0.233002073192625,-0.0999997764825844));
#1087=CARTESIAN_POINT('Ctrl Pts',(-7.02024125541821,0.130161427236861,-0.0999997764825844));
#1088=CARTESIAN_POINT('Ctrl Pts',(-7.24051252567008,-0.0740081025850658,
-0.0999997764825844));
#1089=CARTESIAN_POINT('Ctrl Pts',(-7.35047725141401,-0.175934451520452,
-0.0999997764825866));
#1090=CARTESIAN_POINT('',(-6.59672525823469,0.2845021906495,0.400000223517416));
#1091=CARTESIAN_POINT('',(-6.59672525823469,0.2845021906495,-0.0999997764825844));
#1092=CARTESIAN_POINT('Ctrl Pts',(-6.59672525823469,0.2845021906495,0.400000223517416));
#1093=CARTESIAN_POINT('Ctrl Pts',(-6.73804322969958,0.233002073192625,0.400000223517416));
#1094=CARTESIAN_POINT('Ctrl Pts',(-7.02024125541821,0.130161427236861,0.400000223517416));
#1095=CARTESIAN_POINT('Ctrl Pts',(-7.24051252567008,-0.0740081025850658,
0.400000223517416));
#1096=CARTESIAN_POINT('Ctrl Pts',(-7.35047725141401,-0.175934451520452,
0.400000223517414));
#1097=CARTESIAN_POINT('Ctrl Pts',(-5.64515632689352,0.380000156462184,-0.0999997764825844));
#1098=CARTESIAN_POINT('Ctrl Pts',(-5.64515632689352,0.380000156462183,0.400000223517416));
#1099=CARTESIAN_POINT('Ctrl Pts',(-5.82924729550247,0.379008640228808,-0.0999997764825844));
#1100=CARTESIAN_POINT('Ctrl Pts',(-5.82924729550247,0.379008640228808,0.400000223517416));
#1101=CARTESIAN_POINT('Ctrl Pts',(-6.14976011241686,0.377282354233484,-0.0999997764825844));
#1102=CARTESIAN_POINT('Ctrl Pts',(-6.14976011241686,0.377282354233483,0.400000223517416));
#1103=CARTESIAN_POINT('Ctrl Pts',(-6.46327989730711,0.31220252149684,-0.0999997764825844));
#1104=CARTESIAN_POINT('Ctrl Pts',(-6.46327989730711,0.31220252149684,0.400000223517416));
#1105=CARTESIAN_POINT('Ctrl Pts',(-6.59672525823469,0.2845021906495,-0.0999997764825844));
#1106=CARTESIAN_POINT('Ctrl Pts',(-6.59672525823469,0.2845021906495,0.400000223517416));
#1107=CARTESIAN_POINT('',(-5.64515632689352,0.380000156462184,-0.0999997764825844));
#1108=CARTESIAN_POINT('Ctrl Pts',(-5.64515632689352,0.380000156462184,-0.0999997764825844));
#1109=CARTESIAN_POINT('Ctrl Pts',(-5.82924729550247,0.379008640228808,-0.0999997764825844));
#1110=CARTESIAN_POINT('Ctrl Pts',(-6.14976011241686,0.377282354233484,-0.0999997764825844));
#1111=CARTESIAN_POINT('Ctrl Pts',(-6.46327989730711,0.31220252149684,-0.0999997764825844));
#1112=CARTESIAN_POINT('Ctrl Pts',(-6.59672525823469,0.2845021906495,-0.0999997764825844));
#1113=CARTESIAN_POINT('',(-5.64515632689352,0.380000156462184,0.400000223517416));
#1114=CARTESIAN_POINT('',(-5.64515632689352,0.380000156462184,-0.0999997764825844));
#1115=CARTESIAN_POINT('Ctrl Pts',(-5.64515632689352,0.380000156462184,0.400000223517416));
#1116=CARTESIAN_POINT('Ctrl Pts',(-5.82924729550247,0.379008640228808,0.400000223517416));
#1117=CARTESIAN_POINT('Ctrl Pts',(-6.14976011241686,0.377282354233484,0.400000223517416));
#1118=CARTESIAN_POINT('Ctrl Pts',(-6.46327989730711,0.31220252149684,0.400000223517416));
#1119=CARTESIAN_POINT('Ctrl Pts',(-6.59672525823469,0.2845021906495,0.400000223517416));
#1120=CARTESIAN_POINT('Origin',(-3.79999947846288,0.380000156462184,-0.0999997764825844));
#1121=CARTESIAN_POINT('',(-3.79999947846288,0.380000156462184,-0.0999997764825844));
#1122=CARTESIAN_POINT('',(-6.54999947846288,0.380000156462184,-0.0999997764825844));
#1123=CARTESIAN_POINT('',(-3.79999947846288,0.380000156462184,0.400000223517416));
#1124=CARTESIAN_POINT('',(-3.79999947846288,0.380000156462184,-0.0999997764825844));
#1125=CARTESIAN_POINT('',(-3.79999947846288,0.380000156462184,0.400000223517416));
#1126=CARTESIAN_POINT('Origin',(-3.79999947846288,-4.61999984353782,-0.0999997764825888));
#1127=CARTESIAN_POINT('',(-3.79999947846288,-7.36999992176892,-0.0999997764825888));
#1128=CARTESIAN_POINT('',(-3.79999947846288,-4.61999984353782,0.400000223517412));
#1129=CARTESIAN_POINT('Origin',(-5.89583863616342,-2.11999984353782,0.400000223517414));
#1130=CARTESIAN_POINT('Origin',(-9.29999947846289,-10.12,-0.0999997764825888));
#1131=CARTESIAN_POINT('',(-2.79999947846288,-21.62,-0.0999997764825933));
#1132=CARTESIAN_POINT('',(-2.79999947846288,1.37999999999999,-0.0999997764825844));
#1133=CARTESIAN_POINT('',(-2.79999947846288,-18.62,-0.0999997764825911));
#1134=CARTESIAN_POINT('',(-15.7999994784629,-21.62,-0.0999997764825933));
#1135=CARTESIAN_POINT('',(-15.7999994784629,-21.62,-0.0999997764825933));
#1136=CARTESIAN_POINT('',(-15.7999994784629,1.37999999999999,-0.0999997764825844));
#1137=CARTESIAN_POINT('',(-15.7999994784629,-1.62000000000001,-0.0999997764825866));
#1138=CARTESIAN_POINT('',(-2.79999947846288,1.37999999999999,-0.0999997764825844));
#1139=CARTESIAN_POINT('',(-11.2999994784629,-10.12,-0.0999997764825888));
#1140=CARTESIAN_POINT('Origin',(-9.29999947846289,-10.12,-0.0999997764825888));
#1141=CARTESIAN_POINT('Origin',(-9.29999947846289,-10.12,1.40000022351741));
#1142=CARTESIAN_POINT('',(-2.79999947846288,-21.62,1.40000022351741));
#1143=CARTESIAN_POINT('',(-2.79999947846288,1.37999999999999,1.40000022351742));
#1144=CARTESIAN_POINT('',(-2.79999947846288,-18.62,1.40000022351741));
#1145=CARTESIAN_POINT('',(-15.7999994784629,1.37999999999999,1.40000022351742));
#1146=CARTESIAN_POINT('',(-2.79999947846288,1.37999999999999,1.40000022351742));
#1147=CARTESIAN_POINT('',(-15.7999994784629,-21.62,1.40000022351741));
#1148=CARTESIAN_POINT('',(-15.7999994784629,-1.62000000000001,1.40000022351741));
#1149=CARTESIAN_POINT('',(-15.7999994784629,-21.62,1.40000022351741));
#1150=CARTESIAN_POINT('',(-12.2999994784629,-10.12,1.40000022351741));
#1151=CARTESIAN_POINT('Origin',(-9.29999947846289,-10.12,1.40000022351741));
#1152=CARTESIAN_POINT('Origin',(-15.7999994784629,-21.62,-0.0999997764825933));
#1153=CARTESIAN_POINT('',(-2.79999947846288,-21.62,-0.0999997764825933));
#1154=CARTESIAN_POINT('',(-15.7999994784629,-21.62,0.900000223517408));
#1155=CARTESIAN_POINT('Origin',(-2.79999947846288,1.37999999999999,-0.0999997764825844));
#1156=CARTESIAN_POINT('',(-15.7999994784629,1.37999999999999,-0.0999997764825844));
#1157=CARTESIAN_POINT('',(-2.79999947846288,1.37999999999999,0.900000223517414));
#1158=CARTESIAN_POINT('Origin',(-9.29999947846289,-10.12,0.500000223517412));
#1159=CARTESIAN_POINT('',(-12.2999994784629,-10.12,2.50000022351741));
#1160=CARTESIAN_POINT('Origin',(-9.29999947846289,-10.12,2.50000022351741));
#1161=CARTESIAN_POINT('',(-12.2999994784629,-10.12,0.500000223517412));
#1162=CARTESIAN_POINT('Origin',(-9.29999947846289,-10.12,2.50000022351741));
#1163=CARTESIAN_POINT('',(-11.2999994784629,-10.12,2.50000022351741));
#1164=CARTESIAN_POINT('Origin',(-9.29999947846289,-10.12,2.50000022351741));
#1165=CARTESIAN_POINT('Origin',(-9.29999947846289,-10.12,-0.0999997764825888));
#1166=CARTESIAN_POINT('',(-11.2999994784629,-10.12,-0.0999997764825888));
#1167=CARTESIAN_POINT('Origin',(-15.7999994784629,-1.62000000000001,-0.0999997764825866));
#1168=CARTESIAN_POINT('Origin',(-2.79999947846288,-18.62,-0.0999997764825911));
#1169=CARTESIAN_POINT('Origin',(-9.29999947846289,-10.12,-0.0999997764825888));
#1170=UNCERTAINTY_MEASURE_WITH_UNIT(LENGTH_MEASURE(0.01),#1174,
'DISTANCE_ACCURACY_VALUE',
'Maximum model space distance between geometric entities at asserted c
onnectivities');
#1171=UNCERTAINTY_MEASURE_WITH_UNIT(LENGTH_MEASURE(0.01),#1174,
'DISTANCE_ACCURACY_VALUE',
'Maximum model space distance between geometric entities at asserted c
onnectivities');
#1172=(
GEOMETRIC_REPRESENTATION_CONTEXT(3)
GLOBAL_UNCERTAINTY_ASSIGNED_CONTEXT((#1170))
GLOBAL_UNIT_ASSIGNED_CONTEXT((#1174,#1176,#1177))
REPRESENTATION_CONTEXT('','3D')
);
#1173=(
GEOMETRIC_REPRESENTATION_CONTEXT(3)
GLOBAL_UNCERTAINTY_ASSIGNED_CONTEXT((#1171))
GLOBAL_UNIT_ASSIGNED_CONTEXT((#1174,#1176,#1177))
REPRESENTATION_CONTEXT('','3D')
);
#1174=(
LENGTH_UNIT()
NAMED_UNIT(*)
SI_UNIT(.MILLI.,.METRE.)
);
#1175=(
LENGTH_UNIT()
NAMED_UNIT(*)
SI_UNIT($,.METRE.)
);
#1176=(
NAMED_UNIT(*)
PLANE_ANGLE_UNIT()
SI_UNIT($,.RADIAN.)
);
#1177=(
NAMED_UNIT(*)
SI_UNIT($,.STERADIAN.)
SOLID_ANGLE_UNIT()
);
#1178=SHAPE_DEFINITION_REPRESENTATION(#1179,#1180);
#1179=PRODUCT_DEFINITION_SHAPE('',$,#1182);
#1180=SHAPE_REPRESENTATION('',(#610),#1172);
#1181=PRODUCT_DEFINITION_CONTEXT('part definition',#1186,'design');
#1182=PRODUCT_DEFINITION('D Emission Baffle','D Emission Baffle',#1183,
#1181);
#1183=PRODUCT_DEFINITION_FORMATION('',$,#1188);
#1184=PRODUCT_RELATED_PRODUCT_CATEGORY('D Emission Baffle',
'D Emission Baffle',(#1188));
#1185=APPLICATION_PROTOCOL_DEFINITION('international standard',
'ap242_managed_model_based_3d_engineering',2011,#1186);
#1186=APPLICATION_CONTEXT('Managed model based 3d engineering');
#1187=PRODUCT_CONTEXT('part definition',#1186,'mechanical');
#1188=PRODUCT('D Emission Baffle','D Emission Baffle',$,(#1187));
#1189=PRESENTATION_STYLE_ASSIGNMENT((#1190));
#1190=SURFACE_STYLE_USAGE(.BOTH.,#1191);
#1191=SURFACE_SIDE_STYLE('',(#1192));
#1192=SURFACE_STYLE_FILL_AREA(#1193);
#1193=FILL_AREA_STYLE('Steel - Satin',(#1194));
#1194=FILL_AREA_STYLE_COLOUR('Steel - Satin',#1195);
#1195=COLOUR_RGB('Steel - Satin',0.627450980392157,0.627450980392157,0.627450980392157);
ENDSEC;
END-ISO-10303-21;
