ISO-10303-21;
HEADER;
/* Generated by software containing ST-Developer
 * from STEP Tools, Inc. (www.steptools.com) 
 */

FILE_DESCRIPTION(
/* description */ (''),
/* implementation_level */ '2;1');

FILE_NAME(
/* name */ 'LED Board holder (thin).step',
/* time_stamp */ '2026-08-05T19:04:14+02:00',
/* author */ (''),
/* organization */ (''),
/* preprocessor_version */ 'ST-DEVELOPER v20.1',
/* originating_system */ 'Autodesk Translation Framework v15.8.0.0',
/* authorisation */ '');

FILE_SCHEMA (('AUTOMOTIVE_DESIGN { 1 0 10303 214 3 1 1 }'));
ENDSEC;

DATA;
#10=MECHANICAL_DESIGN_GEOMETRIC_PRESENTATION_REPRESENTATION('',(#13),#1539);
#11=SHAPE_REPRESENTATION_RELATIONSHIP('SRR','None',#1545,#12);
#12=ADVANCED_BREP_SHAPE_REPRESENTATION('',(#14),#1538);
#13=STYLED_ITEM('',(#1555),#14);
#14=MANIFOLD_SOLID_BREP('LED Board holder (thinner)',#931);
#15=CYLINDRICAL_SURFACE('',#942,1.75);
#16=CYLINDRICAL_SURFACE('',#945,1.74999999999999);
#17=CYLINDRICAL_SURFACE('',#947,1.75);
#18=CYLINDRICAL_SURFACE('',#950,1.74999999999998);
#19=CYLINDRICAL_SURFACE('',#952,3.);
#20=CYLINDRICAL_SURFACE('',#955,3.);
#21=CYLINDRICAL_SURFACE('',#968,1.74999999999998);
#22=CYLINDRICAL_SURFACE('',#971,1.75);
#23=CYLINDRICAL_SURFACE('',#973,1.74999999999999);
#24=CYLINDRICAL_SURFACE('',#976,1.75);
#25=CYLINDRICAL_SURFACE('',#978,3.);
#26=CYLINDRICAL_SURFACE('',#981,3.);
#27=CYLINDRICAL_SURFACE('',#996,1.74999999986778);
#28=CYLINDRICAL_SURFACE('',#997,1.74999999986778);
#29=CYLINDRICAL_SURFACE('',#1003,1.74999999999998);
#30=CYLINDRICAL_SURFACE('',#1004,1.74999999999998);
#31=FACE_BOUND('',#86,.T.);
#32=FACE_BOUND('',#87,.T.);
#33=FACE_BOUND('',#100,.T.);
#34=FACE_BOUND('',#101,.T.);
#35=FACE_BOUND('',#119,.T.);
#36=FACE_BOUND('',#120,.T.);
#37=FACE_BOUND('',#134,.T.);
#38=FACE_BOUND('',#135,.T.);
#39=FACE_OUTER_BOUND('',#85,.T.);
#40=FACE_OUTER_BOUND('',#88,.T.);
#41=FACE_OUTER_BOUND('',#89,.T.);
#42=FACE_OUTER_BOUND('',#90,.T.);
#43=FACE_OUTER_BOUND('',#91,.T.);
#44=FACE_OUTER_BOUND('',#92,.T.);
#45=FACE_OUTER_BOUND('',#93,.T.);
#46=FACE_OUTER_BOUND('',#94,.T.);
#47=FACE_OUTER_BOUND('',#95,.T.);
#48=FACE_OUTER_BOUND('',#96,.T.);
#49=FACE_OUTER_BOUND('',#97,.T.);
#50=FACE_OUTER_BOUND('',#98,.T.);
#51=FACE_OUTER_BOUND('',#99,.T.);
#52=FACE_OUTER_BOUND('',#102,.T.);
#53=FACE_OUTER_BOUND('',#103,.T.);
#54=FACE_OUTER_BOUND('',#104,.T.);
#55=FACE_OUTER_BOUND('',#105,.T.);
#56=FACE_OUTER_BOUND('',#106,.T.);
#57=FACE_OUTER_BOUND('',#107,.T.);
#58=FACE_OUTER_BOUND('',#108,.T.);
#59=FACE_OUTER_BOUND('',#109,.T.);
#60=FACE_OUTER_BOUND('',#110,.T.);
#61=FACE_OUTER_BOUND('',#111,.T.);
#62=FACE_OUTER_BOUND('',#112,.T.);
#63=FACE_OUTER_BOUND('',#113,.T.);
#64=FACE_OUTER_BOUND('',#114,.T.);
#65=FACE_OUTER_BOUND('',#115,.T.);
#66=FACE_OUTER_BOUND('',#116,.T.);
#67=FACE_OUTER_BOUND('',#117,.T.);
#68=FACE_OUTER_BOUND('',#118,.T.);
#69=FACE_OUTER_BOUND('',#121,.T.);
#70=FACE_OUTER_BOUND('',#122,.T.);
#71=FACE_OUTER_BOUND('',#123,.T.);
#72=FACE_OUTER_BOUND('',#124,.T.);
#73=FACE_OUTER_BOUND('',#125,.T.);
#74=FACE_OUTER_BOUND('',#126,.T.);
#75=FACE_OUTER_BOUND('',#127,.T.);
#76=FACE_OUTER_BOUND('',#128,.T.);
#77=FACE_OUTER_BOUND('',#129,.T.);
#78=FACE_OUTER_BOUND('',#130,.T.);
#79=FACE_OUTER_BOUND('',#131,.T.);
#80=FACE_OUTER_BOUND('',#132,.T.);
#81=FACE_OUTER_BOUND('',#133,.T.);
#82=FACE_OUTER_BOUND('',#136,.T.);
#83=FACE_OUTER_BOUND('',#137,.T.);
#84=FACE_OUTER_BOUND('',#138,.T.);
#85=EDGE_LOOP('',(#591,#592,#593,#594,#595,#596,#597,#598,#599,#600));
#86=EDGE_LOOP('',(#601,#602,#603,#604,#605,#606));
#87=EDGE_LOOP('',(#607,#608,#609,#610,#611,#612));
#88=EDGE_LOOP('',(#613,#614,#615,#616));
#89=EDGE_LOOP('',(#617,#618,#619,#620));
#90=EDGE_LOOP('',(#621,#622,#623,#624));
#91=EDGE_LOOP('',(#625,#626,#627,#628));
#92=EDGE_LOOP('',(#629,#630,#631,#632));
#93=EDGE_LOOP('',(#633,#634,#635,#636));
#94=EDGE_LOOP('',(#637,#638,#639,#640));
#95=EDGE_LOOP('',(#641,#642,#643,#644));
#96=EDGE_LOOP('',(#645,#646,#647,#648));
#97=EDGE_LOOP('',(#649,#650,#651,#652));
#98=EDGE_LOOP('',(#653,#654,#655,#656));
#99=EDGE_LOOP('',(#657,#658,#659,#660,#661,#662,#663,#664,#665,#666));
#100=EDGE_LOOP('',(#667,#668,#669,#670,#671,#672));
#101=EDGE_LOOP('',(#673,#674,#675,#676,#677,#678));
#102=EDGE_LOOP('',(#679,#680,#681,#682));
#103=EDGE_LOOP('',(#683,#684,#685,#686));
#104=EDGE_LOOP('',(#687,#688,#689,#690));
#105=EDGE_LOOP('',(#691,#692,#693,#694));
#106=EDGE_LOOP('',(#695,#696,#697,#698));
#107=EDGE_LOOP('',(#699,#700,#701,#702));
#108=EDGE_LOOP('',(#703,#704,#705,#706));
#109=EDGE_LOOP('',(#707,#708,#709,#710));
#110=EDGE_LOOP('',(#711,#712,#713,#714));
#111=EDGE_LOOP('',(#715,#716,#717,#718));
#112=EDGE_LOOP('',(#719,#720,#721,#722));
#113=EDGE_LOOP('',(#723,#724,#725,#726));
#114=EDGE_LOOP('',(#727,#728,#729,#730));
#115=EDGE_LOOP('',(#731,#732,#733,#734));
#116=EDGE_LOOP('',(#735,#736,#737,#738));
#117=EDGE_LOOP('',(#739,#740,#741,#742));
#118=EDGE_LOOP('',(#743,#744,#745,#746,#747,#748,#749,#750,#751,#752));
#119=EDGE_LOOP('',(#753,#754,#755,#756,#757,#758));
#120=EDGE_LOOP('',(#759,#760,#761,#762,#763,#764));
#121=EDGE_LOOP('',(#765,#766,#767,#768));
#122=EDGE_LOOP('',(#769,#770,#771,#772));
#123=EDGE_LOOP('',(#773,#774,#775,#776));
#124=EDGE_LOOP('',(#777,#778,#779,#780));
#125=EDGE_LOOP('',(#781,#782,#783,#784));
#126=EDGE_LOOP('',(#785,#786,#787,#788));
#127=EDGE_LOOP('',(#789,#790,#791,#792));
#128=EDGE_LOOP('',(#793,#794,#795,#796));
#129=EDGE_LOOP('',(#797,#798,#799,#800));
#130=EDGE_LOOP('',(#801,#802,#803,#804));
#131=EDGE_LOOP('',(#805,#806,#807,#808));
#132=EDGE_LOOP('',(#809,#810,#811,#812));
#133=EDGE_LOOP('',(#813,#814,#815,#816,#817,#818,#819,#820,#821,#822));
#134=EDGE_LOOP('',(#823,#824,#825,#826,#827,#828));
#135=EDGE_LOOP('',(#829,#830,#831,#832,#833,#834));
#136=EDGE_LOOP('',(#835,#836,#837,#838));
#137=EDGE_LOOP('',(#839,#840,#841,#842,#843,#844,#845,#846));
#138=EDGE_LOOP('',(#847,#848,#849,#850,#851,#852,#853,#854));
#139=CIRCLE('',#934,3.);
#140=CIRCLE('',#935,3.);
#141=CIRCLE('',#936,1.74999999986778);
#142=CIRCLE('',#937,1.74999999999998);
#143=CIRCLE('',#938,1.75);
#144=CIRCLE('',#939,1.74999999999998);
#145=CIRCLE('',#940,1.74999999999999);
#146=CIRCLE('',#941,1.75);
#147=CIRCLE('',#943,1.75);
#148=CIRCLE('',#946,1.74999999999999);
#149=CIRCLE('',#948,1.75);
#150=CIRCLE('',#951,1.74999999999998);
#151=CIRCLE('',#953,3.);
#152=CIRCLE('',#956,3.);
#153=CIRCLE('',#960,3.);
#154=CIRCLE('',#961,3.);
#155=CIRCLE('',#962,1.74999999999998);
#156=CIRCLE('',#963,1.75);
#157=CIRCLE('',#964,1.74999999999999);
#158=CIRCLE('',#965,1.74999999986778);
#159=CIRCLE('',#966,1.75);
#160=CIRCLE('',#967,1.74999999999998);
#161=CIRCLE('',#969,1.74999999999998);
#162=CIRCLE('',#972,1.75);
#163=CIRCLE('',#974,1.74999999999999);
#164=CIRCLE('',#977,1.75);
#165=CIRCLE('',#979,3.);
#166=CIRCLE('',#982,3.);
#167=CIRCLE('',#991,1.74999999999998);
#168=CIRCLE('',#992,1.74999999986778);
#169=CIRCLE('',#998,1.74999999986778);
#170=CIRCLE('',#1005,1.74999999999998);
#171=LINE('',#1273,#271);
#172=LINE('',#1275,#272);
#173=LINE('',#1277,#273);
#174=LINE('',#1279,#274);
#175=LINE('',#1281,#275);
#176=LINE('',#1283,#276);
#177=LINE('',#1285,#277);
#178=LINE('',#1289,#278);
#179=LINE('',#1295,#279);
#180=LINE('',#1299,#280);
#181=LINE('',#1302,#281);
#182=LINE('',#1307,#282);
#183=LINE('',#1311,#283);
#184=LINE('',#1314,#284);
#185=LINE('',#1317,#285);
#186=LINE('',#1320,#286);
#187=LINE('',#1323,#287);
#188=LINE('',#1324,#288);
#189=LINE('',#1327,#289);
#190=LINE('',#1331,#290);
#191=LINE('',#1334,#291);
#192=LINE('',#1337,#292);
#193=LINE('',#1338,#293);
#194=LINE('',#1341,#294);
#195=LINE('',#1345,#295);
#196=LINE('',#1348,#296);
#197=LINE('',#1351,#297);
#198=LINE('',#1352,#298);
#199=LINE('',#1355,#299);
#200=LINE('',#1359,#300);
#201=LINE('',#1360,#301);
#202=LINE('',#1363,#302);
#203=LINE('',#1364,#303);
#204=LINE('',#1368,#304);
#205=LINE('',#1372,#305);
#206=LINE('',#1376,#306);
#207=LINE('',#1378,#307);
#208=LINE('',#1380,#308);
#209=LINE('',#1382,#309);
#210=LINE('',#1384,#310);
#211=LINE('',#1385,#311);
#212=LINE('',#1390,#312);
#213=LINE('',#1394,#313);
#214=LINE('',#1397,#314);
#215=LINE('',#1402,#315);
#216=LINE('',#1406,#316);
#217=LINE('',#1409,#317);
#218=LINE('',#1412,#318);
#219=LINE('',#1415,#319);
#220=LINE('',#1418,#320);
#221=LINE('',#1419,#321);
#222=LINE('',#1422,#322);
#223=LINE('',#1426,#323);
#224=LINE('',#1429,#324);
#225=LINE('',#1432,#325);
#226=LINE('',#1433,#326);
#227=LINE('',#1436,#327);
#228=LINE('',#1440,#328);
#229=LINE('',#1443,#329);
#230=LINE('',#1446,#330);
#231=LINE('',#1447,#331);
#232=LINE('',#1450,#332);
#233=LINE('',#1454,#333);
#234=LINE('',#1455,#334);
#235=LINE('',#1458,#335);
#236=LINE('',#1459,#336);
#237=LINE('',#1462,#337);
#238=LINE('',#1464,#338);
#239=LINE('',#1465,#339);
#240=LINE('',#1468,#340);
#241=LINE('',#1470,#341);
#242=LINE('',#1471,#342);
#243=LINE('',#1473,#343);
#244=LINE('',#1474,#344);
#245=LINE('',#1476,#345);
#246=LINE('',#1478,#346);
#247=LINE('',#1481,#347);
#248=LINE('',#1483,#348);
#249=LINE('',#1484,#349);
#250=LINE('',#1488,#350);
#251=LINE('',#1489,#351);
#252=LINE('',#1493,#352);
#253=LINE('',#1494,#353);
#254=LINE('',#1496,#354);
#255=LINE('',#1499,#355);
#256=LINE('',#1500,#356);
#257=LINE('',#1502,#357);
#258=LINE('',#1506,#358);
#259=LINE('',#1509,#359);
#260=LINE('',#1511,#360);
#261=LINE('',#1514,#361);
#262=LINE('',#1515,#362);
#263=LINE('',#1517,#363);
#264=LINE('',#1521,#364);
#265=LINE('',#1524,#365);
#266=LINE('',#1527,#366);
#267=LINE('',#1529,#367);
#268=LINE('',#1530,#368);
#269=LINE('',#1532,#369);
#270=LINE('',#1533,#370);
#271=VECTOR('',#1015,10.);
#272=VECTOR('',#1016,10.);
#273=VECTOR('',#1017,10.);
#274=VECTOR('',#1018,10.);
#275=VECTOR('',#1019,10.);
#276=VECTOR('',#1020,10.);
#277=VECTOR('',#1021,10.);
#278=VECTOR('',#1024,10.);
#279=VECTOR('',#1029,10.);
#280=VECTOR('',#1032,10.);
#281=VECTOR('',#1035,10.);
#282=VECTOR('',#1038,10.);
#283=VECTOR('',#1041,10.);
#284=VECTOR('',#1044,10.);
#285=VECTOR('',#1047,10.);
#286=VECTOR('',#1050,10.);
#287=VECTOR('',#1053,10.);
#288=VECTOR('',#1054,10.);
#289=VECTOR('',#1057,10.);
#290=VECTOR('',#1062,10.);
#291=VECTOR('',#1065,10.);
#292=VECTOR('',#1068,10.);
#293=VECTOR('',#1069,10.);
#294=VECTOR('',#1072,10.);
#295=VECTOR('',#1077,10.);
#296=VECTOR('',#1080,10.);
#297=VECTOR('',#1083,10.);
#298=VECTOR('',#1084,10.);
#299=VECTOR('',#1087,10.);
#300=VECTOR('',#1092,10.);
#301=VECTOR('',#1093,10.);
#302=VECTOR('',#1096,10.);
#303=VECTOR('',#1097,10.);
#304=VECTOR('',#1100,10.);
#305=VECTOR('',#1103,10.);
#306=VECTOR('',#1106,10.);
#307=VECTOR('',#1107,10.);
#308=VECTOR('',#1108,10.);
#309=VECTOR('',#1109,10.);
#310=VECTOR('',#1110,10.);
#311=VECTOR('',#1111,10.);
#312=VECTOR('',#1114,10.);
#313=VECTOR('',#1117,10.);
#314=VECTOR('',#1120,10.);
#315=VECTOR('',#1123,10.);
#316=VECTOR('',#1126,10.);
#317=VECTOR('',#1129,10.);
#318=VECTOR('',#1132,10.);
#319=VECTOR('',#1135,10.);
#320=VECTOR('',#1138,10.);
#321=VECTOR('',#1139,10.);
#322=VECTOR('',#1142,10.);
#323=VECTOR('',#1147,10.);
#324=VECTOR('',#1150,10.);
#325=VECTOR('',#1153,10.);
#326=VECTOR('',#1154,10.);
#327=VECTOR('',#1157,10.);
#328=VECTOR('',#1162,10.);
#329=VECTOR('',#1165,10.);
#330=VECTOR('',#1168,10.);
#331=VECTOR('',#1169,10.);
#332=VECTOR('',#1172,10.);
#333=VECTOR('',#1177,10.);
#334=VECTOR('',#1178,10.);
#335=VECTOR('',#1181,10.);
#336=VECTOR('',#1182,10.);
#337=VECTOR('',#1185,10.);
#338=VECTOR('',#1186,10.);
#339=VECTOR('',#1187,10.);
#340=VECTOR('',#1190,10.);
#341=VECTOR('',#1191,10.);
#342=VECTOR('',#1192,10.);
#343=VECTOR('',#1195,10.);
#344=VECTOR('',#1196,10.);
#345=VECTOR('',#1199,10.);
#346=VECTOR('',#1202,10.);
#347=VECTOR('',#1205,10.);
#348=VECTOR('',#1206,10.);
#349=VECTOR('',#1207,10.);
#350=VECTOR('',#1210,10.);
#351=VECTOR('',#1211,10.);
#352=VECTOR('',#1214,10.);
#353=VECTOR('',#1215,10.);
#354=VECTOR('',#1218,10.);
#355=VECTOR('',#1221,10.);
#356=VECTOR('',#1222,10.);
#357=VECTOR('',#1225,10.);
#358=VECTOR('',#1230,10.);
#359=VECTOR('',#1235,10.);
#360=VECTOR('',#1238,10.);
#361=VECTOR('',#1241,10.);
#362=VECTOR('',#1242,10.);
#363=VECTOR('',#1245,10.);
#364=VECTOR('',#1250,10.);
#365=VECTOR('',#1255,10.);
#366=VECTOR('',#1258,10.);
#367=VECTOR('',#1259,10.);
#368=VECTOR('',#1260,10.);
#369=VECTOR('',#1263,10.);
#370=VECTOR('',#1264,10.);
#371=VERTEX_POINT('',#1271);
#372=VERTEX_POINT('',#1272);
#373=VERTEX_POINT('',#1274);
#374=VERTEX_POINT('',#1276);
#375=VERTEX_POINT('',#1278);
#376=VERTEX_POINT('',#1280);
#377=VERTEX_POINT('',#1282);
#378=VERTEX_POINT('',#1284);
#379=VERTEX_POINT('',#1286);
#380=VERTEX_POINT('',#1288);
#381=VERTEX_POINT('',#1291);
#382=VERTEX_POINT('',#1292);
#383=VERTEX_POINT('',#1294);
#384=VERTEX_POINT('',#1296);
#385=VERTEX_POINT('',#1298);
#386=VERTEX_POINT('',#1300);
#387=VERTEX_POINT('',#1303);
#388=VERTEX_POINT('',#1304);
#389=VERTEX_POINT('',#1306);
#390=VERTEX_POINT('',#1308);
#391=VERTEX_POINT('',#1310);
#392=VERTEX_POINT('',#1312);
#393=VERTEX_POINT('',#1316);
#394=VERTEX_POINT('',#1318);
#395=VERTEX_POINT('',#1322);
#396=VERTEX_POINT('',#1326);
#397=VERTEX_POINT('',#1330);
#398=VERTEX_POINT('',#1332);
#399=VERTEX_POINT('',#1336);
#400=VERTEX_POINT('',#1340);
#401=VERTEX_POINT('',#1344);
#402=VERTEX_POINT('',#1346);
#403=VERTEX_POINT('',#1350);
#404=VERTEX_POINT('',#1354);
#405=VERTEX_POINT('',#1358);
#406=VERTEX_POINT('',#1362);
#407=VERTEX_POINT('',#1366);
#408=VERTEX_POINT('',#1367);
#409=VERTEX_POINT('',#1369);
#410=VERTEX_POINT('',#1371);
#411=VERTEX_POINT('',#1373);
#412=VERTEX_POINT('',#1375);
#413=VERTEX_POINT('',#1377);
#414=VERTEX_POINT('',#1379);
#415=VERTEX_POINT('',#1381);
#416=VERTEX_POINT('',#1383);
#417=VERTEX_POINT('',#1386);
#418=VERTEX_POINT('',#1387);
#419=VERTEX_POINT('',#1389);
#420=VERTEX_POINT('',#1391);
#421=VERTEX_POINT('',#1393);
#422=VERTEX_POINT('',#1395);
#423=VERTEX_POINT('',#1398);
#424=VERTEX_POINT('',#1399);
#425=VERTEX_POINT('',#1401);
#426=VERTEX_POINT('',#1403);
#427=VERTEX_POINT('',#1405);
#428=VERTEX_POINT('',#1407);
#429=VERTEX_POINT('',#1411);
#430=VERTEX_POINT('',#1413);
#431=VERTEX_POINT('',#1417);
#432=VERTEX_POINT('',#1421);
#433=VERTEX_POINT('',#1425);
#434=VERTEX_POINT('',#1427);
#435=VERTEX_POINT('',#1431);
#436=VERTEX_POINT('',#1435);
#437=VERTEX_POINT('',#1439);
#438=VERTEX_POINT('',#1441);
#439=VERTEX_POINT('',#1445);
#440=VERTEX_POINT('',#1449);
#441=VERTEX_POINT('',#1453);
#442=VERTEX_POINT('',#1457);
#443=VERTEX_POINT('',#1461);
#444=VERTEX_POINT('',#1463);
#445=VERTEX_POINT('',#1467);
#446=VERTEX_POINT('',#1469);
#447=VERTEX_POINT('',#1480);
#448=VERTEX_POINT('',#1482);
#449=VERTEX_POINT('',#1485);
#450=VERTEX_POINT('',#1486);
#451=VERTEX_POINT('',#1490);
#452=VERTEX_POINT('',#1491);
#453=VERTEX_POINT('',#1498);
#454=VERTEX_POINT('',#1505);
#455=VERTEX_POINT('',#1513);
#456=VERTEX_POINT('',#1520);
#457=VERTEX_POINT('',#1526);
#458=VERTEX_POINT('',#1528);
#459=EDGE_CURVE('',#371,#372,#171,.T.);
#460=EDGE_CURVE('',#373,#371,#172,.T.);
#461=EDGE_CURVE('',#374,#373,#173,.T.);
#462=EDGE_CURVE('',#375,#374,#174,.T.);
#463=EDGE_CURVE('',#376,#375,#175,.T.);
#464=EDGE_CURVE('',#377,#376,#176,.T.);
#465=EDGE_CURVE('',#378,#377,#177,.T.);
#466=EDGE_CURVE('',#379,#378,#139,.T.);
#467=EDGE_CURVE('',#380,#379,#178,.T.);
#468=EDGE_CURVE('',#372,#380,#140,.T.);
#469=EDGE_CURVE('',#381,#382,#141,.T.);
#470=EDGE_CURVE('',#383,#381,#179,.T.);
#471=EDGE_CURVE('',#384,#383,#142,.T.);
#472=EDGE_CURVE('',#385,#384,#180,.T.);
#473=EDGE_CURVE('',#386,#385,#143,.T.);
#474=EDGE_CURVE('',#382,#386,#181,.T.);
#475=EDGE_CURVE('',#387,#388,#144,.T.);
#476=EDGE_CURVE('',#389,#387,#182,.T.);
#477=EDGE_CURVE('',#390,#389,#145,.T.);
#478=EDGE_CURVE('',#391,#390,#183,.T.);
#479=EDGE_CURVE('',#392,#391,#146,.T.);
#480=EDGE_CURVE('',#388,#392,#184,.T.);
#481=EDGE_CURVE('',#391,#393,#185,.T.);
#482=EDGE_CURVE('',#394,#393,#147,.T.);
#483=EDGE_CURVE('',#392,#394,#186,.T.);
#484=EDGE_CURVE('',#390,#395,#187,.T.);
#485=EDGE_CURVE('',#393,#395,#188,.T.);
#486=EDGE_CURVE('',#389,#396,#189,.T.);
#487=EDGE_CURVE('',#395,#396,#148,.T.);
#488=EDGE_CURVE('',#385,#397,#190,.T.);
#489=EDGE_CURVE('',#398,#397,#149,.T.);
#490=EDGE_CURVE('',#386,#398,#191,.T.);
#491=EDGE_CURVE('',#384,#399,#192,.T.);
#492=EDGE_CURVE('',#397,#399,#193,.T.);
#493=EDGE_CURVE('',#383,#400,#194,.T.);
#494=EDGE_CURVE('',#399,#400,#150,.T.);
#495=EDGE_CURVE('',#401,#380,#195,.T.);
#496=EDGE_CURVE('',#402,#401,#151,.T.);
#497=EDGE_CURVE('',#402,#372,#196,.T.);
#498=EDGE_CURVE('',#403,#379,#197,.T.);
#499=EDGE_CURVE('',#401,#403,#198,.T.);
#500=EDGE_CURVE('',#404,#378,#199,.T.);
#501=EDGE_CURVE('',#403,#404,#152,.T.);
#502=EDGE_CURVE('',#405,#377,#200,.T.);
#503=EDGE_CURVE('',#404,#405,#201,.T.);
#504=EDGE_CURVE('',#376,#406,#202,.T.);
#505=EDGE_CURVE('',#406,#405,#203,.T.);
#506=EDGE_CURVE('',#407,#408,#204,.T.);
#507=EDGE_CURVE('',#409,#407,#153,.T.);
#508=EDGE_CURVE('',#410,#409,#205,.T.);
#509=EDGE_CURVE('',#411,#410,#154,.T.);
#510=EDGE_CURVE('',#412,#411,#206,.T.);
#511=EDGE_CURVE('',#413,#412,#207,.T.);
#512=EDGE_CURVE('',#414,#413,#208,.T.);
#513=EDGE_CURVE('',#415,#414,#209,.T.);
#514=EDGE_CURVE('',#416,#415,#210,.T.);
#515=EDGE_CURVE('',#408,#416,#211,.T.);
#516=EDGE_CURVE('',#417,#418,#155,.T.);
#517=EDGE_CURVE('',#419,#417,#212,.T.);
#518=EDGE_CURVE('',#420,#419,#156,.T.);
#519=EDGE_CURVE('',#421,#420,#213,.T.);
#520=EDGE_CURVE('',#422,#421,#157,.T.);
#521=EDGE_CURVE('',#418,#422,#214,.T.);
#522=EDGE_CURVE('',#423,#424,#158,.T.);
#523=EDGE_CURVE('',#425,#423,#215,.T.);
#524=EDGE_CURVE('',#426,#425,#159,.T.);
#525=EDGE_CURVE('',#427,#426,#216,.T.);
#526=EDGE_CURVE('',#428,#427,#160,.T.);
#527=EDGE_CURVE('',#424,#428,#217,.T.);
#528=EDGE_CURVE('',#429,#427,#218,.T.);
#529=EDGE_CURVE('',#430,#429,#161,.T.);
#530=EDGE_CURVE('',#430,#428,#219,.T.);
#531=EDGE_CURVE('',#431,#426,#220,.T.);
#532=EDGE_CURVE('',#429,#431,#221,.T.);
#533=EDGE_CURVE('',#432,#425,#222,.T.);
#534=EDGE_CURVE('',#431,#432,#162,.T.);
#535=EDGE_CURVE('',#433,#421,#223,.T.);
#536=EDGE_CURVE('',#434,#433,#163,.T.);
#537=EDGE_CURVE('',#434,#422,#224,.T.);
#538=EDGE_CURVE('',#435,#420,#225,.T.);
#539=EDGE_CURVE('',#433,#435,#226,.T.);
#540=EDGE_CURVE('',#436,#419,#227,.T.);
#541=EDGE_CURVE('',#435,#436,#164,.T.);
#542=EDGE_CURVE('',#410,#437,#228,.T.);
#543=EDGE_CURVE('',#438,#437,#165,.T.);
#544=EDGE_CURVE('',#411,#438,#229,.T.);
#545=EDGE_CURVE('',#409,#439,#230,.T.);
#546=EDGE_CURVE('',#437,#439,#231,.T.);
#547=EDGE_CURVE('',#407,#440,#232,.T.);
#548=EDGE_CURVE('',#439,#440,#166,.T.);
#549=EDGE_CURVE('',#441,#408,#233,.T.);
#550=EDGE_CURVE('',#440,#441,#234,.T.);
#551=EDGE_CURVE('',#416,#442,#235,.T.);
#552=EDGE_CURVE('',#442,#441,#236,.T.);
#553=EDGE_CURVE('',#412,#443,#237,.T.);
#554=EDGE_CURVE('',#443,#444,#238,.T.);
#555=EDGE_CURVE('',#444,#413,#239,.T.);
#556=EDGE_CURVE('',#371,#445,#240,.T.);
#557=EDGE_CURVE('',#445,#446,#241,.T.);
#558=EDGE_CURVE('',#446,#373,#242,.T.);
#559=EDGE_CURVE('',#374,#415,#243,.T.);
#560=EDGE_CURVE('',#375,#414,#244,.T.);
#561=EDGE_CURVE('',#445,#402,#245,.T.);
#562=EDGE_CURVE('',#443,#438,#246,.T.);
#563=EDGE_CURVE('',#447,#406,#247,.T.);
#564=EDGE_CURVE('',#448,#447,#248,.T.);
#565=EDGE_CURVE('',#448,#446,#249,.T.);
#566=EDGE_CURVE('',#449,#450,#167,.T.);
#567=EDGE_CURVE('',#450,#394,#250,.T.);
#568=EDGE_CURVE('',#396,#449,#251,.T.);
#569=EDGE_CURVE('',#451,#452,#168,.T.);
#570=EDGE_CURVE('',#452,#398,#252,.T.);
#571=EDGE_CURVE('',#400,#451,#253,.T.);
#572=EDGE_CURVE('',#382,#452,#254,.T.);
#573=EDGE_CURVE('',#453,#423,#255,.T.);
#574=EDGE_CURVE('',#432,#453,#256,.T.);
#575=EDGE_CURVE('',#451,#381,#257,.T.);
#576=EDGE_CURVE('',#454,#424,#258,.T.);
#577=EDGE_CURVE('',#453,#454,#169,.T.);
#578=EDGE_CURVE('',#454,#430,#259,.T.);
#579=EDGE_CURVE('',#388,#450,#260,.T.);
#580=EDGE_CURVE('',#455,#417,#261,.T.);
#581=EDGE_CURVE('',#436,#455,#262,.T.);
#582=EDGE_CURVE('',#449,#387,#263,.T.);
#583=EDGE_CURVE('',#456,#418,#264,.T.);
#584=EDGE_CURVE('',#455,#456,#170,.T.);
#585=EDGE_CURVE('',#456,#434,#265,.T.);
#586=EDGE_CURVE('',#457,#442,#266,.T.);
#587=EDGE_CURVE('',#458,#457,#267,.T.);
#588=EDGE_CURVE('',#458,#444,#268,.T.);
#589=EDGE_CURVE('',#448,#457,#269,.T.);
#590=EDGE_CURVE('',#458,#447,#270,.T.);
#591=ORIENTED_EDGE('',*,*,#459,.F.);
#592=ORIENTED_EDGE('',*,*,#460,.F.);
#593=ORIENTED_EDGE('',*,*,#461,.F.);
#594=ORIENTED_EDGE('',*,*,#462,.F.);
#595=ORIENTED_EDGE('',*,*,#463,.F.);
#596=ORIENTED_EDGE('',*,*,#464,.F.);
#597=ORIENTED_EDGE('',*,*,#465,.F.);
#598=ORIENTED_EDGE('',*,*,#466,.F.);
#599=ORIENTED_EDGE('',*,*,#467,.F.);
#600=ORIENTED_EDGE('',*,*,#468,.F.);
#601=ORIENTED_EDGE('',*,*,#469,.F.);
#602=ORIENTED_EDGE('',*,*,#470,.F.);
#603=ORIENTED_EDGE('',*,*,#471,.F.);
#604=ORIENTED_EDGE('',*,*,#472,.F.);
#605=ORIENTED_EDGE('',*,*,#473,.F.);
#606=ORIENTED_EDGE('',*,*,#474,.F.);
#607=ORIENTED_EDGE('',*,*,#475,.F.);
#608=ORIENTED_EDGE('',*,*,#476,.F.);
#609=ORIENTED_EDGE('',*,*,#477,.F.);
#610=ORIENTED_EDGE('',*,*,#478,.F.);
#611=ORIENTED_EDGE('',*,*,#479,.F.);
#612=ORIENTED_EDGE('',*,*,#480,.F.);
#613=ORIENTED_EDGE('',*,*,#479,.T.);
#614=ORIENTED_EDGE('',*,*,#481,.T.);
#615=ORIENTED_EDGE('',*,*,#482,.F.);
#616=ORIENTED_EDGE('',*,*,#483,.F.);
#617=ORIENTED_EDGE('',*,*,#478,.T.);
#618=ORIENTED_EDGE('',*,*,#484,.T.);
#619=ORIENTED_EDGE('',*,*,#485,.F.);
#620=ORIENTED_EDGE('',*,*,#481,.F.);
#621=ORIENTED_EDGE('',*,*,#477,.T.);
#622=ORIENTED_EDGE('',*,*,#486,.T.);
#623=ORIENTED_EDGE('',*,*,#487,.F.);
#624=ORIENTED_EDGE('',*,*,#484,.F.);
#625=ORIENTED_EDGE('',*,*,#473,.T.);
#626=ORIENTED_EDGE('',*,*,#488,.T.);
#627=ORIENTED_EDGE('',*,*,#489,.F.);
#628=ORIENTED_EDGE('',*,*,#490,.F.);
#629=ORIENTED_EDGE('',*,*,#472,.T.);
#630=ORIENTED_EDGE('',*,*,#491,.T.);
#631=ORIENTED_EDGE('',*,*,#492,.F.);
#632=ORIENTED_EDGE('',*,*,#488,.F.);
#633=ORIENTED_EDGE('',*,*,#471,.T.);
#634=ORIENTED_EDGE('',*,*,#493,.T.);
#635=ORIENTED_EDGE('',*,*,#494,.F.);
#636=ORIENTED_EDGE('',*,*,#491,.F.);
#637=ORIENTED_EDGE('',*,*,#468,.T.);
#638=ORIENTED_EDGE('',*,*,#495,.F.);
#639=ORIENTED_EDGE('',*,*,#496,.F.);
#640=ORIENTED_EDGE('',*,*,#497,.T.);
#641=ORIENTED_EDGE('',*,*,#467,.T.);
#642=ORIENTED_EDGE('',*,*,#498,.F.);
#643=ORIENTED_EDGE('',*,*,#499,.F.);
#644=ORIENTED_EDGE('',*,*,#495,.T.);
#645=ORIENTED_EDGE('',*,*,#466,.T.);
#646=ORIENTED_EDGE('',*,*,#500,.F.);
#647=ORIENTED_EDGE('',*,*,#501,.F.);
#648=ORIENTED_EDGE('',*,*,#498,.T.);
#649=ORIENTED_EDGE('',*,*,#465,.T.);
#650=ORIENTED_EDGE('',*,*,#502,.F.);
#651=ORIENTED_EDGE('',*,*,#503,.F.);
#652=ORIENTED_EDGE('',*,*,#500,.T.);
#653=ORIENTED_EDGE('',*,*,#464,.T.);
#654=ORIENTED_EDGE('',*,*,#504,.T.);
#655=ORIENTED_EDGE('',*,*,#505,.T.);
#656=ORIENTED_EDGE('',*,*,#502,.T.);
#657=ORIENTED_EDGE('',*,*,#506,.F.);
#658=ORIENTED_EDGE('',*,*,#507,.F.);
#659=ORIENTED_EDGE('',*,*,#508,.F.);
#660=ORIENTED_EDGE('',*,*,#509,.F.);
#661=ORIENTED_EDGE('',*,*,#510,.F.);
#662=ORIENTED_EDGE('',*,*,#511,.F.);
#663=ORIENTED_EDGE('',*,*,#512,.F.);
#664=ORIENTED_EDGE('',*,*,#513,.F.);
#665=ORIENTED_EDGE('',*,*,#514,.F.);
#666=ORIENTED_EDGE('',*,*,#515,.F.);
#667=ORIENTED_EDGE('',*,*,#516,.F.);
#668=ORIENTED_EDGE('',*,*,#517,.F.);
#669=ORIENTED_EDGE('',*,*,#518,.F.);
#670=ORIENTED_EDGE('',*,*,#519,.F.);
#671=ORIENTED_EDGE('',*,*,#520,.F.);
#672=ORIENTED_EDGE('',*,*,#521,.F.);
#673=ORIENTED_EDGE('',*,*,#522,.F.);
#674=ORIENTED_EDGE('',*,*,#523,.F.);
#675=ORIENTED_EDGE('',*,*,#524,.F.);
#676=ORIENTED_EDGE('',*,*,#525,.F.);
#677=ORIENTED_EDGE('',*,*,#526,.F.);
#678=ORIENTED_EDGE('',*,*,#527,.F.);
#679=ORIENTED_EDGE('',*,*,#526,.T.);
#680=ORIENTED_EDGE('',*,*,#528,.F.);
#681=ORIENTED_EDGE('',*,*,#529,.F.);
#682=ORIENTED_EDGE('',*,*,#530,.T.);
#683=ORIENTED_EDGE('',*,*,#525,.T.);
#684=ORIENTED_EDGE('',*,*,#531,.F.);
#685=ORIENTED_EDGE('',*,*,#532,.F.);
#686=ORIENTED_EDGE('',*,*,#528,.T.);
#687=ORIENTED_EDGE('',*,*,#524,.T.);
#688=ORIENTED_EDGE('',*,*,#533,.F.);
#689=ORIENTED_EDGE('',*,*,#534,.F.);
#690=ORIENTED_EDGE('',*,*,#531,.T.);
#691=ORIENTED_EDGE('',*,*,#520,.T.);
#692=ORIENTED_EDGE('',*,*,#535,.F.);
#693=ORIENTED_EDGE('',*,*,#536,.F.);
#694=ORIENTED_EDGE('',*,*,#537,.T.);
#695=ORIENTED_EDGE('',*,*,#519,.T.);
#696=ORIENTED_EDGE('',*,*,#538,.F.);
#697=ORIENTED_EDGE('',*,*,#539,.F.);
#698=ORIENTED_EDGE('',*,*,#535,.T.);
#699=ORIENTED_EDGE('',*,*,#518,.T.);
#700=ORIENTED_EDGE('',*,*,#540,.F.);
#701=ORIENTED_EDGE('',*,*,#541,.F.);
#702=ORIENTED_EDGE('',*,*,#538,.T.);
#703=ORIENTED_EDGE('',*,*,#509,.T.);
#704=ORIENTED_EDGE('',*,*,#542,.T.);
#705=ORIENTED_EDGE('',*,*,#543,.F.);
#706=ORIENTED_EDGE('',*,*,#544,.F.);
#707=ORIENTED_EDGE('',*,*,#508,.T.);
#708=ORIENTED_EDGE('',*,*,#545,.T.);
#709=ORIENTED_EDGE('',*,*,#546,.F.);
#710=ORIENTED_EDGE('',*,*,#542,.F.);
#711=ORIENTED_EDGE('',*,*,#507,.T.);
#712=ORIENTED_EDGE('',*,*,#547,.T.);
#713=ORIENTED_EDGE('',*,*,#548,.F.);
#714=ORIENTED_EDGE('',*,*,#545,.F.);
#715=ORIENTED_EDGE('',*,*,#506,.T.);
#716=ORIENTED_EDGE('',*,*,#549,.F.);
#717=ORIENTED_EDGE('',*,*,#550,.F.);
#718=ORIENTED_EDGE('',*,*,#547,.F.);
#719=ORIENTED_EDGE('',*,*,#515,.T.);
#720=ORIENTED_EDGE('',*,*,#551,.T.);
#721=ORIENTED_EDGE('',*,*,#552,.T.);
#722=ORIENTED_EDGE('',*,*,#549,.T.);
#723=ORIENTED_EDGE('',*,*,#511,.T.);
#724=ORIENTED_EDGE('',*,*,#553,.T.);
#725=ORIENTED_EDGE('',*,*,#554,.T.);
#726=ORIENTED_EDGE('',*,*,#555,.T.);
#727=ORIENTED_EDGE('',*,*,#460,.T.);
#728=ORIENTED_EDGE('',*,*,#556,.T.);
#729=ORIENTED_EDGE('',*,*,#557,.T.);
#730=ORIENTED_EDGE('',*,*,#558,.T.);
#731=ORIENTED_EDGE('',*,*,#462,.T.);
#732=ORIENTED_EDGE('',*,*,#559,.T.);
#733=ORIENTED_EDGE('',*,*,#513,.T.);
#734=ORIENTED_EDGE('',*,*,#560,.F.);
#735=ORIENTED_EDGE('',*,*,#459,.T.);
#736=ORIENTED_EDGE('',*,*,#497,.F.);
#737=ORIENTED_EDGE('',*,*,#561,.F.);
#738=ORIENTED_EDGE('',*,*,#556,.F.);
#739=ORIENTED_EDGE('',*,*,#510,.T.);
#740=ORIENTED_EDGE('',*,*,#544,.T.);
#741=ORIENTED_EDGE('',*,*,#562,.F.);
#742=ORIENTED_EDGE('',*,*,#553,.F.);
#743=ORIENTED_EDGE('',*,*,#561,.T.);
#744=ORIENTED_EDGE('',*,*,#496,.T.);
#745=ORIENTED_EDGE('',*,*,#499,.T.);
#746=ORIENTED_EDGE('',*,*,#501,.T.);
#747=ORIENTED_EDGE('',*,*,#503,.T.);
#748=ORIENTED_EDGE('',*,*,#505,.F.);
#749=ORIENTED_EDGE('',*,*,#563,.F.);
#750=ORIENTED_EDGE('',*,*,#564,.F.);
#751=ORIENTED_EDGE('',*,*,#565,.T.);
#752=ORIENTED_EDGE('',*,*,#557,.F.);
#753=ORIENTED_EDGE('',*,*,#566,.T.);
#754=ORIENTED_EDGE('',*,*,#567,.T.);
#755=ORIENTED_EDGE('',*,*,#482,.T.);
#756=ORIENTED_EDGE('',*,*,#485,.T.);
#757=ORIENTED_EDGE('',*,*,#487,.T.);
#758=ORIENTED_EDGE('',*,*,#568,.T.);
#759=ORIENTED_EDGE('',*,*,#569,.T.);
#760=ORIENTED_EDGE('',*,*,#570,.T.);
#761=ORIENTED_EDGE('',*,*,#489,.T.);
#762=ORIENTED_EDGE('',*,*,#492,.T.);
#763=ORIENTED_EDGE('',*,*,#494,.T.);
#764=ORIENTED_EDGE('',*,*,#571,.T.);
#765=ORIENTED_EDGE('',*,*,#474,.T.);
#766=ORIENTED_EDGE('',*,*,#490,.T.);
#767=ORIENTED_EDGE('',*,*,#570,.F.);
#768=ORIENTED_EDGE('',*,*,#572,.F.);
#769=ORIENTED_EDGE('',*,*,#523,.T.);
#770=ORIENTED_EDGE('',*,*,#573,.F.);
#771=ORIENTED_EDGE('',*,*,#574,.F.);
#772=ORIENTED_EDGE('',*,*,#533,.T.);
#773=ORIENTED_EDGE('',*,*,#470,.T.);
#774=ORIENTED_EDGE('',*,*,#575,.F.);
#775=ORIENTED_EDGE('',*,*,#571,.F.);
#776=ORIENTED_EDGE('',*,*,#493,.F.);
#777=ORIENTED_EDGE('',*,*,#469,.T.);
#778=ORIENTED_EDGE('',*,*,#572,.T.);
#779=ORIENTED_EDGE('',*,*,#569,.F.);
#780=ORIENTED_EDGE('',*,*,#575,.T.);
#781=ORIENTED_EDGE('',*,*,#522,.T.);
#782=ORIENTED_EDGE('',*,*,#576,.F.);
#783=ORIENTED_EDGE('',*,*,#577,.F.);
#784=ORIENTED_EDGE('',*,*,#573,.T.);
#785=ORIENTED_EDGE('',*,*,#527,.T.);
#786=ORIENTED_EDGE('',*,*,#530,.F.);
#787=ORIENTED_EDGE('',*,*,#578,.F.);
#788=ORIENTED_EDGE('',*,*,#576,.T.);
#789=ORIENTED_EDGE('',*,*,#480,.T.);
#790=ORIENTED_EDGE('',*,*,#483,.T.);
#791=ORIENTED_EDGE('',*,*,#567,.F.);
#792=ORIENTED_EDGE('',*,*,#579,.F.);
#793=ORIENTED_EDGE('',*,*,#517,.T.);
#794=ORIENTED_EDGE('',*,*,#580,.F.);
#795=ORIENTED_EDGE('',*,*,#581,.F.);
#796=ORIENTED_EDGE('',*,*,#540,.T.);
#797=ORIENTED_EDGE('',*,*,#476,.T.);
#798=ORIENTED_EDGE('',*,*,#582,.F.);
#799=ORIENTED_EDGE('',*,*,#568,.F.);
#800=ORIENTED_EDGE('',*,*,#486,.F.);
#801=ORIENTED_EDGE('',*,*,#475,.T.);
#802=ORIENTED_EDGE('',*,*,#579,.T.);
#803=ORIENTED_EDGE('',*,*,#566,.F.);
#804=ORIENTED_EDGE('',*,*,#582,.T.);
#805=ORIENTED_EDGE('',*,*,#516,.T.);
#806=ORIENTED_EDGE('',*,*,#583,.F.);
#807=ORIENTED_EDGE('',*,*,#584,.F.);
#808=ORIENTED_EDGE('',*,*,#580,.T.);
#809=ORIENTED_EDGE('',*,*,#521,.T.);
#810=ORIENTED_EDGE('',*,*,#537,.F.);
#811=ORIENTED_EDGE('',*,*,#585,.F.);
#812=ORIENTED_EDGE('',*,*,#583,.T.);
#813=ORIENTED_EDGE('',*,*,#550,.T.);
#814=ORIENTED_EDGE('',*,*,#552,.F.);
#815=ORIENTED_EDGE('',*,*,#586,.F.);
#816=ORIENTED_EDGE('',*,*,#587,.F.);
#817=ORIENTED_EDGE('',*,*,#588,.T.);
#818=ORIENTED_EDGE('',*,*,#554,.F.);
#819=ORIENTED_EDGE('',*,*,#562,.T.);
#820=ORIENTED_EDGE('',*,*,#543,.T.);
#821=ORIENTED_EDGE('',*,*,#546,.T.);
#822=ORIENTED_EDGE('',*,*,#548,.T.);
#823=ORIENTED_EDGE('',*,*,#577,.T.);
#824=ORIENTED_EDGE('',*,*,#578,.T.);
#825=ORIENTED_EDGE('',*,*,#529,.T.);
#826=ORIENTED_EDGE('',*,*,#532,.T.);
#827=ORIENTED_EDGE('',*,*,#534,.T.);
#828=ORIENTED_EDGE('',*,*,#574,.T.);
#829=ORIENTED_EDGE('',*,*,#584,.T.);
#830=ORIENTED_EDGE('',*,*,#585,.T.);
#831=ORIENTED_EDGE('',*,*,#536,.T.);
#832=ORIENTED_EDGE('',*,*,#539,.T.);
#833=ORIENTED_EDGE('',*,*,#541,.T.);
#834=ORIENTED_EDGE('',*,*,#581,.T.);
#835=ORIENTED_EDGE('',*,*,#587,.T.);
#836=ORIENTED_EDGE('',*,*,#589,.F.);
#837=ORIENTED_EDGE('',*,*,#564,.T.);
#838=ORIENTED_EDGE('',*,*,#590,.F.);
#839=ORIENTED_EDGE('',*,*,#463,.T.);
#840=ORIENTED_EDGE('',*,*,#560,.T.);
#841=ORIENTED_EDGE('',*,*,#512,.T.);
#842=ORIENTED_EDGE('',*,*,#555,.F.);
#843=ORIENTED_EDGE('',*,*,#588,.F.);
#844=ORIENTED_EDGE('',*,*,#590,.T.);
#845=ORIENTED_EDGE('',*,*,#563,.T.);
#846=ORIENTED_EDGE('',*,*,#504,.F.);
#847=ORIENTED_EDGE('',*,*,#461,.T.);
#848=ORIENTED_EDGE('',*,*,#558,.F.);
#849=ORIENTED_EDGE('',*,*,#565,.F.);
#850=ORIENTED_EDGE('',*,*,#589,.T.);
#851=ORIENTED_EDGE('',*,*,#586,.T.);
#852=ORIENTED_EDGE('',*,*,#551,.F.);
#853=ORIENTED_EDGE('',*,*,#514,.T.);
#854=ORIENTED_EDGE('',*,*,#559,.F.);
#855=PLANE('',#933);
#856=PLANE('',#944);
#857=PLANE('',#949);
#858=PLANE('',#954);
#859=PLANE('',#957);
#860=PLANE('',#958);
#861=PLANE('',#959);
#862=PLANE('',#970);
#863=PLANE('',#975);
#864=PLANE('',#980);
#865=PLANE('',#983);
#866=PLANE('',#984);
#867=PLANE('',#985);
#868=PLANE('',#986);
#869=PLANE('',#987);
#870=PLANE('',#988);
#871=PLANE('',#989);
#872=PLANE('',#990);
#873=PLANE('',#993);
#874=PLANE('',#994);
#875=PLANE('',#995);
#876=PLANE('',#999);
#877=PLANE('',#1000);
#878=PLANE('',#1001);
#879=PLANE('',#1002);
#880=PLANE('',#1006);
#881=PLANE('',#1007);
#882=PLANE('',#1008);
#883=PLANE('',#1009);
#884=PLANE('',#1010);
#885=ADVANCED_FACE('',(#39,#31,#32),#855,.T.);
#886=ADVANCED_FACE('',(#40),#15,.F.);
#887=ADVANCED_FACE('',(#41),#856,.F.);
#888=ADVANCED_FACE('',(#42),#16,.F.);
#889=ADVANCED_FACE('',(#43),#17,.F.);
#890=ADVANCED_FACE('',(#44),#857,.F.);
#891=ADVANCED_FACE('',(#45),#18,.F.);
#892=ADVANCED_FACE('',(#46),#19,.F.);
#893=ADVANCED_FACE('',(#47),#858,.F.);
#894=ADVANCED_FACE('',(#48),#20,.F.);
#895=ADVANCED_FACE('',(#49),#859,.F.);
#896=ADVANCED_FACE('',(#50),#860,.T.);
#897=ADVANCED_FACE('',(#51,#33,#34),#861,.T.);
#898=ADVANCED_FACE('',(#52),#21,.F.);
#899=ADVANCED_FACE('',(#53),#862,.F.);
#900=ADVANCED_FACE('',(#54),#22,.F.);
#901=ADVANCED_FACE('',(#55),#23,.F.);
#902=ADVANCED_FACE('',(#56),#863,.F.);
#903=ADVANCED_FACE('',(#57),#24,.F.);
#904=ADVANCED_FACE('',(#58),#25,.F.);
#905=ADVANCED_FACE('',(#59),#864,.F.);
#906=ADVANCED_FACE('',(#60),#26,.F.);
#907=ADVANCED_FACE('',(#61),#865,.F.);
#908=ADVANCED_FACE('',(#62),#866,.T.);
#909=ADVANCED_FACE('',(#63),#867,.T.);
#910=ADVANCED_FACE('',(#64),#868,.T.);
#911=ADVANCED_FACE('',(#65),#869,.T.);
#912=ADVANCED_FACE('',(#66),#870,.F.);
#913=ADVANCED_FACE('',(#67),#871,.F.);
#914=ADVANCED_FACE('',(#68,#35,#36),#872,.T.);
#915=ADVANCED_FACE('',(#69),#873,.F.);
#916=ADVANCED_FACE('',(#70),#874,.F.);
#917=ADVANCED_FACE('',(#71),#875,.F.);
#918=ADVANCED_FACE('',(#72),#27,.F.);
#919=ADVANCED_FACE('',(#73),#28,.F.);
#920=ADVANCED_FACE('',(#74),#876,.F.);
#921=ADVANCED_FACE('',(#75),#877,.F.);
#922=ADVANCED_FACE('',(#76),#878,.F.);
#923=ADVANCED_FACE('',(#77),#879,.F.);
#924=ADVANCED_FACE('',(#78),#29,.F.);
#925=ADVANCED_FACE('',(#79),#30,.F.);
#926=ADVANCED_FACE('',(#80),#880,.F.);
#927=ADVANCED_FACE('',(#81,#37,#38),#881,.T.);
#928=ADVANCED_FACE('',(#82),#882,.F.);
#929=ADVANCED_FACE('',(#83),#883,.T.);
#930=ADVANCED_FACE('',(#84),#884,.T.);
#931=CLOSED_SHELL('',(#885,#886,#887,#888,#889,#890,#891,#892,#893,#894,
#895,#896,#897,#898,#899,#900,#901,#902,#903,#904,#905,#906,#907,#908,#909,
#910,#911,#912,#913,#914,#915,#916,#917,#918,#919,#920,#921,#922,#923,#924,
#925,#926,#927,#928,#929,#930));
#932=AXIS2_PLACEMENT_3D('',#1269,#1011,#1012);
#933=AXIS2_PLACEMENT_3D('',#1270,#1013,#1014);
#934=AXIS2_PLACEMENT_3D('',#1287,#1022,#1023);
#935=AXIS2_PLACEMENT_3D('',#1290,#1025,#1026);
#936=AXIS2_PLACEMENT_3D('',#1293,#1027,#1028);
#937=AXIS2_PLACEMENT_3D('',#1297,#1030,#1031);
#938=AXIS2_PLACEMENT_3D('',#1301,#1033,#1034);
#939=AXIS2_PLACEMENT_3D('',#1305,#1036,#1037);
#940=AXIS2_PLACEMENT_3D('',#1309,#1039,#1040);
#941=AXIS2_PLACEMENT_3D('',#1313,#1042,#1043);
#942=AXIS2_PLACEMENT_3D('',#1315,#1045,#1046);
#943=AXIS2_PLACEMENT_3D('',#1319,#1048,#1049);
#944=AXIS2_PLACEMENT_3D('',#1321,#1051,#1052);
#945=AXIS2_PLACEMENT_3D('',#1325,#1055,#1056);
#946=AXIS2_PLACEMENT_3D('',#1328,#1058,#1059);
#947=AXIS2_PLACEMENT_3D('',#1329,#1060,#1061);
#948=AXIS2_PLACEMENT_3D('',#1333,#1063,#1064);
#949=AXIS2_PLACEMENT_3D('',#1335,#1066,#1067);
#950=AXIS2_PLACEMENT_3D('',#1339,#1070,#1071);
#951=AXIS2_PLACEMENT_3D('',#1342,#1073,#1074);
#952=AXIS2_PLACEMENT_3D('',#1343,#1075,#1076);
#953=AXIS2_PLACEMENT_3D('',#1347,#1078,#1079);
#954=AXIS2_PLACEMENT_3D('',#1349,#1081,#1082);
#955=AXIS2_PLACEMENT_3D('',#1353,#1085,#1086);
#956=AXIS2_PLACEMENT_3D('',#1356,#1088,#1089);
#957=AXIS2_PLACEMENT_3D('',#1357,#1090,#1091);
#958=AXIS2_PLACEMENT_3D('',#1361,#1094,#1095);
#959=AXIS2_PLACEMENT_3D('',#1365,#1098,#1099);
#960=AXIS2_PLACEMENT_3D('',#1370,#1101,#1102);
#961=AXIS2_PLACEMENT_3D('',#1374,#1104,#1105);
#962=AXIS2_PLACEMENT_3D('',#1388,#1112,#1113);
#963=AXIS2_PLACEMENT_3D('',#1392,#1115,#1116);
#964=AXIS2_PLACEMENT_3D('',#1396,#1118,#1119);
#965=AXIS2_PLACEMENT_3D('',#1400,#1121,#1122);
#966=AXIS2_PLACEMENT_3D('',#1404,#1124,#1125);
#967=AXIS2_PLACEMENT_3D('',#1408,#1127,#1128);
#968=AXIS2_PLACEMENT_3D('',#1410,#1130,#1131);
#969=AXIS2_PLACEMENT_3D('',#1414,#1133,#1134);
#970=AXIS2_PLACEMENT_3D('',#1416,#1136,#1137);
#971=AXIS2_PLACEMENT_3D('',#1420,#1140,#1141);
#972=AXIS2_PLACEMENT_3D('',#1423,#1143,#1144);
#973=AXIS2_PLACEMENT_3D('',#1424,#1145,#1146);
#974=AXIS2_PLACEMENT_3D('',#1428,#1148,#1149);
#975=AXIS2_PLACEMENT_3D('',#1430,#1151,#1152);
#976=AXIS2_PLACEMENT_3D('',#1434,#1155,#1156);
#977=AXIS2_PLACEMENT_3D('',#1437,#1158,#1159);
#978=AXIS2_PLACEMENT_3D('',#1438,#1160,#1161);
#979=AXIS2_PLACEMENT_3D('',#1442,#1163,#1164);
#980=AXIS2_PLACEMENT_3D('',#1444,#1166,#1167);
#981=AXIS2_PLACEMENT_3D('',#1448,#1170,#1171);
#982=AXIS2_PLACEMENT_3D('',#1451,#1173,#1174);
#983=AXIS2_PLACEMENT_3D('',#1452,#1175,#1176);
#984=AXIS2_PLACEMENT_3D('',#1456,#1179,#1180);
#985=AXIS2_PLACEMENT_3D('',#1460,#1183,#1184);
#986=AXIS2_PLACEMENT_3D('',#1466,#1188,#1189);
#987=AXIS2_PLACEMENT_3D('',#1472,#1193,#1194);
#988=AXIS2_PLACEMENT_3D('',#1475,#1197,#1198);
#989=AXIS2_PLACEMENT_3D('',#1477,#1200,#1201);
#990=AXIS2_PLACEMENT_3D('',#1479,#1203,#1204);
#991=AXIS2_PLACEMENT_3D('',#1487,#1208,#1209);
#992=AXIS2_PLACEMENT_3D('',#1492,#1212,#1213);
#993=AXIS2_PLACEMENT_3D('',#1495,#1216,#1217);
#994=AXIS2_PLACEMENT_3D('',#1497,#1219,#1220);
#995=AXIS2_PLACEMENT_3D('',#1501,#1223,#1224);
#996=AXIS2_PLACEMENT_3D('',#1503,#1226,#1227);
#997=AXIS2_PLACEMENT_3D('',#1504,#1228,#1229);
#998=AXIS2_PLACEMENT_3D('',#1507,#1231,#1232);
#999=AXIS2_PLACEMENT_3D('',#1508,#1233,#1234);
#1000=AXIS2_PLACEMENT_3D('',#1510,#1236,#1237);
#1001=AXIS2_PLACEMENT_3D('',#1512,#1239,#1240);
#1002=AXIS2_PLACEMENT_3D('',#1516,#1243,#1244);
#1003=AXIS2_PLACEMENT_3D('',#1518,#1246,#1247);
#1004=AXIS2_PLACEMENT_3D('',#1519,#1248,#1249);
#1005=AXIS2_PLACEMENT_3D('',#1522,#1251,#1252);
#1006=AXIS2_PLACEMENT_3D('',#1523,#1253,#1254);
#1007=AXIS2_PLACEMENT_3D('',#1525,#1256,#1257);
#1008=AXIS2_PLACEMENT_3D('',#1531,#1261,#1262);
#1009=AXIS2_PLACEMENT_3D('',#1534,#1265,#1266);
#1010=AXIS2_PLACEMENT_3D('',#1535,#1267,#1268);
#1011=DIRECTION('axis',(0.,0.,1.));
#1012=DIRECTION('refdir',(1.,0.,0.));
#1013=DIRECTION('center_axis',(0.,1.,0.));
#1014=DIRECTION('ref_axis',(0.,0.,1.));
#1015=DIRECTION('',(1.,0.,0.));
#1016=DIRECTION('',(0.,0.,-1.));
#1017=DIRECTION('',(-1.,0.,0.));
#1018=DIRECTION('',(0.,0.,1.));
#1019=DIRECTION('',(1.,0.,0.));
#1020=DIRECTION('',(0.,0.,-1.));
#1021=DIRECTION('',(-1.,0.,-3.46944695195361E-16));
#1022=DIRECTION('center_axis',(0.,1.,0.));
#1023=DIRECTION('ref_axis',(0.,0.,-1.));
#1024=DIRECTION('',(0.,0.,-1.));
#1025=DIRECTION('center_axis',(0.,1.,0.));
#1026=DIRECTION('ref_axis',(1.,0.,0.));
#1027=DIRECTION('center_axis',(0.,1.,0.));
#1028=DIRECTION('ref_axis',(-1.2292006864725E-5,0.,-0.999999999924453));
#1029=DIRECTION('',(-0.999999999924453,0.,1.22920068623797E-5));
#1030=DIRECTION('center_axis',(0.,1.,0.));
#1031=DIRECTION('ref_axis',(1.,0.,7.61295788314402E-15));
#1032=DIRECTION('',(0.,0.,-1.));
#1033=DIRECTION('center_axis',(0.,1.,0.));
#1034=DIRECTION('ref_axis',(-5.07530525542929E-15,0.,1.));
#1035=DIRECTION('',(1.,0.,6.83214169000097E-16));
#1036=DIRECTION('center_axis',(0.,1.,0.));
#1037=DIRECTION('ref_axis',(-1.2292006873947E-5,0.,0.999999999924453));
#1038=DIRECTION('',(0.999999999924453,0.,1.22920068623797E-5));
#1039=DIRECTION('center_axis',(0.,1.,0.));
#1040=DIRECTION('ref_axis',(-1.,0.,-1.26882631385733E-14));
#1041=DIRECTION('',(-1.,0.,6.83214169000097E-16));
#1042=DIRECTION('center_axis',(0.,1.,0.));
#1043=DIRECTION('ref_axis',(1.,0.,2.53765262771465E-15));
#1044=DIRECTION('',(0.,0.,-1.));
#1045=DIRECTION('center_axis',(0.,-1.,0.));
#1046=DIRECTION('ref_axis',(1.,0.,2.53765262771465E-15));
#1047=DIRECTION('',(0.,-1.,0.));
#1048=DIRECTION('center_axis',(0.,1.,0.));
#1049=DIRECTION('ref_axis',(1.,0.,2.53765262771465E-15));
#1050=DIRECTION('',(0.,-1.,0.));
#1051=DIRECTION('center_axis',(-6.83214169000097E-16,0.,-1.));
#1052=DIRECTION('ref_axis',(1.,0.,-6.83214169000097E-16));
#1053=DIRECTION('',(0.,-1.,0.));
#1054=DIRECTION('',(-1.,0.,6.83214169000097E-16));
#1055=DIRECTION('center_axis',(0.,-1.,0.));
#1056=DIRECTION('ref_axis',(-1.,0.,-1.26882631385733E-14));
#1057=DIRECTION('',(0.,-1.,0.));
#1058=DIRECTION('center_axis',(0.,1.,0.));
#1059=DIRECTION('ref_axis',(-1.,0.,-1.26882631385733E-14));
#1060=DIRECTION('center_axis',(0.,-1.,0.));
#1061=DIRECTION('ref_axis',(-5.07530525542929E-15,0.,1.));
#1062=DIRECTION('',(0.,-1.,0.));
#1063=DIRECTION('center_axis',(0.,1.,0.));
#1064=DIRECTION('ref_axis',(-5.07530525542929E-15,0.,1.));
#1065=DIRECTION('',(0.,-1.,0.));
#1066=DIRECTION('center_axis',(1.,0.,0.));
#1067=DIRECTION('ref_axis',(0.,0.,1.));
#1068=DIRECTION('',(0.,-1.,0.));
#1069=DIRECTION('',(0.,0.,-1.));
#1070=DIRECTION('center_axis',(0.,-1.,0.));
#1071=DIRECTION('ref_axis',(1.,0.,7.61295788314402E-15));
#1072=DIRECTION('',(0.,-1.,0.));
#1073=DIRECTION('center_axis',(0.,1.,0.));
#1074=DIRECTION('ref_axis',(1.,0.,7.61295788314402E-15));
#1075=DIRECTION('center_axis',(0.,1.,0.));
#1076=DIRECTION('ref_axis',(1.,0.,0.));
#1077=DIRECTION('',(0.,1.,0.));
#1078=DIRECTION('center_axis',(0.,1.,0.));
#1079=DIRECTION('ref_axis',(1.,0.,0.));
#1080=DIRECTION('',(0.,1.,0.));
#1081=DIRECTION('center_axis',(1.,0.,0.));
#1082=DIRECTION('ref_axis',(0.,0.,-1.));
#1083=DIRECTION('',(0.,1.,0.));
#1084=DIRECTION('',(0.,0.,-1.));
#1085=DIRECTION('center_axis',(0.,1.,0.));
#1086=DIRECTION('ref_axis',(0.,0.,-1.));
#1087=DIRECTION('',(0.,1.,0.));
#1088=DIRECTION('center_axis',(0.,1.,0.));
#1089=DIRECTION('ref_axis',(0.,0.,-1.));
#1090=DIRECTION('center_axis',(3.46944695195361E-16,0.,-1.));
#1091=DIRECTION('ref_axis',(-1.,0.,-3.46944695195361E-16));
#1092=DIRECTION('',(0.,1.,0.));
#1093=DIRECTION('',(-1.,0.,-3.46944695195361E-16));
#1094=DIRECTION('center_axis',(-1.,0.,0.));
#1095=DIRECTION('ref_axis',(0.,0.,1.));
#1096=DIRECTION('',(0.,-1.,0.));
#1097=DIRECTION('',(0.,0.,1.));
#1098=DIRECTION('center_axis',(0.,-1.,0.));
#1099=DIRECTION('ref_axis',(0.,0.,-1.));
#1100=DIRECTION('',(-1.,0.,0.));
#1101=DIRECTION('center_axis',(0.,-1.,0.));
#1102=DIRECTION('ref_axis',(1.,0.,0.));
#1103=DIRECTION('',(0.,0.,1.));
#1104=DIRECTION('center_axis',(0.,-1.,0.));
#1105=DIRECTION('ref_axis',(0.,0.,-1.));
#1106=DIRECTION('',(1.,0.,3.46944695195361E-16));
#1107=DIRECTION('',(0.,0.,1.));
#1108=DIRECTION('',(-1.,0.,0.));
#1109=DIRECTION('',(0.,0.,-1.));
#1110=DIRECTION('',(1.,0.,0.));
#1111=DIRECTION('',(0.,0.,1.));
#1112=DIRECTION('center_axis',(0.,-1.,0.));
#1113=DIRECTION('ref_axis',(-1.2292006873947E-5,0.,0.999999999924453));
#1114=DIRECTION('',(0.,0.,1.));
#1115=DIRECTION('center_axis',(0.,-1.,0.));
#1116=DIRECTION('ref_axis',(1.,0.,2.53765262771465E-15));
#1117=DIRECTION('',(1.,0.,-6.83214169000097E-16));
#1118=DIRECTION('center_axis',(0.,-1.,0.));
#1119=DIRECTION('ref_axis',(-1.,0.,-1.26882631385733E-14));
#1120=DIRECTION('',(-0.999999999924453,0.,-1.22920068623797E-5));
#1121=DIRECTION('center_axis',(0.,-1.,0.));
#1122=DIRECTION('ref_axis',(-1.2292006864725E-5,0.,-0.999999999924453));
#1123=DIRECTION('',(-1.,0.,-6.83214169000097E-16));
#1124=DIRECTION('center_axis',(0.,-1.,0.));
#1125=DIRECTION('ref_axis',(-5.07530525542929E-15,0.,1.));
#1126=DIRECTION('',(0.,0.,1.));
#1127=DIRECTION('center_axis',(0.,-1.,0.));
#1128=DIRECTION('ref_axis',(1.,0.,7.61295788314402E-15));
#1129=DIRECTION('',(0.999999999924453,0.,-1.22920068623797E-5));
#1130=DIRECTION('center_axis',(0.,-1.,0.));
#1131=DIRECTION('ref_axis',(1.,0.,7.61295788314402E-15));
#1132=DIRECTION('',(0.,-1.,0.));
#1133=DIRECTION('center_axis',(0.,-1.,0.));
#1134=DIRECTION('ref_axis',(1.,0.,7.61295788314402E-15));
#1135=DIRECTION('',(0.,-1.,0.));
#1136=DIRECTION('center_axis',(1.,0.,0.));
#1137=DIRECTION('ref_axis',(0.,0.,1.));
#1138=DIRECTION('',(0.,-1.,0.));
#1139=DIRECTION('',(0.,0.,1.));
#1140=DIRECTION('center_axis',(0.,-1.,0.));
#1141=DIRECTION('ref_axis',(-5.07530525542929E-15,0.,1.));
#1142=DIRECTION('',(0.,-1.,0.));
#1143=DIRECTION('center_axis',(0.,-1.,0.));
#1144=DIRECTION('ref_axis',(-5.07530525542929E-15,0.,1.));
#1145=DIRECTION('center_axis',(0.,-1.,0.));
#1146=DIRECTION('ref_axis',(-1.,0.,-1.26882631385733E-14));
#1147=DIRECTION('',(0.,-1.,0.));
#1148=DIRECTION('center_axis',(0.,-1.,0.));
#1149=DIRECTION('ref_axis',(-1.,0.,-1.26882631385733E-14));
#1150=DIRECTION('',(0.,-1.,0.));
#1151=DIRECTION('center_axis',(-6.83214169000097E-16,0.,-1.));
#1152=DIRECTION('ref_axis',(1.,0.,-6.83214169000097E-16));
#1153=DIRECTION('',(0.,-1.,0.));
#1154=DIRECTION('',(1.,0.,-6.83214169000097E-16));
#1155=DIRECTION('center_axis',(0.,-1.,0.));
#1156=DIRECTION('ref_axis',(1.,0.,2.53765262771465E-15));
#1157=DIRECTION('',(0.,-1.,0.));
#1158=DIRECTION('center_axis',(0.,-1.,0.));
#1159=DIRECTION('ref_axis',(1.,0.,2.53765262771465E-15));
#1160=DIRECTION('center_axis',(0.,1.,0.));
#1161=DIRECTION('ref_axis',(0.,0.,-1.));
#1162=DIRECTION('',(0.,1.,0.));
#1163=DIRECTION('center_axis',(0.,-1.,0.));
#1164=DIRECTION('ref_axis',(0.,0.,-1.));
#1165=DIRECTION('',(0.,1.,0.));
#1166=DIRECTION('center_axis',(1.,0.,0.));
#1167=DIRECTION('ref_axis',(0.,0.,-1.));
#1168=DIRECTION('',(0.,1.,0.));
#1169=DIRECTION('',(0.,0.,1.));
#1170=DIRECTION('center_axis',(0.,1.,0.));
#1171=DIRECTION('ref_axis',(1.,0.,0.));
#1172=DIRECTION('',(0.,1.,0.));
#1173=DIRECTION('center_axis',(0.,-1.,0.));
#1174=DIRECTION('ref_axis',(1.,0.,0.));
#1175=DIRECTION('center_axis',(0.,0.,1.));
#1176=DIRECTION('ref_axis',(1.,0.,0.));
#1177=DIRECTION('',(0.,-1.,0.));
#1178=DIRECTION('',(-1.,0.,0.));
#1179=DIRECTION('center_axis',(-1.,0.,0.));
#1180=DIRECTION('ref_axis',(0.,0.,1.));
#1181=DIRECTION('',(0.,1.,0.));
#1182=DIRECTION('',(0.,0.,-1.));
#1183=DIRECTION('center_axis',(-1.,0.,0.));
#1184=DIRECTION('ref_axis',(0.,0.,1.));
#1185=DIRECTION('',(0.,1.,0.));
#1186=DIRECTION('',(0.,0.,-1.));
#1187=DIRECTION('',(0.,-1.,0.));
#1188=DIRECTION('center_axis',(-1.,0.,0.));
#1189=DIRECTION('ref_axis',(0.,0.,1.));
#1190=DIRECTION('',(0.,-1.,0.));
#1191=DIRECTION('',(0.,0.,1.));
#1192=DIRECTION('',(0.,1.,0.));
#1193=DIRECTION('center_axis',(1.,0.,0.));
#1194=DIRECTION('ref_axis',(0.,0.,-1.));
#1195=DIRECTION('',(0.,-1.,0.));
#1196=DIRECTION('',(0.,-1.,0.));
#1197=DIRECTION('center_axis',(0.,0.,1.));
#1198=DIRECTION('ref_axis',(1.,0.,0.));
#1199=DIRECTION('',(1.,0.,0.));
#1200=DIRECTION('center_axis',(3.46944695195361E-16,0.,-1.));
#1201=DIRECTION('ref_axis',(-1.,0.,-3.46944695195361E-16));
#1202=DIRECTION('',(1.,0.,3.46944695195361E-16));
#1203=DIRECTION('center_axis',(0.,-1.,0.));
#1204=DIRECTION('ref_axis',(0.,0.,1.));
#1205=DIRECTION('',(-1.,0.,0.));
#1206=DIRECTION('',(0.,0.,-1.));
#1207=DIRECTION('',(-1.,0.,0.));
#1208=DIRECTION('center_axis',(0.,1.,0.));
#1209=DIRECTION('ref_axis',(-1.2292006873947E-5,0.,0.999999999924453));
#1210=DIRECTION('',(0.,0.,-1.));
#1211=DIRECTION('',(0.999999999924453,0.,1.22920068623797E-5));
#1212=DIRECTION('center_axis',(0.,1.,0.));
#1213=DIRECTION('ref_axis',(-1.2292006864725E-5,0.,-0.999999999924453));
#1214=DIRECTION('',(1.,0.,6.83214169000097E-16));
#1215=DIRECTION('',(-0.999999999924453,0.,1.22920068623797E-5));
#1216=DIRECTION('center_axis',(-6.83214169000097E-16,0.,1.));
#1217=DIRECTION('ref_axis',(-1.,0.,-6.83214169000097E-16));
#1218=DIRECTION('',(0.,-1.,0.));
#1219=DIRECTION('center_axis',(-6.83214169000097E-16,0.,1.));
#1220=DIRECTION('ref_axis',(-1.,0.,-6.83214169000097E-16));
#1221=DIRECTION('',(0.,-1.,0.));
#1222=DIRECTION('',(-1.,0.,-6.83214169000097E-16));
#1223=DIRECTION('center_axis',(-1.22920068623797E-5,0.,-0.999999999924453));
#1224=DIRECTION('ref_axis',(0.999999999924453,0.,-1.22920068623797E-5));
#1225=DIRECTION('',(0.,1.,0.));
#1226=DIRECTION('center_axis',(0.,-1.,0.));
#1227=DIRECTION('ref_axis',(-1.2292006864725E-5,0.,-0.999999999924453));
#1228=DIRECTION('center_axis',(0.,-1.,0.));
#1229=DIRECTION('ref_axis',(-1.2292006864725E-5,0.,-0.999999999924453));
#1230=DIRECTION('',(0.,-1.,0.));
#1231=DIRECTION('center_axis',(0.,-1.,0.));
#1232=DIRECTION('ref_axis',(-1.2292006864725E-5,0.,-0.999999999924453));
#1233=DIRECTION('center_axis',(-1.22920068623797E-5,0.,-0.999999999924453));
#1234=DIRECTION('ref_axis',(0.999999999924453,0.,-1.22920068623797E-5));
#1235=DIRECTION('',(0.999999999924453,0.,-1.22920068623797E-5));
#1236=DIRECTION('center_axis',(1.,0.,0.));
#1237=DIRECTION('ref_axis',(0.,0.,1.));
#1238=DIRECTION('',(0.,-1.,0.));
#1239=DIRECTION('center_axis',(1.,0.,0.));
#1240=DIRECTION('ref_axis',(0.,0.,1.));
#1241=DIRECTION('',(0.,-1.,0.));
#1242=DIRECTION('',(0.,0.,1.));
#1243=DIRECTION('center_axis',(-1.22920068623797E-5,0.,0.999999999924453));
#1244=DIRECTION('ref_axis',(-0.999999999924453,0.,-1.22920068623797E-5));
#1245=DIRECTION('',(0.,1.,0.));
#1246=DIRECTION('center_axis',(0.,-1.,0.));
#1247=DIRECTION('ref_axis',(-1.2292006873947E-5,0.,0.999999999924453));
#1248=DIRECTION('center_axis',(0.,-1.,0.));
#1249=DIRECTION('ref_axis',(-1.2292006873947E-5,0.,0.999999999924453));
#1250=DIRECTION('',(0.,-1.,0.));
#1251=DIRECTION('center_axis',(0.,-1.,0.));
#1252=DIRECTION('ref_axis',(-1.2292006873947E-5,0.,0.999999999924453));
#1253=DIRECTION('center_axis',(-1.22920068623797E-5,0.,0.999999999924453));
#1254=DIRECTION('ref_axis',(-0.999999999924453,0.,-1.22920068623797E-5));
#1255=DIRECTION('',(-0.999999999924453,0.,-1.22920068623797E-5));
#1256=DIRECTION('center_axis',(0.,1.,0.));
#1257=DIRECTION('ref_axis',(0.,0.,-1.));
#1258=DIRECTION('',(-1.,0.,0.));
#1259=DIRECTION('',(0.,0.,1.));
#1260=DIRECTION('',(-1.,0.,0.));
#1261=DIRECTION('center_axis',(1.,0.,0.));
#1262=DIRECTION('ref_axis',(0.,1.,0.));
#1263=DIRECTION('',(0.,-1.,0.));
#1264=DIRECTION('',(0.,1.,0.));
#1265=DIRECTION('center_axis',(0.,0.,-1.));
#1266=DIRECTION('ref_axis',(0.,1.,0.));
#1267=DIRECTION('center_axis',(0.,0.,1.));
#1268=DIRECTION('ref_axis',(0.,-1.,0.));
#1269=CARTESIAN_POINT('',(0.,0.,0.));
#1270=CARTESIAN_POINT('Origin',(70.2000005215406,-29.3,-5.));
#1271=CARTESIAN_POINT('',(53.2000005215406,-29.3,22.5));
#1272=CARTESIAN_POINT('',(62.2000005215406,-29.3,22.5));
#1273=CARTESIAN_POINT('',(62.2000005215406,-29.3,22.5));
#1274=CARTESIAN_POINT('',(53.2000005215406,-29.3,30.));
#1275=CARTESIAN_POINT('',(53.2000005215406,-29.3,3.75));
#1276=CARTESIAN_POINT('',(72.2000005215406,-29.3,30.));
#1277=CARTESIAN_POINT('',(70.2000005215406,-29.3,30.));
#1278=CARTESIAN_POINT('',(72.2000005215406,-29.3,-5.));
#1279=CARTESIAN_POINT('',(72.2000005215406,-29.3,3.75));
#1280=CARTESIAN_POINT('',(53.2000005215406,-29.3,-5.));
#1281=CARTESIAN_POINT('',(70.2000005215406,-29.3,-5.));
#1282=CARTESIAN_POINT('',(53.2000005215406,-29.3,2.5));
#1283=CARTESIAN_POINT('',(53.2000005215406,-29.3,3.75));
#1284=CARTESIAN_POINT('',(62.2000005215406,-29.3,2.5));
#1285=CARTESIAN_POINT('',(66.2000005215406,-29.3,2.5));
#1286=CARTESIAN_POINT('',(65.2000005215406,-29.3,5.5));
#1287=CARTESIAN_POINT('Origin',(62.2000005215406,-29.3,5.5));
#1288=CARTESIAN_POINT('',(65.2000005215406,-29.3,19.5));
#1289=CARTESIAN_POINT('',(65.2000005215406,-29.3,7.25));
#1290=CARTESIAN_POINT('Origin',(62.2000005215406,-29.3,19.5));
#1291=CARTESIAN_POINT('',(56.9499790105286,-29.3,24.7500004025958));
#1292=CARTESIAN_POINT('',(56.9500005215406,-29.3,28.2500004023314));
#1293=CARTESIAN_POINT('Origin',(56.9500005215406,-29.3,26.5000004023314));
#1294=CARTESIAN_POINT('',(63.4499790105286,-29.3,24.7499205045512));
#1295=CARTESIAN_POINT('',(63.5751726086381,-29.3,24.7499189656706));
#1296=CARTESIAN_POINT('',(65.2000005215406,-29.3,26.499920504419));
#1297=CARTESIAN_POINT('Origin',(63.4500005215406,-29.3,26.499920504419));
#1298=CARTESIAN_POINT('',(65.2000005215406,-29.3,26.5000004023314));
#1299=CARTESIAN_POINT('',(65.2000005215406,-29.3,10.7499602522095));
#1300=CARTESIAN_POINT('',(63.4500005215406,-29.3,28.2500004023314));
#1301=CARTESIAN_POINT('Origin',(63.4500005215406,-29.3,26.5000004023314));
#1302=CARTESIAN_POINT('',(66.8250005215406,-29.3,28.2500004023314));
#1303=CARTESIAN_POINT('',(63.4499790105286,-29.3,0.250079495448801));
#1304=CARTESIAN_POINT('',(65.2000005215406,-29.3,-1.49992050441899));
#1305=CARTESIAN_POINT('Origin',(63.4500005215406,-29.3,-1.49992050441897));
#1306=CARTESIAN_POINT('',(56.9499790105286,-29.3,0.249999597536399));
#1307=CARTESIAN_POINT('',(66.8249574985181,-29.3,0.250120980707538));
#1308=CARTESIAN_POINT('',(56.9500005215406,-29.3,-3.2500004023314));
#1309=CARTESIAN_POINT('Origin',(56.9500005215406,-29.3,-1.50000040233139));
#1310=CARTESIAN_POINT('',(63.4500005215406,-29.3,-3.2500004023314));
#1311=CARTESIAN_POINT('',(63.5750005215406,-29.3,-3.2500004023314));
#1312=CARTESIAN_POINT('',(65.2000005215406,-29.3,-1.5000004023314));
#1313=CARTESIAN_POINT('Origin',(63.4500005215406,-29.3,-1.5000004023314));
#1314=CARTESIAN_POINT('',(65.2000005215406,-29.3,-3.2500002011657));
#1315=CARTESIAN_POINT('Origin',(63.4500005215406,-29.3,-1.5000004023314));
#1316=CARTESIAN_POINT('',(63.4500005215406,-30.5,-3.2500004023314));
#1317=CARTESIAN_POINT('',(63.4500005215406,-29.3,-3.2500004023314));
#1318=CARTESIAN_POINT('',(65.2000005215406,-30.5,-1.5000004023314));
#1319=CARTESIAN_POINT('Origin',(63.4500005215406,-30.5,-1.5000004023314));
#1320=CARTESIAN_POINT('',(65.2000005215406,-29.3,-1.5000004023314));
#1321=CARTESIAN_POINT('Origin',(56.9500005215406,-29.3,-3.2500004023314));
#1322=CARTESIAN_POINT('',(56.9500005215406,-30.5,-3.2500004023314));
#1323=CARTESIAN_POINT('',(56.9500005215406,-29.3,-3.2500004023314));
#1324=CARTESIAN_POINT('',(63.5750005215406,-30.5,-3.2500004023314));
#1325=CARTESIAN_POINT('Origin',(56.9500005215406,-29.3,-1.50000040233139));
#1326=CARTESIAN_POINT('',(56.9499790105286,-30.5,0.249999597536397));
#1327=CARTESIAN_POINT('',(56.9499790105286,-29.3,0.249999597536397));
#1328=CARTESIAN_POINT('Origin',(56.9500005215406,-30.5,-1.50000040233139));
#1329=CARTESIAN_POINT('Origin',(63.4500005215406,-29.3,26.5000004023314));
#1330=CARTESIAN_POINT('',(65.2000005215406,-30.5,26.5000004023314));
#1331=CARTESIAN_POINT('',(65.2000005215406,-29.3,26.5000004023314));
#1332=CARTESIAN_POINT('',(63.4500005215406,-30.5,28.2500004023314));
#1333=CARTESIAN_POINT('Origin',(63.4500005215406,-30.5,26.5000004023314));
#1334=CARTESIAN_POINT('',(63.4500005215406,-29.3,28.2500004023314));
#1335=CARTESIAN_POINT('Origin',(65.2000005215406,-29.3,26.499920504419));
#1336=CARTESIAN_POINT('',(65.2000005215406,-30.5,26.499920504419));
#1337=CARTESIAN_POINT('',(65.2000005215406,-29.3,26.499920504419));
#1338=CARTESIAN_POINT('',(65.2000005215406,-30.5,10.7499602522095));
#1339=CARTESIAN_POINT('Origin',(63.4500005215406,-29.3,26.499920504419));
#1340=CARTESIAN_POINT('',(63.4499790105286,-30.5,24.7499205045512));
#1341=CARTESIAN_POINT('',(63.4499790105286,-29.3,24.7499205045512));
#1342=CARTESIAN_POINT('Origin',(63.4500005215406,-30.5,26.499920504419));
#1343=CARTESIAN_POINT('Origin',(62.2000005215406,-62.1,19.5));
#1344=CARTESIAN_POINT('',(65.2000005215406,-30.5,19.5));
#1345=CARTESIAN_POINT('',(65.2000005215406,-29.3,19.5));
#1346=CARTESIAN_POINT('',(62.2000005215406,-30.5,22.5));
#1347=CARTESIAN_POINT('Origin',(62.2000005215406,-30.5,19.5));
#1348=CARTESIAN_POINT('',(62.2000005215406,-29.3,22.5));
#1349=CARTESIAN_POINT('Origin',(65.2000005215406,-62.1,19.5));
#1350=CARTESIAN_POINT('',(65.2000005215406,-30.5,5.5));
#1351=CARTESIAN_POINT('',(65.2000005215406,-29.3,5.5));
#1352=CARTESIAN_POINT('',(65.2000005215406,-30.5,7.25));
#1353=CARTESIAN_POINT('Origin',(62.2000005215406,-62.1,5.5));
#1354=CARTESIAN_POINT('',(62.2000005215406,-30.5,2.5));
#1355=CARTESIAN_POINT('',(62.2000005215406,-29.3,2.5));
#1356=CARTESIAN_POINT('Origin',(62.2000005215406,-30.5,5.5));
#1357=CARTESIAN_POINT('Origin',(62.2000005215406,-62.1,2.5));
#1358=CARTESIAN_POINT('',(53.2000005215406,-30.5,2.5));
#1359=CARTESIAN_POINT('',(53.2000005215406,-29.3,2.5));
#1360=CARTESIAN_POINT('',(66.2000005215406,-30.5,2.5));
#1361=CARTESIAN_POINT('Origin',(53.2000005215406,-29.9,12.5));
#1362=CARTESIAN_POINT('',(53.2000005215406,-30.5,-5.));
#1363=CARTESIAN_POINT('',(53.2000005215406,-29.3,-5.));
#1364=CARTESIAN_POINT('',(53.2000005215406,-30.5,30.));
#1365=CARTESIAN_POINT('Origin',(70.2000005215406,-62.1,30.));
#1366=CARTESIAN_POINT('',(62.2000005215406,-62.1,22.5));
#1367=CARTESIAN_POINT('',(53.2000005215406,-62.1,22.5));
#1368=CARTESIAN_POINT('',(62.2000005215406,-62.1,22.5));
#1369=CARTESIAN_POINT('',(65.2000005215406,-62.1,19.5));
#1370=CARTESIAN_POINT('Origin',(62.2000005215406,-62.1,19.5));
#1371=CARTESIAN_POINT('',(65.2000005215406,-62.1,5.5));
#1372=CARTESIAN_POINT('',(65.2000005215406,-62.1,24.75));
#1373=CARTESIAN_POINT('',(62.2000005215406,-62.1,2.5));
#1374=CARTESIAN_POINT('Origin',(62.2000005215406,-62.1,5.5));
#1375=CARTESIAN_POINT('',(53.2000005215406,-62.1,2.5));
#1376=CARTESIAN_POINT('',(66.2000005215406,-62.1,2.5));
#1377=CARTESIAN_POINT('',(53.2000005215406,-62.1,-5.));
#1378=CARTESIAN_POINT('',(53.2000005215406,-62.1,21.25));
#1379=CARTESIAN_POINT('',(72.2000005215406,-62.1,-5.));
#1380=CARTESIAN_POINT('',(70.2000005215406,-62.1,-5.));
#1381=CARTESIAN_POINT('',(72.2000005215406,-62.1,30.));
#1382=CARTESIAN_POINT('',(72.2000005215406,-62.1,21.25));
#1383=CARTESIAN_POINT('',(53.2000005215406,-62.1,30.));
#1384=CARTESIAN_POINT('',(70.2000005215406,-62.1,30.));
#1385=CARTESIAN_POINT('',(53.2000005215406,-62.1,21.25));
#1386=CARTESIAN_POINT('',(65.2000005215406,-62.1,-1.49992050441899));
#1387=CARTESIAN_POINT('',(63.4499790105286,-62.1,0.250079495448801));
#1388=CARTESIAN_POINT('Origin',(63.4500005215406,-62.1,-1.49992050441897));
#1389=CARTESIAN_POINT('',(65.2000005215406,-62.1,-1.5000004023314));
#1390=CARTESIAN_POINT('',(65.2000005215406,-62.1,14.2499997988343));
#1391=CARTESIAN_POINT('',(63.4500005215406,-62.1,-3.2500004023314));
#1392=CARTESIAN_POINT('Origin',(63.4500005215406,-62.1,-1.5000004023314));
#1393=CARTESIAN_POINT('',(56.9500005215406,-62.1,-3.2500004023314));
#1394=CARTESIAN_POINT('',(63.5750005215406,-62.1,-3.2500004023314));
#1395=CARTESIAN_POINT('',(56.9499790105286,-62.1,0.249999597536399));
#1396=CARTESIAN_POINT('Origin',(56.9500005215406,-62.1,-1.50000040233139));
#1397=CARTESIAN_POINT('',(66.8251726086381,-62.1,0.250120983351672));
#1398=CARTESIAN_POINT('',(56.9500005215406,-62.1,28.2500004023314));
#1399=CARTESIAN_POINT('',(56.9499790105286,-62.1,24.7500004025958));
#1400=CARTESIAN_POINT('Origin',(56.9500005215406,-62.1,26.5000004023314));
#1401=CARTESIAN_POINT('',(63.4500005215406,-62.1,28.2500004023314));
#1402=CARTESIAN_POINT('',(66.8250005215406,-62.1,28.2500004023314));
#1403=CARTESIAN_POINT('',(65.2000005215406,-62.1,26.5000004023314));
#1404=CARTESIAN_POINT('Origin',(63.4500005215406,-62.1,26.5000004023314));
#1405=CARTESIAN_POINT('',(65.2000005215406,-62.1,26.499920504419));
#1406=CARTESIAN_POINT('',(65.2000005215406,-62.1,28.2499602522095));
#1407=CARTESIAN_POINT('',(63.4499790105286,-62.1,24.7499205045512));
#1408=CARTESIAN_POINT('Origin',(63.4500005215406,-62.1,26.499920504419));
#1409=CARTESIAN_POINT('',(63.5749574985181,-62.1,24.7499189683148));
#1410=CARTESIAN_POINT('Origin',(63.4500005215406,-29.3,26.499920504419));
#1411=CARTESIAN_POINT('',(65.2000005215406,-60.9,26.499920504419));
#1412=CARTESIAN_POINT('',(65.2000005215406,-62.1,26.499920504419));
#1413=CARTESIAN_POINT('',(63.4499790105286,-60.9,24.7499205045512));
#1414=CARTESIAN_POINT('Origin',(63.4500005215406,-60.9,26.499920504419));
#1415=CARTESIAN_POINT('',(63.4499790105286,-62.1,24.7499205045512));
#1416=CARTESIAN_POINT('Origin',(65.2000005215406,-29.3,26.499920504419));
#1417=CARTESIAN_POINT('',(65.2000005215406,-60.9,26.5000004023314));
#1418=CARTESIAN_POINT('',(65.2000005215406,-62.1,26.5000004023314));
#1419=CARTESIAN_POINT('',(65.2000005215406,-60.9,28.2499602522095));
#1420=CARTESIAN_POINT('Origin',(63.4500005215406,-29.3,26.5000004023314));
#1421=CARTESIAN_POINT('',(63.4500005215406,-60.9,28.2500004023314));
#1422=CARTESIAN_POINT('',(63.4500005215406,-62.1,28.2500004023314));
#1423=CARTESIAN_POINT('Origin',(63.4500005215406,-60.9,26.5000004023314));
#1424=CARTESIAN_POINT('Origin',(56.9500005215406,-29.3,-1.50000040233139));
#1425=CARTESIAN_POINT('',(56.9500005215406,-60.9,-3.2500004023314));
#1426=CARTESIAN_POINT('',(56.9500005215406,-62.1,-3.2500004023314));
#1427=CARTESIAN_POINT('',(56.9499790105286,-60.9,0.249999597536397));
#1428=CARTESIAN_POINT('Origin',(56.9500005215406,-60.9,-1.50000040233139));
#1429=CARTESIAN_POINT('',(56.9499790105286,-62.1,0.249999597536397));
#1430=CARTESIAN_POINT('Origin',(56.9500005215406,-29.3,-3.2500004023314));
#1431=CARTESIAN_POINT('',(63.4500005215406,-60.9,-3.2500004023314));
#1432=CARTESIAN_POINT('',(63.4500005215406,-62.1,-3.2500004023314));
#1433=CARTESIAN_POINT('',(63.5750005215406,-60.9,-3.2500004023314));
#1434=CARTESIAN_POINT('Origin',(63.4500005215406,-29.3,-1.5000004023314));
#1435=CARTESIAN_POINT('',(65.2000005215406,-60.9,-1.5000004023314));
#1436=CARTESIAN_POINT('',(65.2000005215406,-62.1,-1.5000004023314));
#1437=CARTESIAN_POINT('Origin',(63.4500005215406,-60.9,-1.5000004023314));
#1438=CARTESIAN_POINT('Origin',(62.2000005215406,-62.1,5.5));
#1439=CARTESIAN_POINT('',(65.2000005215406,-60.9,5.5));
#1440=CARTESIAN_POINT('',(65.2000005215406,-62.1,5.5));
#1441=CARTESIAN_POINT('',(62.2000005215406,-60.9,2.5));
#1442=CARTESIAN_POINT('Origin',(62.2000005215406,-60.9,5.5));
#1443=CARTESIAN_POINT('',(62.2000005215406,-62.1,2.5));
#1444=CARTESIAN_POINT('Origin',(65.2000005215406,-62.1,19.5));
#1445=CARTESIAN_POINT('',(65.2000005215406,-60.9,19.5));
#1446=CARTESIAN_POINT('',(65.2000005215406,-62.1,19.5));
#1447=CARTESIAN_POINT('',(65.2000005215406,-60.9,24.75));
#1448=CARTESIAN_POINT('Origin',(62.2000005215406,-62.1,19.5));
#1449=CARTESIAN_POINT('',(62.2000005215406,-60.9,22.5));
#1450=CARTESIAN_POINT('',(62.2000005215406,-62.1,22.5));
#1451=CARTESIAN_POINT('Origin',(62.2000005215406,-60.9,19.5));
#1452=CARTESIAN_POINT('Origin',(54.2000005215406,-62.1,22.5));
#1453=CARTESIAN_POINT('',(53.2000005215406,-60.9,22.5));
#1454=CARTESIAN_POINT('',(53.2000005215406,-62.1,22.5));
#1455=CARTESIAN_POINT('',(62.2000005215406,-60.9,22.5));
#1456=CARTESIAN_POINT('Origin',(53.2000005215406,-61.5,12.5));
#1457=CARTESIAN_POINT('',(53.2000005215406,-60.9,30.));
#1458=CARTESIAN_POINT('',(53.2000005215406,-62.1,30.));
#1459=CARTESIAN_POINT('',(53.2000005215406,-60.9,30.));
#1460=CARTESIAN_POINT('Origin',(53.2000005215406,-61.5,12.5));
#1461=CARTESIAN_POINT('',(53.2000005215406,-60.9,2.5));
#1462=CARTESIAN_POINT('',(53.2000005215406,-61.8,2.5));
#1463=CARTESIAN_POINT('',(53.2000005215406,-60.9,-5.));
#1464=CARTESIAN_POINT('',(53.2000005215406,-60.9,30.));
#1465=CARTESIAN_POINT('',(53.2000005215406,-62.1,-5.));
#1466=CARTESIAN_POINT('Origin',(53.2000005215406,-29.9,12.5));
#1467=CARTESIAN_POINT('',(53.2000005215406,-30.5,22.5));
#1468=CARTESIAN_POINT('',(53.2000005215406,-46.,22.5));
#1469=CARTESIAN_POINT('',(53.2000005215406,-30.5,30.));
#1470=CARTESIAN_POINT('',(53.2000005215406,-30.5,30.));
#1471=CARTESIAN_POINT('',(53.2000005215406,-29.3,30.));
#1472=CARTESIAN_POINT('Origin',(72.2000005215406,-45.7,12.5));
#1473=CARTESIAN_POINT('',(72.2000005215406,-29.3,30.));
#1474=CARTESIAN_POINT('',(72.2000005215406,-62.1,-5.));
#1475=CARTESIAN_POINT('Origin',(54.2000005215406,-62.1,22.5));
#1476=CARTESIAN_POINT('',(62.2000005215406,-30.5,22.5));
#1477=CARTESIAN_POINT('Origin',(62.2000005215406,-62.1,2.5));
#1478=CARTESIAN_POINT('',(66.2000005215406,-60.9,2.5));
#1479=CARTESIAN_POINT('Origin',(70.2000005215406,-30.5,-5.));
#1480=CARTESIAN_POINT('',(70.2000005215406,-30.5,-5.));
#1481=CARTESIAN_POINT('',(70.2000005215406,-30.5,-5.));
#1482=CARTESIAN_POINT('',(70.2000005215406,-30.5,30.));
#1483=CARTESIAN_POINT('',(70.2000005215406,-30.5,3.75));
#1484=CARTESIAN_POINT('',(70.2000005215406,-30.5,30.));
#1485=CARTESIAN_POINT('',(63.4499790105286,-30.5,0.250079495448801));
#1486=CARTESIAN_POINT('',(65.2000005215406,-30.5,-1.49992050441899));
#1487=CARTESIAN_POINT('Origin',(63.4500005215406,-30.5,-1.49992050441897));
#1488=CARTESIAN_POINT('',(65.2000005215406,-30.5,-3.2500002011657));
#1489=CARTESIAN_POINT('',(66.8249574985181,-30.5,0.250120980707538));
#1490=CARTESIAN_POINT('',(56.9499790105286,-30.5,24.7500004025958));
#1491=CARTESIAN_POINT('',(56.9500005215406,-30.5,28.2500004023314));
#1492=CARTESIAN_POINT('Origin',(56.9500005215406,-30.5,26.5000004023314));
#1493=CARTESIAN_POINT('',(66.8250005215406,-30.5,28.2500004023314));
#1494=CARTESIAN_POINT('',(63.5751726086381,-30.5,24.7499189656706));
#1495=CARTESIAN_POINT('Origin',(63.4500005215406,-29.3,28.2500004023314));
#1496=CARTESIAN_POINT('',(56.9500005215406,-29.3,28.2500004023314));
#1497=CARTESIAN_POINT('Origin',(63.4500005215406,-29.3,28.2500004023314));
#1498=CARTESIAN_POINT('',(56.9500005215406,-60.9,28.2500004023314));
#1499=CARTESIAN_POINT('',(56.9500005215406,-62.1,28.2500004023314));
#1500=CARTESIAN_POINT('',(66.8250005215406,-60.9,28.2500004023314));
#1501=CARTESIAN_POINT('Origin',(56.9499790105286,-29.3,24.7500004025958));
#1502=CARTESIAN_POINT('',(56.9499790105286,-29.3,24.7500004025958));
#1503=CARTESIAN_POINT('Origin',(56.9500005215406,-29.3,26.5000004023314));
#1504=CARTESIAN_POINT('Origin',(56.9500005215406,-29.3,26.5000004023314));
#1505=CARTESIAN_POINT('',(56.9499790105286,-60.9,24.7500004025958));
#1506=CARTESIAN_POINT('',(56.9499790105286,-29.3,24.7500004025958));
#1507=CARTESIAN_POINT('Origin',(56.9500005215406,-60.9,26.5000004023314));
#1508=CARTESIAN_POINT('Origin',(56.9499790105286,-29.3,24.7500004025958));
#1509=CARTESIAN_POINT('',(63.5749574985181,-60.9,24.7499189683148));
#1510=CARTESIAN_POINT('Origin',(65.2000005215406,-29.3,-1.5000004023314));
#1511=CARTESIAN_POINT('',(65.2000005215406,-29.3,-1.49992050441899));
#1512=CARTESIAN_POINT('Origin',(65.2000005215406,-29.3,-1.5000004023314));
#1513=CARTESIAN_POINT('',(65.2000005215406,-60.9,-1.49992050441899));
#1514=CARTESIAN_POINT('',(65.2000005215406,-62.1,-1.49992050441899));
#1515=CARTESIAN_POINT('',(65.2000005215406,-60.9,14.2499997988343));
#1516=CARTESIAN_POINT('Origin',(63.4499790105286,-29.3,0.250079495448801));
#1517=CARTESIAN_POINT('',(63.4499790105286,-29.3,0.250079495448801));
#1518=CARTESIAN_POINT('Origin',(63.4500005215406,-29.3,-1.49992050441897));
#1519=CARTESIAN_POINT('Origin',(63.4500005215406,-29.3,-1.49992050441897));
#1520=CARTESIAN_POINT('',(63.4499790105286,-60.9,0.250079495448801));
#1521=CARTESIAN_POINT('',(63.4499790105286,-29.3,0.250079495448801));
#1522=CARTESIAN_POINT('Origin',(63.4500005215406,-60.9,-1.49992050441897));
#1523=CARTESIAN_POINT('Origin',(63.4499790105286,-29.3,0.250079495448801));
#1524=CARTESIAN_POINT('',(66.8251726086381,-60.9,0.250120983351672));
#1525=CARTESIAN_POINT('Origin',(70.2000005215406,-60.9,30.));
#1526=CARTESIAN_POINT('',(70.2000005215406,-60.9,30.));
#1527=CARTESIAN_POINT('',(70.2000005215406,-60.9,30.));
#1528=CARTESIAN_POINT('',(70.2000005215406,-60.9,-5.));
#1529=CARTESIAN_POINT('',(70.2000005215406,-60.9,21.25));
#1530=CARTESIAN_POINT('',(70.2000005215406,-60.9,-5.));
#1531=CARTESIAN_POINT('Origin',(70.2000005215406,-45.7,12.5));
#1532=CARTESIAN_POINT('',(70.2000005215406,-29.3,30.));
#1533=CARTESIAN_POINT('',(70.2000005215406,-62.1,-5.));
#1534=CARTESIAN_POINT('Origin',(70.2000005215406,-62.1,-5.));
#1535=CARTESIAN_POINT('Origin',(70.2000005215406,-29.3,30.));
#1536=UNCERTAINTY_MEASURE_WITH_UNIT(LENGTH_MEASURE(0.01),#1540,
'DISTANCE_ACCURACY_VALUE',
'Maximum model space distance between geometric entities at asserted c
onnectivities');
#1537=UNCERTAINTY_MEASURE_WITH_UNIT(LENGTH_MEASURE(0.01),#1540,
'DISTANCE_ACCURACY_VALUE',
'Maximum model space distance between geometric entities at asserted c
onnectivities');
#1538=(
GEOMETRIC_REPRESENTATION_CONTEXT(3)
GLOBAL_UNCERTAINTY_ASSIGNED_CONTEXT((#1536))
GLOBAL_UNIT_ASSIGNED_CONTEXT((#1540,#1541,#1542))
REPRESENTATION_CONTEXT('','3D')
);
#1539=(
GEOMETRIC_REPRESENTATION_CONTEXT(3)
GLOBAL_UNCERTAINTY_ASSIGNED_CONTEXT((#1537))
GLOBAL_UNIT_ASSIGNED_CONTEXT((#1540,#1541,#1542))
REPRESENTATION_CONTEXT('','3D')
);
#1540=(
LENGTH_UNIT()
NAMED_UNIT(*)
SI_UNIT(.MILLI.,.METRE.)
);
#1541=(
NAMED_UNIT(*)
PLANE_ANGLE_UNIT()
SI_UNIT($,.RADIAN.)
);
#1542=(
NAMED_UNIT(*)
SI_UNIT($,.STERADIAN.)
SOLID_ANGLE_UNIT()
);
#1543=SHAPE_DEFINITION_REPRESENTATION(#1544,#1545);
#1544=PRODUCT_DEFINITION_SHAPE('',$,#1547);
#1545=SHAPE_REPRESENTATION('',(#932),#1538);
#1546=PRODUCT_DEFINITION_CONTEXT('part definition',#1551,'design');
#1547=PRODUCT_DEFINITION('B Excitation Housing',
'B Excitation Housing v7',#1548,#1546);
#1548=PRODUCT_DEFINITION_FORMATION('',$,#1553);
#1549=PRODUCT_RELATED_PRODUCT_CATEGORY('B Excitation Housing v7',
'B Excitation Housing v7',(#1553));
#1550=APPLICATION_PROTOCOL_DEFINITION('international standard',
'automotive_design',2009,#1551);
#1551=APPLICATION_CONTEXT(
'Core Data for Automotive Mechanical Design Process');
#1552=PRODUCT_CONTEXT('part definition',#1551,'mechanical');
#1553=PRODUCT('B Excitation Housing','B Excitation Housing v7',$,(#1552));
#1554=PRESENTATION_STYLE_ASSIGNMENT((#1556));
#1555=PRESENTATION_STYLE_ASSIGNMENT((#1557));
#1556=SURFACE_STYLE_USAGE(.BOTH.,#1558);
#1557=SURFACE_STYLE_USAGE(.BOTH.,#1559);
#1558=SURFACE_SIDE_STYLE('',(#1560));
#1559=SURFACE_SIDE_STYLE('',(#1561));
#1560=SURFACE_STYLE_FILL_AREA(#1562);
#1561=SURFACE_STYLE_FILL_AREA(#1563);
#1562=FILL_AREA_STYLE('Platte',(#1564));
#1563=FILL_AREA_STYLE('Opaque(160,160,160)',(#1565));
#1564=FILL_AREA_STYLE_COLOUR('Platte',#1566);
#1565=FILL_AREA_STYLE_COLOUR('Opaque(160,160,160)',#1567);
#1566=COLOUR_RGB('Platte',0.6,0.6,0.6);
#1567=COLOUR_RGB('Opaque(160,160,160)',0.627450980392157,0.627450980392157,
0.627450980392157);
ENDSEC;
END-ISO-10303-21;
