ISO-10303-21;
HEADER;
/* Generated by software containing ST-Developer
 * from STEP Tools, Inc. (www.steptools.com) 
 */

FILE_DESCRIPTION(
/* description */ (''),
/* implementation_level */ '2;1');

FILE_NAME(
/* name */ 'LED Board holder.step',
/* time_stamp */ '2026-08-05T19:03:56+02:00',
/* author */ (''),
/* organization */ (''),
/* preprocessor_version */ 'ST-DEVELOPER v20.1',
/* originating_system */ 'Autodesk Translation Framework v15.8.0.0',
/* authorisation */ '');

FILE_SCHEMA (('AUTOMOTIVE_DESIGN { 1 0 10303 214 3 1 1 }'));
ENDSEC;

DATA;
#10=MECHANICAL_DESIGN_GEOMETRIC_PRESENTATION_REPRESENTATION('',(#13),#1539);
#11=SHAPE_REPRESENTATION_RELATIONSHIP('SRR','None',#1545,#12);
#12=ADVANCED_BREP_SHAPE_REPRESENTATION('',(#14),#1538);
#13=STYLED_ITEM('',(#1555),#14);
#14=MANIFOLD_SOLID_BREP('LED Board holder',#931);
#15=CYLINDRICAL_SURFACE('',#956,3.);
#16=CYLINDRICAL_SURFACE('',#961,3.);
#17=CYLINDRICAL_SURFACE('',#965,3.);
#18=CYLINDRICAL_SURFACE('',#968,3.);
#19=CYLINDRICAL_SURFACE('',#979,1.75);
#20=CYLINDRICAL_SURFACE('',#980,1.75);
#21=CYLINDRICAL_SURFACE('',#982,1.74999999999998);
#22=CYLINDRICAL_SURFACE('',#986,1.74999999986778);
#23=CYLINDRICAL_SURFACE('',#987,1.74999999986778);
#24=CYLINDRICAL_SURFACE('',#989,1.74999999999998);
#25=CYLINDRICAL_SURFACE('',#994,1.75);
#26=CYLINDRICAL_SURFACE('',#995,1.75);
#27=CYLINDRICAL_SURFACE('',#997,1.74999999999999);
#28=CYLINDRICAL_SURFACE('',#1001,1.74999999999998);
#29=CYLINDRICAL_SURFACE('',#1002,1.74999999999998);
#30=CYLINDRICAL_SURFACE('',#1004,1.74999999999999);
#31=FACE_BOUND('',#122,.T.);
#32=FACE_BOUND('',#123,.T.);
#33=FACE_BOUND('',#126,.T.);
#34=FACE_BOUND('',#127,.T.);
#35=FACE_BOUND('',#139,.T.);
#36=FACE_BOUND('',#140,.T.);
#37=FACE_BOUND('',#166,.T.);
#38=FACE_BOUND('',#167,.T.);
#39=CIRCLE('',#938,3.);
#40=CIRCLE('',#939,3.);
#41=CIRCLE('',#940,1.74999999999998);
#42=CIRCLE('',#941,1.75);
#43=CIRCLE('',#942,1.74999999999999);
#44=CIRCLE('',#943,1.74999999986778);
#45=CIRCLE('',#944,1.75);
#46=CIRCLE('',#945,1.74999999999998);
#47=CIRCLE('',#948,3.);
#48=CIRCLE('',#949,3.);
#49=CIRCLE('',#950,1.74999999986778);
#50=CIRCLE('',#951,1.74999999999998);
#51=CIRCLE('',#952,1.75);
#52=CIRCLE('',#953,1.74999999999998);
#53=CIRCLE('',#954,1.74999999999999);
#54=CIRCLE('',#955,1.75);
#55=CIRCLE('',#957,3.);
#56=CIRCLE('',#962,3.);
#57=CIRCLE('',#966,3.);
#58=CIRCLE('',#969,3.);
#59=CIRCLE('',#971,1.74999999999998);
#60=CIRCLE('',#972,1.75);
#61=CIRCLE('',#973,1.74999999999999);
#62=CIRCLE('',#974,1.74999999986778);
#63=CIRCLE('',#975,1.75);
#64=CIRCLE('',#976,1.74999999999998);
#65=CIRCLE('',#981,1.75);
#66=CIRCLE('',#988,1.74999999986778);
#67=CIRCLE('',#990,1.74999999999998);
#68=CIRCLE('',#996,1.75);
#69=CIRCLE('',#1003,1.74999999999998);
#70=CIRCLE('',#1005,1.74999999999999);
#71=FACE_OUTER_BOUND('',#117,.T.);
#72=FACE_OUTER_BOUND('',#118,.T.);
#73=FACE_OUTER_BOUND('',#119,.T.);
#74=FACE_OUTER_BOUND('',#120,.T.);
#75=FACE_OUTER_BOUND('',#121,.T.);
#76=FACE_OUTER_BOUND('',#124,.T.);
#77=FACE_OUTER_BOUND('',#125,.T.);
#78=FACE_OUTER_BOUND('',#128,.T.);
#79=FACE_OUTER_BOUND('',#129,.T.);
#80=FACE_OUTER_BOUND('',#130,.T.);
#81=FACE_OUTER_BOUND('',#131,.T.);
#82=FACE_OUTER_BOUND('',#132,.T.);
#83=FACE_OUTER_BOUND('',#133,.T.);
#84=FACE_OUTER_BOUND('',#134,.T.);
#85=FACE_OUTER_BOUND('',#135,.T.);
#86=FACE_OUTER_BOUND('',#136,.T.);
#87=FACE_OUTER_BOUND('',#137,.T.);
#88=FACE_OUTER_BOUND('',#138,.T.);
#89=FACE_OUTER_BOUND('',#141,.T.);
#90=FACE_OUTER_BOUND('',#142,.T.);
#91=FACE_OUTER_BOUND('',#143,.T.);
#92=FACE_OUTER_BOUND('',#144,.T.);
#93=FACE_OUTER_BOUND('',#145,.T.);
#94=FACE_OUTER_BOUND('',#146,.T.);
#95=FACE_OUTER_BOUND('',#147,.T.);
#96=FACE_OUTER_BOUND('',#148,.T.);
#97=FACE_OUTER_BOUND('',#149,.T.);
#98=FACE_OUTER_BOUND('',#150,.T.);
#99=FACE_OUTER_BOUND('',#151,.T.);
#100=FACE_OUTER_BOUND('',#152,.T.);
#101=FACE_OUTER_BOUND('',#153,.T.);
#102=FACE_OUTER_BOUND('',#154,.T.);
#103=FACE_OUTER_BOUND('',#155,.T.);
#104=FACE_OUTER_BOUND('',#156,.T.);
#105=FACE_OUTER_BOUND('',#157,.T.);
#106=FACE_OUTER_BOUND('',#158,.T.);
#107=FACE_OUTER_BOUND('',#159,.T.);
#108=FACE_OUTER_BOUND('',#160,.T.);
#109=FACE_OUTER_BOUND('',#161,.T.);
#110=FACE_OUTER_BOUND('',#162,.T.);
#111=FACE_OUTER_BOUND('',#163,.T.);
#112=FACE_OUTER_BOUND('',#164,.T.);
#113=FACE_OUTER_BOUND('',#165,.T.);
#114=FACE_OUTER_BOUND('',#168,.T.);
#115=FACE_OUTER_BOUND('',#169,.T.);
#116=FACE_OUTER_BOUND('',#170,.T.);
#117=EDGE_LOOP('',(#591,#592,#593,#594));
#118=EDGE_LOOP('',(#595,#596,#597,#598));
#119=EDGE_LOOP('',(#599,#600,#601,#602));
#120=EDGE_LOOP('',(#603,#604,#605,#606));
#121=EDGE_LOOP('',(#607,#608,#609,#610,#611,#612,#613,#614,#615,#616));
#122=EDGE_LOOP('',(#617,#618,#619,#620,#621,#622));
#123=EDGE_LOOP('',(#623,#624,#625,#626,#627,#628));
#124=EDGE_LOOP('',(#629,#630,#631,#632));
#125=EDGE_LOOP('',(#633,#634,#635,#636,#637,#638,#639,#640,#641,#642));
#126=EDGE_LOOP('',(#643,#644,#645,#646,#647,#648));
#127=EDGE_LOOP('',(#649,#650,#651,#652,#653,#654));
#128=EDGE_LOOP('',(#655,#656,#657,#658));
#129=EDGE_LOOP('',(#659,#660,#661,#662));
#130=EDGE_LOOP('',(#663,#664,#665,#666));
#131=EDGE_LOOP('',(#667,#668,#669,#670));
#132=EDGE_LOOP('',(#671,#672,#673,#674));
#133=EDGE_LOOP('',(#675,#676,#677,#678));
#134=EDGE_LOOP('',(#679,#680,#681,#682));
#135=EDGE_LOOP('',(#683,#684,#685,#686));
#136=EDGE_LOOP('',(#687,#688,#689,#690));
#137=EDGE_LOOP('',(#691,#692,#693,#694));
#138=EDGE_LOOP('',(#695,#696,#697,#698,#699,#700,#701,#702,#703,#704));
#139=EDGE_LOOP('',(#705,#706,#707,#708,#709,#710));
#140=EDGE_LOOP('',(#711,#712,#713,#714,#715,#716));
#141=EDGE_LOOP('',(#717,#718,#719,#720));
#142=EDGE_LOOP('',(#721,#722,#723,#724));
#143=EDGE_LOOP('',(#725,#726,#727,#728));
#144=EDGE_LOOP('',(#729,#730,#731,#732));
#145=EDGE_LOOP('',(#733,#734,#735,#736));
#146=EDGE_LOOP('',(#737,#738,#739,#740));
#147=EDGE_LOOP('',(#741,#742,#743,#744));
#148=EDGE_LOOP('',(#745,#746,#747,#748));
#149=EDGE_LOOP('',(#749,#750,#751,#752));
#150=EDGE_LOOP('',(#753,#754,#755,#756));
#151=EDGE_LOOP('',(#757,#758,#759,#760));
#152=EDGE_LOOP('',(#761,#762,#763,#764));
#153=EDGE_LOOP('',(#765,#766,#767,#768));
#154=EDGE_LOOP('',(#769,#770,#771,#772));
#155=EDGE_LOOP('',(#773,#774,#775,#776));
#156=EDGE_LOOP('',(#777,#778,#779,#780));
#157=EDGE_LOOP('',(#781,#782,#783,#784));
#158=EDGE_LOOP('',(#785,#786,#787,#788));
#159=EDGE_LOOP('',(#789,#790,#791,#792));
#160=EDGE_LOOP('',(#793,#794,#795,#796));
#161=EDGE_LOOP('',(#797,#798,#799,#800));
#162=EDGE_LOOP('',(#801,#802,#803,#804));
#163=EDGE_LOOP('',(#805,#806,#807,#808));
#164=EDGE_LOOP('',(#809,#810,#811,#812));
#165=EDGE_LOOP('',(#813,#814,#815,#816,#817,#818,#819,#820,#821,#822));
#166=EDGE_LOOP('',(#823,#824,#825,#826,#827,#828));
#167=EDGE_LOOP('',(#829,#830,#831,#832,#833,#834));
#168=EDGE_LOOP('',(#835,#836,#837,#838));
#169=EDGE_LOOP('',(#839,#840,#841,#842,#843,#844,#845,#846));
#170=EDGE_LOOP('',(#847,#848,#849,#850,#851,#852,#853,#854));
#171=LINE('',#1273,#271);
#172=LINE('',#1275,#272);
#173=LINE('',#1277,#273);
#174=LINE('',#1278,#274);
#175=LINE('',#1282,#275);
#176=LINE('',#1284,#276);
#177=LINE('',#1286,#277);
#178=LINE('',#1287,#278);
#179=LINE('',#1291,#279);
#180=LINE('',#1293,#280);
#181=LINE('',#1295,#281);
#182=LINE('',#1296,#282);
#183=LINE('',#1300,#283);
#184=LINE('',#1302,#284);
#185=LINE('',#1304,#285);
#186=LINE('',#1305,#286);
#187=LINE('',#1308,#287);
#188=LINE('',#1312,#288);
#189=LINE('',#1315,#289);
#190=LINE('',#1317,#290);
#191=LINE('',#1319,#291);
#192=LINE('',#1320,#292);
#193=LINE('',#1325,#293);
#194=LINE('',#1329,#294);
#195=LINE('',#1332,#295);
#196=LINE('',#1337,#296);
#197=LINE('',#1341,#297);
#198=LINE('',#1344,#298);
#199=LINE('',#1347,#299);
#200=LINE('',#1349,#300);
#201=LINE('',#1350,#301);
#202=LINE('',#1353,#302);
#203=LINE('',#1354,#303);
#204=LINE('',#1355,#304);
#205=LINE('',#1357,#305);
#206=LINE('',#1361,#306);
#207=LINE('',#1367,#307);
#208=LINE('',#1371,#308);
#209=LINE('',#1374,#309);
#210=LINE('',#1379,#310);
#211=LINE('',#1383,#311);
#212=LINE('',#1386,#312);
#213=LINE('',#1389,#313);
#214=LINE('',#1392,#314);
#215=LINE('',#1394,#315);
#216=LINE('',#1397,#316);
#217=LINE('',#1398,#317);
#218=LINE('',#1401,#318);
#219=LINE('',#1402,#319);
#220=LINE('',#1405,#320);
#221=LINE('',#1408,#321);
#222=LINE('',#1411,#322);
#223=LINE('',#1412,#323);
#224=LINE('',#1416,#324);
#225=LINE('',#1419,#325);
#226=LINE('',#1420,#326);
#227=LINE('',#1425,#327);
#228=LINE('',#1427,#328);
#229=LINE('',#1428,#329);
#230=LINE('',#1433,#330);
#231=LINE('',#1437,#331);
#232=LINE('',#1440,#332);
#233=LINE('',#1445,#333);
#234=LINE('',#1449,#334);
#235=LINE('',#1452,#335);
#236=LINE('',#1454,#336);
#237=LINE('',#1455,#337);
#238=LINE('',#1459,#338);
#239=LINE('',#1460,#339);
#240=LINE('',#1461,#340);
#241=LINE('',#1463,#341);
#242=LINE('',#1467,#342);
#243=LINE('',#1469,#343);
#244=LINE('',#1471,#344);
#245=LINE('',#1474,#345);
#246=LINE('',#1475,#346);
#247=LINE('',#1477,#347);
#248=LINE('',#1482,#348);
#249=LINE('',#1486,#349);
#250=LINE('',#1488,#350);
#251=LINE('',#1490,#351);
#252=LINE('',#1491,#352);
#253=LINE('',#1495,#353);
#254=LINE('',#1496,#354);
#255=LINE('',#1497,#355);
#256=LINE('',#1499,#356);
#257=LINE('',#1503,#357);
#258=LINE('',#1505,#358);
#259=LINE('',#1507,#359);
#260=LINE('',#1510,#360);
#261=LINE('',#1511,#361);
#262=LINE('',#1513,#362);
#263=LINE('',#1518,#363);
#264=LINE('',#1522,#364);
#265=LINE('',#1524,#365);
#266=LINE('',#1527,#366);
#267=LINE('',#1529,#367);
#268=LINE('',#1530,#368);
#269=LINE('',#1532,#369);
#270=LINE('',#1533,#370);
#271=VECTOR('',#1015,10.);
#272=VECTOR('',#1016,10.);
#273=VECTOR('',#1017,10.);
#274=VECTOR('',#1018,10.);
#275=VECTOR('',#1021,10.);
#276=VECTOR('',#1022,10.);
#277=VECTOR('',#1023,10.);
#278=VECTOR('',#1024,10.);
#279=VECTOR('',#1027,10.);
#280=VECTOR('',#1028,10.);
#281=VECTOR('',#1029,10.);
#282=VECTOR('',#1030,10.);
#283=VECTOR('',#1033,10.);
#284=VECTOR('',#1034,10.);
#285=VECTOR('',#1035,10.);
#286=VECTOR('',#1036,10.);
#287=VECTOR('',#1039,10.);
#288=VECTOR('',#1042,10.);
#289=VECTOR('',#1045,10.);
#290=VECTOR('',#1046,10.);
#291=VECTOR('',#1047,10.);
#292=VECTOR('',#1048,10.);
#293=VECTOR('',#1051,10.);
#294=VECTOR('',#1054,10.);
#295=VECTOR('',#1057,10.);
#296=VECTOR('',#1060,10.);
#297=VECTOR('',#1063,10.);
#298=VECTOR('',#1066,10.);
#299=VECTOR('',#1069,10.);
#300=VECTOR('',#1070,10.);
#301=VECTOR('',#1071,10.);
#302=VECTOR('',#1074,10.);
#303=VECTOR('',#1075,10.);
#304=VECTOR('',#1076,10.);
#305=VECTOR('',#1077,10.);
#306=VECTOR('',#1080,10.);
#307=VECTOR('',#1085,10.);
#308=VECTOR('',#1088,10.);
#309=VECTOR('',#1091,10.);
#310=VECTOR('',#1094,10.);
#311=VECTOR('',#1097,10.);
#312=VECTOR('',#1100,10.);
#313=VECTOR('',#1103,10.);
#314=VECTOR('',#1106,10.);
#315=VECTOR('',#1109,10.);
#316=VECTOR('',#1112,10.);
#317=VECTOR('',#1113,10.);
#318=VECTOR('',#1116,10.);
#319=VECTOR('',#1117,10.);
#320=VECTOR('',#1120,10.);
#321=VECTOR('',#1125,10.);
#322=VECTOR('',#1128,10.);
#323=VECTOR('',#1129,10.);
#324=VECTOR('',#1134,10.);
#325=VECTOR('',#1137,10.);
#326=VECTOR('',#1138,10.);
#327=VECTOR('',#1145,10.);
#328=VECTOR('',#1146,10.);
#329=VECTOR('',#1147,10.);
#330=VECTOR('',#1150,10.);
#331=VECTOR('',#1153,10.);
#332=VECTOR('',#1156,10.);
#333=VECTOR('',#1159,10.);
#334=VECTOR('',#1162,10.);
#335=VECTOR('',#1165,10.);
#336=VECTOR('',#1168,10.);
#337=VECTOR('',#1169,10.);
#338=VECTOR('',#1172,10.);
#339=VECTOR('',#1173,10.);
#340=VECTOR('',#1174,10.);
#341=VECTOR('',#1177,10.);
#342=VECTOR('',#1182,10.);
#343=VECTOR('',#1185,10.);
#344=VECTOR('',#1188,10.);
#345=VECTOR('',#1191,10.);
#346=VECTOR('',#1192,10.);
#347=VECTOR('',#1195,10.);
#348=VECTOR('',#1202,10.);
#349=VECTOR('',#1207,10.);
#350=VECTOR('',#1210,10.);
#351=VECTOR('',#1213,10.);
#352=VECTOR('',#1214,10.);
#353=VECTOR('',#1217,10.);
#354=VECTOR('',#1218,10.);
#355=VECTOR('',#1219,10.);
#356=VECTOR('',#1222,10.);
#357=VECTOR('',#1227,10.);
#358=VECTOR('',#1230,10.);
#359=VECTOR('',#1233,10.);
#360=VECTOR('',#1236,10.);
#361=VECTOR('',#1237,10.);
#362=VECTOR('',#1240,10.);
#363=VECTOR('',#1247,10.);
#364=VECTOR('',#1252,10.);
#365=VECTOR('',#1255,10.);
#366=VECTOR('',#1258,10.);
#367=VECTOR('',#1259,10.);
#368=VECTOR('',#1260,10.);
#369=VECTOR('',#1263,10.);
#370=VECTOR('',#1264,10.);
#371=VERTEX_POINT('',#1271);
#372=VERTEX_POINT('',#1272);
#373=VERTEX_POINT('',#1274);
#374=VERTEX_POINT('',#1276);
#375=VERTEX_POINT('',#1280);
#376=VERTEX_POINT('',#1281);
#377=VERTEX_POINT('',#1283);
#378=VERTEX_POINT('',#1285);
#379=VERTEX_POINT('',#1289);
#380=VERTEX_POINT('',#1290);
#381=VERTEX_POINT('',#1292);
#382=VERTEX_POINT('',#1294);
#383=VERTEX_POINT('',#1298);
#384=VERTEX_POINT('',#1299);
#385=VERTEX_POINT('',#1301);
#386=VERTEX_POINT('',#1303);
#387=VERTEX_POINT('',#1307);
#388=VERTEX_POINT('',#1309);
#389=VERTEX_POINT('',#1311);
#390=VERTEX_POINT('',#1313);
#391=VERTEX_POINT('',#1316);
#392=VERTEX_POINT('',#1318);
#393=VERTEX_POINT('',#1321);
#394=VERTEX_POINT('',#1322);
#395=VERTEX_POINT('',#1324);
#396=VERTEX_POINT('',#1326);
#397=VERTEX_POINT('',#1328);
#398=VERTEX_POINT('',#1330);
#399=VERTEX_POINT('',#1333);
#400=VERTEX_POINT('',#1334);
#401=VERTEX_POINT('',#1336);
#402=VERTEX_POINT('',#1338);
#403=VERTEX_POINT('',#1340);
#404=VERTEX_POINT('',#1342);
#405=VERTEX_POINT('',#1346);
#406=VERTEX_POINT('',#1348);
#407=VERTEX_POINT('',#1352);
#408=VERTEX_POINT('',#1356);
#409=VERTEX_POINT('',#1358);
#410=VERTEX_POINT('',#1360);
#411=VERTEX_POINT('',#1363);
#412=VERTEX_POINT('',#1364);
#413=VERTEX_POINT('',#1366);
#414=VERTEX_POINT('',#1368);
#415=VERTEX_POINT('',#1370);
#416=VERTEX_POINT('',#1372);
#417=VERTEX_POINT('',#1375);
#418=VERTEX_POINT('',#1376);
#419=VERTEX_POINT('',#1378);
#420=VERTEX_POINT('',#1380);
#421=VERTEX_POINT('',#1382);
#422=VERTEX_POINT('',#1384);
#423=VERTEX_POINT('',#1388);
#424=VERTEX_POINT('',#1390);
#425=VERTEX_POINT('',#1396);
#426=VERTEX_POINT('',#1400);
#427=VERTEX_POINT('',#1404);
#428=VERTEX_POINT('',#1410);
#429=VERTEX_POINT('',#1414);
#430=VERTEX_POINT('',#1418);
#431=VERTEX_POINT('',#1424);
#432=VERTEX_POINT('',#1426);
#433=VERTEX_POINT('',#1429);
#434=VERTEX_POINT('',#1430);
#435=VERTEX_POINT('',#1432);
#436=VERTEX_POINT('',#1434);
#437=VERTEX_POINT('',#1436);
#438=VERTEX_POINT('',#1438);
#439=VERTEX_POINT('',#1441);
#440=VERTEX_POINT('',#1442);
#441=VERTEX_POINT('',#1444);
#442=VERTEX_POINT('',#1446);
#443=VERTEX_POINT('',#1448);
#444=VERTEX_POINT('',#1450);
#445=VERTEX_POINT('',#1457);
#446=VERTEX_POINT('',#1458);
#447=VERTEX_POINT('',#1465);
#448=VERTEX_POINT('',#1473);
#449=VERTEX_POINT('',#1480);
#450=VERTEX_POINT('',#1484);
#451=VERTEX_POINT('',#1493);
#452=VERTEX_POINT('',#1494);
#453=VERTEX_POINT('',#1501);
#454=VERTEX_POINT('',#1509);
#455=VERTEX_POINT('',#1516);
#456=VERTEX_POINT('',#1520);
#457=VERTEX_POINT('',#1526);
#458=VERTEX_POINT('',#1528);
#459=EDGE_CURVE('',#371,#372,#171,.T.);
#460=EDGE_CURVE('',#372,#373,#172,.T.);
#461=EDGE_CURVE('',#373,#374,#173,.T.);
#462=EDGE_CURVE('',#374,#371,#174,.T.);
#463=EDGE_CURVE('',#375,#376,#175,.T.);
#464=EDGE_CURVE('',#376,#377,#176,.T.);
#465=EDGE_CURVE('',#377,#378,#177,.T.);
#466=EDGE_CURVE('',#378,#375,#178,.T.);
#467=EDGE_CURVE('',#379,#380,#179,.T.);
#468=EDGE_CURVE('',#380,#381,#180,.T.);
#469=EDGE_CURVE('',#381,#382,#181,.T.);
#470=EDGE_CURVE('',#382,#379,#182,.T.);
#471=EDGE_CURVE('',#383,#384,#183,.T.);
#472=EDGE_CURVE('',#384,#385,#184,.T.);
#473=EDGE_CURVE('',#385,#386,#185,.T.);
#474=EDGE_CURVE('',#386,#383,#186,.T.);
#475=EDGE_CURVE('',#387,#380,#187,.T.);
#476=EDGE_CURVE('',#387,#388,#39,.T.);
#477=EDGE_CURVE('',#388,#389,#188,.T.);
#478=EDGE_CURVE('',#389,#390,#40,.T.);
#479=EDGE_CURVE('',#390,#371,#189,.T.);
#480=EDGE_CURVE('',#391,#374,#190,.T.);
#481=EDGE_CURVE('',#391,#392,#191,.T.);
#482=EDGE_CURVE('',#392,#381,#192,.T.);
#483=EDGE_CURVE('',#393,#394,#41,.T.);
#484=EDGE_CURVE('',#394,#395,#193,.T.);
#485=EDGE_CURVE('',#395,#396,#42,.T.);
#486=EDGE_CURVE('',#396,#397,#194,.T.);
#487=EDGE_CURVE('',#397,#398,#43,.T.);
#488=EDGE_CURVE('',#398,#393,#195,.T.);
#489=EDGE_CURVE('',#399,#400,#44,.T.);
#490=EDGE_CURVE('',#400,#401,#196,.T.);
#491=EDGE_CURVE('',#401,#402,#45,.T.);
#492=EDGE_CURVE('',#402,#403,#197,.T.);
#493=EDGE_CURVE('',#403,#404,#46,.T.);
#494=EDGE_CURVE('',#404,#399,#198,.T.);
#495=EDGE_CURVE('',#405,#392,#199,.T.);
#496=EDGE_CURVE('',#406,#391,#200,.T.);
#497=EDGE_CURVE('',#406,#405,#201,.T.);
#498=EDGE_CURVE('',#407,#375,#202,.T.);
#499=EDGE_CURVE('',#405,#378,#203,.T.);
#500=EDGE_CURVE('',#385,#406,#204,.T.);
#501=EDGE_CURVE('',#408,#384,#205,.T.);
#502=EDGE_CURVE('',#408,#409,#47,.T.);
#503=EDGE_CURVE('',#409,#410,#206,.T.);
#504=EDGE_CURVE('',#410,#407,#48,.T.);
#505=EDGE_CURVE('',#411,#412,#49,.T.);
#506=EDGE_CURVE('',#412,#413,#207,.T.);
#507=EDGE_CURVE('',#413,#414,#50,.T.);
#508=EDGE_CURVE('',#414,#415,#208,.T.);
#509=EDGE_CURVE('',#415,#416,#51,.T.);
#510=EDGE_CURVE('',#416,#411,#209,.T.);
#511=EDGE_CURVE('',#417,#418,#52,.T.);
#512=EDGE_CURVE('',#418,#419,#210,.T.);
#513=EDGE_CURVE('',#419,#420,#53,.T.);
#514=EDGE_CURVE('',#420,#421,#211,.T.);
#515=EDGE_CURVE('',#421,#422,#54,.T.);
#516=EDGE_CURVE('',#422,#417,#212,.T.);
#517=EDGE_CURVE('',#423,#410,#213,.T.);
#518=EDGE_CURVE('',#424,#423,#55,.T.);
#519=EDGE_CURVE('',#424,#407,#214,.T.);
#520=EDGE_CURVE('',#376,#424,#215,.T.);
#521=EDGE_CURVE('',#425,#379,#216,.T.);
#522=EDGE_CURVE('',#387,#425,#217,.T.);
#523=EDGE_CURVE('',#426,#409,#218,.T.);
#524=EDGE_CURVE('',#423,#426,#219,.T.);
#525=EDGE_CURVE('',#427,#408,#220,.T.);
#526=EDGE_CURVE('',#426,#427,#56,.T.);
#527=EDGE_CURVE('',#427,#383,#221,.T.);
#528=EDGE_CURVE('',#372,#428,#222,.T.);
#529=EDGE_CURVE('',#390,#428,#223,.T.);
#530=EDGE_CURVE('',#428,#429,#57,.T.);
#531=EDGE_CURVE('',#389,#429,#224,.T.);
#532=EDGE_CURVE('',#429,#430,#225,.T.);
#533=EDGE_CURVE('',#388,#430,#226,.T.);
#534=EDGE_CURVE('',#430,#425,#58,.T.);
#535=EDGE_CURVE('',#431,#386,#227,.T.);
#536=EDGE_CURVE('',#432,#431,#228,.T.);
#537=EDGE_CURVE('',#432,#377,#229,.T.);
#538=EDGE_CURVE('',#433,#434,#59,.T.);
#539=EDGE_CURVE('',#434,#435,#230,.T.);
#540=EDGE_CURVE('',#435,#436,#60,.T.);
#541=EDGE_CURVE('',#436,#437,#231,.T.);
#542=EDGE_CURVE('',#437,#438,#61,.T.);
#543=EDGE_CURVE('',#438,#433,#232,.T.);
#544=EDGE_CURVE('',#439,#440,#62,.T.);
#545=EDGE_CURVE('',#440,#441,#233,.T.);
#546=EDGE_CURVE('',#441,#442,#63,.T.);
#547=EDGE_CURVE('',#442,#443,#234,.T.);
#548=EDGE_CURVE('',#443,#444,#64,.T.);
#549=EDGE_CURVE('',#444,#439,#235,.T.);
#550=EDGE_CURVE('',#415,#442,#236,.T.);
#551=EDGE_CURVE('',#414,#443,#237,.T.);
#552=EDGE_CURVE('',#445,#446,#238,.T.);
#553=EDGE_CURVE('',#445,#403,#239,.T.);
#554=EDGE_CURVE('',#446,#402,#240,.T.);
#555=EDGE_CURVE('',#416,#441,#241,.T.);
#556=EDGE_CURVE('',#446,#447,#65,.T.);
#557=EDGE_CURVE('',#447,#401,#242,.T.);
#558=EDGE_CURVE('',#413,#444,#243,.T.);
#559=EDGE_CURVE('',#411,#440,#244,.T.);
#560=EDGE_CURVE('',#447,#448,#245,.T.);
#561=EDGE_CURVE('',#448,#400,#246,.T.);
#562=EDGE_CURVE('',#439,#412,#247,.T.);
#563=EDGE_CURVE('',#448,#449,#66,.T.);
#564=EDGE_CURVE('',#449,#399,#248,.T.);
#565=EDGE_CURVE('',#450,#445,#67,.T.);
#566=EDGE_CURVE('',#450,#404,#249,.T.);
#567=EDGE_CURVE('',#449,#450,#250,.T.);
#568=EDGE_CURVE('',#421,#436,#251,.T.);
#569=EDGE_CURVE('',#420,#437,#252,.T.);
#570=EDGE_CURVE('',#451,#452,#253,.T.);
#571=EDGE_CURVE('',#451,#397,#254,.T.);
#572=EDGE_CURVE('',#452,#396,#255,.T.);
#573=EDGE_CURVE('',#422,#435,#256,.T.);
#574=EDGE_CURVE('',#452,#453,#68,.T.);
#575=EDGE_CURVE('',#453,#395,#257,.T.);
#576=EDGE_CURVE('',#419,#438,#258,.T.);
#577=EDGE_CURVE('',#417,#434,#259,.T.);
#578=EDGE_CURVE('',#453,#454,#260,.T.);
#579=EDGE_CURVE('',#454,#394,#261,.T.);
#580=EDGE_CURVE('',#433,#418,#262,.T.);
#581=EDGE_CURVE('',#454,#455,#69,.T.);
#582=EDGE_CURVE('',#455,#393,#263,.T.);
#583=EDGE_CURVE('',#456,#451,#70,.T.);
#584=EDGE_CURVE('',#456,#398,#264,.T.);
#585=EDGE_CURVE('',#455,#456,#265,.T.);
#586=EDGE_CURVE('',#457,#382,#266,.T.);
#587=EDGE_CURVE('',#458,#457,#267,.T.);
#588=EDGE_CURVE('',#458,#373,#268,.T.);
#589=EDGE_CURVE('',#432,#457,#269,.T.);
#590=EDGE_CURVE('',#458,#431,#270,.T.);
#591=ORIENTED_EDGE('',*,*,#459,.T.);
#592=ORIENTED_EDGE('',*,*,#460,.T.);
#593=ORIENTED_EDGE('',*,*,#461,.T.);
#594=ORIENTED_EDGE('',*,*,#462,.T.);
#595=ORIENTED_EDGE('',*,*,#463,.T.);
#596=ORIENTED_EDGE('',*,*,#464,.T.);
#597=ORIENTED_EDGE('',*,*,#465,.T.);
#598=ORIENTED_EDGE('',*,*,#466,.T.);
#599=ORIENTED_EDGE('',*,*,#467,.T.);
#600=ORIENTED_EDGE('',*,*,#468,.T.);
#601=ORIENTED_EDGE('',*,*,#469,.T.);
#602=ORIENTED_EDGE('',*,*,#470,.T.);
#603=ORIENTED_EDGE('',*,*,#471,.T.);
#604=ORIENTED_EDGE('',*,*,#472,.T.);
#605=ORIENTED_EDGE('',*,*,#473,.T.);
#606=ORIENTED_EDGE('',*,*,#474,.T.);
#607=ORIENTED_EDGE('',*,*,#475,.F.);
#608=ORIENTED_EDGE('',*,*,#476,.T.);
#609=ORIENTED_EDGE('',*,*,#477,.T.);
#610=ORIENTED_EDGE('',*,*,#478,.T.);
#611=ORIENTED_EDGE('',*,*,#479,.T.);
#612=ORIENTED_EDGE('',*,*,#462,.F.);
#613=ORIENTED_EDGE('',*,*,#480,.F.);
#614=ORIENTED_EDGE('',*,*,#481,.T.);
#615=ORIENTED_EDGE('',*,*,#482,.T.);
#616=ORIENTED_EDGE('',*,*,#468,.F.);
#617=ORIENTED_EDGE('',*,*,#483,.T.);
#618=ORIENTED_EDGE('',*,*,#484,.T.);
#619=ORIENTED_EDGE('',*,*,#485,.T.);
#620=ORIENTED_EDGE('',*,*,#486,.T.);
#621=ORIENTED_EDGE('',*,*,#487,.T.);
#622=ORIENTED_EDGE('',*,*,#488,.T.);
#623=ORIENTED_EDGE('',*,*,#489,.T.);
#624=ORIENTED_EDGE('',*,*,#490,.T.);
#625=ORIENTED_EDGE('',*,*,#491,.T.);
#626=ORIENTED_EDGE('',*,*,#492,.T.);
#627=ORIENTED_EDGE('',*,*,#493,.T.);
#628=ORIENTED_EDGE('',*,*,#494,.T.);
#629=ORIENTED_EDGE('',*,*,#495,.T.);
#630=ORIENTED_EDGE('',*,*,#481,.F.);
#631=ORIENTED_EDGE('',*,*,#496,.F.);
#632=ORIENTED_EDGE('',*,*,#497,.T.);
#633=ORIENTED_EDGE('',*,*,#498,.T.);
#634=ORIENTED_EDGE('',*,*,#466,.F.);
#635=ORIENTED_EDGE('',*,*,#499,.F.);
#636=ORIENTED_EDGE('',*,*,#497,.F.);
#637=ORIENTED_EDGE('',*,*,#500,.F.);
#638=ORIENTED_EDGE('',*,*,#472,.F.);
#639=ORIENTED_EDGE('',*,*,#501,.F.);
#640=ORIENTED_EDGE('',*,*,#502,.T.);
#641=ORIENTED_EDGE('',*,*,#503,.T.);
#642=ORIENTED_EDGE('',*,*,#504,.T.);
#643=ORIENTED_EDGE('',*,*,#505,.T.);
#644=ORIENTED_EDGE('',*,*,#506,.T.);
#645=ORIENTED_EDGE('',*,*,#507,.T.);
#646=ORIENTED_EDGE('',*,*,#508,.T.);
#647=ORIENTED_EDGE('',*,*,#509,.T.);
#648=ORIENTED_EDGE('',*,*,#510,.T.);
#649=ORIENTED_EDGE('',*,*,#511,.T.);
#650=ORIENTED_EDGE('',*,*,#512,.T.);
#651=ORIENTED_EDGE('',*,*,#513,.T.);
#652=ORIENTED_EDGE('',*,*,#514,.T.);
#653=ORIENTED_EDGE('',*,*,#515,.T.);
#654=ORIENTED_EDGE('',*,*,#516,.T.);
#655=ORIENTED_EDGE('',*,*,#517,.F.);
#656=ORIENTED_EDGE('',*,*,#518,.F.);
#657=ORIENTED_EDGE('',*,*,#519,.T.);
#658=ORIENTED_EDGE('',*,*,#504,.F.);
#659=ORIENTED_EDGE('',*,*,#519,.F.);
#660=ORIENTED_EDGE('',*,*,#520,.F.);
#661=ORIENTED_EDGE('',*,*,#463,.F.);
#662=ORIENTED_EDGE('',*,*,#498,.F.);
#663=ORIENTED_EDGE('',*,*,#521,.F.);
#664=ORIENTED_EDGE('',*,*,#522,.F.);
#665=ORIENTED_EDGE('',*,*,#475,.T.);
#666=ORIENTED_EDGE('',*,*,#467,.F.);
#667=ORIENTED_EDGE('',*,*,#523,.F.);
#668=ORIENTED_EDGE('',*,*,#524,.F.);
#669=ORIENTED_EDGE('',*,*,#517,.T.);
#670=ORIENTED_EDGE('',*,*,#503,.F.);
#671=ORIENTED_EDGE('',*,*,#525,.F.);
#672=ORIENTED_EDGE('',*,*,#526,.F.);
#673=ORIENTED_EDGE('',*,*,#523,.T.);
#674=ORIENTED_EDGE('',*,*,#502,.F.);
#675=ORIENTED_EDGE('',*,*,#527,.F.);
#676=ORIENTED_EDGE('',*,*,#525,.T.);
#677=ORIENTED_EDGE('',*,*,#501,.T.);
#678=ORIENTED_EDGE('',*,*,#471,.F.);
#679=ORIENTED_EDGE('',*,*,#528,.F.);
#680=ORIENTED_EDGE('',*,*,#459,.F.);
#681=ORIENTED_EDGE('',*,*,#479,.F.);
#682=ORIENTED_EDGE('',*,*,#529,.T.);
#683=ORIENTED_EDGE('',*,*,#530,.F.);
#684=ORIENTED_EDGE('',*,*,#529,.F.);
#685=ORIENTED_EDGE('',*,*,#478,.F.);
#686=ORIENTED_EDGE('',*,*,#531,.T.);
#687=ORIENTED_EDGE('',*,*,#532,.F.);
#688=ORIENTED_EDGE('',*,*,#531,.F.);
#689=ORIENTED_EDGE('',*,*,#477,.F.);
#690=ORIENTED_EDGE('',*,*,#533,.T.);
#691=ORIENTED_EDGE('',*,*,#534,.F.);
#692=ORIENTED_EDGE('',*,*,#533,.F.);
#693=ORIENTED_EDGE('',*,*,#476,.F.);
#694=ORIENTED_EDGE('',*,*,#522,.T.);
#695=ORIENTED_EDGE('',*,*,#520,.T.);
#696=ORIENTED_EDGE('',*,*,#518,.T.);
#697=ORIENTED_EDGE('',*,*,#524,.T.);
#698=ORIENTED_EDGE('',*,*,#526,.T.);
#699=ORIENTED_EDGE('',*,*,#527,.T.);
#700=ORIENTED_EDGE('',*,*,#474,.F.);
#701=ORIENTED_EDGE('',*,*,#535,.F.);
#702=ORIENTED_EDGE('',*,*,#536,.F.);
#703=ORIENTED_EDGE('',*,*,#537,.T.);
#704=ORIENTED_EDGE('',*,*,#464,.F.);
#705=ORIENTED_EDGE('',*,*,#538,.T.);
#706=ORIENTED_EDGE('',*,*,#539,.T.);
#707=ORIENTED_EDGE('',*,*,#540,.T.);
#708=ORIENTED_EDGE('',*,*,#541,.T.);
#709=ORIENTED_EDGE('',*,*,#542,.T.);
#710=ORIENTED_EDGE('',*,*,#543,.T.);
#711=ORIENTED_EDGE('',*,*,#544,.T.);
#712=ORIENTED_EDGE('',*,*,#545,.T.);
#713=ORIENTED_EDGE('',*,*,#546,.T.);
#714=ORIENTED_EDGE('',*,*,#547,.T.);
#715=ORIENTED_EDGE('',*,*,#548,.T.);
#716=ORIENTED_EDGE('',*,*,#549,.T.);
#717=ORIENTED_EDGE('',*,*,#547,.F.);
#718=ORIENTED_EDGE('',*,*,#550,.F.);
#719=ORIENTED_EDGE('',*,*,#508,.F.);
#720=ORIENTED_EDGE('',*,*,#551,.T.);
#721=ORIENTED_EDGE('',*,*,#552,.F.);
#722=ORIENTED_EDGE('',*,*,#553,.T.);
#723=ORIENTED_EDGE('',*,*,#492,.F.);
#724=ORIENTED_EDGE('',*,*,#554,.F.);
#725=ORIENTED_EDGE('',*,*,#546,.F.);
#726=ORIENTED_EDGE('',*,*,#555,.F.);
#727=ORIENTED_EDGE('',*,*,#509,.F.);
#728=ORIENTED_EDGE('',*,*,#550,.T.);
#729=ORIENTED_EDGE('',*,*,#556,.F.);
#730=ORIENTED_EDGE('',*,*,#554,.T.);
#731=ORIENTED_EDGE('',*,*,#491,.F.);
#732=ORIENTED_EDGE('',*,*,#557,.F.);
#733=ORIENTED_EDGE('',*,*,#548,.F.);
#734=ORIENTED_EDGE('',*,*,#551,.F.);
#735=ORIENTED_EDGE('',*,*,#507,.F.);
#736=ORIENTED_EDGE('',*,*,#558,.T.);
#737=ORIENTED_EDGE('',*,*,#545,.F.);
#738=ORIENTED_EDGE('',*,*,#559,.F.);
#739=ORIENTED_EDGE('',*,*,#510,.F.);
#740=ORIENTED_EDGE('',*,*,#555,.T.);
#741=ORIENTED_EDGE('',*,*,#560,.F.);
#742=ORIENTED_EDGE('',*,*,#557,.T.);
#743=ORIENTED_EDGE('',*,*,#490,.F.);
#744=ORIENTED_EDGE('',*,*,#561,.F.);
#745=ORIENTED_EDGE('',*,*,#549,.F.);
#746=ORIENTED_EDGE('',*,*,#558,.F.);
#747=ORIENTED_EDGE('',*,*,#506,.F.);
#748=ORIENTED_EDGE('',*,*,#562,.F.);
#749=ORIENTED_EDGE('',*,*,#544,.F.);
#750=ORIENTED_EDGE('',*,*,#562,.T.);
#751=ORIENTED_EDGE('',*,*,#505,.F.);
#752=ORIENTED_EDGE('',*,*,#559,.T.);
#753=ORIENTED_EDGE('',*,*,#563,.F.);
#754=ORIENTED_EDGE('',*,*,#561,.T.);
#755=ORIENTED_EDGE('',*,*,#489,.F.);
#756=ORIENTED_EDGE('',*,*,#564,.F.);
#757=ORIENTED_EDGE('',*,*,#565,.F.);
#758=ORIENTED_EDGE('',*,*,#566,.T.);
#759=ORIENTED_EDGE('',*,*,#493,.F.);
#760=ORIENTED_EDGE('',*,*,#553,.F.);
#761=ORIENTED_EDGE('',*,*,#567,.F.);
#762=ORIENTED_EDGE('',*,*,#564,.T.);
#763=ORIENTED_EDGE('',*,*,#494,.F.);
#764=ORIENTED_EDGE('',*,*,#566,.F.);
#765=ORIENTED_EDGE('',*,*,#541,.F.);
#766=ORIENTED_EDGE('',*,*,#568,.F.);
#767=ORIENTED_EDGE('',*,*,#514,.F.);
#768=ORIENTED_EDGE('',*,*,#569,.T.);
#769=ORIENTED_EDGE('',*,*,#570,.F.);
#770=ORIENTED_EDGE('',*,*,#571,.T.);
#771=ORIENTED_EDGE('',*,*,#486,.F.);
#772=ORIENTED_EDGE('',*,*,#572,.F.);
#773=ORIENTED_EDGE('',*,*,#540,.F.);
#774=ORIENTED_EDGE('',*,*,#573,.F.);
#775=ORIENTED_EDGE('',*,*,#515,.F.);
#776=ORIENTED_EDGE('',*,*,#568,.T.);
#777=ORIENTED_EDGE('',*,*,#574,.F.);
#778=ORIENTED_EDGE('',*,*,#572,.T.);
#779=ORIENTED_EDGE('',*,*,#485,.F.);
#780=ORIENTED_EDGE('',*,*,#575,.F.);
#781=ORIENTED_EDGE('',*,*,#542,.F.);
#782=ORIENTED_EDGE('',*,*,#569,.F.);
#783=ORIENTED_EDGE('',*,*,#513,.F.);
#784=ORIENTED_EDGE('',*,*,#576,.T.);
#785=ORIENTED_EDGE('',*,*,#539,.F.);
#786=ORIENTED_EDGE('',*,*,#577,.F.);
#787=ORIENTED_EDGE('',*,*,#516,.F.);
#788=ORIENTED_EDGE('',*,*,#573,.T.);
#789=ORIENTED_EDGE('',*,*,#578,.F.);
#790=ORIENTED_EDGE('',*,*,#575,.T.);
#791=ORIENTED_EDGE('',*,*,#484,.F.);
#792=ORIENTED_EDGE('',*,*,#579,.F.);
#793=ORIENTED_EDGE('',*,*,#543,.F.);
#794=ORIENTED_EDGE('',*,*,#576,.F.);
#795=ORIENTED_EDGE('',*,*,#512,.F.);
#796=ORIENTED_EDGE('',*,*,#580,.F.);
#797=ORIENTED_EDGE('',*,*,#538,.F.);
#798=ORIENTED_EDGE('',*,*,#580,.T.);
#799=ORIENTED_EDGE('',*,*,#511,.F.);
#800=ORIENTED_EDGE('',*,*,#577,.T.);
#801=ORIENTED_EDGE('',*,*,#581,.F.);
#802=ORIENTED_EDGE('',*,*,#579,.T.);
#803=ORIENTED_EDGE('',*,*,#483,.F.);
#804=ORIENTED_EDGE('',*,*,#582,.F.);
#805=ORIENTED_EDGE('',*,*,#583,.F.);
#806=ORIENTED_EDGE('',*,*,#584,.T.);
#807=ORIENTED_EDGE('',*,*,#487,.F.);
#808=ORIENTED_EDGE('',*,*,#571,.F.);
#809=ORIENTED_EDGE('',*,*,#585,.F.);
#810=ORIENTED_EDGE('',*,*,#582,.T.);
#811=ORIENTED_EDGE('',*,*,#488,.F.);
#812=ORIENTED_EDGE('',*,*,#584,.F.);
#813=ORIENTED_EDGE('',*,*,#521,.T.);
#814=ORIENTED_EDGE('',*,*,#470,.F.);
#815=ORIENTED_EDGE('',*,*,#586,.F.);
#816=ORIENTED_EDGE('',*,*,#587,.F.);
#817=ORIENTED_EDGE('',*,*,#588,.T.);
#818=ORIENTED_EDGE('',*,*,#460,.F.);
#819=ORIENTED_EDGE('',*,*,#528,.T.);
#820=ORIENTED_EDGE('',*,*,#530,.T.);
#821=ORIENTED_EDGE('',*,*,#532,.T.);
#822=ORIENTED_EDGE('',*,*,#534,.T.);
#823=ORIENTED_EDGE('',*,*,#563,.T.);
#824=ORIENTED_EDGE('',*,*,#567,.T.);
#825=ORIENTED_EDGE('',*,*,#565,.T.);
#826=ORIENTED_EDGE('',*,*,#552,.T.);
#827=ORIENTED_EDGE('',*,*,#556,.T.);
#828=ORIENTED_EDGE('',*,*,#560,.T.);
#829=ORIENTED_EDGE('',*,*,#581,.T.);
#830=ORIENTED_EDGE('',*,*,#585,.T.);
#831=ORIENTED_EDGE('',*,*,#583,.T.);
#832=ORIENTED_EDGE('',*,*,#570,.T.);
#833=ORIENTED_EDGE('',*,*,#574,.T.);
#834=ORIENTED_EDGE('',*,*,#578,.T.);
#835=ORIENTED_EDGE('',*,*,#587,.T.);
#836=ORIENTED_EDGE('',*,*,#589,.F.);
#837=ORIENTED_EDGE('',*,*,#536,.T.);
#838=ORIENTED_EDGE('',*,*,#590,.F.);
#839=ORIENTED_EDGE('',*,*,#590,.T.);
#840=ORIENTED_EDGE('',*,*,#535,.T.);
#841=ORIENTED_EDGE('',*,*,#473,.F.);
#842=ORIENTED_EDGE('',*,*,#500,.T.);
#843=ORIENTED_EDGE('',*,*,#496,.T.);
#844=ORIENTED_EDGE('',*,*,#480,.T.);
#845=ORIENTED_EDGE('',*,*,#461,.F.);
#846=ORIENTED_EDGE('',*,*,#588,.F.);
#847=ORIENTED_EDGE('',*,*,#589,.T.);
#848=ORIENTED_EDGE('',*,*,#586,.T.);
#849=ORIENTED_EDGE('',*,*,#469,.F.);
#850=ORIENTED_EDGE('',*,*,#482,.F.);
#851=ORIENTED_EDGE('',*,*,#495,.F.);
#852=ORIENTED_EDGE('',*,*,#499,.T.);
#853=ORIENTED_EDGE('',*,*,#465,.F.);
#854=ORIENTED_EDGE('',*,*,#537,.F.);
#855=PLANE('',#933);
#856=PLANE('',#934);
#857=PLANE('',#935);
#858=PLANE('',#936);
#859=PLANE('',#937);
#860=PLANE('',#946);
#861=PLANE('',#947);
#862=PLANE('',#958);
#863=PLANE('',#959);
#864=PLANE('',#960);
#865=PLANE('',#963);
#866=PLANE('',#964);
#867=PLANE('',#967);
#868=PLANE('',#970);
#869=PLANE('',#977);
#870=PLANE('',#978);
#871=PLANE('',#983);
#872=PLANE('',#984);
#873=PLANE('',#985);
#874=PLANE('',#991);
#875=PLANE('',#992);
#876=PLANE('',#993);
#877=PLANE('',#998);
#878=PLANE('',#999);
#879=PLANE('',#1000);
#880=PLANE('',#1006);
#881=PLANE('',#1007);
#882=PLANE('',#1008);
#883=PLANE('',#1009);
#884=PLANE('',#1010);
#885=ADVANCED_FACE('',(#71),#855,.T.);
#886=ADVANCED_FACE('',(#72),#856,.T.);
#887=ADVANCED_FACE('',(#73),#857,.T.);
#888=ADVANCED_FACE('',(#74),#858,.T.);
#889=ADVANCED_FACE('',(#75,#31,#32),#859,.T.);
#890=ADVANCED_FACE('',(#76),#860,.T.);
#891=ADVANCED_FACE('',(#77,#33,#34),#861,.T.);
#892=ADVANCED_FACE('',(#78),#15,.F.);
#893=ADVANCED_FACE('',(#79),#862,.F.);
#894=ADVANCED_FACE('',(#80),#863,.F.);
#895=ADVANCED_FACE('',(#81),#864,.F.);
#896=ADVANCED_FACE('',(#82),#16,.F.);
#897=ADVANCED_FACE('',(#83),#865,.F.);
#898=ADVANCED_FACE('',(#84),#866,.F.);
#899=ADVANCED_FACE('',(#85),#17,.F.);
#900=ADVANCED_FACE('',(#86),#867,.F.);
#901=ADVANCED_FACE('',(#87),#18,.F.);
#902=ADVANCED_FACE('',(#88,#35,#36),#868,.T.);
#903=ADVANCED_FACE('',(#89),#869,.F.);
#904=ADVANCED_FACE('',(#90),#870,.F.);
#905=ADVANCED_FACE('',(#91),#19,.F.);
#906=ADVANCED_FACE('',(#92),#20,.F.);
#907=ADVANCED_FACE('',(#93),#21,.F.);
#908=ADVANCED_FACE('',(#94),#871,.F.);
#909=ADVANCED_FACE('',(#95),#872,.F.);
#910=ADVANCED_FACE('',(#96),#873,.F.);
#911=ADVANCED_FACE('',(#97),#22,.F.);
#912=ADVANCED_FACE('',(#98),#23,.F.);
#913=ADVANCED_FACE('',(#99),#24,.F.);
#914=ADVANCED_FACE('',(#100),#874,.F.);
#915=ADVANCED_FACE('',(#101),#875,.F.);
#916=ADVANCED_FACE('',(#102),#876,.F.);
#917=ADVANCED_FACE('',(#103),#25,.F.);
#918=ADVANCED_FACE('',(#104),#26,.F.);
#919=ADVANCED_FACE('',(#105),#27,.F.);
#920=ADVANCED_FACE('',(#106),#877,.F.);
#921=ADVANCED_FACE('',(#107),#878,.F.);
#922=ADVANCED_FACE('',(#108),#879,.F.);
#923=ADVANCED_FACE('',(#109),#28,.F.);
#924=ADVANCED_FACE('',(#110),#29,.F.);
#925=ADVANCED_FACE('',(#111),#30,.F.);
#926=ADVANCED_FACE('',(#112),#880,.F.);
#927=ADVANCED_FACE('',(#113,#37,#38),#881,.T.);
#928=ADVANCED_FACE('',(#114),#882,.F.);
#929=ADVANCED_FACE('',(#115),#883,.T.);
#930=ADVANCED_FACE('',(#116),#884,.T.);
#931=CLOSED_SHELL('',(#885,#886,#887,#888,#889,#890,#891,#892,#893,#894,
#895,#896,#897,#898,#899,#900,#901,#902,#903,#904,#905,#906,#907,#908,#909,
#910,#911,#912,#913,#914,#915,#916,#917,#918,#919,#920,#921,#922,#923,#924,
#925,#926,#927,#928,#929,#930));
#932=AXIS2_PLACEMENT_3D('',#1269,#1011,#1012);
#933=AXIS2_PLACEMENT_3D('',#1270,#1013,#1014);
#934=AXIS2_PLACEMENT_3D('',#1279,#1019,#1020);
#935=AXIS2_PLACEMENT_3D('',#1288,#1025,#1026);
#936=AXIS2_PLACEMENT_3D('',#1297,#1031,#1032);
#937=AXIS2_PLACEMENT_3D('',#1306,#1037,#1038);
#938=AXIS2_PLACEMENT_3D('',#1310,#1040,#1041);
#939=AXIS2_PLACEMENT_3D('',#1314,#1043,#1044);
#940=AXIS2_PLACEMENT_3D('',#1323,#1049,#1050);
#941=AXIS2_PLACEMENT_3D('',#1327,#1052,#1053);
#942=AXIS2_PLACEMENT_3D('',#1331,#1055,#1056);
#943=AXIS2_PLACEMENT_3D('',#1335,#1058,#1059);
#944=AXIS2_PLACEMENT_3D('',#1339,#1061,#1062);
#945=AXIS2_PLACEMENT_3D('',#1343,#1064,#1065);
#946=AXIS2_PLACEMENT_3D('',#1345,#1067,#1068);
#947=AXIS2_PLACEMENT_3D('',#1351,#1072,#1073);
#948=AXIS2_PLACEMENT_3D('',#1359,#1078,#1079);
#949=AXIS2_PLACEMENT_3D('',#1362,#1081,#1082);
#950=AXIS2_PLACEMENT_3D('',#1365,#1083,#1084);
#951=AXIS2_PLACEMENT_3D('',#1369,#1086,#1087);
#952=AXIS2_PLACEMENT_3D('',#1373,#1089,#1090);
#953=AXIS2_PLACEMENT_3D('',#1377,#1092,#1093);
#954=AXIS2_PLACEMENT_3D('',#1381,#1095,#1096);
#955=AXIS2_PLACEMENT_3D('',#1385,#1098,#1099);
#956=AXIS2_PLACEMENT_3D('',#1387,#1101,#1102);
#957=AXIS2_PLACEMENT_3D('',#1391,#1104,#1105);
#958=AXIS2_PLACEMENT_3D('',#1393,#1107,#1108);
#959=AXIS2_PLACEMENT_3D('',#1395,#1110,#1111);
#960=AXIS2_PLACEMENT_3D('',#1399,#1114,#1115);
#961=AXIS2_PLACEMENT_3D('',#1403,#1118,#1119);
#962=AXIS2_PLACEMENT_3D('',#1406,#1121,#1122);
#963=AXIS2_PLACEMENT_3D('',#1407,#1123,#1124);
#964=AXIS2_PLACEMENT_3D('',#1409,#1126,#1127);
#965=AXIS2_PLACEMENT_3D('',#1413,#1130,#1131);
#966=AXIS2_PLACEMENT_3D('',#1415,#1132,#1133);
#967=AXIS2_PLACEMENT_3D('',#1417,#1135,#1136);
#968=AXIS2_PLACEMENT_3D('',#1421,#1139,#1140);
#969=AXIS2_PLACEMENT_3D('',#1422,#1141,#1142);
#970=AXIS2_PLACEMENT_3D('',#1423,#1143,#1144);
#971=AXIS2_PLACEMENT_3D('',#1431,#1148,#1149);
#972=AXIS2_PLACEMENT_3D('',#1435,#1151,#1152);
#973=AXIS2_PLACEMENT_3D('',#1439,#1154,#1155);
#974=AXIS2_PLACEMENT_3D('',#1443,#1157,#1158);
#975=AXIS2_PLACEMENT_3D('',#1447,#1160,#1161);
#976=AXIS2_PLACEMENT_3D('',#1451,#1163,#1164);
#977=AXIS2_PLACEMENT_3D('',#1453,#1166,#1167);
#978=AXIS2_PLACEMENT_3D('',#1456,#1170,#1171);
#979=AXIS2_PLACEMENT_3D('',#1462,#1175,#1176);
#980=AXIS2_PLACEMENT_3D('',#1464,#1178,#1179);
#981=AXIS2_PLACEMENT_3D('',#1466,#1180,#1181);
#982=AXIS2_PLACEMENT_3D('',#1468,#1183,#1184);
#983=AXIS2_PLACEMENT_3D('',#1470,#1186,#1187);
#984=AXIS2_PLACEMENT_3D('',#1472,#1189,#1190);
#985=AXIS2_PLACEMENT_3D('',#1476,#1193,#1194);
#986=AXIS2_PLACEMENT_3D('',#1478,#1196,#1197);
#987=AXIS2_PLACEMENT_3D('',#1479,#1198,#1199);
#988=AXIS2_PLACEMENT_3D('',#1481,#1200,#1201);
#989=AXIS2_PLACEMENT_3D('',#1483,#1203,#1204);
#990=AXIS2_PLACEMENT_3D('',#1485,#1205,#1206);
#991=AXIS2_PLACEMENT_3D('',#1487,#1208,#1209);
#992=AXIS2_PLACEMENT_3D('',#1489,#1211,#1212);
#993=AXIS2_PLACEMENT_3D('',#1492,#1215,#1216);
#994=AXIS2_PLACEMENT_3D('',#1498,#1220,#1221);
#995=AXIS2_PLACEMENT_3D('',#1500,#1223,#1224);
#996=AXIS2_PLACEMENT_3D('',#1502,#1225,#1226);
#997=AXIS2_PLACEMENT_3D('',#1504,#1228,#1229);
#998=AXIS2_PLACEMENT_3D('',#1506,#1231,#1232);
#999=AXIS2_PLACEMENT_3D('',#1508,#1234,#1235);
#1000=AXIS2_PLACEMENT_3D('',#1512,#1238,#1239);
#1001=AXIS2_PLACEMENT_3D('',#1514,#1241,#1242);
#1002=AXIS2_PLACEMENT_3D('',#1515,#1243,#1244);
#1003=AXIS2_PLACEMENT_3D('',#1517,#1245,#1246);
#1004=AXIS2_PLACEMENT_3D('',#1519,#1248,#1249);
#1005=AXIS2_PLACEMENT_3D('',#1521,#1250,#1251);
#1006=AXIS2_PLACEMENT_3D('',#1523,#1253,#1254);
#1007=AXIS2_PLACEMENT_3D('',#1525,#1256,#1257);
#1008=AXIS2_PLACEMENT_3D('',#1531,#1261,#1262);
#1009=AXIS2_PLACEMENT_3D('',#1534,#1265,#1266);
#1010=AXIS2_PLACEMENT_3D('',#1535,#1267,#1268);
#1011=DIRECTION('axis',(0.,0.,1.));
#1012=DIRECTION('refdir',(1.,0.,0.));
#1013=DIRECTION('center_axis',(-1.,0.,0.));
#1014=DIRECTION('ref_axis',(0.,0.,1.));
#1015=DIRECTION('',(0.,1.,0.));
#1016=DIRECTION('',(0.,0.,-1.));
#1017=DIRECTION('',(0.,-1.,0.));
#1018=DIRECTION('',(0.,0.,1.));
#1019=DIRECTION('center_axis',(-1.,0.,0.));
#1020=DIRECTION('ref_axis',(0.,0.,1.));
#1021=DIRECTION('',(0.,-1.,0.));
#1022=DIRECTION('',(0.,0.,1.));
#1023=DIRECTION('',(0.,1.,0.));
#1024=DIRECTION('',(0.,0.,-1.));
#1025=DIRECTION('center_axis',(-1.,0.,0.));
#1026=DIRECTION('ref_axis',(0.,0.,1.));
#1027=DIRECTION('',(0.,-1.,0.));
#1028=DIRECTION('',(0.,0.,1.));
#1029=DIRECTION('',(0.,1.,0.));
#1030=DIRECTION('',(0.,0.,-1.));
#1031=DIRECTION('center_axis',(-1.,0.,0.));
#1032=DIRECTION('ref_axis',(0.,0.,1.));
#1033=DIRECTION('',(0.,1.,0.));
#1034=DIRECTION('',(0.,0.,-1.));
#1035=DIRECTION('',(0.,-1.,0.));
#1036=DIRECTION('',(0.,0.,1.));
#1037=DIRECTION('center_axis',(0.,-1.,0.));
#1038=DIRECTION('ref_axis',(0.,0.,-1.));
#1039=DIRECTION('',(-1.,0.,0.));
#1040=DIRECTION('center_axis',(0.,1.,0.));
#1041=DIRECTION('ref_axis',(1.,0.,0.));
#1042=DIRECTION('',(0.,0.,-1.));
#1043=DIRECTION('center_axis',(0.,1.,0.));
#1044=DIRECTION('ref_axis',(0.,0.,-1.));
#1045=DIRECTION('',(-1.,0.,-3.46944695195361E-16));
#1046=DIRECTION('',(-1.,0.,0.));
#1047=DIRECTION('',(0.,0.,1.));
#1048=DIRECTION('',(-1.,0.,0.));
#1049=DIRECTION('center_axis',(0.,1.,0.));
#1050=DIRECTION('ref_axis',(-1.2292006873947E-5,0.,0.999999999924453));
#1051=DIRECTION('',(0.,0.,-1.));
#1052=DIRECTION('center_axis',(0.,1.,0.));
#1053=DIRECTION('ref_axis',(1.,0.,2.53765262771465E-15));
#1054=DIRECTION('',(-1.,0.,6.83214169000097E-16));
#1055=DIRECTION('center_axis',(0.,1.,0.));
#1056=DIRECTION('ref_axis',(-1.,0.,-1.26882631385733E-14));
#1057=DIRECTION('',(0.999999999924453,0.,1.22920068623797E-5));
#1058=DIRECTION('center_axis',(0.,1.,0.));
#1059=DIRECTION('ref_axis',(-1.2292006864725E-5,0.,-0.999999999924453));
#1060=DIRECTION('',(1.,0.,6.83214169000097E-16));
#1061=DIRECTION('center_axis',(0.,1.,0.));
#1062=DIRECTION('ref_axis',(-5.07530525542929E-15,0.,1.));
#1063=DIRECTION('',(0.,0.,-1.));
#1064=DIRECTION('center_axis',(0.,1.,0.));
#1065=DIRECTION('ref_axis',(1.,0.,7.61295788314402E-15));
#1066=DIRECTION('',(-0.999999999924453,0.,1.22920068623797E-5));
#1067=DIRECTION('center_axis',(1.,0.,0.));
#1068=DIRECTION('ref_axis',(0.,0.,-1.));
#1069=DIRECTION('',(0.,-1.,0.));
#1070=DIRECTION('',(0.,-1.,0.));
#1071=DIRECTION('',(0.,0.,1.));
#1072=DIRECTION('center_axis',(0.,1.,0.));
#1073=DIRECTION('ref_axis',(0.,0.,1.));
#1074=DIRECTION('',(-1.,0.,0.));
#1075=DIRECTION('',(-1.,0.,0.));
#1076=DIRECTION('',(1.,0.,0.));
#1077=DIRECTION('',(-1.,0.,0.));
#1078=DIRECTION('center_axis',(0.,-1.,0.));
#1079=DIRECTION('ref_axis',(0.,0.,-1.));
#1080=DIRECTION('',(0.,0.,1.));
#1081=DIRECTION('center_axis',(0.,-1.,0.));
#1082=DIRECTION('ref_axis',(1.,0.,0.));
#1083=DIRECTION('center_axis',(0.,-1.,0.));
#1084=DIRECTION('ref_axis',(-1.2292006864725E-5,0.,-0.999999999924453));
#1085=DIRECTION('',(0.999999999924453,0.,-1.22920068623797E-5));
#1086=DIRECTION('center_axis',(0.,-1.,0.));
#1087=DIRECTION('ref_axis',(1.,0.,7.61295788314402E-15));
#1088=DIRECTION('',(0.,0.,1.));
#1089=DIRECTION('center_axis',(0.,-1.,0.));
#1090=DIRECTION('ref_axis',(-5.07530525542929E-15,0.,1.));
#1091=DIRECTION('',(-1.,0.,-6.83214169000097E-16));
#1092=DIRECTION('center_axis',(0.,-1.,0.));
#1093=DIRECTION('ref_axis',(-1.2292006873947E-5,0.,0.999999999924453));
#1094=DIRECTION('',(-0.999999999924453,0.,-1.22920068623797E-5));
#1095=DIRECTION('center_axis',(0.,-1.,0.));
#1096=DIRECTION('ref_axis',(-1.,0.,-1.26882631385733E-14));
#1097=DIRECTION('',(1.,0.,-6.83214169000097E-16));
#1098=DIRECTION('center_axis',(0.,-1.,0.));
#1099=DIRECTION('ref_axis',(1.,0.,2.53765262771465E-15));
#1100=DIRECTION('',(0.,0.,1.));
#1101=DIRECTION('center_axis',(0.,1.,0.));
#1102=DIRECTION('ref_axis',(1.,0.,0.));
#1103=DIRECTION('',(0.,1.,0.));
#1104=DIRECTION('center_axis',(0.,1.,0.));
#1105=DIRECTION('ref_axis',(1.,0.,0.));
#1106=DIRECTION('',(0.,1.,0.));
#1107=DIRECTION('center_axis',(0.,0.,1.));
#1108=DIRECTION('ref_axis',(1.,0.,0.));
#1109=DIRECTION('',(1.,0.,0.));
#1110=DIRECTION('center_axis',(0.,0.,1.));
#1111=DIRECTION('ref_axis',(1.,0.,0.));
#1112=DIRECTION('',(-1.,0.,0.));
#1113=DIRECTION('',(0.,1.,0.));
#1114=DIRECTION('center_axis',(1.,0.,0.));
#1115=DIRECTION('ref_axis',(0.,0.,-1.));
#1116=DIRECTION('',(0.,1.,0.));
#1117=DIRECTION('',(0.,0.,-1.));
#1118=DIRECTION('center_axis',(0.,1.,0.));
#1119=DIRECTION('ref_axis',(0.,0.,-1.));
#1120=DIRECTION('',(0.,1.,0.));
#1121=DIRECTION('center_axis',(0.,1.,0.));
#1122=DIRECTION('ref_axis',(0.,0.,-1.));
#1123=DIRECTION('center_axis',(3.46944695195361E-16,0.,-1.));
#1124=DIRECTION('ref_axis',(-1.,0.,-3.46944695195361E-16));
#1125=DIRECTION('',(-1.,0.,-3.46944695195361E-16));
#1126=DIRECTION('center_axis',(3.46944695195361E-16,0.,-1.));
#1127=DIRECTION('ref_axis',(-1.,0.,-3.46944695195361E-16));
#1128=DIRECTION('',(1.,0.,3.46944695195361E-16));
#1129=DIRECTION('',(0.,1.,0.));
#1130=DIRECTION('center_axis',(0.,1.,0.));
#1131=DIRECTION('ref_axis',(0.,0.,-1.));
#1132=DIRECTION('center_axis',(0.,-1.,0.));
#1133=DIRECTION('ref_axis',(0.,0.,-1.));
#1134=DIRECTION('',(0.,1.,0.));
#1135=DIRECTION('center_axis',(1.,0.,0.));
#1136=DIRECTION('ref_axis',(0.,0.,-1.));
#1137=DIRECTION('',(0.,0.,1.));
#1138=DIRECTION('',(0.,1.,0.));
#1139=DIRECTION('center_axis',(0.,1.,0.));
#1140=DIRECTION('ref_axis',(1.,0.,0.));
#1141=DIRECTION('center_axis',(0.,-1.,0.));
#1142=DIRECTION('ref_axis',(1.,0.,0.));
#1143=DIRECTION('center_axis',(0.,-1.,0.));
#1144=DIRECTION('ref_axis',(0.,0.,1.));
#1145=DIRECTION('',(-1.,0.,0.));
#1146=DIRECTION('',(0.,0.,-1.));
#1147=DIRECTION('',(-1.,0.,0.));
#1148=DIRECTION('center_axis',(0.,1.,0.));
#1149=DIRECTION('ref_axis',(-1.2292006873947E-5,0.,0.999999999924453));
#1150=DIRECTION('',(0.,0.,-1.));
#1151=DIRECTION('center_axis',(0.,1.,0.));
#1152=DIRECTION('ref_axis',(1.,0.,2.53765262771465E-15));
#1153=DIRECTION('',(-1.,0.,6.83214169000097E-16));
#1154=DIRECTION('center_axis',(0.,1.,0.));
#1155=DIRECTION('ref_axis',(-1.,0.,-1.26882631385733E-14));
#1156=DIRECTION('',(0.999999999924453,0.,1.22920068623797E-5));
#1157=DIRECTION('center_axis',(0.,1.,0.));
#1158=DIRECTION('ref_axis',(-1.2292006864725E-5,0.,-0.999999999924453));
#1159=DIRECTION('',(1.,0.,6.83214169000097E-16));
#1160=DIRECTION('center_axis',(0.,1.,0.));
#1161=DIRECTION('ref_axis',(-5.07530525542929E-15,0.,1.));
#1162=DIRECTION('',(0.,0.,-1.));
#1163=DIRECTION('center_axis',(0.,1.,0.));
#1164=DIRECTION('ref_axis',(1.,0.,7.61295788314402E-15));
#1165=DIRECTION('',(-0.999999999924453,0.,1.22920068623797E-5));
#1166=DIRECTION('center_axis',(1.,0.,0.));
#1167=DIRECTION('ref_axis',(0.,0.,1.));
#1168=DIRECTION('',(0.,-1.,0.));
#1169=DIRECTION('',(0.,-1.,0.));
#1170=DIRECTION('center_axis',(1.,0.,0.));
#1171=DIRECTION('ref_axis',(0.,0.,1.));
#1172=DIRECTION('',(0.,0.,1.));
#1173=DIRECTION('',(0.,-1.,0.));
#1174=DIRECTION('',(0.,-1.,0.));
#1175=DIRECTION('center_axis',(0.,-1.,0.));
#1176=DIRECTION('ref_axis',(-5.07530525542929E-15,0.,1.));
#1177=DIRECTION('',(0.,-1.,0.));
#1178=DIRECTION('center_axis',(0.,-1.,0.));
#1179=DIRECTION('ref_axis',(-5.07530525542929E-15,0.,1.));
#1180=DIRECTION('center_axis',(0.,-1.,0.));
#1181=DIRECTION('ref_axis',(-5.07530525542929E-15,0.,1.));
#1182=DIRECTION('',(0.,-1.,0.));
#1183=DIRECTION('center_axis',(0.,-1.,0.));
#1184=DIRECTION('ref_axis',(1.,0.,7.61295788314402E-15));
#1185=DIRECTION('',(0.,-1.,0.));
#1186=DIRECTION('center_axis',(-6.83214169000097E-16,0.,1.));
#1187=DIRECTION('ref_axis',(-1.,0.,-6.83214169000097E-16));
#1188=DIRECTION('',(0.,-1.,0.));
#1189=DIRECTION('center_axis',(-6.83214169000097E-16,0.,1.));
#1190=DIRECTION('ref_axis',(-1.,0.,-6.83214169000097E-16));
#1191=DIRECTION('',(-1.,0.,-6.83214169000097E-16));
#1192=DIRECTION('',(0.,-1.,0.));
#1193=DIRECTION('center_axis',(-1.22920068623797E-5,0.,-0.999999999924453));
#1194=DIRECTION('ref_axis',(0.999999999924453,0.,-1.22920068623797E-5));
#1195=DIRECTION('',(0.,1.,0.));
#1196=DIRECTION('center_axis',(0.,-1.,0.));
#1197=DIRECTION('ref_axis',(-1.2292006864725E-5,0.,-0.999999999924453));
#1198=DIRECTION('center_axis',(0.,-1.,0.));
#1199=DIRECTION('ref_axis',(-1.2292006864725E-5,0.,-0.999999999924453));
#1200=DIRECTION('center_axis',(0.,-1.,0.));
#1201=DIRECTION('ref_axis',(-1.2292006864725E-5,0.,-0.999999999924453));
#1202=DIRECTION('',(0.,-1.,0.));
#1203=DIRECTION('center_axis',(0.,-1.,0.));
#1204=DIRECTION('ref_axis',(1.,0.,7.61295788314402E-15));
#1205=DIRECTION('center_axis',(0.,-1.,0.));
#1206=DIRECTION('ref_axis',(1.,0.,7.61295788314402E-15));
#1207=DIRECTION('',(0.,-1.,0.));
#1208=DIRECTION('center_axis',(-1.22920068623797E-5,0.,-0.999999999924453));
#1209=DIRECTION('ref_axis',(0.999999999924453,0.,-1.22920068623797E-5));
#1210=DIRECTION('',(0.999999999924453,0.,-1.22920068623797E-5));
#1211=DIRECTION('center_axis',(-6.83214169000097E-16,0.,-1.));
#1212=DIRECTION('ref_axis',(1.,0.,-6.83214169000097E-16));
#1213=DIRECTION('',(0.,-1.,0.));
#1214=DIRECTION('',(0.,-1.,0.));
#1215=DIRECTION('center_axis',(-6.83214169000097E-16,0.,-1.));
#1216=DIRECTION('ref_axis',(1.,0.,-6.83214169000097E-16));
#1217=DIRECTION('',(1.,0.,-6.83214169000097E-16));
#1218=DIRECTION('',(0.,-1.,0.));
#1219=DIRECTION('',(0.,-1.,0.));
#1220=DIRECTION('center_axis',(0.,-1.,0.));
#1221=DIRECTION('ref_axis',(1.,0.,2.53765262771465E-15));
#1222=DIRECTION('',(0.,-1.,0.));
#1223=DIRECTION('center_axis',(0.,-1.,0.));
#1224=DIRECTION('ref_axis',(1.,0.,2.53765262771465E-15));
#1225=DIRECTION('center_axis',(0.,-1.,0.));
#1226=DIRECTION('ref_axis',(1.,0.,2.53765262771465E-15));
#1227=DIRECTION('',(0.,-1.,0.));
#1228=DIRECTION('center_axis',(0.,-1.,0.));
#1229=DIRECTION('ref_axis',(-1.,0.,-1.26882631385733E-14));
#1230=DIRECTION('',(0.,-1.,0.));
#1231=DIRECTION('center_axis',(1.,0.,0.));
#1232=DIRECTION('ref_axis',(0.,0.,1.));
#1233=DIRECTION('',(0.,-1.,0.));
#1234=DIRECTION('center_axis',(1.,0.,0.));
#1235=DIRECTION('ref_axis',(0.,0.,1.));
#1236=DIRECTION('',(0.,0.,1.));
#1237=DIRECTION('',(0.,-1.,0.));
#1238=DIRECTION('center_axis',(-1.22920068623797E-5,0.,0.999999999924453));
#1239=DIRECTION('ref_axis',(-0.999999999924453,0.,-1.22920068623797E-5));
#1240=DIRECTION('',(0.,1.,0.));
#1241=DIRECTION('center_axis',(0.,-1.,0.));
#1242=DIRECTION('ref_axis',(-1.2292006873947E-5,0.,0.999999999924453));
#1243=DIRECTION('center_axis',(0.,-1.,0.));
#1244=DIRECTION('ref_axis',(-1.2292006873947E-5,0.,0.999999999924453));
#1245=DIRECTION('center_axis',(0.,-1.,0.));
#1246=DIRECTION('ref_axis',(-1.2292006873947E-5,0.,0.999999999924453));
#1247=DIRECTION('',(0.,-1.,0.));
#1248=DIRECTION('center_axis',(0.,-1.,0.));
#1249=DIRECTION('ref_axis',(-1.,0.,-1.26882631385733E-14));
#1250=DIRECTION('center_axis',(0.,-1.,0.));
#1251=DIRECTION('ref_axis',(-1.,0.,-1.26882631385733E-14));
#1252=DIRECTION('',(0.,-1.,0.));
#1253=DIRECTION('center_axis',(-1.22920068623797E-5,0.,0.999999999924453));
#1254=DIRECTION('ref_axis',(-0.999999999924453,0.,-1.22920068623797E-5));
#1255=DIRECTION('',(-0.999999999924453,0.,-1.22920068623797E-5));
#1256=DIRECTION('center_axis',(0.,1.,0.));
#1257=DIRECTION('ref_axis',(0.,0.,-1.));
#1258=DIRECTION('',(-1.,0.,0.));
#1259=DIRECTION('',(0.,0.,1.));
#1260=DIRECTION('',(-1.,0.,0.));
#1261=DIRECTION('center_axis',(1.,0.,0.));
#1262=DIRECTION('ref_axis',(0.,1.,0.));
#1263=DIRECTION('',(0.,-1.,0.));
#1264=DIRECTION('',(0.,1.,0.));
#1265=DIRECTION('center_axis',(0.,0.,-1.));
#1266=DIRECTION('ref_axis',(0.,1.,0.));
#1267=DIRECTION('center_axis',(0.,0.,1.));
#1268=DIRECTION('ref_axis',(0.,-1.,0.));
#1269=CARTESIAN_POINT('',(0.,0.,0.));
#1270=CARTESIAN_POINT('Origin',(53.2000005215406,-16.5,12.5));
#1271=CARTESIAN_POINT('',(53.2000005215406,-17.9,2.5));
#1272=CARTESIAN_POINT('',(53.2000005215406,-15.9,2.5));
#1273=CARTESIAN_POINT('',(53.2000005215406,-16.8,2.5));
#1274=CARTESIAN_POINT('',(53.2000005215406,-15.9,-5.));
#1275=CARTESIAN_POINT('',(53.2000005215406,-15.9,30.));
#1276=CARTESIAN_POINT('',(53.2000005215406,-17.9,-5.));
#1277=CARTESIAN_POINT('',(53.2000005215406,-17.1,-5.));
#1278=CARTESIAN_POINT('',(53.2000005215406,-17.9,30.));
#1279=CARTESIAN_POINT('Origin',(53.2000005215406,15.1,12.5));
#1280=CARTESIAN_POINT('',(53.2000005215406,16.5,22.5));
#1281=CARTESIAN_POINT('',(53.2000005215406,14.5,22.5));
#1282=CARTESIAN_POINT('',(53.2000005215406,-0.999999999999998,22.5));
#1283=CARTESIAN_POINT('',(53.2000005215406,14.5,30.));
#1284=CARTESIAN_POINT('',(53.2000005215406,14.5,30.));
#1285=CARTESIAN_POINT('',(53.2000005215406,16.5,30.));
#1286=CARTESIAN_POINT('',(53.2000005215406,15.7,30.));
#1287=CARTESIAN_POINT('',(53.2000005215406,16.5,-5.));
#1288=CARTESIAN_POINT('Origin',(53.2000005215406,-16.5,12.5));
#1289=CARTESIAN_POINT('',(53.2000005215406,-15.9,22.5));
#1290=CARTESIAN_POINT('',(53.2000005215406,-17.9,22.5));
#1291=CARTESIAN_POINT('',(53.2000005215406,-17.1,22.5));
#1292=CARTESIAN_POINT('',(53.2000005215406,-17.9,30.));
#1293=CARTESIAN_POINT('',(53.2000005215406,-17.9,30.));
#1294=CARTESIAN_POINT('',(53.2000005215406,-15.9,30.));
#1295=CARTESIAN_POINT('',(53.2000005215406,-17.1,30.));
#1296=CARTESIAN_POINT('',(53.2000005215406,-15.9,30.));
#1297=CARTESIAN_POINT('Origin',(53.2000005215406,15.1,12.5));
#1298=CARTESIAN_POINT('',(53.2000005215406,14.5,2.5));
#1299=CARTESIAN_POINT('',(53.2000005215406,16.5,2.5));
#1300=CARTESIAN_POINT('',(53.2000005215406,15.7,2.5));
#1301=CARTESIAN_POINT('',(53.2000005215406,16.5,-5.));
#1302=CARTESIAN_POINT('',(53.2000005215406,16.5,-5.));
#1303=CARTESIAN_POINT('',(53.2000005215406,14.5,-5.));
#1304=CARTESIAN_POINT('',(53.2000005215406,15.7,-5.));
#1305=CARTESIAN_POINT('',(53.2000005215406,14.5,30.));
#1306=CARTESIAN_POINT('Origin',(70.2000005215406,-17.9,30.));
#1307=CARTESIAN_POINT('',(62.2000005215406,-17.9,22.5));
#1308=CARTESIAN_POINT('',(54.2000005215406,-17.9,22.5));
#1309=CARTESIAN_POINT('',(65.2000005215406,-17.9,19.5));
#1310=CARTESIAN_POINT('Origin',(62.2000005215406,-17.9,19.5));
#1311=CARTESIAN_POINT('',(65.2000005215406,-17.9,5.5));
#1312=CARTESIAN_POINT('',(65.2000005215406,-17.9,24.75));
#1313=CARTESIAN_POINT('',(62.2000005215406,-17.9,2.5));
#1314=CARTESIAN_POINT('Origin',(62.2000005215406,-17.9,5.5));
#1315=CARTESIAN_POINT('',(66.2000005215406,-17.9,2.5));
#1316=CARTESIAN_POINT('',(72.2000005215406,-17.9,-5.));
#1317=CARTESIAN_POINT('',(54.2000005215406,-17.9,-5.));
#1318=CARTESIAN_POINT('',(72.2000005215406,-17.9,30.));
#1319=CARTESIAN_POINT('',(72.2000005215406,-17.9,30.));
#1320=CARTESIAN_POINT('',(70.2000005215406,-17.9,30.));
#1321=CARTESIAN_POINT('',(63.4499790105286,-17.9,0.250079495448801));
#1322=CARTESIAN_POINT('',(65.2000005215406,-17.9,-1.49992050441899));
#1323=CARTESIAN_POINT('Origin',(63.4500005215406,-17.9,-1.49992050441897));
#1324=CARTESIAN_POINT('',(65.2000005215406,-17.9,-1.5000004023314));
#1325=CARTESIAN_POINT('',(65.2000005215406,-17.9,14.2499997988343));
#1326=CARTESIAN_POINT('',(63.4500005215406,-17.9,-3.2500004023314));
#1327=CARTESIAN_POINT('Origin',(63.4500005215406,-17.9,-1.5000004023314));
#1328=CARTESIAN_POINT('',(56.9500005215406,-17.9,-3.2500004023314));
#1329=CARTESIAN_POINT('',(63.5750005215406,-17.9,-3.2500004023314));
#1330=CARTESIAN_POINT('',(56.9499790105286,-17.9,0.249999597536399));
#1331=CARTESIAN_POINT('Origin',(56.9500005215406,-17.9,-1.50000040233139));
#1332=CARTESIAN_POINT('',(66.8251726086381,-17.9,0.250120983351672));
#1333=CARTESIAN_POINT('',(56.9499790105286,-17.9,24.7500004025958));
#1334=CARTESIAN_POINT('',(56.9500005215406,-17.9,28.2500004023314));
#1335=CARTESIAN_POINT('Origin',(56.9500005215406,-17.9,26.5000004023314));
#1336=CARTESIAN_POINT('',(63.4500005215406,-17.9,28.2500004023314));
#1337=CARTESIAN_POINT('',(66.8250005215406,-17.9,28.2500004023314));
#1338=CARTESIAN_POINT('',(65.2000005215406,-17.9,26.5000004023314));
#1339=CARTESIAN_POINT('Origin',(63.4500005215406,-17.9,26.5000004023314));
#1340=CARTESIAN_POINT('',(65.2000005215406,-17.9,26.499920504419));
#1341=CARTESIAN_POINT('',(65.2000005215406,-17.9,28.2499602522095));
#1342=CARTESIAN_POINT('',(63.4499790105286,-17.9,24.7499205045512));
#1343=CARTESIAN_POINT('Origin',(63.4500005215406,-17.9,26.499920504419));
#1344=CARTESIAN_POINT('',(63.5749574985181,-17.9,24.7499189683148));
#1345=CARTESIAN_POINT('Origin',(72.2000005215406,-0.699999999999998,12.5));
#1346=CARTESIAN_POINT('',(72.2000005215406,16.5,30.));
#1347=CARTESIAN_POINT('',(72.2000005215406,15.7,30.));
#1348=CARTESIAN_POINT('',(72.2000005215406,16.5,-5.));
#1349=CARTESIAN_POINT('',(72.2000005215406,-17.1,-5.));
#1350=CARTESIAN_POINT('',(72.2000005215406,16.5,-5.));
#1351=CARTESIAN_POINT('Origin',(70.2000005215406,16.5,-5.));
#1352=CARTESIAN_POINT('',(62.2000005215406,16.5,22.5));
#1353=CARTESIAN_POINT('',(62.2000005215406,16.5,22.5));
#1354=CARTESIAN_POINT('',(54.2000005215406,16.5,30.));
#1355=CARTESIAN_POINT('',(71.4000005215406,16.5,-5.));
#1356=CARTESIAN_POINT('',(62.2000005215406,16.5,2.5));
#1357=CARTESIAN_POINT('',(54.2000005215406,16.5,2.5));
#1358=CARTESIAN_POINT('',(65.2000005215406,16.5,5.5));
#1359=CARTESIAN_POINT('Origin',(62.2000005215406,16.5,5.5));
#1360=CARTESIAN_POINT('',(65.2000005215406,16.5,19.5));
#1361=CARTESIAN_POINT('',(65.2000005215406,16.5,7.25));
#1362=CARTESIAN_POINT('Origin',(62.2000005215406,16.5,19.5));
#1363=CARTESIAN_POINT('',(56.9500005215406,16.5,28.2500004023314));
#1364=CARTESIAN_POINT('',(56.9499790105286,16.5,24.7500004025958));
#1365=CARTESIAN_POINT('Origin',(56.9500005215406,16.5,26.5000004023314));
#1366=CARTESIAN_POINT('',(63.4499790105286,16.5,24.7499205045512));
#1367=CARTESIAN_POINT('',(63.5751726086381,16.5,24.7499189656706));
#1368=CARTESIAN_POINT('',(65.2000005215406,16.5,26.499920504419));
#1369=CARTESIAN_POINT('Origin',(63.4500005215406,16.5,26.499920504419));
#1370=CARTESIAN_POINT('',(65.2000005215406,16.5,26.5000004023314));
#1371=CARTESIAN_POINT('',(65.2000005215406,16.5,10.7499602522095));
#1372=CARTESIAN_POINT('',(63.4500005215406,16.5,28.2500004023314));
#1373=CARTESIAN_POINT('Origin',(63.4500005215406,16.5,26.5000004023314));
#1374=CARTESIAN_POINT('',(66.8250005215406,16.5,28.2500004023314));
#1375=CARTESIAN_POINT('',(65.2000005215406,16.5,-1.49992050441899));
#1376=CARTESIAN_POINT('',(63.4499790105286,16.5,0.250079495448801));
#1377=CARTESIAN_POINT('Origin',(63.4500005215406,16.5,-1.49992050441897));
#1378=CARTESIAN_POINT('',(56.9499790105286,16.5,0.249999597536399));
#1379=CARTESIAN_POINT('',(66.8249574985181,16.5,0.250120980707538));
#1380=CARTESIAN_POINT('',(56.9500005215406,16.5,-3.2500004023314));
#1381=CARTESIAN_POINT('Origin',(56.9500005215406,16.5,-1.50000040233139));
#1382=CARTESIAN_POINT('',(63.4500005215406,16.5,-3.2500004023314));
#1383=CARTESIAN_POINT('',(63.5750005215406,16.5,-3.2500004023314));
#1384=CARTESIAN_POINT('',(65.2000005215406,16.5,-1.5000004023314));
#1385=CARTESIAN_POINT('Origin',(63.4500005215406,16.5,-1.5000004023314));
#1386=CARTESIAN_POINT('',(65.2000005215406,16.5,-3.2500002011657));
#1387=CARTESIAN_POINT('Origin',(62.2000005215406,-17.1,19.5));
#1388=CARTESIAN_POINT('',(65.2000005215406,14.5,19.5));
#1389=CARTESIAN_POINT('',(65.2000005215406,15.7,19.5));
#1390=CARTESIAN_POINT('',(62.2000005215406,14.5,22.5));
#1391=CARTESIAN_POINT('Origin',(62.2000005215406,14.5,19.5));
#1392=CARTESIAN_POINT('',(62.2000005215406,15.7,22.5));
#1393=CARTESIAN_POINT('Origin',(54.2000005215406,-17.1,22.5));
#1394=CARTESIAN_POINT('',(62.2000005215406,14.5,22.5));
#1395=CARTESIAN_POINT('Origin',(54.2000005215406,-17.1,22.5));
#1396=CARTESIAN_POINT('',(62.2000005215406,-15.9,22.5));
#1397=CARTESIAN_POINT('',(62.2000005215406,-15.9,22.5));
#1398=CARTESIAN_POINT('',(62.2000005215406,-17.1,22.5));
#1399=CARTESIAN_POINT('Origin',(65.2000005215406,-17.1,19.5));
#1400=CARTESIAN_POINT('',(65.2000005215406,14.5,5.5));
#1401=CARTESIAN_POINT('',(65.2000005215406,15.7,5.5));
#1402=CARTESIAN_POINT('',(65.2000005215406,14.5,7.25));
#1403=CARTESIAN_POINT('Origin',(62.2000005215406,-17.1,5.5));
#1404=CARTESIAN_POINT('',(62.2000005215406,14.5,2.5));
#1405=CARTESIAN_POINT('',(62.2000005215406,15.7,2.5));
#1406=CARTESIAN_POINT('Origin',(62.2000005215406,14.5,5.5));
#1407=CARTESIAN_POINT('Origin',(62.2000005215406,-17.1,2.5));
#1408=CARTESIAN_POINT('',(66.2000005215406,14.5,2.5));
#1409=CARTESIAN_POINT('Origin',(62.2000005215406,-17.1,2.5));
#1410=CARTESIAN_POINT('',(62.2000005215406,-15.9,2.5));
#1411=CARTESIAN_POINT('',(66.2000005215406,-15.9,2.5));
#1412=CARTESIAN_POINT('',(62.2000005215406,-17.1,2.5));
#1413=CARTESIAN_POINT('Origin',(62.2000005215406,-17.1,5.5));
#1414=CARTESIAN_POINT('',(65.2000005215406,-15.9,5.5));
#1415=CARTESIAN_POINT('Origin',(62.2000005215406,-15.9,5.5));
#1416=CARTESIAN_POINT('',(65.2000005215406,-17.1,5.5));
#1417=CARTESIAN_POINT('Origin',(65.2000005215406,-17.1,19.5));
#1418=CARTESIAN_POINT('',(65.2000005215406,-15.9,19.5));
#1419=CARTESIAN_POINT('',(65.2000005215406,-15.9,24.75));
#1420=CARTESIAN_POINT('',(65.2000005215406,-17.1,19.5));
#1421=CARTESIAN_POINT('Origin',(62.2000005215406,-17.1,19.5));
#1422=CARTESIAN_POINT('Origin',(62.2000005215406,-15.9,19.5));
#1423=CARTESIAN_POINT('Origin',(70.2000005215406,14.5,-5.));
#1424=CARTESIAN_POINT('',(70.2000005215406,14.5,-5.));
#1425=CARTESIAN_POINT('',(70.2000005215406,14.5,-5.));
#1426=CARTESIAN_POINT('',(70.2000005215406,14.5,30.));
#1427=CARTESIAN_POINT('',(70.2000005215406,14.5,3.75));
#1428=CARTESIAN_POINT('',(70.2000005215406,14.5,30.));
#1429=CARTESIAN_POINT('',(63.4499790105286,14.5,0.250079495448801));
#1430=CARTESIAN_POINT('',(65.2000005215406,14.5,-1.49992050441899));
#1431=CARTESIAN_POINT('Origin',(63.4500005215406,14.5,-1.49992050441897));
#1432=CARTESIAN_POINT('',(65.2000005215406,14.5,-1.5000004023314));
#1433=CARTESIAN_POINT('',(65.2000005215406,14.5,-3.2500002011657));
#1434=CARTESIAN_POINT('',(63.4500005215406,14.5,-3.2500004023314));
#1435=CARTESIAN_POINT('Origin',(63.4500005215406,14.5,-1.5000004023314));
#1436=CARTESIAN_POINT('',(56.9500005215406,14.5,-3.2500004023314));
#1437=CARTESIAN_POINT('',(63.5750005215406,14.5,-3.2500004023314));
#1438=CARTESIAN_POINT('',(56.9499790105286,14.5,0.249999597536397));
#1439=CARTESIAN_POINT('Origin',(56.9500005215406,14.5,-1.50000040233139));
#1440=CARTESIAN_POINT('',(66.8249574985181,14.5,0.250120980707538));
#1441=CARTESIAN_POINT('',(56.9499790105286,14.5,24.7500004025958));
#1442=CARTESIAN_POINT('',(56.9500005215406,14.5,28.2500004023314));
#1443=CARTESIAN_POINT('Origin',(56.9500005215406,14.5,26.5000004023314));
#1444=CARTESIAN_POINT('',(63.4500005215406,14.5,28.2500004023314));
#1445=CARTESIAN_POINT('',(66.8250005215406,14.5,28.2500004023314));
#1446=CARTESIAN_POINT('',(65.2000005215406,14.5,26.5000004023314));
#1447=CARTESIAN_POINT('Origin',(63.4500005215406,14.5,26.5000004023314));
#1448=CARTESIAN_POINT('',(65.2000005215406,14.5,26.499920504419));
#1449=CARTESIAN_POINT('',(65.2000005215406,14.5,10.7499602522095));
#1450=CARTESIAN_POINT('',(63.4499790105286,14.5,24.7499205045512));
#1451=CARTESIAN_POINT('Origin',(63.4500005215406,14.5,26.499920504419));
#1452=CARTESIAN_POINT('',(63.5751726086381,14.5,24.7499189656706));
#1453=CARTESIAN_POINT('Origin',(65.2000005215406,15.7,26.499920504419));
#1454=CARTESIAN_POINT('',(65.2000005215406,15.7,26.5000004023314));
#1455=CARTESIAN_POINT('',(65.2000005215406,15.7,26.499920504419));
#1456=CARTESIAN_POINT('Origin',(65.2000005215406,15.7,26.499920504419));
#1457=CARTESIAN_POINT('',(65.2000005215406,-15.9,26.499920504419));
#1458=CARTESIAN_POINT('',(65.2000005215406,-15.9,26.5000004023314));
#1459=CARTESIAN_POINT('',(65.2000005215406,-15.9,28.2499602522095));
#1460=CARTESIAN_POINT('',(65.2000005215406,-17.1,26.499920504419));
#1461=CARTESIAN_POINT('',(65.2000005215406,-17.1,26.5000004023314));
#1462=CARTESIAN_POINT('Origin',(63.4500005215406,15.7,26.5000004023314));
#1463=CARTESIAN_POINT('',(63.4500005215406,15.7,28.2500004023314));
#1464=CARTESIAN_POINT('Origin',(63.4500005215406,15.7,26.5000004023314));
#1465=CARTESIAN_POINT('',(63.4500005215406,-15.9,28.2500004023314));
#1466=CARTESIAN_POINT('Origin',(63.4500005215406,-15.9,26.5000004023314));
#1467=CARTESIAN_POINT('',(63.4500005215406,-17.1,28.2500004023314));
#1468=CARTESIAN_POINT('Origin',(63.4500005215406,15.7,26.499920504419));
#1469=CARTESIAN_POINT('',(63.4499790105286,15.7,24.7499205045512));
#1470=CARTESIAN_POINT('Origin',(63.4500005215406,15.7,28.2500004023314));
#1471=CARTESIAN_POINT('',(56.9500005215406,15.7,28.2500004023314));
#1472=CARTESIAN_POINT('Origin',(63.4500005215406,15.7,28.2500004023314));
#1473=CARTESIAN_POINT('',(56.9500005215406,-15.9,28.2500004023314));
#1474=CARTESIAN_POINT('',(66.8250005215406,-15.9,28.2500004023314));
#1475=CARTESIAN_POINT('',(56.9500005215406,-17.1,28.2500004023314));
#1476=CARTESIAN_POINT('Origin',(56.9499790105286,15.7,24.7500004025958));
#1477=CARTESIAN_POINT('',(56.9499790105286,15.7,24.7500004025958));
#1478=CARTESIAN_POINT('Origin',(56.9500005215406,15.7,26.5000004023314));
#1479=CARTESIAN_POINT('Origin',(56.9500005215406,15.7,26.5000004023314));
#1480=CARTESIAN_POINT('',(56.9499790105286,-15.9,24.7500004025958));
#1481=CARTESIAN_POINT('Origin',(56.9500005215406,-15.9,26.5000004023314));
#1482=CARTESIAN_POINT('',(56.9499790105286,15.7,24.7500004025958));
#1483=CARTESIAN_POINT('Origin',(63.4500005215406,15.7,26.499920504419));
#1484=CARTESIAN_POINT('',(63.4499790105286,-15.9,24.7499205045512));
#1485=CARTESIAN_POINT('Origin',(63.4500005215406,-15.9,26.499920504419));
#1486=CARTESIAN_POINT('',(63.4499790105286,-17.1,24.7499205045512));
#1487=CARTESIAN_POINT('Origin',(56.9499790105286,15.7,24.7500004025958));
#1488=CARTESIAN_POINT('',(63.5749574985181,-15.9,24.7499189683148));
#1489=CARTESIAN_POINT('Origin',(56.9500005215406,15.7,-3.2500004023314));
#1490=CARTESIAN_POINT('',(63.4500005215406,15.7,-3.2500004023314));
#1491=CARTESIAN_POINT('',(56.9500005215406,15.7,-3.2500004023314));
#1492=CARTESIAN_POINT('Origin',(56.9500005215406,15.7,-3.2500004023314));
#1493=CARTESIAN_POINT('',(56.9500005215406,-15.9,-3.2500004023314));
#1494=CARTESIAN_POINT('',(63.4500005215406,-15.9,-3.2500004023314));
#1495=CARTESIAN_POINT('',(63.5750005215406,-15.9,-3.2500004023314));
#1496=CARTESIAN_POINT('',(56.9500005215406,-17.1,-3.2500004023314));
#1497=CARTESIAN_POINT('',(63.4500005215406,-17.1,-3.2500004023314));
#1498=CARTESIAN_POINT('Origin',(63.4500005215406,15.7,-1.5000004023314));
#1499=CARTESIAN_POINT('',(65.2000005215406,15.7,-1.5000004023314));
#1500=CARTESIAN_POINT('Origin',(63.4500005215406,15.7,-1.5000004023314));
#1501=CARTESIAN_POINT('',(65.2000005215406,-15.9,-1.5000004023314));
#1502=CARTESIAN_POINT('Origin',(63.4500005215406,-15.9,-1.5000004023314));
#1503=CARTESIAN_POINT('',(65.2000005215406,-17.1,-1.5000004023314));
#1504=CARTESIAN_POINT('Origin',(56.9500005215406,15.7,-1.50000040233139));
#1505=CARTESIAN_POINT('',(56.9499790105286,15.7,0.249999597536397));
#1506=CARTESIAN_POINT('Origin',(65.2000005215406,15.7,-1.5000004023314));
#1507=CARTESIAN_POINT('',(65.2000005215406,15.7,-1.49992050441899));
#1508=CARTESIAN_POINT('Origin',(65.2000005215406,15.7,-1.5000004023314));
#1509=CARTESIAN_POINT('',(65.2000005215406,-15.9,-1.49992050441899));
#1510=CARTESIAN_POINT('',(65.2000005215406,-15.9,14.2499997988343));
#1511=CARTESIAN_POINT('',(65.2000005215406,-17.1,-1.49992050441899));
#1512=CARTESIAN_POINT('Origin',(63.4499790105286,15.7,0.250079495448801));
#1513=CARTESIAN_POINT('',(63.4499790105286,15.7,0.250079495448801));
#1514=CARTESIAN_POINT('Origin',(63.4500005215406,15.7,-1.49992050441897));
#1515=CARTESIAN_POINT('Origin',(63.4500005215406,15.7,-1.49992050441897));
#1516=CARTESIAN_POINT('',(63.4499790105286,-15.9,0.250079495448801));
#1517=CARTESIAN_POINT('Origin',(63.4500005215406,-15.9,-1.49992050441897));
#1518=CARTESIAN_POINT('',(63.4499790105286,15.7,0.250079495448801));
#1519=CARTESIAN_POINT('Origin',(56.9500005215406,15.7,-1.50000040233139));
#1520=CARTESIAN_POINT('',(56.9499790105286,-15.9,0.249999597536397));
#1521=CARTESIAN_POINT('Origin',(56.9500005215406,-15.9,-1.50000040233139));
#1522=CARTESIAN_POINT('',(56.9499790105286,-17.1,0.249999597536397));
#1523=CARTESIAN_POINT('Origin',(63.4499790105286,15.7,0.250079495448801));
#1524=CARTESIAN_POINT('',(66.8251726086381,-15.9,0.250120983351672));
#1525=CARTESIAN_POINT('Origin',(70.2000005215406,-15.9,30.));
#1526=CARTESIAN_POINT('',(70.2000005215406,-15.9,30.));
#1527=CARTESIAN_POINT('',(70.2000005215406,-15.9,30.));
#1528=CARTESIAN_POINT('',(70.2000005215406,-15.9,-5.));
#1529=CARTESIAN_POINT('',(70.2000005215406,-15.9,21.25));
#1530=CARTESIAN_POINT('',(70.2000005215406,-15.9,-5.));
#1531=CARTESIAN_POINT('Origin',(70.2000005215406,-0.699999999999998,12.5));
#1532=CARTESIAN_POINT('',(70.2000005215406,15.7,30.));
#1533=CARTESIAN_POINT('',(70.2000005215406,-17.1,-5.));
#1534=CARTESIAN_POINT('Origin',(70.2000005215406,-17.1,-5.));
#1535=CARTESIAN_POINT('Origin',(70.2000005215406,15.7,30.));
#1536=UNCERTAINTY_MEASURE_WITH_UNIT(LENGTH_MEASURE(0.01),#1540,
'DISTANCE_ACCURACY_VALUE',
'Maximum model space distance between geometric entities at asserted c
onnectivities');
#1537=UNCERTAINTY_MEASURE_WITH_UNIT(LENGTH_MEASURE(0.01),#1540,
'DISTANCE_ACCURACY_VALUE',
'Maximum model space distance between geometric entities at asserted c
onnectivities');
#1538=(
GEOMETRIC_REPRESENTATION_CONTEXT(3)
GLOBAL_UNCERTAINTY_ASSIGNED_CONTEXT((#1536))
GLOBAL_UNIT_ASSIGNED_CONTEXT((#1540,#1541,#1542))
REPRESENTATION_CONTEXT('','3D')
);
#1539=(
GEOMETRIC_REPRESENTATION_CONTEXT(3)
GLOBAL_UNCERTAINTY_ASSIGNED_CONTEXT((#1537))
GLOBAL_UNIT_ASSIGNED_CONTEXT((#1540,#1541,#1542))
REPRESENTATION_CONTEXT('','3D')
);
#1540=(
LENGTH_UNIT()
NAMED_UNIT(*)
SI_UNIT(.MILLI.,.METRE.)
);
#1541=(
NAMED_UNIT(*)
PLANE_ANGLE_UNIT()
SI_UNIT($,.RADIAN.)
);
#1542=(
NAMED_UNIT(*)
SI_UNIT($,.STERADIAN.)
SOLID_ANGLE_UNIT()
);
#1543=SHAPE_DEFINITION_REPRESENTATION(#1544,#1545);
#1544=PRODUCT_DEFINITION_SHAPE('',$,#1547);
#1545=SHAPE_REPRESENTATION('',(#932),#1538);
#1546=PRODUCT_DEFINITION_CONTEXT('part definition',#1551,'design');
#1547=PRODUCT_DEFINITION('B Excitation Housing',
'B Excitation Housing v7',#1548,#1546);
#1548=PRODUCT_DEFINITION_FORMATION('',$,#1553);
#1549=PRODUCT_RELATED_PRODUCT_CATEGORY('B Excitation Housing v7',
'B Excitation Housing v7',(#1553));
#1550=APPLICATION_PROTOCOL_DEFINITION('international standard',
'automotive_design',2009,#1551);
#1551=APPLICATION_CONTEXT(
'Core Data for Automotive Mechanical Design Process');
#1552=PRODUCT_CONTEXT('part definition',#1551,'mechanical');
#1553=PRODUCT('B Excitation Housing','B Excitation Housing v7',$,(#1552));
#1554=PRESENTATION_STYLE_ASSIGNMENT((#1556));
#1555=PRESENTATION_STYLE_ASSIGNMENT((#1557));
#1556=SURFACE_STYLE_USAGE(.BOTH.,#1558);
#1557=SURFACE_STYLE_USAGE(.BOTH.,#1559);
#1558=SURFACE_SIDE_STYLE('',(#1560));
#1559=SURFACE_SIDE_STYLE('',(#1561));
#1560=SURFACE_STYLE_FILL_AREA(#1562);
#1561=SURFACE_STYLE_FILL_AREA(#1563);
#1562=FILL_AREA_STYLE('Platte',(#1564));
#1563=FILL_AREA_STYLE('Opaque(160,160,160)',(#1565));
#1564=FILL_AREA_STYLE_COLOUR('Platte',#1566);
#1565=FILL_AREA_STYLE_COLOUR('Opaque(160,160,160)',#1567);
#1566=COLOUR_RGB('Platte',0.6,0.6,0.6);
#1567=COLOUR_RGB('Opaque(160,160,160)',0.627450980392157,0.627450980392157,
0.627450980392157);
ENDSEC;
END-ISO-10303-21;
