ISO-10303-21;
HEADER;
/* Generated by software containing ST-Developer
 * from STEP Tools, Inc. (www.steptools.com) 
 */

FILE_DESCRIPTION(
/* description */ (''),
/* implementation_level */ '2;1');

FILE_NAME(
/* name */ 'LED Board + Vial Halter.step',
/* time_stamp */ '2026-08-13T17:26:04+02:00',
/* author */ (''),
/* organization */ (''),
/* preprocessor_version */ 'ST-DEVELOPER v20.1',
/* originating_system */ 'Autodesk Translation Framework v15.8.0.0',
/* authorisation */ '');

FILE_SCHEMA (('AUTOMOTIVE_DESIGN { 1 0 10303 214 3 1 1 }'));
ENDSEC;

DATA;
#10=MECHANICAL_DESIGN_GEOMETRIC_PRESENTATION_REPRESENTATION('',(#13),#2176);
#11=SHAPE_REPRESENTATION_RELATIONSHIP('SRR','None',#2182,#12);
#12=ADVANCED_BREP_SHAPE_REPRESENTATION('',(#14),#2175);
#13=STYLED_ITEM('',(#2192),#14);
#14=MANIFOLD_SOLID_BREP('LED Board ',#1298);
#15=FACE_BOUND('',#136,.T.);
#16=FACE_BOUND('',#137,.T.);
#17=FACE_BOUND('',#139,.T.);
#18=FACE_BOUND('',#140,.T.);
#19=FACE_BOUND('',#142,.T.);
#20=FACE_BOUND('',#158,.T.);
#21=FACE_BOUND('',#159,.T.);
#22=FACE_BOUND('',#162,.T.);
#23=FACE_BOUND('',#200,.T.);
#24=FACE_BOUND('',#201,.T.);
#25=PLANE('',#1306);
#26=PLANE('',#1313);
#27=PLANE('',#1314);
#28=PLANE('',#1323);
#29=PLANE('',#1332);
#30=PLANE('',#1341);
#31=PLANE('',#1344);
#32=PLANE('',#1349);
#33=PLANE('',#1355);
#34=PLANE('',#1356);
#35=PLANE('',#1358);
#36=PLANE('',#1359);
#37=PLANE('',#1360);
#38=PLANE('',#1363);
#39=PLANE('',#1372);
#40=PLANE('',#1373);
#41=PLANE('',#1375);
#42=PLANE('',#1378);
#43=PLANE('',#1381);
#44=PLANE('',#1383);
#45=PLANE('',#1384);
#46=PLANE('',#1387);
#47=PLANE('',#1392);
#48=PLANE('',#1397);
#49=PLANE('',#1400);
#50=PLANE('',#1401);
#51=PLANE('',#1402);
#52=PLANE('',#1403);
#53=PLANE('',#1404);
#54=PLANE('',#1405);
#55=PLANE('',#1406);
#56=PLANE('',#1410);
#57=PLANE('',#1411);
#58=PLANE('',#1412);
#59=PLANE('',#1413);
#60=PLANE('',#1417);
#61=PLANE('',#1418);
#62=PLANE('',#1419);
#63=PLANE('',#1420);
#64=FACE_OUTER_BOUND('',#129,.T.);
#65=FACE_OUTER_BOUND('',#130,.T.);
#66=FACE_OUTER_BOUND('',#131,.T.);
#67=FACE_OUTER_BOUND('',#132,.T.);
#68=FACE_OUTER_BOUND('',#133,.T.);
#69=FACE_OUTER_BOUND('',#134,.T.);
#70=FACE_OUTER_BOUND('',#135,.T.);
#71=FACE_OUTER_BOUND('',#138,.T.);
#72=FACE_OUTER_BOUND('',#141,.T.);
#73=FACE_OUTER_BOUND('',#143,.T.);
#74=FACE_OUTER_BOUND('',#144,.T.);
#75=FACE_OUTER_BOUND('',#145,.T.);
#76=FACE_OUTER_BOUND('',#146,.T.);
#77=FACE_OUTER_BOUND('',#147,.T.);
#78=FACE_OUTER_BOUND('',#148,.T.);
#79=FACE_OUTER_BOUND('',#149,.T.);
#80=FACE_OUTER_BOUND('',#150,.T.);
#81=FACE_OUTER_BOUND('',#151,.T.);
#82=FACE_OUTER_BOUND('',#152,.T.);
#83=FACE_OUTER_BOUND('',#153,.T.);
#84=FACE_OUTER_BOUND('',#154,.T.);
#85=FACE_OUTER_BOUND('',#155,.T.);
#86=FACE_OUTER_BOUND('',#156,.T.);
#87=FACE_OUTER_BOUND('',#157,.T.);
#88=FACE_OUTER_BOUND('',#160,.T.);
#89=FACE_OUTER_BOUND('',#161,.T.);
#90=FACE_OUTER_BOUND('',#163,.T.);
#91=FACE_OUTER_BOUND('',#164,.T.);
#92=FACE_OUTER_BOUND('',#165,.T.);
#93=FACE_OUTER_BOUND('',#166,.T.);
#94=FACE_OUTER_BOUND('',#167,.T.);
#95=FACE_OUTER_BOUND('',#168,.T.);
#96=FACE_OUTER_BOUND('',#169,.T.);
#97=FACE_OUTER_BOUND('',#170,.T.);
#98=FACE_OUTER_BOUND('',#171,.T.);
#99=FACE_OUTER_BOUND('',#172,.T.);
#100=FACE_OUTER_BOUND('',#173,.T.);
#101=FACE_OUTER_BOUND('',#174,.T.);
#102=FACE_OUTER_BOUND('',#175,.T.);
#103=FACE_OUTER_BOUND('',#176,.T.);
#104=FACE_OUTER_BOUND('',#177,.T.);
#105=FACE_OUTER_BOUND('',#178,.T.);
#106=FACE_OUTER_BOUND('',#179,.T.);
#107=FACE_OUTER_BOUND('',#180,.T.);
#108=FACE_OUTER_BOUND('',#181,.T.);
#109=FACE_OUTER_BOUND('',#182,.T.);
#110=FACE_OUTER_BOUND('',#183,.T.);
#111=FACE_OUTER_BOUND('',#184,.T.);
#112=FACE_OUTER_BOUND('',#185,.T.);
#113=FACE_OUTER_BOUND('',#186,.T.);
#114=FACE_OUTER_BOUND('',#187,.T.);
#115=FACE_OUTER_BOUND('',#188,.T.);
#116=FACE_OUTER_BOUND('',#189,.T.);
#117=FACE_OUTER_BOUND('',#190,.T.);
#118=FACE_OUTER_BOUND('',#191,.T.);
#119=FACE_OUTER_BOUND('',#192,.T.);
#120=FACE_OUTER_BOUND('',#193,.T.);
#121=FACE_OUTER_BOUND('',#194,.T.);
#122=FACE_OUTER_BOUND('',#195,.T.);
#123=FACE_OUTER_BOUND('',#196,.T.);
#124=FACE_OUTER_BOUND('',#197,.T.);
#125=FACE_OUTER_BOUND('',#198,.T.);
#126=FACE_OUTER_BOUND('',#199,.T.);
#127=FACE_OUTER_BOUND('',#202,.T.);
#128=FACE_OUTER_BOUND('',#203,.T.);
#129=EDGE_LOOP('',(#833,#834,#835,#836));
#130=EDGE_LOOP('',(#837,#838,#839,#840));
#131=EDGE_LOOP('',(#841,#842,#843,#844));
#132=EDGE_LOOP('',(#845,#846,#847,#848));
#133=EDGE_LOOP('',(#849,#850,#851,#852));
#134=EDGE_LOOP('',(#853,#854,#855,#856));
#135=EDGE_LOOP('',(#857,#858,#859,#860,#861,#862,#863,#864,#865,#866,#867));
#136=EDGE_LOOP('',(#868,#869,#870,#871,#872,#873));
#137=EDGE_LOOP('',(#874,#875,#876,#877,#878,#879));
#138=EDGE_LOOP('',(#880,#881,#882,#883,#884,#885,#886,#887,#888,#889,#890));
#139=EDGE_LOOP('',(#891,#892,#893,#894,#895,#896));
#140=EDGE_LOOP('',(#897,#898,#899,#900,#901,#902));
#141=EDGE_LOOP('',(#903,#904,#905,#906,#907,#908,#909,#910));
#142=EDGE_LOOP('',(#911,#912,#913,#914,#915,#916,#917,#918,#919,#920,#921,
#922,#923));
#143=EDGE_LOOP('',(#924,#925,#926,#927));
#144=EDGE_LOOP('',(#928,#929,#930,#931));
#145=EDGE_LOOP('',(#932,#933,#934,#935));
#146=EDGE_LOOP('',(#936,#937,#938,#939,#940,#941,#942,#943,#944,#945,#946,
#947));
#147=EDGE_LOOP('',(#948,#949,#950,#951,#952,#953));
#148=EDGE_LOOP('',(#954,#955,#956,#957));
#149=EDGE_LOOP('',(#958,#959,#960,#961));
#150=EDGE_LOOP('',(#962,#963,#964,#965,#966,#967));
#151=EDGE_LOOP('',(#968,#969,#970,#971));
#152=EDGE_LOOP('',(#972,#973,#974,#975));
#153=EDGE_LOOP('',(#976,#977,#978,#979));
#154=EDGE_LOOP('',(#980,#981,#982,#983));
#155=EDGE_LOOP('',(#984,#985,#986,#987));
#156=EDGE_LOOP('',(#988,#989,#990,#991));
#157=EDGE_LOOP('',(#992,#993,#994,#995,#996,#997,#998,#999,#1000,#1001));
#158=EDGE_LOOP('',(#1002,#1003,#1004,#1005,#1006,#1007));
#159=EDGE_LOOP('',(#1008,#1009,#1010,#1011,#1012,#1013));
#160=EDGE_LOOP('',(#1014,#1015,#1016,#1017));
#161=EDGE_LOOP('',(#1018,#1019,#1020,#1021,#1022,#1023,#1024,#1025,#1026,
#1027));
#162=EDGE_LOOP('',(#1028));
#163=EDGE_LOOP('',(#1029,#1030,#1031,#1032));
#164=EDGE_LOOP('',(#1033,#1034,#1035,#1036));
#165=EDGE_LOOP('',(#1037,#1038,#1039,#1040));
#166=EDGE_LOOP('',(#1041,#1042,#1043,#1044));
#167=EDGE_LOOP('',(#1045,#1046,#1047,#1048));
#168=EDGE_LOOP('',(#1049,#1050,#1051,#1052));
#169=EDGE_LOOP('',(#1053,#1054,#1055,#1056));
#170=EDGE_LOOP('',(#1057,#1058,#1059,#1060));
#171=EDGE_LOOP('',(#1061,#1062,#1063,#1064));
#172=EDGE_LOOP('',(#1065,#1066,#1067,#1068));
#173=EDGE_LOOP('',(#1069,#1070,#1071,#1072));
#174=EDGE_LOOP('',(#1073,#1074,#1075,#1076));
#175=EDGE_LOOP('',(#1077,#1078,#1079,#1080));
#176=EDGE_LOOP('',(#1081,#1082,#1083,#1084));
#177=EDGE_LOOP('',(#1085,#1086,#1087,#1088));
#178=EDGE_LOOP('',(#1089,#1090,#1091,#1092));
#179=EDGE_LOOP('',(#1093,#1094,#1095,#1096));
#180=EDGE_LOOP('',(#1097,#1098,#1099,#1100));
#181=EDGE_LOOP('',(#1101,#1102,#1103,#1104));
#182=EDGE_LOOP('',(#1105,#1106,#1107,#1108));
#183=EDGE_LOOP('',(#1109,#1110,#1111,#1112));
#184=EDGE_LOOP('',(#1113,#1114,#1115,#1116));
#185=EDGE_LOOP('',(#1117,#1118,#1119,#1120));
#186=EDGE_LOOP('',(#1121,#1122,#1123,#1124));
#187=EDGE_LOOP('',(#1125,#1126,#1127,#1128));
#188=EDGE_LOOP('',(#1129,#1130,#1131,#1132));
#189=EDGE_LOOP('',(#1133,#1134,#1135,#1136));
#190=EDGE_LOOP('',(#1137,#1138,#1139,#1140));
#191=EDGE_LOOP('',(#1141,#1142,#1143,#1144));
#192=EDGE_LOOP('',(#1145,#1146,#1147,#1148));
#193=EDGE_LOOP('',(#1149,#1150,#1151,#1152));
#194=EDGE_LOOP('',(#1153,#1154,#1155,#1156));
#195=EDGE_LOOP('',(#1157,#1158,#1159,#1160));
#196=EDGE_LOOP('',(#1161,#1162,#1163,#1164));
#197=EDGE_LOOP('',(#1165,#1166,#1167,#1168));
#198=EDGE_LOOP('',(#1169,#1170,#1171,#1172));
#199=EDGE_LOOP('',(#1173,#1174,#1175,#1176,#1177,#1178,#1179,#1180,#1181,
#1182));
#200=EDGE_LOOP('',(#1183,#1184,#1185,#1186,#1187,#1188));
#201=EDGE_LOOP('',(#1189,#1190,#1191,#1192,#1193,#1194));
#202=EDGE_LOOP('',(#1195,#1196,#1197,#1198));
#203=EDGE_LOOP('',(#1199,#1200,#1201,#1202,#1203,#1204,#1205,#1206));
#204=LINE('',#1802,#335);
#205=LINE('',#1805,#336);
#206=LINE('',#1811,#337);
#207=LINE('',#1814,#338);
#208=LINE('',#1817,#339);
#209=LINE('',#1819,#340);
#210=LINE('',#1821,#341);
#211=LINE('',#1822,#342);
#212=LINE('',#1828,#343);
#213=LINE('',#1831,#344);
#214=LINE('',#1837,#345);
#215=LINE('',#1840,#346);
#216=LINE('',#1844,#347);
#217=LINE('',#1846,#348);
#218=LINE('',#1848,#349);
#219=LINE('',#1849,#350);
#220=LINE('',#1852,#351);
#221=LINE('',#1856,#352);
#222=LINE('',#1860,#353);
#223=LINE('',#1862,#354);
#224=LINE('',#1863,#355);
#225=LINE('',#1864,#356);
#226=LINE('',#1869,#357);
#227=LINE('',#1873,#358);
#228=LINE('',#1876,#359);
#229=LINE('',#1881,#360);
#230=LINE('',#1885,#361);
#231=LINE('',#1888,#362);
#232=LINE('',#1891,#363);
#233=LINE('',#1893,#364);
#234=LINE('',#1895,#365);
#235=LINE('',#1899,#366);
#236=LINE('',#1903,#367);
#237=LINE('',#1904,#368);
#238=LINE('',#1905,#369);
#239=LINE('',#1910,#370);
#240=LINE('',#1914,#371);
#241=LINE('',#1917,#372);
#242=LINE('',#1922,#373);
#243=LINE('',#1926,#374);
#244=LINE('',#1929,#375);
#245=LINE('',#1932,#376);
#246=LINE('',#1935,#377);
#247=LINE('',#1938,#378);
#248=LINE('',#1941,#379);
#249=LINE('',#1947,#380);
#250=LINE('',#1950,#381);
#251=LINE('',#1958,#382);
#252=LINE('',#1959,#383);
#253=LINE('',#1962,#384);
#254=LINE('',#1966,#385);
#255=LINE('',#1967,#386);
#256=LINE('',#1971,#387);
#257=LINE('',#1974,#388);
#258=LINE('',#1977,#389);
#259=LINE('',#1980,#390);
#260=LINE('',#1984,#391);
#261=LINE('',#1987,#392);
#262=LINE('',#1992,#393);
#263=LINE('',#1994,#394);
#264=LINE('',#1998,#395);
#265=LINE('',#1999,#396);
#266=LINE('',#2002,#397);
#267=LINE('',#2003,#398);
#268=LINE('',#2009,#399);
#269=LINE('',#2011,#400);
#270=LINE('',#2013,#401);
#271=LINE('',#2017,#402);
#272=LINE('',#2021,#403);
#273=LINE('',#2023,#404);
#274=LINE('',#2025,#405);
#275=LINE('',#2026,#406);
#276=LINE('',#2031,#407);
#277=LINE('',#2035,#408);
#278=LINE('',#2038,#409);
#279=LINE('',#2043,#410);
#280=LINE('',#2047,#411);
#281=LINE('',#2050,#412);
#282=LINE('',#2052,#413);
#283=LINE('',#2053,#414);
#284=LINE('',#2056,#415);
#285=LINE('',#2057,#416);
#286=LINE('',#2059,#417);
#287=LINE('',#2060,#418);
#288=LINE('',#2062,#419);
#289=LINE('',#2064,#420);
#290=LINE('',#2066,#421);
#291=LINE('',#2067,#422);
#292=LINE('',#2069,#423);
#293=LINE('',#2071,#424);
#294=LINE('',#2073,#425);
#295=LINE('',#2074,#426);
#296=LINE('',#2076,#427);
#297=LINE('',#2078,#428);
#298=LINE('',#2080,#429);
#299=LINE('',#2082,#430);
#300=LINE('',#2085,#431);
#301=LINE('',#2088,#432);
#302=LINE('',#2091,#433);
#303=LINE('',#2092,#434);
#304=LINE('',#2095,#435);
#305=LINE('',#2099,#436);
#306=LINE('',#2102,#437);
#307=LINE('',#2105,#438);
#308=LINE('',#2106,#439);
#309=LINE('',#2109,#440);
#310=LINE('',#2113,#441);
#311=LINE('',#2116,#442);
#312=LINE('',#2119,#443);
#313=LINE('',#2120,#444);
#314=LINE('',#2123,#445);
#315=LINE('',#2126,#446);
#316=LINE('',#2129,#447);
#317=LINE('',#2131,#448);
#318=LINE('',#2132,#449);
#319=LINE('',#2135,#450);
#320=LINE('',#2137,#451);
#321=LINE('',#2140,#452);
#322=LINE('',#2141,#453);
#323=LINE('',#2143,#454);
#324=LINE('',#2147,#455);
#325=LINE('',#2150,#456);
#326=LINE('',#2152,#457);
#327=LINE('',#2155,#458);
#328=LINE('',#2156,#459);
#329=LINE('',#2158,#460);
#330=LINE('',#2162,#461);
#331=LINE('',#2165,#462);
#332=LINE('',#2168,#463);
#333=LINE('',#2169,#464);
#334=LINE('',#2171,#465);
#335=VECTOR('',#1427,7.5);
#336=VECTOR('',#1430,10.);
#337=VECTOR('',#1435,7.5);
#338=VECTOR('',#1438,10.);
#339=VECTOR('',#1441,10.);
#340=VECTOR('',#1442,10.);
#341=VECTOR('',#1443,10.);
#342=VECTOR('',#1444,10.);
#343=VECTOR('',#1449,10.);
#344=VECTOR('',#1452,10.);
#345=VECTOR('',#1457,10.);
#346=VECTOR('',#1460,10.);
#347=VECTOR('',#1463,10.);
#348=VECTOR('',#1464,10.);
#349=VECTOR('',#1465,10.);
#350=VECTOR('',#1466,10.);
#351=VECTOR('',#1469,10.);
#352=VECTOR('',#1472,10.);
#353=VECTOR('',#1475,10.);
#354=VECTOR('',#1476,10.);
#355=VECTOR('',#1477,10.);
#356=VECTOR('',#1478,10.);
#357=VECTOR('',#1481,10.);
#358=VECTOR('',#1484,10.);
#359=VECTOR('',#1487,10.);
#360=VECTOR('',#1490,10.);
#361=VECTOR('',#1493,10.);
#362=VECTOR('',#1496,10.);
#363=VECTOR('',#1499,10.);
#364=VECTOR('',#1500,10.);
#365=VECTOR('',#1501,10.);
#366=VECTOR('',#1504,10.);
#367=VECTOR('',#1507,10.);
#368=VECTOR('',#1508,10.);
#369=VECTOR('',#1509,10.);
#370=VECTOR('',#1512,10.);
#371=VECTOR('',#1515,10.);
#372=VECTOR('',#1518,10.);
#373=VECTOR('',#1521,10.);
#374=VECTOR('',#1524,10.);
#375=VECTOR('',#1527,10.);
#376=VECTOR('',#1530,10.);
#377=VECTOR('',#1533,10.);
#378=VECTOR('',#1534,10.);
#379=VECTOR('',#1537,10.);
#380=VECTOR('',#1542,10.);
#381=VECTOR('',#1545,10.);
#382=VECTOR('',#1554,10.);
#383=VECTOR('',#1555,10.);
#384=VECTOR('',#1558,10.);
#385=VECTOR('',#1563,10.);
#386=VECTOR('',#1564,10.);
#387=VECTOR('',#1569,5.5);
#388=VECTOR('',#1572,10.);
#389=VECTOR('',#1575,10.);
#390=VECTOR('',#1578,10.);
#391=VECTOR('',#1581,10.);
#392=VECTOR('',#1586,10.);
#393=VECTOR('',#1595,10.);
#394=VECTOR('',#1598,10.);
#395=VECTOR('',#1603,10.);
#396=VECTOR('',#1604,10.);
#397=VECTOR('',#1607,10.);
#398=VECTOR('',#1608,10.);
#399=VECTOR('',#1615,10.);
#400=VECTOR('',#1616,10.);
#401=VECTOR('',#1617,10.);
#402=VECTOR('',#1620,10.);
#403=VECTOR('',#1623,10.);
#404=VECTOR('',#1624,10.);
#405=VECTOR('',#1625,10.);
#406=VECTOR('',#1626,10.);
#407=VECTOR('',#1629,10.);
#408=VECTOR('',#1632,10.);
#409=VECTOR('',#1635,10.);
#410=VECTOR('',#1638,10.);
#411=VECTOR('',#1641,10.);
#412=VECTOR('',#1644,10.);
#413=VECTOR('',#1647,10.);
#414=VECTOR('',#1648,10.);
#415=VECTOR('',#1651,10.);
#416=VECTOR('',#1652,10.);
#417=VECTOR('',#1655,10.);
#418=VECTOR('',#1656,10.);
#419=VECTOR('',#1659,10.);
#420=VECTOR('',#1662,10.);
#421=VECTOR('',#1665,10.);
#422=VECTOR('',#1666,10.);
#423=VECTOR('',#1669,10.);
#424=VECTOR('',#1672,10.);
#425=VECTOR('',#1675,10.);
#426=VECTOR('',#1676,10.);
#427=VECTOR('',#1679,10.);
#428=VECTOR('',#1682,10.);
#429=VECTOR('',#1685,10.);
#430=VECTOR('',#1688,10.);
#431=VECTOR('',#1691,10.);
#432=VECTOR('',#1694,10.);
#433=VECTOR('',#1697,10.);
#434=VECTOR('',#1698,10.);
#435=VECTOR('',#1701,10.);
#436=VECTOR('',#1706,10.);
#437=VECTOR('',#1709,10.);
#438=VECTOR('',#1712,10.);
#439=VECTOR('',#1713,10.);
#440=VECTOR('',#1716,10.);
#441=VECTOR('',#1721,10.);
#442=VECTOR('',#1724,10.);
#443=VECTOR('',#1727,10.);
#444=VECTOR('',#1728,10.);
#445=VECTOR('',#1731,10.);
#446=VECTOR('',#1736,10.);
#447=VECTOR('',#1739,10.);
#448=VECTOR('',#1740,10.);
#449=VECTOR('',#1741,10.);
#450=VECTOR('',#1746,10.);
#451=VECTOR('',#1749,10.);
#452=VECTOR('',#1752,10.);
#453=VECTOR('',#1753,10.);
#454=VECTOR('',#1756,10.);
#455=VECTOR('',#1761,10.);
#456=VECTOR('',#1766,10.);
#457=VECTOR('',#1769,10.);
#458=VECTOR('',#1772,10.);
#459=VECTOR('',#1773,10.);
#460=VECTOR('',#1776,10.);
#461=VECTOR('',#1781,10.);
#462=VECTOR('',#1786,10.);
#463=VECTOR('',#1789,10.);
#464=VECTOR('',#1790,10.);
#465=VECTOR('',#1793,10.);
#466=CIRCLE('',#1301,7.5);
#467=CIRCLE('',#1302,7.5);
#468=CIRCLE('',#1304,7.5);
#469=CIRCLE('',#1305,7.5);
#470=CIRCLE('',#1308,0.5);
#471=CIRCLE('',#1309,0.5);
#472=CIRCLE('',#1311,0.5);
#473=CIRCLE('',#1312,0.5);
#474=CIRCLE('',#1315,3.);
#475=CIRCLE('',#1316,3.);
#476=CIRCLE('',#1317,1.74999999986778);
#477=CIRCLE('',#1318,1.75);
#478=CIRCLE('',#1319,1.74999999999998);
#479=CIRCLE('',#1320,1.74999999999998);
#480=CIRCLE('',#1321,1.75);
#481=CIRCLE('',#1322,1.74999999999999);
#482=CIRCLE('',#1324,3.);
#483=CIRCLE('',#1325,3.);
#484=CIRCLE('',#1326,1.74999999999998);
#485=CIRCLE('',#1327,1.74999999999999);
#486=CIRCLE('',#1328,1.75);
#487=CIRCLE('',#1329,1.74999999986778);
#488=CIRCLE('',#1330,1.74999999999998);
#489=CIRCLE('',#1331,1.75);
#490=CIRCLE('',#1333,12.5);
#491=CIRCLE('',#1334,9.);
#492=CIRCLE('',#1335,5.5);
#493=CIRCLE('',#1336,0.5);
#494=CIRCLE('',#1337,9.);
#495=CIRCLE('',#1338,5.5);
#496=CIRCLE('',#1339,5.5);
#497=CIRCLE('',#1340,0.5);
#498=CIRCLE('',#1343,9.);
#499=CIRCLE('',#1346,5.5);
#500=CIRCLE('',#1347,5.5);
#501=CIRCLE('',#1348,5.5);
#502=CIRCLE('',#1350,9.);
#503=CIRCLE('',#1351,0.5);
#504=CIRCLE('',#1354,0.5);
#505=CIRCLE('',#1362,12.5);
#506=CIRCLE('',#1364,3.);
#507=CIRCLE('',#1365,3.);
#508=CIRCLE('',#1366,1.74999999986778);
#509=CIRCLE('',#1367,1.75);
#510=CIRCLE('',#1368,1.74999999999998);
#511=CIRCLE('',#1369,1.74999999999998);
#512=CIRCLE('',#1370,1.75);
#513=CIRCLE('',#1371,1.74999999999999);
#514=CIRCLE('',#1386,1.74999999999998);
#515=CIRCLE('',#1389,1.75);
#516=CIRCLE('',#1391,1.74999999999999);
#517=CIRCLE('',#1394,1.75);
#518=CIRCLE('',#1396,3.);
#519=CIRCLE('',#1399,3.);
#520=CIRCLE('',#1409,1.74999999986778);
#521=CIRCLE('',#1416,1.74999999999998);
#522=VERTEX_POINT('',#1798);
#523=VERTEX_POINT('',#1799);
#524=VERTEX_POINT('',#1801);
#525=VERTEX_POINT('',#1803);
#526=VERTEX_POINT('',#1807);
#527=VERTEX_POINT('',#1808);
#528=VERTEX_POINT('',#1810);
#529=VERTEX_POINT('',#1812);
#530=VERTEX_POINT('',#1816);
#531=VERTEX_POINT('',#1818);
#532=VERTEX_POINT('',#1820);
#533=VERTEX_POINT('',#1824);
#534=VERTEX_POINT('',#1825);
#535=VERTEX_POINT('',#1827);
#536=VERTEX_POINT('',#1829);
#537=VERTEX_POINT('',#1833);
#538=VERTEX_POINT('',#1834);
#539=VERTEX_POINT('',#1836);
#540=VERTEX_POINT('',#1838);
#541=VERTEX_POINT('',#1842);
#542=VERTEX_POINT('',#1843);
#543=VERTEX_POINT('',#1845);
#544=VERTEX_POINT('',#1847);
#545=VERTEX_POINT('',#1851);
#546=VERTEX_POINT('',#1853);
#547=VERTEX_POINT('',#1855);
#548=VERTEX_POINT('',#1857);
#549=VERTEX_POINT('',#1859);
#550=VERTEX_POINT('',#1861);
#551=VERTEX_POINT('',#1865);
#552=VERTEX_POINT('',#1866);
#553=VERTEX_POINT('',#1868);
#554=VERTEX_POINT('',#1870);
#555=VERTEX_POINT('',#1872);
#556=VERTEX_POINT('',#1874);
#557=VERTEX_POINT('',#1877);
#558=VERTEX_POINT('',#1878);
#559=VERTEX_POINT('',#1880);
#560=VERTEX_POINT('',#1882);
#561=VERTEX_POINT('',#1884);
#562=VERTEX_POINT('',#1886);
#563=VERTEX_POINT('',#1890);
#564=VERTEX_POINT('',#1892);
#565=VERTEX_POINT('',#1894);
#566=VERTEX_POINT('',#1896);
#567=VERTEX_POINT('',#1898);
#568=VERTEX_POINT('',#1900);
#569=VERTEX_POINT('',#1902);
#570=VERTEX_POINT('',#1906);
#571=VERTEX_POINT('',#1907);
#572=VERTEX_POINT('',#1909);
#573=VERTEX_POINT('',#1911);
#574=VERTEX_POINT('',#1913);
#575=VERTEX_POINT('',#1915);
#576=VERTEX_POINT('',#1918);
#577=VERTEX_POINT('',#1919);
#578=VERTEX_POINT('',#1921);
#579=VERTEX_POINT('',#1923);
#580=VERTEX_POINT('',#1925);
#581=VERTEX_POINT('',#1927);
#582=VERTEX_POINT('',#1931);
#583=VERTEX_POINT('',#1933);
#584=VERTEX_POINT('',#1936);
#585=VERTEX_POINT('',#1937);
#586=VERTEX_POINT('',#1939);
#587=VERTEX_POINT('',#1942);
#588=VERTEX_POINT('',#1944);
#589=VERTEX_POINT('',#1946);
#590=VERTEX_POINT('',#1948);
#591=VERTEX_POINT('',#1951);
#592=VERTEX_POINT('',#1953);
#593=VERTEX_POINT('',#1957);
#594=VERTEX_POINT('',#1961);
#595=VERTEX_POINT('',#1965);
#596=VERTEX_POINT('',#1969);
#597=VERTEX_POINT('',#1972);
#598=VERTEX_POINT('',#1975);
#599=VERTEX_POINT('',#1979);
#600=VERTEX_POINT('',#1981);
#601=VERTEX_POINT('',#1983);
#602=VERTEX_POINT('',#1997);
#603=VERTEX_POINT('',#2001);
#604=VERTEX_POINT('',#2007);
#605=VERTEX_POINT('',#2008);
#606=VERTEX_POINT('',#2010);
#607=VERTEX_POINT('',#2012);
#608=VERTEX_POINT('',#2014);
#609=VERTEX_POINT('',#2016);
#610=VERTEX_POINT('',#2018);
#611=VERTEX_POINT('',#2020);
#612=VERTEX_POINT('',#2022);
#613=VERTEX_POINT('',#2024);
#614=VERTEX_POINT('',#2027);
#615=VERTEX_POINT('',#2028);
#616=VERTEX_POINT('',#2030);
#617=VERTEX_POINT('',#2032);
#618=VERTEX_POINT('',#2034);
#619=VERTEX_POINT('',#2036);
#620=VERTEX_POINT('',#2039);
#621=VERTEX_POINT('',#2040);
#622=VERTEX_POINT('',#2042);
#623=VERTEX_POINT('',#2044);
#624=VERTEX_POINT('',#2046);
#625=VERTEX_POINT('',#2048);
#626=VERTEX_POINT('',#2055);
#627=VERTEX_POINT('',#2084);
#628=VERTEX_POINT('',#2086);
#629=VERTEX_POINT('',#2090);
#630=VERTEX_POINT('',#2094);
#631=VERTEX_POINT('',#2098);
#632=VERTEX_POINT('',#2100);
#633=VERTEX_POINT('',#2104);
#634=VERTEX_POINT('',#2108);
#635=VERTEX_POINT('',#2112);
#636=VERTEX_POINT('',#2114);
#637=VERTEX_POINT('',#2118);
#638=VERTEX_POINT('',#2122);
#639=VERTEX_POINT('',#2128);
#640=VERTEX_POINT('',#2130);
#641=VERTEX_POINT('',#2139);
#642=VERTEX_POINT('',#2146);
#643=VERTEX_POINT('',#2154);
#644=VERTEX_POINT('',#2161);
#645=VERTEX_POINT('',#2167);
#646=EDGE_CURVE('',#522,#523,#466,.T.);
#647=EDGE_CURVE('',#523,#524,#204,.T.);
#648=EDGE_CURVE('',#524,#525,#467,.T.);
#649=EDGE_CURVE('',#522,#525,#205,.T.);
#650=EDGE_CURVE('',#526,#527,#468,.T.);
#651=EDGE_CURVE('',#527,#528,#206,.T.);
#652=EDGE_CURVE('',#529,#528,#469,.F.);
#653=EDGE_CURVE('',#526,#529,#207,.T.);
#654=EDGE_CURVE('',#529,#530,#208,.T.);
#655=EDGE_CURVE('',#530,#531,#209,.T.);
#656=EDGE_CURVE('',#531,#532,#210,.T.);
#657=EDGE_CURVE('',#529,#532,#211,.T.);
#658=EDGE_CURVE('',#533,#534,#470,.T.);
#659=EDGE_CURVE('',#534,#535,#212,.T.);
#660=EDGE_CURVE('',#535,#536,#471,.T.);
#661=EDGE_CURVE('',#536,#533,#213,.T.);
#662=EDGE_CURVE('',#537,#538,#472,.T.);
#663=EDGE_CURVE('',#538,#539,#214,.T.);
#664=EDGE_CURVE('',#539,#540,#473,.T.);
#665=EDGE_CURVE('',#540,#537,#215,.T.);
#666=EDGE_CURVE('',#541,#542,#216,.T.);
#667=EDGE_CURVE('',#542,#543,#217,.T.);
#668=EDGE_CURVE('',#543,#544,#218,.T.);
#669=EDGE_CURVE('',#544,#541,#219,.T.);
#670=EDGE_CURVE('',#532,#545,#220,.T.);
#671=EDGE_CURVE('',#545,#546,#474,.T.);
#672=EDGE_CURVE('',#546,#547,#221,.T.);
#673=EDGE_CURVE('',#547,#548,#475,.T.);
#674=EDGE_CURVE('',#548,#549,#222,.T.);
#675=EDGE_CURVE('',#549,#550,#223,.T.);
#676=EDGE_CURVE('',#550,#541,#224,.T.);
#677=EDGE_CURVE('',#526,#544,#225,.T.);
#678=EDGE_CURVE('',#551,#552,#476,.T.);
#679=EDGE_CURVE('',#552,#553,#226,.T.);
#680=EDGE_CURVE('',#553,#554,#477,.T.);
#681=EDGE_CURVE('',#554,#555,#227,.T.);
#682=EDGE_CURVE('',#555,#556,#478,.T.);
#683=EDGE_CURVE('',#556,#551,#228,.T.);
#684=EDGE_CURVE('',#557,#558,#479,.T.);
#685=EDGE_CURVE('',#558,#559,#229,.T.);
#686=EDGE_CURVE('',#559,#560,#480,.T.);
#687=EDGE_CURVE('',#560,#561,#230,.T.);
#688=EDGE_CURVE('',#561,#562,#481,.T.);
#689=EDGE_CURVE('',#562,#557,#231,.T.);
#690=EDGE_CURVE('',#563,#542,#232,.T.);
#691=EDGE_CURVE('',#563,#564,#233,.T.);
#692=EDGE_CURVE('',#564,#565,#234,.T.);
#693=EDGE_CURVE('',#565,#566,#482,.T.);
#694=EDGE_CURVE('',#566,#567,#235,.T.);
#695=EDGE_CURVE('',#567,#568,#483,.T.);
#696=EDGE_CURVE('',#568,#569,#236,.T.);
#697=EDGE_CURVE('',#569,#522,#237,.T.);
#698=EDGE_CURVE('',#525,#543,#238,.T.);
#699=EDGE_CURVE('',#570,#571,#484,.T.);
#700=EDGE_CURVE('',#571,#572,#239,.T.);
#701=EDGE_CURVE('',#572,#573,#485,.T.);
#702=EDGE_CURVE('',#573,#574,#240,.T.);
#703=EDGE_CURVE('',#574,#575,#486,.T.);
#704=EDGE_CURVE('',#575,#570,#241,.T.);
#705=EDGE_CURVE('',#576,#577,#487,.T.);
#706=EDGE_CURVE('',#577,#578,#242,.T.);
#707=EDGE_CURVE('',#578,#579,#488,.T.);
#708=EDGE_CURVE('',#579,#580,#243,.T.);
#709=EDGE_CURVE('',#580,#581,#489,.T.);
#710=EDGE_CURVE('',#581,#576,#244,.T.);
#711=EDGE_CURVE('',#524,#582,#245,.T.);
#712=EDGE_CURVE('',#582,#583,#490,.T.);
#713=EDGE_CURVE('',#583,#527,#246,.T.);
#714=EDGE_CURVE('',#584,#585,#247,.T.);
#715=EDGE_CURVE('',#586,#584,#491,.T.);
#716=EDGE_CURVE('',#534,#586,#248,.T.);
#717=EDGE_CURVE('',#587,#533,#492,.T.);
#718=EDGE_CURVE('',#588,#587,#493,.T.);
#719=EDGE_CURVE('',#589,#588,#249,.T.);
#720=EDGE_CURVE('',#590,#589,#494,.T.);
#721=EDGE_CURVE('',#538,#590,#250,.T.);
#722=EDGE_CURVE('',#591,#537,#495,.T.);
#723=EDGE_CURVE('',#592,#591,#496,.T.);
#724=EDGE_CURVE('',#585,#592,#497,.T.);
#725=EDGE_CURVE('',#586,#593,#251,.T.);
#726=EDGE_CURVE('',#535,#593,#252,.T.);
#727=EDGE_CURVE('',#584,#594,#253,.T.);
#728=EDGE_CURVE('',#593,#594,#498,.T.);
#729=EDGE_CURVE('',#595,#585,#254,.T.);
#730=EDGE_CURVE('',#594,#595,#255,.T.);
#731=EDGE_CURVE('',#596,#596,#499,.T.);
#732=EDGE_CURVE('',#596,#591,#256,.T.);
#733=EDGE_CURVE('',#597,#540,#500,.T.);
#734=EDGE_CURVE('',#587,#597,#257,.T.);
#735=EDGE_CURVE('',#598,#536,#501,.T.);
#736=EDGE_CURVE('',#592,#598,#258,.T.);
#737=EDGE_CURVE('',#539,#599,#259,.T.);
#738=EDGE_CURVE('',#599,#600,#502,.T.);
#739=EDGE_CURVE('',#600,#601,#260,.T.);
#740=EDGE_CURVE('',#597,#601,#503,.T.);
#741=EDGE_CURVE('',#601,#588,#261,.T.);
#742=EDGE_CURVE('',#598,#595,#504,.T.);
#743=EDGE_CURVE('',#589,#600,#262,.T.);
#744=EDGE_CURVE('',#590,#599,#263,.T.);
#745=EDGE_CURVE('',#602,#583,#264,.T.);
#746=EDGE_CURVE('',#602,#528,#265,.T.);
#747=EDGE_CURVE('',#523,#603,#266,.T.);
#748=EDGE_CURVE('',#603,#582,#267,.T.);
#749=EDGE_CURVE('',#603,#602,#505,.T.);
#750=EDGE_CURVE('',#604,#605,#268,.T.);
#751=EDGE_CURVE('',#606,#605,#269,.T.);
#752=EDGE_CURVE('',#606,#607,#270,.T.);
#753=EDGE_CURVE('',#607,#608,#506,.T.);
#754=EDGE_CURVE('',#608,#609,#271,.T.);
#755=EDGE_CURVE('',#609,#610,#507,.T.);
#756=EDGE_CURVE('',#610,#611,#272,.T.);
#757=EDGE_CURVE('',#612,#611,#273,.T.);
#758=EDGE_CURVE('',#613,#612,#274,.T.);
#759=EDGE_CURVE('',#604,#613,#275,.T.);
#760=EDGE_CURVE('',#614,#615,#508,.T.);
#761=EDGE_CURVE('',#615,#616,#276,.T.);
#762=EDGE_CURVE('',#616,#617,#509,.T.);
#763=EDGE_CURVE('',#617,#618,#277,.T.);
#764=EDGE_CURVE('',#618,#619,#510,.T.);
#765=EDGE_CURVE('',#619,#614,#278,.T.);
#766=EDGE_CURVE('',#620,#621,#511,.T.);
#767=EDGE_CURVE('',#621,#622,#279,.T.);
#768=EDGE_CURVE('',#622,#623,#512,.T.);
#769=EDGE_CURVE('',#623,#624,#280,.T.);
#770=EDGE_CURVE('',#624,#625,#513,.T.);
#771=EDGE_CURVE('',#625,#620,#281,.T.);
#772=EDGE_CURVE('',#605,#522,#282,.T.);
#773=EDGE_CURVE('',#569,#606,#283,.T.);
#774=EDGE_CURVE('',#604,#626,#284,.F.);
#775=EDGE_CURVE('',#626,#530,#285,.T.);
#776=EDGE_CURVE('',#574,#623,#286,.T.);
#777=EDGE_CURVE('',#575,#622,#287,.T.);
#778=EDGE_CURVE('',#573,#624,#288,.T.);
#779=EDGE_CURVE('',#572,#625,#289,.T.);
#780=EDGE_CURVE('',#580,#617,#290,.T.);
#781=EDGE_CURVE('',#581,#616,#291,.T.);
#782=EDGE_CURVE('',#579,#618,#292,.T.);
#783=EDGE_CURVE('',#578,#619,#293,.T.);
#784=EDGE_CURVE('',#608,#567,#294,.T.);
#785=EDGE_CURVE('',#607,#568,#295,.T.);
#786=EDGE_CURVE('',#609,#566,#296,.T.);
#787=EDGE_CURVE('',#610,#565,#297,.T.);
#788=EDGE_CURVE('',#611,#564,#298,.T.);
#789=EDGE_CURVE('',#563,#612,#299,.T.);
#790=EDGE_CURVE('',#627,#555,#300,.T.);
#791=EDGE_CURVE('',#628,#627,#514,.T.);
#792=EDGE_CURVE('',#628,#556,#301,.T.);
#793=EDGE_CURVE('',#629,#554,#302,.T.);
#794=EDGE_CURVE('',#627,#629,#303,.T.);
#795=EDGE_CURVE('',#630,#553,#304,.T.);
#796=EDGE_CURVE('',#629,#630,#515,.T.);
#797=EDGE_CURVE('',#631,#561,#305,.T.);
#798=EDGE_CURVE('',#632,#631,#516,.T.);
#799=EDGE_CURVE('',#632,#562,#306,.T.);
#800=EDGE_CURVE('',#633,#560,#307,.T.);
#801=EDGE_CURVE('',#631,#633,#308,.T.);
#802=EDGE_CURVE('',#634,#559,#309,.T.);
#803=EDGE_CURVE('',#633,#634,#517,.T.);
#804=EDGE_CURVE('',#547,#635,#310,.T.);
#805=EDGE_CURVE('',#636,#635,#518,.T.);
#806=EDGE_CURVE('',#548,#636,#311,.T.);
#807=EDGE_CURVE('',#546,#637,#312,.T.);
#808=EDGE_CURVE('',#635,#637,#313,.T.);
#809=EDGE_CURVE('',#545,#638,#314,.T.);
#810=EDGE_CURVE('',#637,#638,#519,.T.);
#811=EDGE_CURVE('',#638,#531,#315,.T.);
#812=EDGE_CURVE('',#549,#639,#316,.T.);
#813=EDGE_CURVE('',#639,#640,#317,.T.);
#814=EDGE_CURVE('',#640,#550,#318,.T.);
#815=EDGE_CURVE('',#639,#636,#319,.T.);
#816=EDGE_CURVE('',#576,#615,#320,.T.);
#817=EDGE_CURVE('',#641,#552,#321,.T.);
#818=EDGE_CURVE('',#630,#641,#322,.T.);
#819=EDGE_CURVE('',#614,#577,#323,.T.);
#820=EDGE_CURVE('',#642,#551,#324,.T.);
#821=EDGE_CURVE('',#641,#642,#520,.T.);
#822=EDGE_CURVE('',#642,#628,#325,.T.);
#823=EDGE_CURVE('',#570,#621,#326,.T.);
#824=EDGE_CURVE('',#643,#558,#327,.T.);
#825=EDGE_CURVE('',#634,#643,#328,.T.);
#826=EDGE_CURVE('',#620,#571,#329,.T.);
#827=EDGE_CURVE('',#644,#557,#330,.T.);
#828=EDGE_CURVE('',#643,#644,#521,.T.);
#829=EDGE_CURVE('',#644,#632,#331,.T.);
#830=EDGE_CURVE('',#645,#626,#332,.T.);
#831=EDGE_CURVE('',#645,#640,#333,.T.);
#832=EDGE_CURVE('',#645,#613,#334,.T.);
#833=ORIENTED_EDGE('',*,*,#646,.T.);
#834=ORIENTED_EDGE('',*,*,#647,.T.);
#835=ORIENTED_EDGE('',*,*,#648,.T.);
#836=ORIENTED_EDGE('',*,*,#649,.F.);
#837=ORIENTED_EDGE('',*,*,#650,.T.);
#838=ORIENTED_EDGE('',*,*,#651,.T.);
#839=ORIENTED_EDGE('',*,*,#652,.F.);
#840=ORIENTED_EDGE('',*,*,#653,.F.);
#841=ORIENTED_EDGE('',*,*,#654,.T.);
#842=ORIENTED_EDGE('',*,*,#655,.T.);
#843=ORIENTED_EDGE('',*,*,#656,.T.);
#844=ORIENTED_EDGE('',*,*,#657,.F.);
#845=ORIENTED_EDGE('',*,*,#658,.T.);
#846=ORIENTED_EDGE('',*,*,#659,.T.);
#847=ORIENTED_EDGE('',*,*,#660,.T.);
#848=ORIENTED_EDGE('',*,*,#661,.T.);
#849=ORIENTED_EDGE('',*,*,#662,.T.);
#850=ORIENTED_EDGE('',*,*,#663,.T.);
#851=ORIENTED_EDGE('',*,*,#664,.T.);
#852=ORIENTED_EDGE('',*,*,#665,.T.);
#853=ORIENTED_EDGE('',*,*,#666,.T.);
#854=ORIENTED_EDGE('',*,*,#667,.T.);
#855=ORIENTED_EDGE('',*,*,#668,.T.);
#856=ORIENTED_EDGE('',*,*,#669,.T.);
#857=ORIENTED_EDGE('',*,*,#653,.T.);
#858=ORIENTED_EDGE('',*,*,#657,.T.);
#859=ORIENTED_EDGE('',*,*,#670,.T.);
#860=ORIENTED_EDGE('',*,*,#671,.T.);
#861=ORIENTED_EDGE('',*,*,#672,.T.);
#862=ORIENTED_EDGE('',*,*,#673,.T.);
#863=ORIENTED_EDGE('',*,*,#674,.T.);
#864=ORIENTED_EDGE('',*,*,#675,.T.);
#865=ORIENTED_EDGE('',*,*,#676,.T.);
#866=ORIENTED_EDGE('',*,*,#669,.F.);
#867=ORIENTED_EDGE('',*,*,#677,.F.);
#868=ORIENTED_EDGE('',*,*,#678,.T.);
#869=ORIENTED_EDGE('',*,*,#679,.T.);
#870=ORIENTED_EDGE('',*,*,#680,.T.);
#871=ORIENTED_EDGE('',*,*,#681,.T.);
#872=ORIENTED_EDGE('',*,*,#682,.T.);
#873=ORIENTED_EDGE('',*,*,#683,.T.);
#874=ORIENTED_EDGE('',*,*,#684,.T.);
#875=ORIENTED_EDGE('',*,*,#685,.T.);
#876=ORIENTED_EDGE('',*,*,#686,.T.);
#877=ORIENTED_EDGE('',*,*,#687,.T.);
#878=ORIENTED_EDGE('',*,*,#688,.T.);
#879=ORIENTED_EDGE('',*,*,#689,.T.);
#880=ORIENTED_EDGE('',*,*,#690,.F.);
#881=ORIENTED_EDGE('',*,*,#691,.T.);
#882=ORIENTED_EDGE('',*,*,#692,.T.);
#883=ORIENTED_EDGE('',*,*,#693,.T.);
#884=ORIENTED_EDGE('',*,*,#694,.T.);
#885=ORIENTED_EDGE('',*,*,#695,.T.);
#886=ORIENTED_EDGE('',*,*,#696,.T.);
#887=ORIENTED_EDGE('',*,*,#697,.T.);
#888=ORIENTED_EDGE('',*,*,#649,.T.);
#889=ORIENTED_EDGE('',*,*,#698,.T.);
#890=ORIENTED_EDGE('',*,*,#667,.F.);
#891=ORIENTED_EDGE('',*,*,#699,.T.);
#892=ORIENTED_EDGE('',*,*,#700,.T.);
#893=ORIENTED_EDGE('',*,*,#701,.T.);
#894=ORIENTED_EDGE('',*,*,#702,.T.);
#895=ORIENTED_EDGE('',*,*,#703,.T.);
#896=ORIENTED_EDGE('',*,*,#704,.T.);
#897=ORIENTED_EDGE('',*,*,#705,.T.);
#898=ORIENTED_EDGE('',*,*,#706,.T.);
#899=ORIENTED_EDGE('',*,*,#707,.T.);
#900=ORIENTED_EDGE('',*,*,#708,.T.);
#901=ORIENTED_EDGE('',*,*,#709,.T.);
#902=ORIENTED_EDGE('',*,*,#710,.T.);
#903=ORIENTED_EDGE('',*,*,#711,.T.);
#904=ORIENTED_EDGE('',*,*,#712,.T.);
#905=ORIENTED_EDGE('',*,*,#713,.T.);
#906=ORIENTED_EDGE('',*,*,#650,.F.);
#907=ORIENTED_EDGE('',*,*,#677,.T.);
#908=ORIENTED_EDGE('',*,*,#668,.F.);
#909=ORIENTED_EDGE('',*,*,#698,.F.);
#910=ORIENTED_EDGE('',*,*,#648,.F.);
#911=ORIENTED_EDGE('',*,*,#714,.F.);
#912=ORIENTED_EDGE('',*,*,#715,.F.);
#913=ORIENTED_EDGE('',*,*,#716,.F.);
#914=ORIENTED_EDGE('',*,*,#658,.F.);
#915=ORIENTED_EDGE('',*,*,#717,.F.);
#916=ORIENTED_EDGE('',*,*,#718,.F.);
#917=ORIENTED_EDGE('',*,*,#719,.F.);
#918=ORIENTED_EDGE('',*,*,#720,.F.);
#919=ORIENTED_EDGE('',*,*,#721,.F.);
#920=ORIENTED_EDGE('',*,*,#662,.F.);
#921=ORIENTED_EDGE('',*,*,#722,.F.);
#922=ORIENTED_EDGE('',*,*,#723,.F.);
#923=ORIENTED_EDGE('',*,*,#724,.F.);
#924=ORIENTED_EDGE('',*,*,#716,.T.);
#925=ORIENTED_EDGE('',*,*,#725,.T.);
#926=ORIENTED_EDGE('',*,*,#726,.F.);
#927=ORIENTED_EDGE('',*,*,#659,.F.);
#928=ORIENTED_EDGE('',*,*,#715,.T.);
#929=ORIENTED_EDGE('',*,*,#727,.T.);
#930=ORIENTED_EDGE('',*,*,#728,.F.);
#931=ORIENTED_EDGE('',*,*,#725,.F.);
#932=ORIENTED_EDGE('',*,*,#714,.T.);
#933=ORIENTED_EDGE('',*,*,#729,.F.);
#934=ORIENTED_EDGE('',*,*,#730,.F.);
#935=ORIENTED_EDGE('',*,*,#727,.F.);
#936=ORIENTED_EDGE('',*,*,#731,.T.);
#937=ORIENTED_EDGE('',*,*,#732,.T.);
#938=ORIENTED_EDGE('',*,*,#722,.T.);
#939=ORIENTED_EDGE('',*,*,#665,.F.);
#940=ORIENTED_EDGE('',*,*,#733,.F.);
#941=ORIENTED_EDGE('',*,*,#734,.F.);
#942=ORIENTED_EDGE('',*,*,#717,.T.);
#943=ORIENTED_EDGE('',*,*,#661,.F.);
#944=ORIENTED_EDGE('',*,*,#735,.F.);
#945=ORIENTED_EDGE('',*,*,#736,.F.);
#946=ORIENTED_EDGE('',*,*,#723,.T.);
#947=ORIENTED_EDGE('',*,*,#732,.F.);
#948=ORIENTED_EDGE('',*,*,#664,.F.);
#949=ORIENTED_EDGE('',*,*,#737,.T.);
#950=ORIENTED_EDGE('',*,*,#738,.T.);
#951=ORIENTED_EDGE('',*,*,#739,.T.);
#952=ORIENTED_EDGE('',*,*,#740,.F.);
#953=ORIENTED_EDGE('',*,*,#733,.T.);
#954=ORIENTED_EDGE('',*,*,#718,.T.);
#955=ORIENTED_EDGE('',*,*,#734,.T.);
#956=ORIENTED_EDGE('',*,*,#740,.T.);
#957=ORIENTED_EDGE('',*,*,#741,.T.);
#958=ORIENTED_EDGE('',*,*,#724,.T.);
#959=ORIENTED_EDGE('',*,*,#736,.T.);
#960=ORIENTED_EDGE('',*,*,#742,.T.);
#961=ORIENTED_EDGE('',*,*,#729,.T.);
#962=ORIENTED_EDGE('',*,*,#660,.F.);
#963=ORIENTED_EDGE('',*,*,#726,.T.);
#964=ORIENTED_EDGE('',*,*,#728,.T.);
#965=ORIENTED_EDGE('',*,*,#730,.T.);
#966=ORIENTED_EDGE('',*,*,#742,.F.);
#967=ORIENTED_EDGE('',*,*,#735,.T.);
#968=ORIENTED_EDGE('',*,*,#719,.T.);
#969=ORIENTED_EDGE('',*,*,#741,.F.);
#970=ORIENTED_EDGE('',*,*,#739,.F.);
#971=ORIENTED_EDGE('',*,*,#743,.F.);
#972=ORIENTED_EDGE('',*,*,#720,.T.);
#973=ORIENTED_EDGE('',*,*,#743,.T.);
#974=ORIENTED_EDGE('',*,*,#738,.F.);
#975=ORIENTED_EDGE('',*,*,#744,.F.);
#976=ORIENTED_EDGE('',*,*,#721,.T.);
#977=ORIENTED_EDGE('',*,*,#744,.T.);
#978=ORIENTED_EDGE('',*,*,#737,.F.);
#979=ORIENTED_EDGE('',*,*,#663,.F.);
#980=ORIENTED_EDGE('',*,*,#651,.F.);
#981=ORIENTED_EDGE('',*,*,#713,.F.);
#982=ORIENTED_EDGE('',*,*,#745,.F.);
#983=ORIENTED_EDGE('',*,*,#746,.T.);
#984=ORIENTED_EDGE('',*,*,#647,.F.);
#985=ORIENTED_EDGE('',*,*,#747,.T.);
#986=ORIENTED_EDGE('',*,*,#748,.T.);
#987=ORIENTED_EDGE('',*,*,#711,.F.);
#988=ORIENTED_EDGE('',*,*,#749,.T.);
#989=ORIENTED_EDGE('',*,*,#745,.T.);
#990=ORIENTED_EDGE('',*,*,#712,.F.);
#991=ORIENTED_EDGE('',*,*,#748,.F.);
#992=ORIENTED_EDGE('',*,*,#750,.T.);
#993=ORIENTED_EDGE('',*,*,#751,.F.);
#994=ORIENTED_EDGE('',*,*,#752,.T.);
#995=ORIENTED_EDGE('',*,*,#753,.T.);
#996=ORIENTED_EDGE('',*,*,#754,.T.);
#997=ORIENTED_EDGE('',*,*,#755,.T.);
#998=ORIENTED_EDGE('',*,*,#756,.T.);
#999=ORIENTED_EDGE('',*,*,#757,.F.);
#1000=ORIENTED_EDGE('',*,*,#758,.F.);
#1001=ORIENTED_EDGE('',*,*,#759,.F.);
#1002=ORIENTED_EDGE('',*,*,#760,.T.);
#1003=ORIENTED_EDGE('',*,*,#761,.T.);
#1004=ORIENTED_EDGE('',*,*,#762,.T.);
#1005=ORIENTED_EDGE('',*,*,#763,.T.);
#1006=ORIENTED_EDGE('',*,*,#764,.T.);
#1007=ORIENTED_EDGE('',*,*,#765,.T.);
#1008=ORIENTED_EDGE('',*,*,#766,.T.);
#1009=ORIENTED_EDGE('',*,*,#767,.T.);
#1010=ORIENTED_EDGE('',*,*,#768,.T.);
#1011=ORIENTED_EDGE('',*,*,#769,.T.);
#1012=ORIENTED_EDGE('',*,*,#770,.T.);
#1013=ORIENTED_EDGE('',*,*,#771,.T.);
#1014=ORIENTED_EDGE('',*,*,#772,.T.);
#1015=ORIENTED_EDGE('',*,*,#697,.F.);
#1016=ORIENTED_EDGE('',*,*,#773,.T.);
#1017=ORIENTED_EDGE('',*,*,#751,.T.);
#1018=ORIENTED_EDGE('',*,*,#750,.F.);
#1019=ORIENTED_EDGE('',*,*,#774,.T.);
#1020=ORIENTED_EDGE('',*,*,#775,.T.);
#1021=ORIENTED_EDGE('',*,*,#654,.F.);
#1022=ORIENTED_EDGE('',*,*,#652,.T.);
#1023=ORIENTED_EDGE('',*,*,#746,.F.);
#1024=ORIENTED_EDGE('',*,*,#749,.F.);
#1025=ORIENTED_EDGE('',*,*,#747,.F.);
#1026=ORIENTED_EDGE('',*,*,#646,.F.);
#1027=ORIENTED_EDGE('',*,*,#772,.F.);
#1028=ORIENTED_EDGE('',*,*,#731,.F.);
#1029=ORIENTED_EDGE('',*,*,#776,.T.);
#1030=ORIENTED_EDGE('',*,*,#768,.F.);
#1031=ORIENTED_EDGE('',*,*,#777,.F.);
#1032=ORIENTED_EDGE('',*,*,#703,.F.);
#1033=ORIENTED_EDGE('',*,*,#778,.T.);
#1034=ORIENTED_EDGE('',*,*,#769,.F.);
#1035=ORIENTED_EDGE('',*,*,#776,.F.);
#1036=ORIENTED_EDGE('',*,*,#702,.F.);
#1037=ORIENTED_EDGE('',*,*,#779,.T.);
#1038=ORIENTED_EDGE('',*,*,#770,.F.);
#1039=ORIENTED_EDGE('',*,*,#778,.F.);
#1040=ORIENTED_EDGE('',*,*,#701,.F.);
#1041=ORIENTED_EDGE('',*,*,#780,.T.);
#1042=ORIENTED_EDGE('',*,*,#762,.F.);
#1043=ORIENTED_EDGE('',*,*,#781,.F.);
#1044=ORIENTED_EDGE('',*,*,#709,.F.);
#1045=ORIENTED_EDGE('',*,*,#782,.T.);
#1046=ORIENTED_EDGE('',*,*,#763,.F.);
#1047=ORIENTED_EDGE('',*,*,#780,.F.);
#1048=ORIENTED_EDGE('',*,*,#708,.F.);
#1049=ORIENTED_EDGE('',*,*,#783,.T.);
#1050=ORIENTED_EDGE('',*,*,#764,.F.);
#1051=ORIENTED_EDGE('',*,*,#782,.F.);
#1052=ORIENTED_EDGE('',*,*,#707,.F.);
#1053=ORIENTED_EDGE('',*,*,#784,.F.);
#1054=ORIENTED_EDGE('',*,*,#753,.F.);
#1055=ORIENTED_EDGE('',*,*,#785,.T.);
#1056=ORIENTED_EDGE('',*,*,#695,.F.);
#1057=ORIENTED_EDGE('',*,*,#786,.F.);
#1058=ORIENTED_EDGE('',*,*,#754,.F.);
#1059=ORIENTED_EDGE('',*,*,#784,.T.);
#1060=ORIENTED_EDGE('',*,*,#694,.F.);
#1061=ORIENTED_EDGE('',*,*,#787,.F.);
#1062=ORIENTED_EDGE('',*,*,#755,.F.);
#1063=ORIENTED_EDGE('',*,*,#786,.T.);
#1064=ORIENTED_EDGE('',*,*,#693,.F.);
#1065=ORIENTED_EDGE('',*,*,#788,.F.);
#1066=ORIENTED_EDGE('',*,*,#756,.F.);
#1067=ORIENTED_EDGE('',*,*,#787,.T.);
#1068=ORIENTED_EDGE('',*,*,#692,.F.);
#1069=ORIENTED_EDGE('',*,*,#789,.T.);
#1070=ORIENTED_EDGE('',*,*,#757,.T.);
#1071=ORIENTED_EDGE('',*,*,#788,.T.);
#1072=ORIENTED_EDGE('',*,*,#691,.F.);
#1073=ORIENTED_EDGE('',*,*,#790,.F.);
#1074=ORIENTED_EDGE('',*,*,#791,.F.);
#1075=ORIENTED_EDGE('',*,*,#792,.T.);
#1076=ORIENTED_EDGE('',*,*,#682,.F.);
#1077=ORIENTED_EDGE('',*,*,#793,.F.);
#1078=ORIENTED_EDGE('',*,*,#794,.F.);
#1079=ORIENTED_EDGE('',*,*,#790,.T.);
#1080=ORIENTED_EDGE('',*,*,#681,.F.);
#1081=ORIENTED_EDGE('',*,*,#795,.F.);
#1082=ORIENTED_EDGE('',*,*,#796,.F.);
#1083=ORIENTED_EDGE('',*,*,#793,.T.);
#1084=ORIENTED_EDGE('',*,*,#680,.F.);
#1085=ORIENTED_EDGE('',*,*,#797,.F.);
#1086=ORIENTED_EDGE('',*,*,#798,.F.);
#1087=ORIENTED_EDGE('',*,*,#799,.T.);
#1088=ORIENTED_EDGE('',*,*,#688,.F.);
#1089=ORIENTED_EDGE('',*,*,#800,.F.);
#1090=ORIENTED_EDGE('',*,*,#801,.F.);
#1091=ORIENTED_EDGE('',*,*,#797,.T.);
#1092=ORIENTED_EDGE('',*,*,#687,.F.);
#1093=ORIENTED_EDGE('',*,*,#802,.F.);
#1094=ORIENTED_EDGE('',*,*,#803,.F.);
#1095=ORIENTED_EDGE('',*,*,#800,.T.);
#1096=ORIENTED_EDGE('',*,*,#686,.F.);
#1097=ORIENTED_EDGE('',*,*,#804,.T.);
#1098=ORIENTED_EDGE('',*,*,#805,.F.);
#1099=ORIENTED_EDGE('',*,*,#806,.F.);
#1100=ORIENTED_EDGE('',*,*,#673,.F.);
#1101=ORIENTED_EDGE('',*,*,#807,.T.);
#1102=ORIENTED_EDGE('',*,*,#808,.F.);
#1103=ORIENTED_EDGE('',*,*,#804,.F.);
#1104=ORIENTED_EDGE('',*,*,#672,.F.);
#1105=ORIENTED_EDGE('',*,*,#809,.T.);
#1106=ORIENTED_EDGE('',*,*,#810,.F.);
#1107=ORIENTED_EDGE('',*,*,#807,.F.);
#1108=ORIENTED_EDGE('',*,*,#671,.F.);
#1109=ORIENTED_EDGE('',*,*,#656,.F.);
#1110=ORIENTED_EDGE('',*,*,#811,.F.);
#1111=ORIENTED_EDGE('',*,*,#809,.F.);
#1112=ORIENTED_EDGE('',*,*,#670,.F.);
#1113=ORIENTED_EDGE('',*,*,#812,.T.);
#1114=ORIENTED_EDGE('',*,*,#813,.T.);
#1115=ORIENTED_EDGE('',*,*,#814,.T.);
#1116=ORIENTED_EDGE('',*,*,#675,.F.);
#1117=ORIENTED_EDGE('',*,*,#785,.F.);
#1118=ORIENTED_EDGE('',*,*,#752,.F.);
#1119=ORIENTED_EDGE('',*,*,#773,.F.);
#1120=ORIENTED_EDGE('',*,*,#696,.F.);
#1121=ORIENTED_EDGE('',*,*,#806,.T.);
#1122=ORIENTED_EDGE('',*,*,#815,.F.);
#1123=ORIENTED_EDGE('',*,*,#812,.F.);
#1124=ORIENTED_EDGE('',*,*,#674,.F.);
#1125=ORIENTED_EDGE('',*,*,#781,.T.);
#1126=ORIENTED_EDGE('',*,*,#761,.F.);
#1127=ORIENTED_EDGE('',*,*,#816,.F.);
#1128=ORIENTED_EDGE('',*,*,#710,.F.);
#1129=ORIENTED_EDGE('',*,*,#817,.F.);
#1130=ORIENTED_EDGE('',*,*,#818,.F.);
#1131=ORIENTED_EDGE('',*,*,#795,.T.);
#1132=ORIENTED_EDGE('',*,*,#679,.F.);
#1133=ORIENTED_EDGE('',*,*,#819,.F.);
#1134=ORIENTED_EDGE('',*,*,#765,.F.);
#1135=ORIENTED_EDGE('',*,*,#783,.F.);
#1136=ORIENTED_EDGE('',*,*,#706,.F.);
#1137=ORIENTED_EDGE('',*,*,#816,.T.);
#1138=ORIENTED_EDGE('',*,*,#760,.F.);
#1139=ORIENTED_EDGE('',*,*,#819,.T.);
#1140=ORIENTED_EDGE('',*,*,#705,.F.);
#1141=ORIENTED_EDGE('',*,*,#820,.F.);
#1142=ORIENTED_EDGE('',*,*,#821,.F.);
#1143=ORIENTED_EDGE('',*,*,#817,.T.);
#1144=ORIENTED_EDGE('',*,*,#678,.F.);
#1145=ORIENTED_EDGE('',*,*,#792,.F.);
#1146=ORIENTED_EDGE('',*,*,#822,.F.);
#1147=ORIENTED_EDGE('',*,*,#820,.T.);
#1148=ORIENTED_EDGE('',*,*,#683,.F.);
#1149=ORIENTED_EDGE('',*,*,#777,.T.);
#1150=ORIENTED_EDGE('',*,*,#767,.F.);
#1151=ORIENTED_EDGE('',*,*,#823,.F.);
#1152=ORIENTED_EDGE('',*,*,#704,.F.);
#1153=ORIENTED_EDGE('',*,*,#824,.F.);
#1154=ORIENTED_EDGE('',*,*,#825,.F.);
#1155=ORIENTED_EDGE('',*,*,#802,.T.);
#1156=ORIENTED_EDGE('',*,*,#685,.F.);
#1157=ORIENTED_EDGE('',*,*,#826,.F.);
#1158=ORIENTED_EDGE('',*,*,#771,.F.);
#1159=ORIENTED_EDGE('',*,*,#779,.F.);
#1160=ORIENTED_EDGE('',*,*,#700,.F.);
#1161=ORIENTED_EDGE('',*,*,#823,.T.);
#1162=ORIENTED_EDGE('',*,*,#766,.F.);
#1163=ORIENTED_EDGE('',*,*,#826,.T.);
#1164=ORIENTED_EDGE('',*,*,#699,.F.);
#1165=ORIENTED_EDGE('',*,*,#827,.F.);
#1166=ORIENTED_EDGE('',*,*,#828,.F.);
#1167=ORIENTED_EDGE('',*,*,#824,.T.);
#1168=ORIENTED_EDGE('',*,*,#684,.F.);
#1169=ORIENTED_EDGE('',*,*,#799,.F.);
#1170=ORIENTED_EDGE('',*,*,#829,.F.);
#1171=ORIENTED_EDGE('',*,*,#827,.T.);
#1172=ORIENTED_EDGE('',*,*,#689,.F.);
#1173=ORIENTED_EDGE('',*,*,#775,.F.);
#1174=ORIENTED_EDGE('',*,*,#830,.F.);
#1175=ORIENTED_EDGE('',*,*,#831,.T.);
#1176=ORIENTED_EDGE('',*,*,#813,.F.);
#1177=ORIENTED_EDGE('',*,*,#815,.T.);
#1178=ORIENTED_EDGE('',*,*,#805,.T.);
#1179=ORIENTED_EDGE('',*,*,#808,.T.);
#1180=ORIENTED_EDGE('',*,*,#810,.T.);
#1181=ORIENTED_EDGE('',*,*,#811,.T.);
#1182=ORIENTED_EDGE('',*,*,#655,.F.);
#1183=ORIENTED_EDGE('',*,*,#821,.T.);
#1184=ORIENTED_EDGE('',*,*,#822,.T.);
#1185=ORIENTED_EDGE('',*,*,#791,.T.);
#1186=ORIENTED_EDGE('',*,*,#794,.T.);
#1187=ORIENTED_EDGE('',*,*,#796,.T.);
#1188=ORIENTED_EDGE('',*,*,#818,.T.);
#1189=ORIENTED_EDGE('',*,*,#828,.T.);
#1190=ORIENTED_EDGE('',*,*,#829,.T.);
#1191=ORIENTED_EDGE('',*,*,#798,.T.);
#1192=ORIENTED_EDGE('',*,*,#801,.T.);
#1193=ORIENTED_EDGE('',*,*,#803,.T.);
#1194=ORIENTED_EDGE('',*,*,#825,.T.);
#1195=ORIENTED_EDGE('',*,*,#830,.T.);
#1196=ORIENTED_EDGE('',*,*,#774,.F.);
#1197=ORIENTED_EDGE('',*,*,#759,.T.);
#1198=ORIENTED_EDGE('',*,*,#832,.F.);
#1199=ORIENTED_EDGE('',*,*,#676,.F.);
#1200=ORIENTED_EDGE('',*,*,#814,.F.);
#1201=ORIENTED_EDGE('',*,*,#831,.F.);
#1202=ORIENTED_EDGE('',*,*,#832,.T.);
#1203=ORIENTED_EDGE('',*,*,#758,.T.);
#1204=ORIENTED_EDGE('',*,*,#789,.F.);
#1205=ORIENTED_EDGE('',*,*,#690,.T.);
#1206=ORIENTED_EDGE('',*,*,#666,.F.);
#1207=CYLINDRICAL_SURFACE('',#1300,7.5);
#1208=CYLINDRICAL_SURFACE('',#1303,7.5);
#1209=CYLINDRICAL_SURFACE('',#1307,0.5);
#1210=CYLINDRICAL_SURFACE('',#1310,0.5);
#1211=CYLINDRICAL_SURFACE('',#1342,9.);
#1212=CYLINDRICAL_SURFACE('',#1345,5.5);
#1213=CYLINDRICAL_SURFACE('',#1352,0.5);
#1214=CYLINDRICAL_SURFACE('',#1353,0.5);
#1215=CYLINDRICAL_SURFACE('',#1357,9.);
#1216=CYLINDRICAL_SURFACE('',#1361,12.5);
#1217=CYLINDRICAL_SURFACE('',#1374,1.75);
#1218=CYLINDRICAL_SURFACE('',#1376,1.74999999999999);
#1219=CYLINDRICAL_SURFACE('',#1377,1.75);
#1220=CYLINDRICAL_SURFACE('',#1379,1.74999999999998);
#1221=CYLINDRICAL_SURFACE('',#1380,3.);
#1222=CYLINDRICAL_SURFACE('',#1382,3.);
#1223=CYLINDRICAL_SURFACE('',#1385,1.74999999999998);
#1224=CYLINDRICAL_SURFACE('',#1388,1.75);
#1225=CYLINDRICAL_SURFACE('',#1390,1.74999999999999);
#1226=CYLINDRICAL_SURFACE('',#1393,1.75);
#1227=CYLINDRICAL_SURFACE('',#1395,3.);
#1228=CYLINDRICAL_SURFACE('',#1398,3.);
#1229=CYLINDRICAL_SURFACE('',#1407,1.74999999986778);
#1230=CYLINDRICAL_SURFACE('',#1408,1.74999999986778);
#1231=CYLINDRICAL_SURFACE('',#1414,1.74999999999998);
#1232=CYLINDRICAL_SURFACE('',#1415,1.74999999999998);
#1233=ADVANCED_FACE('',(#64),#1207,.F.);
#1234=ADVANCED_FACE('',(#65),#1208,.F.);
#1235=ADVANCED_FACE('',(#66),#25,.T.);
#1236=ADVANCED_FACE('',(#67),#1209,.T.);
#1237=ADVANCED_FACE('',(#68),#1210,.T.);
#1238=ADVANCED_FACE('',(#69),#26,.T.);
#1239=ADVANCED_FACE('',(#70,#15,#16),#27,.T.);
#1240=ADVANCED_FACE('',(#71,#17,#18),#28,.T.);
#1241=ADVANCED_FACE('',(#72,#19),#29,.T.);
#1242=ADVANCED_FACE('',(#73),#30,.T.);
#1243=ADVANCED_FACE('',(#74),#1211,.T.);
#1244=ADVANCED_FACE('',(#75),#31,.T.);
#1245=ADVANCED_FACE('',(#76),#1212,.F.);
#1246=ADVANCED_FACE('',(#77),#32,.T.);
#1247=ADVANCED_FACE('',(#78),#1213,.T.);
#1248=ADVANCED_FACE('',(#79),#1214,.T.);
#1249=ADVANCED_FACE('',(#80),#33,.T.);
#1250=ADVANCED_FACE('',(#81),#34,.T.);
#1251=ADVANCED_FACE('',(#82),#1215,.T.);
#1252=ADVANCED_FACE('',(#83),#35,.T.);
#1253=ADVANCED_FACE('',(#84),#36,.T.);
#1254=ADVANCED_FACE('',(#85),#37,.T.);
#1255=ADVANCED_FACE('',(#86),#1216,.T.);
#1256=ADVANCED_FACE('',(#87,#20,#21),#38,.T.);
#1257=ADVANCED_FACE('',(#88),#39,.T.);
#1258=ADVANCED_FACE('',(#89,#22),#40,.F.);
#1259=ADVANCED_FACE('',(#90),#1217,.F.);
#1260=ADVANCED_FACE('',(#91),#41,.F.);
#1261=ADVANCED_FACE('',(#92),#1218,.F.);
#1262=ADVANCED_FACE('',(#93),#1219,.F.);
#1263=ADVANCED_FACE('',(#94),#42,.F.);
#1264=ADVANCED_FACE('',(#95),#1220,.F.);
#1265=ADVANCED_FACE('',(#96),#1221,.F.);
#1266=ADVANCED_FACE('',(#97),#43,.F.);
#1267=ADVANCED_FACE('',(#98),#1222,.F.);
#1268=ADVANCED_FACE('',(#99),#44,.F.);
#1269=ADVANCED_FACE('',(#100),#45,.T.);
#1270=ADVANCED_FACE('',(#101),#1223,.F.);
#1271=ADVANCED_FACE('',(#102),#46,.F.);
#1272=ADVANCED_FACE('',(#103),#1224,.F.);
#1273=ADVANCED_FACE('',(#104),#1225,.F.);
#1274=ADVANCED_FACE('',(#105),#47,.F.);
#1275=ADVANCED_FACE('',(#106),#1226,.F.);
#1276=ADVANCED_FACE('',(#107),#1227,.F.);
#1277=ADVANCED_FACE('',(#108),#48,.F.);
#1278=ADVANCED_FACE('',(#109),#1228,.F.);
#1279=ADVANCED_FACE('',(#110),#49,.F.);
#1280=ADVANCED_FACE('',(#111),#50,.T.);
#1281=ADVANCED_FACE('',(#112),#51,.F.);
#1282=ADVANCED_FACE('',(#113),#52,.F.);
#1283=ADVANCED_FACE('',(#114),#53,.F.);
#1284=ADVANCED_FACE('',(#115),#54,.F.);
#1285=ADVANCED_FACE('',(#116),#55,.F.);
#1286=ADVANCED_FACE('',(#117),#1229,.F.);
#1287=ADVANCED_FACE('',(#118),#1230,.F.);
#1288=ADVANCED_FACE('',(#119),#56,.F.);
#1289=ADVANCED_FACE('',(#120),#57,.F.);
#1290=ADVANCED_FACE('',(#121),#58,.F.);
#1291=ADVANCED_FACE('',(#122),#59,.F.);
#1292=ADVANCED_FACE('',(#123),#1231,.F.);
#1293=ADVANCED_FACE('',(#124),#1232,.F.);
#1294=ADVANCED_FACE('',(#125),#60,.F.);
#1295=ADVANCED_FACE('',(#126,#23,#24),#61,.T.);
#1296=ADVANCED_FACE('',(#127),#62,.F.);
#1297=ADVANCED_FACE('',(#128),#63,.T.);
#1298=CLOSED_SHELL('',(#1233,#1234,#1235,#1236,#1237,#1238,#1239,#1240,
#1241,#1242,#1243,#1244,#1245,#1246,#1247,#1248,#1249,#1250,#1251,#1252,
#1253,#1254,#1255,#1256,#1257,#1258,#1259,#1260,#1261,#1262,#1263,#1264,
#1265,#1266,#1267,#1268,#1269,#1270,#1271,#1272,#1273,#1274,#1275,#1276,
#1277,#1278,#1279,#1280,#1281,#1282,#1283,#1284,#1285,#1286,#1287,#1288,
#1289,#1290,#1291,#1292,#1293,#1294,#1295,#1296,#1297));
#1299=AXIS2_PLACEMENT_3D('',#1796,#1421,#1422);
#1300=AXIS2_PLACEMENT_3D('',#1797,#1423,#1424);
#1301=AXIS2_PLACEMENT_3D('',#1800,#1425,#1426);
#1302=AXIS2_PLACEMENT_3D('',#1804,#1428,#1429);
#1303=AXIS2_PLACEMENT_3D('',#1806,#1431,#1432);
#1304=AXIS2_PLACEMENT_3D('',#1809,#1433,#1434);
#1305=AXIS2_PLACEMENT_3D('',#1813,#1436,#1437);
#1306=AXIS2_PLACEMENT_3D('',#1815,#1439,#1440);
#1307=AXIS2_PLACEMENT_3D('',#1823,#1445,#1446);
#1308=AXIS2_PLACEMENT_3D('',#1826,#1447,#1448);
#1309=AXIS2_PLACEMENT_3D('',#1830,#1450,#1451);
#1310=AXIS2_PLACEMENT_3D('',#1832,#1453,#1454);
#1311=AXIS2_PLACEMENT_3D('',#1835,#1455,#1456);
#1312=AXIS2_PLACEMENT_3D('',#1839,#1458,#1459);
#1313=AXIS2_PLACEMENT_3D('',#1841,#1461,#1462);
#1314=AXIS2_PLACEMENT_3D('',#1850,#1467,#1468);
#1315=AXIS2_PLACEMENT_3D('',#1854,#1470,#1471);
#1316=AXIS2_PLACEMENT_3D('',#1858,#1473,#1474);
#1317=AXIS2_PLACEMENT_3D('',#1867,#1479,#1480);
#1318=AXIS2_PLACEMENT_3D('',#1871,#1482,#1483);
#1319=AXIS2_PLACEMENT_3D('',#1875,#1485,#1486);
#1320=AXIS2_PLACEMENT_3D('',#1879,#1488,#1489);
#1321=AXIS2_PLACEMENT_3D('',#1883,#1491,#1492);
#1322=AXIS2_PLACEMENT_3D('',#1887,#1494,#1495);
#1323=AXIS2_PLACEMENT_3D('',#1889,#1497,#1498);
#1324=AXIS2_PLACEMENT_3D('',#1897,#1502,#1503);
#1325=AXIS2_PLACEMENT_3D('',#1901,#1505,#1506);
#1326=AXIS2_PLACEMENT_3D('',#1908,#1510,#1511);
#1327=AXIS2_PLACEMENT_3D('',#1912,#1513,#1514);
#1328=AXIS2_PLACEMENT_3D('',#1916,#1516,#1517);
#1329=AXIS2_PLACEMENT_3D('',#1920,#1519,#1520);
#1330=AXIS2_PLACEMENT_3D('',#1924,#1522,#1523);
#1331=AXIS2_PLACEMENT_3D('',#1928,#1525,#1526);
#1332=AXIS2_PLACEMENT_3D('',#1930,#1528,#1529);
#1333=AXIS2_PLACEMENT_3D('',#1934,#1531,#1532);
#1334=AXIS2_PLACEMENT_3D('',#1940,#1535,#1536);
#1335=AXIS2_PLACEMENT_3D('',#1943,#1538,#1539);
#1336=AXIS2_PLACEMENT_3D('',#1945,#1540,#1541);
#1337=AXIS2_PLACEMENT_3D('',#1949,#1543,#1544);
#1338=AXIS2_PLACEMENT_3D('',#1952,#1546,#1547);
#1339=AXIS2_PLACEMENT_3D('',#1954,#1548,#1549);
#1340=AXIS2_PLACEMENT_3D('',#1955,#1550,#1551);
#1341=AXIS2_PLACEMENT_3D('',#1956,#1552,#1553);
#1342=AXIS2_PLACEMENT_3D('',#1960,#1556,#1557);
#1343=AXIS2_PLACEMENT_3D('',#1963,#1559,#1560);
#1344=AXIS2_PLACEMENT_3D('',#1964,#1561,#1562);
#1345=AXIS2_PLACEMENT_3D('',#1968,#1565,#1566);
#1346=AXIS2_PLACEMENT_3D('',#1970,#1567,#1568);
#1347=AXIS2_PLACEMENT_3D('',#1973,#1570,#1571);
#1348=AXIS2_PLACEMENT_3D('',#1976,#1573,#1574);
#1349=AXIS2_PLACEMENT_3D('',#1978,#1576,#1577);
#1350=AXIS2_PLACEMENT_3D('',#1982,#1579,#1580);
#1351=AXIS2_PLACEMENT_3D('',#1985,#1582,#1583);
#1352=AXIS2_PLACEMENT_3D('',#1986,#1584,#1585);
#1353=AXIS2_PLACEMENT_3D('',#1988,#1587,#1588);
#1354=AXIS2_PLACEMENT_3D('',#1989,#1589,#1590);
#1355=AXIS2_PLACEMENT_3D('',#1990,#1591,#1592);
#1356=AXIS2_PLACEMENT_3D('',#1991,#1593,#1594);
#1357=AXIS2_PLACEMENT_3D('',#1993,#1596,#1597);
#1358=AXIS2_PLACEMENT_3D('',#1995,#1599,#1600);
#1359=AXIS2_PLACEMENT_3D('',#1996,#1601,#1602);
#1360=AXIS2_PLACEMENT_3D('',#2000,#1605,#1606);
#1361=AXIS2_PLACEMENT_3D('',#2004,#1609,#1610);
#1362=AXIS2_PLACEMENT_3D('',#2005,#1611,#1612);
#1363=AXIS2_PLACEMENT_3D('',#2006,#1613,#1614);
#1364=AXIS2_PLACEMENT_3D('',#2015,#1618,#1619);
#1365=AXIS2_PLACEMENT_3D('',#2019,#1621,#1622);
#1366=AXIS2_PLACEMENT_3D('',#2029,#1627,#1628);
#1367=AXIS2_PLACEMENT_3D('',#2033,#1630,#1631);
#1368=AXIS2_PLACEMENT_3D('',#2037,#1633,#1634);
#1369=AXIS2_PLACEMENT_3D('',#2041,#1636,#1637);
#1370=AXIS2_PLACEMENT_3D('',#2045,#1639,#1640);
#1371=AXIS2_PLACEMENT_3D('',#2049,#1642,#1643);
#1372=AXIS2_PLACEMENT_3D('',#2051,#1645,#1646);
#1373=AXIS2_PLACEMENT_3D('',#2054,#1649,#1650);
#1374=AXIS2_PLACEMENT_3D('',#2058,#1653,#1654);
#1375=AXIS2_PLACEMENT_3D('',#2061,#1657,#1658);
#1376=AXIS2_PLACEMENT_3D('',#2063,#1660,#1661);
#1377=AXIS2_PLACEMENT_3D('',#2065,#1663,#1664);
#1378=AXIS2_PLACEMENT_3D('',#2068,#1667,#1668);
#1379=AXIS2_PLACEMENT_3D('',#2070,#1670,#1671);
#1380=AXIS2_PLACEMENT_3D('',#2072,#1673,#1674);
#1381=AXIS2_PLACEMENT_3D('',#2075,#1677,#1678);
#1382=AXIS2_PLACEMENT_3D('',#2077,#1680,#1681);
#1383=AXIS2_PLACEMENT_3D('',#2079,#1683,#1684);
#1384=AXIS2_PLACEMENT_3D('',#2081,#1686,#1687);
#1385=AXIS2_PLACEMENT_3D('',#2083,#1689,#1690);
#1386=AXIS2_PLACEMENT_3D('',#2087,#1692,#1693);
#1387=AXIS2_PLACEMENT_3D('',#2089,#1695,#1696);
#1388=AXIS2_PLACEMENT_3D('',#2093,#1699,#1700);
#1389=AXIS2_PLACEMENT_3D('',#2096,#1702,#1703);
#1390=AXIS2_PLACEMENT_3D('',#2097,#1704,#1705);
#1391=AXIS2_PLACEMENT_3D('',#2101,#1707,#1708);
#1392=AXIS2_PLACEMENT_3D('',#2103,#1710,#1711);
#1393=AXIS2_PLACEMENT_3D('',#2107,#1714,#1715);
#1394=AXIS2_PLACEMENT_3D('',#2110,#1717,#1718);
#1395=AXIS2_PLACEMENT_3D('',#2111,#1719,#1720);
#1396=AXIS2_PLACEMENT_3D('',#2115,#1722,#1723);
#1397=AXIS2_PLACEMENT_3D('',#2117,#1725,#1726);
#1398=AXIS2_PLACEMENT_3D('',#2121,#1729,#1730);
#1399=AXIS2_PLACEMENT_3D('',#2124,#1732,#1733);
#1400=AXIS2_PLACEMENT_3D('',#2125,#1734,#1735);
#1401=AXIS2_PLACEMENT_3D('',#2127,#1737,#1738);
#1402=AXIS2_PLACEMENT_3D('',#2133,#1742,#1743);
#1403=AXIS2_PLACEMENT_3D('',#2134,#1744,#1745);
#1404=AXIS2_PLACEMENT_3D('',#2136,#1747,#1748);
#1405=AXIS2_PLACEMENT_3D('',#2138,#1750,#1751);
#1406=AXIS2_PLACEMENT_3D('',#2142,#1754,#1755);
#1407=AXIS2_PLACEMENT_3D('',#2144,#1757,#1758);
#1408=AXIS2_PLACEMENT_3D('',#2145,#1759,#1760);
#1409=AXIS2_PLACEMENT_3D('',#2148,#1762,#1763);
#1410=AXIS2_PLACEMENT_3D('',#2149,#1764,#1765);
#1411=AXIS2_PLACEMENT_3D('',#2151,#1767,#1768);
#1412=AXIS2_PLACEMENT_3D('',#2153,#1770,#1771);
#1413=AXIS2_PLACEMENT_3D('',#2157,#1774,#1775);
#1414=AXIS2_PLACEMENT_3D('',#2159,#1777,#1778);
#1415=AXIS2_PLACEMENT_3D('',#2160,#1779,#1780);
#1416=AXIS2_PLACEMENT_3D('',#2163,#1782,#1783);
#1417=AXIS2_PLACEMENT_3D('',#2164,#1784,#1785);
#1418=AXIS2_PLACEMENT_3D('',#2166,#1787,#1788);
#1419=AXIS2_PLACEMENT_3D('',#2170,#1791,#1792);
#1420=AXIS2_PLACEMENT_3D('',#2172,#1794,#1795);
#1421=DIRECTION('axis',(0.,0.,1.));
#1422=DIRECTION('refdir',(1.,0.,0.));
#1423=DIRECTION('center_axis',(0.,0.,-1.));
#1424=DIRECTION('ref_axis',(0.729041783947991,-0.684469193797596,0.));
#1425=DIRECTION('center_axis',(0.,0.,-1.));
#1426=DIRECTION('ref_axis',(0.729041783947991,-0.684469193797596,0.));
#1427=DIRECTION('',(0.,0.,1.));
#1428=DIRECTION('center_axis',(0.,0.,1.));
#1429=DIRECTION('ref_axis',(0.729041783947991,-0.684469193797596,0.));
#1430=DIRECTION('',(0.,0.,1.));
#1431=DIRECTION('center_axis',(0.,0.,1.));
#1432=DIRECTION('ref_axis',(0.789184748165156,0.614155870495023,0.));
#1433=DIRECTION('center_axis',(0.,0.,1.));
#1434=DIRECTION('ref_axis',(0.789184748165156,0.614155870495023,0.));
#1435=DIRECTION('',(0.,0.,-1.));
#1436=DIRECTION('center_axis',(0.,0.,-1.));
#1437=DIRECTION('ref_axis',(0.789184748165156,0.614155870495023,0.));
#1438=DIRECTION('',(0.,0.,-1.));
#1439=DIRECTION('center_axis',(-1.,0.,0.));
#1440=DIRECTION('ref_axis',(0.,0.,1.));
#1441=DIRECTION('',(0.,1.,0.));
#1442=DIRECTION('',(0.,0.,-1.));
#1443=DIRECTION('',(0.,-1.,0.));
#1444=DIRECTION('',(0.,0.,-1.));
#1445=DIRECTION('center_axis',(0.,0.,1.));
#1446=DIRECTION('ref_axis',(0.56642151559889,0.824115687671735,0.));
#1447=DIRECTION('center_axis',(0.,0.,1.));
#1448=DIRECTION('ref_axis',(0.56642151559889,0.824115687671735,0.));
#1449=DIRECTION('',(0.,0.,1.));
#1450=DIRECTION('center_axis',(0.,0.,-1.));
#1451=DIRECTION('ref_axis',(0.56642151559889,0.824115687671735,0.));
#1452=DIRECTION('',(0.,0.,-1.));
#1453=DIRECTION('center_axis',(0.,0.,1.));
#1454=DIRECTION('ref_axis',(0.942072184070837,0.335410196624972,0.));
#1455=DIRECTION('center_axis',(0.,0.,1.));
#1456=DIRECTION('ref_axis',(0.942072184070837,0.335410196624972,0.));
#1457=DIRECTION('',(0.,0.,1.));
#1458=DIRECTION('center_axis',(0.,0.,-1.));
#1459=DIRECTION('ref_axis',(0.942072184070837,0.335410196624972,0.));
#1460=DIRECTION('',(0.,0.,-1.));
#1461=DIRECTION('center_axis',(1.,0.,0.));
#1462=DIRECTION('ref_axis',(0.,0.,-1.));
#1463=DIRECTION('',(0.,1.,0.));
#1464=DIRECTION('',(0.,0.,1.));
#1465=DIRECTION('',(0.,-1.,0.));
#1466=DIRECTION('',(0.,0.,-1.));
#1467=DIRECTION('center_axis',(0.,-1.,0.));
#1468=DIRECTION('ref_axis',(0.,0.,-1.));
#1469=DIRECTION('',(1.,0.,0.));
#1470=DIRECTION('center_axis',(0.,1.,0.));
#1471=DIRECTION('ref_axis',(1.,0.,0.));
#1472=DIRECTION('',(0.,0.,-1.));
#1473=DIRECTION('center_axis',(0.,1.,0.));
#1474=DIRECTION('ref_axis',(0.,0.,-1.));
#1475=DIRECTION('',(-1.,0.,-3.46944695195361E-16));
#1476=DIRECTION('',(0.,0.,-1.));
#1477=DIRECTION('',(1.,0.,0.));
#1478=DIRECTION('',(1.,0.,0.));
#1479=DIRECTION('center_axis',(0.,1.,0.));
#1480=DIRECTION('ref_axis',(-1.2292006864725E-5,0.,-0.999999999924453));
#1481=DIRECTION('',(1.,0.,6.83214169000097E-16));
#1482=DIRECTION('center_axis',(0.,1.,0.));
#1483=DIRECTION('ref_axis',(-5.07530525542929E-15,0.,1.));
#1484=DIRECTION('',(0.,0.,-1.));
#1485=DIRECTION('center_axis',(0.,1.,0.));
#1486=DIRECTION('ref_axis',(1.,0.,7.61295788314402E-15));
#1487=DIRECTION('',(-0.999999999924453,0.,1.22920068623797E-5));
#1488=DIRECTION('center_axis',(0.,1.,0.));
#1489=DIRECTION('ref_axis',(-1.2292006873947E-5,0.,0.999999999924453));
#1490=DIRECTION('',(0.,0.,-1.));
#1491=DIRECTION('center_axis',(0.,1.,0.));
#1492=DIRECTION('ref_axis',(1.,0.,2.53765262771465E-15));
#1493=DIRECTION('',(-1.,0.,6.83214169000097E-16));
#1494=DIRECTION('center_axis',(0.,1.,0.));
#1495=DIRECTION('ref_axis',(-1.,0.,-1.26882631385733E-14));
#1496=DIRECTION('',(0.999999999924453,0.,1.22920068623797E-5));
#1497=DIRECTION('center_axis',(0.,1.,0.));
#1498=DIRECTION('ref_axis',(0.,0.,1.));
#1499=DIRECTION('',(1.,0.,0.));
#1500=DIRECTION('',(0.,0.,1.));
#1501=DIRECTION('',(1.,0.,3.46944695195361E-16));
#1502=DIRECTION('center_axis',(0.,-1.,0.));
#1503=DIRECTION('ref_axis',(0.,0.,-1.));
#1504=DIRECTION('',(0.,0.,1.));
#1505=DIRECTION('center_axis',(0.,-1.,0.));
#1506=DIRECTION('ref_axis',(1.,0.,0.));
#1507=DIRECTION('',(-1.,0.,0.));
#1508=DIRECTION('',(0.,0.,1.));
#1509=DIRECTION('',(1.,0.,0.));
#1510=DIRECTION('center_axis',(0.,-1.,0.));
#1511=DIRECTION('ref_axis',(-1.2292006873947E-5,0.,0.999999999924453));
#1512=DIRECTION('',(-0.999999999924453,0.,-1.22920068623797E-5));
#1513=DIRECTION('center_axis',(0.,-1.,0.));
#1514=DIRECTION('ref_axis',(-1.,0.,-1.26882631385733E-14));
#1515=DIRECTION('',(1.,0.,-6.83214169000097E-16));
#1516=DIRECTION('center_axis',(0.,-1.,0.));
#1517=DIRECTION('ref_axis',(1.,0.,2.53765262771465E-15));
#1518=DIRECTION('',(0.,0.,1.));
#1519=DIRECTION('center_axis',(0.,-1.,0.));
#1520=DIRECTION('ref_axis',(-1.2292006864725E-5,0.,-0.999999999924453));
#1521=DIRECTION('',(0.999999999924453,0.,-1.22920068623797E-5));
#1522=DIRECTION('center_axis',(0.,-1.,0.));
#1523=DIRECTION('ref_axis',(1.,0.,7.61295788314402E-15));
#1524=DIRECTION('',(0.,0.,1.));
#1525=DIRECTION('center_axis',(0.,-1.,0.));
#1526=DIRECTION('ref_axis',(-5.07530525542929E-15,0.,1.));
#1527=DIRECTION('',(-1.,0.,-6.83214169000097E-16));
#1528=DIRECTION('center_axis',(0.,0.,1.));
#1529=DIRECTION('ref_axis',(1.,0.,0.));
#1530=DIRECTION('',(-0.884168799856189,-0.467167564542817,0.));
#1531=DIRECTION('center_axis',(0.,0.,1.));
#1532=DIRECTION('ref_axis',(-1.,0.,0.));
#1533=DIRECTION('',(0.83165991238757,-0.555285323169539,0.));
#1534=DIRECTION('',(1.,0.,0.));
#1535=DIRECTION('center_axis',(0.,0.,1.));
#1536=DIRECTION('ref_axis',(-1.,0.,0.));
#1537=DIRECTION('',(-1.,0.,0.));
#1538=DIRECTION('center_axis',(0.,0.,1.));
#1539=DIRECTION('ref_axis',(-1.,0.,0.));
#1540=DIRECTION('center_axis',(0.,0.,1.));
#1541=DIRECTION('ref_axis',(0.566421515598889,-0.824115687671735,0.));
#1542=DIRECTION('',(1.,0.,0.));
#1543=DIRECTION('center_axis',(0.,0.,1.));
#1544=DIRECTION('ref_axis',(-1.,0.,0.));
#1545=DIRECTION('',(-1.,0.,0.));
#1546=DIRECTION('center_axis',(0.,0.,1.));
#1547=DIRECTION('ref_axis',(-1.,0.,0.));
#1548=DIRECTION('center_axis',(0.,0.,1.));
#1549=DIRECTION('ref_axis',(-1.,0.,0.));
#1550=DIRECTION('center_axis',(0.,0.,1.));
#1551=DIRECTION('ref_axis',(0.942072184070842,-0.33541019662496,0.));
#1552=DIRECTION('center_axis',(0.,1.,0.));
#1553=DIRECTION('ref_axis',(-1.,0.,0.));
#1554=DIRECTION('',(0.,0.,1.));
#1555=DIRECTION('',(-1.,0.,0.));
#1556=DIRECTION('center_axis',(0.,0.,1.));
#1557=DIRECTION('ref_axis',(-1.,0.,0.));
#1558=DIRECTION('',(0.,0.,1.));
#1559=DIRECTION('center_axis',(0.,0.,1.));
#1560=DIRECTION('ref_axis',(-1.,0.,0.));
#1561=DIRECTION('center_axis',(0.,-1.,0.));
#1562=DIRECTION('ref_axis',(1.,0.,0.));
#1563=DIRECTION('',(0.,0.,-1.));
#1564=DIRECTION('',(1.,0.,0.));
#1565=DIRECTION('center_axis',(0.,0.,-1.));
#1566=DIRECTION('ref_axis',(-1.,0.,0.));
#1567=DIRECTION('center_axis',(0.,0.,-1.));
#1568=DIRECTION('ref_axis',(-1.,0.,0.));
#1569=DIRECTION('',(0.,0.,1.));
#1570=DIRECTION('center_axis',(0.,0.,-1.));
#1571=DIRECTION('ref_axis',(-1.,0.,0.));
#1572=DIRECTION('',(0.,0.,1.));
#1573=DIRECTION('center_axis',(0.,0.,-1.));
#1574=DIRECTION('ref_axis',(-1.,0.,0.));
#1575=DIRECTION('',(0.,0.,1.));
#1576=DIRECTION('center_axis',(0.,0.,1.));
#1577=DIRECTION('ref_axis',(-1.,0.,0.));
#1578=DIRECTION('',(-1.,0.,0.));
#1579=DIRECTION('center_axis',(0.,0.,1.));
#1580=DIRECTION('ref_axis',(-1.,0.,0.));
#1581=DIRECTION('',(1.,0.,0.));
#1582=DIRECTION('center_axis',(0.,0.,-1.));
#1583=DIRECTION('ref_axis',(0.566421515598889,-0.824115687671735,0.));
#1584=DIRECTION('center_axis',(0.,0.,1.));
#1585=DIRECTION('ref_axis',(0.566421515598889,-0.824115687671735,0.));
#1586=DIRECTION('',(0.,0.,-1.));
#1587=DIRECTION('center_axis',(0.,0.,1.));
#1588=DIRECTION('ref_axis',(0.942072184070842,-0.33541019662496,0.));
#1589=DIRECTION('center_axis',(0.,0.,-1.));
#1590=DIRECTION('ref_axis',(0.942072184070842,-0.33541019662496,0.));
#1591=DIRECTION('center_axis',(0.,0.,1.));
#1592=DIRECTION('ref_axis',(-1.,0.,0.));
#1593=DIRECTION('center_axis',(0.,-1.,0.));
#1594=DIRECTION('ref_axis',(1.,0.,0.));
#1595=DIRECTION('',(0.,0.,1.));
#1596=DIRECTION('center_axis',(0.,0.,1.));
#1597=DIRECTION('ref_axis',(-1.,0.,0.));
#1598=DIRECTION('',(0.,0.,1.));
#1599=DIRECTION('center_axis',(0.,1.,0.));
#1600=DIRECTION('ref_axis',(-1.,0.,0.));
#1601=DIRECTION('center_axis',(-0.555285323169539,-0.83165991238757,0.));
#1602=DIRECTION('ref_axis',(-0.83165991238757,0.555285323169539,0.));
#1603=DIRECTION('',(0.,0.,1.));
#1604=DIRECTION('',(0.83165991238757,-0.555285323169539,0.));
#1605=DIRECTION('center_axis',(-0.467167564542817,0.884168799856189,0.));
#1606=DIRECTION('ref_axis',(0.884168799856189,0.467167564542817,0.));
#1607=DIRECTION('',(-0.884168799856189,-0.467167564542817,0.));
#1608=DIRECTION('',(0.,0.,1.));
#1609=DIRECTION('center_axis',(0.,0.,-1.));
#1610=DIRECTION('ref_axis',(-1.,0.,0.));
#1611=DIRECTION('center_axis',(0.,0.,1.));
#1612=DIRECTION('ref_axis',(-1.,0.,0.));
#1613=DIRECTION('center_axis',(0.,-1.,0.));
#1614=DIRECTION('ref_axis',(0.,0.,1.));
#1615=DIRECTION('',(-1.,0.,0.));
#1616=DIRECTION('',(0.,0.,1.));
#1617=DIRECTION('',(1.,0.,0.));
#1618=DIRECTION('center_axis',(0.,1.,0.));
#1619=DIRECTION('ref_axis',(1.,0.,0.));
#1620=DIRECTION('',(0.,0.,-1.));
#1621=DIRECTION('center_axis',(0.,1.,0.));
#1622=DIRECTION('ref_axis',(0.,0.,-1.));
#1623=DIRECTION('',(-1.,0.,-3.46944695195361E-16));
#1624=DIRECTION('',(0.,0.,1.));
#1625=DIRECTION('',(-1.,0.,0.));
#1626=DIRECTION('',(0.,0.,-1.));
#1627=DIRECTION('center_axis',(0.,1.,0.));
#1628=DIRECTION('ref_axis',(-1.2292006864725E-5,0.,-0.999999999924453));
#1629=DIRECTION('',(1.,0.,6.83214169000097E-16));
#1630=DIRECTION('center_axis',(0.,1.,0.));
#1631=DIRECTION('ref_axis',(-5.07530525542929E-15,0.,1.));
#1632=DIRECTION('',(0.,0.,-1.));
#1633=DIRECTION('center_axis',(0.,1.,0.));
#1634=DIRECTION('ref_axis',(1.,0.,7.61295788314402E-15));
#1635=DIRECTION('',(-0.999999999924453,0.,1.22920068623797E-5));
#1636=DIRECTION('center_axis',(0.,1.,0.));
#1637=DIRECTION('ref_axis',(-1.2292006873947E-5,0.,0.999999999924453));
#1638=DIRECTION('',(0.,0.,-1.));
#1639=DIRECTION('center_axis',(0.,1.,0.));
#1640=DIRECTION('ref_axis',(1.,0.,2.53765262771465E-15));
#1641=DIRECTION('',(-1.,0.,6.83214169000097E-16));
#1642=DIRECTION('center_axis',(0.,1.,0.));
#1643=DIRECTION('ref_axis',(-1.,0.,-1.26882631385733E-14));
#1644=DIRECTION('',(0.999999999924453,0.,1.22920068623797E-5));
#1645=DIRECTION('center_axis',(-1.,0.,0.));
#1646=DIRECTION('ref_axis',(0.,0.,1.));
#1647=DIRECTION('',(0.,1.,0.));
#1648=DIRECTION('',(0.,-1.,0.));
#1649=DIRECTION('center_axis',(0.,0.,1.));
#1650=DIRECTION('ref_axis',(-1.,0.,0.));
#1651=DIRECTION('',(0.,1.,0.));
#1652=DIRECTION('',(-1.,0.,0.));
#1653=DIRECTION('center_axis',(0.,-1.,0.));
#1654=DIRECTION('ref_axis',(1.,0.,2.53765262771465E-15));
#1655=DIRECTION('',(0.,-1.,0.));
#1656=DIRECTION('',(0.,-1.,0.));
#1657=DIRECTION('center_axis',(-6.83214169000097E-16,0.,-1.));
#1658=DIRECTION('ref_axis',(1.,0.,-6.83214169000097E-16));
#1659=DIRECTION('',(0.,-1.,0.));
#1660=DIRECTION('center_axis',(0.,-1.,0.));
#1661=DIRECTION('ref_axis',(-1.,0.,-1.26882631385733E-14));
#1662=DIRECTION('',(0.,-1.,0.));
#1663=DIRECTION('center_axis',(0.,-1.,0.));
#1664=DIRECTION('ref_axis',(-5.07530525542929E-15,0.,1.));
#1665=DIRECTION('',(0.,-1.,0.));
#1666=DIRECTION('',(0.,-1.,0.));
#1667=DIRECTION('center_axis',(1.,0.,0.));
#1668=DIRECTION('ref_axis',(0.,0.,1.));
#1669=DIRECTION('',(0.,-1.,0.));
#1670=DIRECTION('center_axis',(0.,-1.,0.));
#1671=DIRECTION('ref_axis',(1.,0.,7.61295788314402E-15));
#1672=DIRECTION('',(0.,-1.,0.));
#1673=DIRECTION('center_axis',(0.,1.,0.));
#1674=DIRECTION('ref_axis',(1.,0.,0.));
#1675=DIRECTION('',(0.,1.,0.));
#1676=DIRECTION('',(0.,1.,0.));
#1677=DIRECTION('center_axis',(1.,0.,0.));
#1678=DIRECTION('ref_axis',(0.,0.,-1.));
#1679=DIRECTION('',(0.,1.,0.));
#1680=DIRECTION('center_axis',(0.,1.,0.));
#1681=DIRECTION('ref_axis',(0.,0.,-1.));
#1682=DIRECTION('',(0.,1.,0.));
#1683=DIRECTION('center_axis',(3.46944695195361E-16,0.,-1.));
#1684=DIRECTION('ref_axis',(-1.,0.,-3.46944695195361E-16));
#1685=DIRECTION('',(0.,1.,0.));
#1686=DIRECTION('center_axis',(-1.,0.,0.));
#1687=DIRECTION('ref_axis',(0.,0.,1.));
#1688=DIRECTION('',(0.,-1.,0.));
#1689=DIRECTION('center_axis',(0.,-1.,0.));
#1690=DIRECTION('ref_axis',(1.,0.,7.61295788314402E-15));
#1691=DIRECTION('',(0.,-1.,0.));
#1692=DIRECTION('center_axis',(0.,-1.,0.));
#1693=DIRECTION('ref_axis',(1.,0.,7.61295788314402E-15));
#1694=DIRECTION('',(0.,-1.,0.));
#1695=DIRECTION('center_axis',(1.,0.,0.));
#1696=DIRECTION('ref_axis',(0.,0.,1.));
#1697=DIRECTION('',(0.,-1.,0.));
#1698=DIRECTION('',(0.,0.,1.));
#1699=DIRECTION('center_axis',(0.,-1.,0.));
#1700=DIRECTION('ref_axis',(-5.07530525542929E-15,0.,1.));
#1701=DIRECTION('',(0.,-1.,0.));
#1702=DIRECTION('center_axis',(0.,-1.,0.));
#1703=DIRECTION('ref_axis',(-5.07530525542929E-15,0.,1.));
#1704=DIRECTION('center_axis',(0.,-1.,0.));
#1705=DIRECTION('ref_axis',(-1.,0.,-1.26882631385733E-14));
#1706=DIRECTION('',(0.,-1.,0.));
#1707=DIRECTION('center_axis',(0.,-1.,0.));
#1708=DIRECTION('ref_axis',(-1.,0.,-1.26882631385733E-14));
#1709=DIRECTION('',(0.,-1.,0.));
#1710=DIRECTION('center_axis',(-6.83214169000097E-16,0.,-1.));
#1711=DIRECTION('ref_axis',(1.,0.,-6.83214169000097E-16));
#1712=DIRECTION('',(0.,-1.,0.));
#1713=DIRECTION('',(1.,0.,-6.83214169000097E-16));
#1714=DIRECTION('center_axis',(0.,-1.,0.));
#1715=DIRECTION('ref_axis',(1.,0.,2.53765262771465E-15));
#1716=DIRECTION('',(0.,-1.,0.));
#1717=DIRECTION('center_axis',(0.,-1.,0.));
#1718=DIRECTION('ref_axis',(1.,0.,2.53765262771465E-15));
#1719=DIRECTION('center_axis',(0.,1.,0.));
#1720=DIRECTION('ref_axis',(0.,0.,-1.));
#1721=DIRECTION('',(0.,1.,0.));
#1722=DIRECTION('center_axis',(0.,-1.,0.));
#1723=DIRECTION('ref_axis',(0.,0.,-1.));
#1724=DIRECTION('',(0.,1.,0.));
#1725=DIRECTION('center_axis',(1.,0.,0.));
#1726=DIRECTION('ref_axis',(0.,0.,-1.));
#1727=DIRECTION('',(0.,1.,0.));
#1728=DIRECTION('',(0.,0.,1.));
#1729=DIRECTION('center_axis',(0.,1.,0.));
#1730=DIRECTION('ref_axis',(1.,0.,0.));
#1731=DIRECTION('',(0.,1.,0.));
#1732=DIRECTION('center_axis',(0.,-1.,0.));
#1733=DIRECTION('ref_axis',(1.,0.,0.));
#1734=DIRECTION('center_axis',(0.,0.,1.));
#1735=DIRECTION('ref_axis',(1.,0.,0.));
#1736=DIRECTION('',(-1.,0.,0.));
#1737=DIRECTION('center_axis',(-1.,0.,0.));
#1738=DIRECTION('ref_axis',(0.,0.,1.));
#1739=DIRECTION('',(0.,1.,0.));
#1740=DIRECTION('',(0.,0.,-1.));
#1741=DIRECTION('',(0.,-1.,0.));
#1742=DIRECTION('center_axis',(0.,0.,1.));
#1743=DIRECTION('ref_axis',(1.,0.,0.));
#1744=DIRECTION('center_axis',(3.46944695195361E-16,0.,-1.));
#1745=DIRECTION('ref_axis',(-1.,0.,-3.46944695195361E-16));
#1746=DIRECTION('',(1.,0.,3.46944695195361E-16));
#1747=DIRECTION('center_axis',(-6.83214169000097E-16,0.,1.));
#1748=DIRECTION('ref_axis',(-1.,0.,-6.83214169000097E-16));
#1749=DIRECTION('',(0.,-1.,0.));
#1750=DIRECTION('center_axis',(-6.83214169000097E-16,0.,1.));
#1751=DIRECTION('ref_axis',(-1.,0.,-6.83214169000097E-16));
#1752=DIRECTION('',(0.,-1.,0.));
#1753=DIRECTION('',(-1.,0.,-6.83214169000097E-16));
#1754=DIRECTION('center_axis',(-1.22920068623797E-5,0.,-0.999999999924453));
#1755=DIRECTION('ref_axis',(0.999999999924453,0.,-1.22920068623797E-5));
#1756=DIRECTION('',(0.,1.,0.));
#1757=DIRECTION('center_axis',(0.,-1.,0.));
#1758=DIRECTION('ref_axis',(-1.2292006864725E-5,0.,-0.999999999924453));
#1759=DIRECTION('center_axis',(0.,-1.,0.));
#1760=DIRECTION('ref_axis',(-1.2292006864725E-5,0.,-0.999999999924453));
#1761=DIRECTION('',(0.,-1.,0.));
#1762=DIRECTION('center_axis',(0.,-1.,0.));
#1763=DIRECTION('ref_axis',(-1.2292006864725E-5,0.,-0.999999999924453));
#1764=DIRECTION('center_axis',(-1.22920068623797E-5,0.,-0.999999999924453));
#1765=DIRECTION('ref_axis',(0.999999999924453,0.,-1.22920068623797E-5));
#1766=DIRECTION('',(0.999999999924453,0.,-1.22920068623797E-5));
#1767=DIRECTION('center_axis',(1.,0.,0.));
#1768=DIRECTION('ref_axis',(0.,0.,1.));
#1769=DIRECTION('',(0.,-1.,0.));
#1770=DIRECTION('center_axis',(1.,0.,0.));
#1771=DIRECTION('ref_axis',(0.,0.,1.));
#1772=DIRECTION('',(0.,-1.,0.));
#1773=DIRECTION('',(0.,0.,1.));
#1774=DIRECTION('center_axis',(-1.22920068623797E-5,0.,0.999999999924453));
#1775=DIRECTION('ref_axis',(-0.999999999924453,0.,-1.22920068623797E-5));
#1776=DIRECTION('',(0.,1.,0.));
#1777=DIRECTION('center_axis',(0.,-1.,0.));
#1778=DIRECTION('ref_axis',(-1.2292006873947E-5,0.,0.999999999924453));
#1779=DIRECTION('center_axis',(0.,-1.,0.));
#1780=DIRECTION('ref_axis',(-1.2292006873947E-5,0.,0.999999999924453));
#1781=DIRECTION('',(0.,-1.,0.));
#1782=DIRECTION('center_axis',(0.,-1.,0.));
#1783=DIRECTION('ref_axis',(-1.2292006873947E-5,0.,0.999999999924453));
#1784=DIRECTION('center_axis',(-1.22920068623797E-5,0.,0.999999999924453));
#1785=DIRECTION('ref_axis',(-0.999999999924453,0.,-1.22920068623797E-5));
#1786=DIRECTION('',(-0.999999999924453,0.,-1.22920068623797E-5));
#1787=DIRECTION('center_axis',(0.,1.,0.));
#1788=DIRECTION('ref_axis',(0.,0.,-1.));
#1789=DIRECTION('',(0.,0.,1.));
#1790=DIRECTION('',(-1.,0.,0.));
#1791=DIRECTION('center_axis',(1.,0.,0.));
#1792=DIRECTION('ref_axis',(0.,1.,0.));
#1793=DIRECTION('',(0.,1.,0.));
#1794=DIRECTION('center_axis',(0.,0.,-1.));
#1795=DIRECTION('ref_axis',(0.,1.,0.));
#1796=CARTESIAN_POINT('',(0.,0.,0.));
#1797=CARTESIAN_POINT('Origin',(44.3321871419307,20.493518953482,30.));
#1798=CARTESIAN_POINT('',(49.8000005215406,15.36,30.1));
#1799=CARTESIAN_POINT('',(47.8359438760018,13.8622529545606,30.1));
#1800=CARTESIAN_POINT('Origin',(44.3321871419307,20.493518953482,30.1));
#1801=CARTESIAN_POINT('',(47.8359438760018,13.8622529545606,32.1));
#1802=CARTESIAN_POINT('',(47.8359438760018,13.8622529545606,30.));
#1803=CARTESIAN_POINT('',(49.8000005215406,15.36,32.1));
#1804=CARTESIAN_POINT('Origin',(44.3321871419307,20.493518953482,32.1));
#1805=CARTESIAN_POINT('',(49.8000005215406,15.36,30.));
#1806=CARTESIAN_POINT('Origin',(43.8811149103019,-22.9661690287127,30.));
#1807=CARTESIAN_POINT('',(49.8000005215406,-18.36,32.1));
#1808=CARTESIAN_POINT('',(48.0457548340735,-16.7287196858059,32.1));
#1809=CARTESIAN_POINT('Origin',(43.8811149103019,-22.9661690287127,32.1));
#1810=CARTESIAN_POINT('',(48.0457548340735,-16.7287196858059,30.1));
#1811=CARTESIAN_POINT('',(48.0457548340735,-16.7287196858059,30.));
#1812=CARTESIAN_POINT('',(49.8000005215406,-18.36,30.1));
#1813=CARTESIAN_POINT('Origin',(43.8811149103019,-22.9661690287127,30.1));
#1814=CARTESIAN_POINT('',(49.8000005215406,-18.36,30.));
#1815=CARTESIAN_POINT('Origin',(49.8000005215406,-17.3,12.5));
#1816=CARTESIAN_POINT('',(49.8000005215406,-16.7,30.1));
#1817=CARTESIAN_POINT('',(49.8000005215406,-9.4,30.1));
#1818=CARTESIAN_POINT('',(49.8000005215406,-16.7,22.5));
#1819=CARTESIAN_POINT('',(49.8000005215406,-16.7,22.1));
#1820=CARTESIAN_POINT('',(49.8000005215406,-18.36,22.5));
#1821=CARTESIAN_POINT('',(49.8000005215406,-17.9,22.5));
#1822=CARTESIAN_POINT('',(49.8000005215406,-18.36,30.));
#1823=CARTESIAN_POINT('Origin',(41.0984382394589,-2.94999999999986,31.7));
#1824=CARTESIAN_POINT('',(41.5652350962987,-2.77083333333319,32.1));
#1825=CARTESIAN_POINT('',(41.0984382394589,-2.44999999999986,32.1));
#1826=CARTESIAN_POINT('Origin',(41.0984382394589,-2.94999999999986,32.1));
#1827=CARTESIAN_POINT('',(41.0984382394589,-2.44999999999986,38.7));
#1828=CARTESIAN_POINT('',(41.0984382394589,-2.44999999999986,31.7));
#1829=CARTESIAN_POINT('',(41.5652350962987,-2.77083333333319,38.7));
#1830=CARTESIAN_POINT('Origin',(41.0984382394589,-2.94999999999986,38.7));
#1831=CARTESIAN_POINT('',(41.5652350962987,-2.77083333333319,31.7));
#1832=CARTESIAN_POINT('Origin',(42.9082331236076,3.85000000000014,31.7));
#1833=CARTESIAN_POINT('',(43.2242137401018,3.46250000000014,32.1));
#1834=CARTESIAN_POINT('',(42.9082331236076,4.35000000000014,32.1));
#1835=CARTESIAN_POINT('Origin',(42.9082331236076,3.85000000000014,32.1));
#1836=CARTESIAN_POINT('',(42.9082331236076,4.35000000000014,38.7));
#1837=CARTESIAN_POINT('',(42.9082331236076,4.35000000000014,31.7));
#1838=CARTESIAN_POINT('',(43.2242137401018,3.46250000000015,38.7));
#1839=CARTESIAN_POINT('Origin',(42.9082331236076,3.85000000000014,38.7));
#1840=CARTESIAN_POINT('',(43.2242137401018,3.46250000000014,31.7));
#1841=CARTESIAN_POINT('Origin',(68.9000005215406,-1.5,12.5));
#1842=CARTESIAN_POINT('',(68.9000005215406,-18.36,-5.));
#1843=CARTESIAN_POINT('',(68.9000005215406,15.36,-5.));
#1844=CARTESIAN_POINT('',(68.9000005215406,-17.9,-5.));
#1845=CARTESIAN_POINT('',(68.9000005215406,15.36,32.1));
#1846=CARTESIAN_POINT('',(68.9000005215406,15.36,30.));
#1847=CARTESIAN_POINT('',(68.9000005215406,-18.36,32.1));
#1848=CARTESIAN_POINT('',(68.9000005215406,-17.9,32.1));
#1849=CARTESIAN_POINT('',(68.9000005215406,-18.36,30.));
#1850=CARTESIAN_POINT('Origin',(66.8000005215406,-18.36,30.));
#1851=CARTESIAN_POINT('',(58.8000005215406,-18.36,22.5));
#1852=CARTESIAN_POINT('',(58.8000005215406,-18.36,22.5));
#1853=CARTESIAN_POINT('',(61.8000005215406,-18.36,19.5));
#1854=CARTESIAN_POINT('Origin',(58.8000005215406,-18.36,19.5));
#1855=CARTESIAN_POINT('',(61.8000005215406,-18.36,5.5));
#1856=CARTESIAN_POINT('',(61.8000005215406,-18.36,24.75));
#1857=CARTESIAN_POINT('',(58.8000005215406,-18.36,2.5));
#1858=CARTESIAN_POINT('Origin',(58.8000005215406,-18.36,5.5));
#1859=CARTESIAN_POINT('',(49.8000005215406,-18.36,2.5));
#1860=CARTESIAN_POINT('',(62.8000005215406,-18.36,2.5));
#1861=CARTESIAN_POINT('',(49.8000005215406,-18.36,-5.));
#1862=CARTESIAN_POINT('',(49.8000005215406,-18.36,21.25));
#1863=CARTESIAN_POINT('',(66.8000005215406,-18.36,-5.));
#1864=CARTESIAN_POINT('',(68.8000005215406,-18.36,32.1));
#1865=CARTESIAN_POINT('',(53.5499790105286,-18.36,24.7500004025958));
#1866=CARTESIAN_POINT('',(53.5500005215406,-18.36,28.2500004023314));
#1867=CARTESIAN_POINT('Origin',(53.5500005215406,-18.36,26.5000004023314));
#1868=CARTESIAN_POINT('',(60.0500005215406,-18.36,28.2500004023314));
#1869=CARTESIAN_POINT('',(63.4250005215406,-18.36,28.2500004023314));
#1870=CARTESIAN_POINT('',(61.8000005215406,-18.36,26.5000004023314));
#1871=CARTESIAN_POINT('Origin',(60.0500005215406,-18.36,26.5000004023314));
#1872=CARTESIAN_POINT('',(61.8000005215406,-18.36,26.499920504419));
#1873=CARTESIAN_POINT('',(61.8000005215406,-18.36,28.2499602522095));
#1874=CARTESIAN_POINT('',(60.0499790105286,-18.36,24.7499205045512));
#1875=CARTESIAN_POINT('Origin',(60.0500005215406,-18.36,26.499920504419));
#1876=CARTESIAN_POINT('',(60.1749574985181,-18.36,24.7499189683148));
#1877=CARTESIAN_POINT('',(60.0499790105286,-18.36,0.250079495448801));
#1878=CARTESIAN_POINT('',(61.8000005215406,-18.36,-1.49992050441899));
#1879=CARTESIAN_POINT('Origin',(60.0500005215406,-18.36,-1.49992050441897));
#1880=CARTESIAN_POINT('',(61.8000005215406,-18.36,-1.5000004023314));
#1881=CARTESIAN_POINT('',(61.8000005215406,-18.36,14.2499997988343));
#1882=CARTESIAN_POINT('',(60.0500005215406,-18.36,-3.2500004023314));
#1883=CARTESIAN_POINT('Origin',(60.0500005215406,-18.36,-1.5000004023314));
#1884=CARTESIAN_POINT('',(53.5500005215406,-18.36,-3.2500004023314));
#1885=CARTESIAN_POINT('',(60.1750005215406,-18.36,-3.2500004023314));
#1886=CARTESIAN_POINT('',(53.5499790105286,-18.36,0.249999597536399));
#1887=CARTESIAN_POINT('Origin',(53.5500005215406,-18.36,-1.50000040233139));
#1888=CARTESIAN_POINT('',(63.4251726086381,-18.36,0.250120983351672));
#1889=CARTESIAN_POINT('Origin',(66.8000005215406,15.36,-5.));
#1890=CARTESIAN_POINT('',(49.8000005215406,15.36,-5.));
#1891=CARTESIAN_POINT('',(68.8000005215406,15.36,-5.));
#1892=CARTESIAN_POINT('',(49.8000005215406,15.36,2.5));
#1893=CARTESIAN_POINT('',(49.8000005215406,15.36,3.75));
#1894=CARTESIAN_POINT('',(58.8000005215406,15.36,2.5));
#1895=CARTESIAN_POINT('',(62.8000005215406,15.36,2.5));
#1896=CARTESIAN_POINT('',(61.8000005215406,15.36,5.5));
#1897=CARTESIAN_POINT('Origin',(58.8000005215406,15.36,5.5));
#1898=CARTESIAN_POINT('',(61.8000005215406,15.36,19.5));
#1899=CARTESIAN_POINT('',(61.8000005215406,15.36,7.25));
#1900=CARTESIAN_POINT('',(58.8000005215406,15.36,22.5));
#1901=CARTESIAN_POINT('Origin',(58.8000005215406,15.36,19.5));
#1902=CARTESIAN_POINT('',(49.8000005215406,15.36,22.5));
#1903=CARTESIAN_POINT('',(58.8000005215406,15.36,22.5));
#1904=CARTESIAN_POINT('',(49.8000005215406,15.36,30.));
#1905=CARTESIAN_POINT('',(68.8000005215406,15.36,32.1));
#1906=CARTESIAN_POINT('',(61.8000005215406,15.36,-1.49992050441899));
#1907=CARTESIAN_POINT('',(60.0499790105286,15.36,0.250079495448801));
#1908=CARTESIAN_POINT('Origin',(60.0500005215406,15.36,-1.49992050441897));
#1909=CARTESIAN_POINT('',(53.5499790105286,15.36,0.249999597536399));
#1910=CARTESIAN_POINT('',(63.4249574985181,15.36,0.250120980707538));
#1911=CARTESIAN_POINT('',(53.5500005215406,15.36,-3.2500004023314));
#1912=CARTESIAN_POINT('Origin',(53.5500005215406,15.36,-1.50000040233139));
#1913=CARTESIAN_POINT('',(60.0500005215406,15.36,-3.2500004023314));
#1914=CARTESIAN_POINT('',(60.1750005215406,15.36,-3.2500004023314));
#1915=CARTESIAN_POINT('',(61.8000005215406,15.36,-1.5000004023314));
#1916=CARTESIAN_POINT('Origin',(60.0500005215406,15.36,-1.5000004023314));
#1917=CARTESIAN_POINT('',(61.8000005215406,15.36,-3.2500002011657));
#1918=CARTESIAN_POINT('',(53.5500005215406,15.36,28.2500004023314));
#1919=CARTESIAN_POINT('',(53.5499790105286,15.36,24.7500004025958));
#1920=CARTESIAN_POINT('Origin',(53.5500005215406,15.36,26.5000004023314));
#1921=CARTESIAN_POINT('',(60.0499790105286,15.36,24.7499205045512));
#1922=CARTESIAN_POINT('',(60.1751726086381,15.36,24.7499189656706));
#1923=CARTESIAN_POINT('',(61.8000005215406,15.36,26.499920504419));
#1924=CARTESIAN_POINT('Origin',(60.0500005215406,15.36,26.499920504419));
#1925=CARTESIAN_POINT('',(61.8000005215406,15.36,26.5000004023314));
#1926=CARTESIAN_POINT('',(61.8000005215406,15.36,10.7499602522095));
#1927=CARTESIAN_POINT('',(60.0500005215406,15.36,28.2500004023314));
#1928=CARTESIAN_POINT('Origin',(60.0500005215406,15.36,26.5000004023314));
#1929=CARTESIAN_POINT('',(63.4250005215406,15.36,28.2500004023314));
#1930=CARTESIAN_POINT('Origin',(59.3000005215406,-1.5,32.1));
#1931=CARTESIAN_POINT('',(42.0324071797061,10.7958428928345,32.1));
#1932=CARTESIAN_POINT('',(39.7507896451771,9.59030645341533,32.1));
#1933=CARTESIAN_POINT('',(39.7589339819178,-11.1957489048445,32.1));
#1934=CARTESIAN_POINT('Origin',(46.700000521537,-0.799999999999858,32.1));
#1935=CARTESIAN_POINT('',(49.8000005215406,-17.9,32.1));
#1936=CARTESIAN_POINT('',(39.3191130410236,-5.94999999999986,32.1));
#1937=CARTESIAN_POINT('',(42.9082331236076,-5.94999999999986,32.1));
#1938=CARTESIAN_POINT('',(49.3095567812821,-5.94999999999986,32.1));
#1939=CARTESIAN_POINT('',(37.8525432597018,-2.44999999999986,32.1));
#1940=CARTESIAN_POINT('Origin',(46.700000521537,-0.799999999999858,32.1));
#1941=CARTESIAN_POINT('',(50.3766677176422,-2.44999999999986,32.1));
#1942=CARTESIAN_POINT('',(41.5652350962987,1.17083333333347,32.1));
#1943=CARTESIAN_POINT('Origin',(46.700000521537,-0.799999999999858,32.1));
#1944=CARTESIAN_POINT('',(41.0984382394589,0.850000000000142,32.1));
#1945=CARTESIAN_POINT('Origin',(41.0984382394589,1.35000000000014,32.1));
#1946=CARTESIAN_POINT('',(37.8525432597018,0.850000000000142,32.1));
#1947=CARTESIAN_POINT('',(48.5762718906212,0.850000000000142,32.1));
#1948=CARTESIAN_POINT('',(39.3191130410236,4.35000000000014,32.1));
#1949=CARTESIAN_POINT('Origin',(46.700000521537,-0.799999999999858,32.1));
#1950=CARTESIAN_POINT('',(52.0346637927234,4.35000000000014,32.1));
#1951=CARTESIAN_POINT('',(52.200000521537,-0.799999999999858,32.1));
#1952=CARTESIAN_POINT('Origin',(46.700000521537,-0.799999999999858,32.1));
#1953=CARTESIAN_POINT('',(43.2242137401018,-5.06249999999985,32.1));
#1954=CARTESIAN_POINT('Origin',(46.700000521537,-0.799999999999858,32.1));
#1955=CARTESIAN_POINT('Origin',(42.9082331236076,-5.44999999999986,32.1));
#1956=CARTESIAN_POINT('Origin',(41.4533349137438,-2.44999999999986,31.7));
#1957=CARTESIAN_POINT('',(37.8525432597018,-2.44999999999986,38.7));
#1958=CARTESIAN_POINT('',(37.8525432597018,-2.44999999999986,31.7));
#1959=CARTESIAN_POINT('',(37.8525432597018,-2.44999999999986,38.7));
#1960=CARTESIAN_POINT('Origin',(46.700000521537,-0.799999999999858,31.7));
#1961=CARTESIAN_POINT('',(39.3191130410236,-5.94999999999986,38.7));
#1962=CARTESIAN_POINT('',(39.3191130410236,-5.94999999999986,31.7));
#1963=CARTESIAN_POINT('Origin',(46.700000521537,-0.799999999999858,38.7));
#1964=CARTESIAN_POINT('Origin',(39.3191130410236,-5.94999999999986,31.7));
#1965=CARTESIAN_POINT('',(42.9082331236076,-5.94999999999986,38.7));
#1966=CARTESIAN_POINT('',(42.9082331236076,-5.94999999999986,31.7));
#1967=CARTESIAN_POINT('',(44.7693270639062,-5.94999999999986,38.7));
#1968=CARTESIAN_POINT('Origin',(46.700000521537,-0.799999999999858,31.7));
#1969=CARTESIAN_POINT('',(52.200000521537,-0.799999999999858,30.1));
#1970=CARTESIAN_POINT('Origin',(46.700000521537,-0.799999999999858,30.1));
#1971=CARTESIAN_POINT('',(52.200000521537,-0.799999999999858,31.7));
#1972=CARTESIAN_POINT('',(41.5652350962987,1.17083333333347,38.7));
#1973=CARTESIAN_POINT('Origin',(46.700000521537,-0.799999999999858,38.7));
#1974=CARTESIAN_POINT('',(41.5652350962987,1.17083333333347,31.7));
#1975=CARTESIAN_POINT('',(43.2242137401018,-5.06249999999986,38.7));
#1976=CARTESIAN_POINT('Origin',(46.700000521537,-0.799999999999858,38.7));
#1977=CARTESIAN_POINT('',(43.2242137401018,-5.06249999999985,31.7));
#1978=CARTESIAN_POINT('Origin',(41.310935161804,2.60000000000014,38.7));
#1979=CARTESIAN_POINT('',(39.3191130410236,4.35000000000014,38.7));
#1980=CARTESIAN_POINT('',(44.7693270639062,4.35000000000014,38.7));
#1981=CARTESIAN_POINT('',(37.8525432597018,0.850000000000142,38.7));
#1982=CARTESIAN_POINT('Origin',(46.700000521537,-0.799999999999858,38.7));
#1983=CARTESIAN_POINT('',(41.0984382394589,0.850000000000142,38.7));
#1984=CARTESIAN_POINT('',(37.8525432597018,0.850000000000142,38.7));
#1985=CARTESIAN_POINT('Origin',(41.0984382394589,1.35000000000014,38.7));
#1986=CARTESIAN_POINT('Origin',(41.0984382394589,1.35000000000014,31.7));
#1987=CARTESIAN_POINT('',(41.0984382394589,0.850000000000142,31.7));
#1988=CARTESIAN_POINT('Origin',(42.9082331236076,-5.44999999999986,31.7));
#1989=CARTESIAN_POINT('Origin',(42.9082331236076,-5.44999999999986,38.7));
#1990=CARTESIAN_POINT('Origin',(41.310935161804,-4.19999999999986,38.7));
#1991=CARTESIAN_POINT('Origin',(37.8525432597018,0.850000000000142,31.7));
#1992=CARTESIAN_POINT('',(37.8525432597018,0.850000000000142,31.7));
#1993=CARTESIAN_POINT('Origin',(46.700000521537,-0.799999999999858,31.7));
#1994=CARTESIAN_POINT('',(39.3191130410236,4.35000000000014,31.7));
#1995=CARTESIAN_POINT('Origin',(44.7693270639062,4.35000000000014,31.7));
#1996=CARTESIAN_POINT('Origin',(49.8000005215406,-17.9,31.7));
#1997=CARTESIAN_POINT('',(39.7589339819178,-11.1957489048445,30.1));
#1998=CARTESIAN_POINT('',(39.7589339819178,-11.1957489048445,31.7));
#1999=CARTESIAN_POINT('',(46.6010799455499,-15.7641345826888,30.1));
#2000=CARTESIAN_POINT('Origin',(42.0324071797061,10.7958428928345,31.7));
#2001=CARTESIAN_POINT('',(42.0324071797061,10.7958428928345,30.1));
#2002=CARTESIAN_POINT('',(43.1936442713027,11.4094048100003,30.1));
#2003=CARTESIAN_POINT('',(42.0324071797061,10.7958428928345,31.7));
#2004=CARTESIAN_POINT('Origin',(46.700000521537,-0.799999999999858,31.7));
#2005=CARTESIAN_POINT('Origin',(46.700000521537,-0.799999999999858,30.1));
#2006=CARTESIAN_POINT('Origin',(66.8000005215406,13.7,-5.));
#2007=CARTESIAN_POINT('',(66.8000005215406,13.7,30.1));
#2008=CARTESIAN_POINT('',(49.8000005215406,13.7,30.1));
#2009=CARTESIAN_POINT('',(59.1500005215397,13.7,30.1));
#2010=CARTESIAN_POINT('',(49.8000005215406,13.7,22.5));
#2011=CARTESIAN_POINT('',(49.8000005215406,13.7,30.));
#2012=CARTESIAN_POINT('',(58.8000005215406,13.7,22.5));
#2013=CARTESIAN_POINT('',(58.8000005215406,13.7,22.5));
#2014=CARTESIAN_POINT('',(61.8000005215406,13.7,19.5));
#2015=CARTESIAN_POINT('Origin',(58.8000005215406,13.7,19.5));
#2016=CARTESIAN_POINT('',(61.8000005215406,13.7,5.5));
#2017=CARTESIAN_POINT('',(61.8000005215406,13.7,7.25));
#2018=CARTESIAN_POINT('',(58.8000005215406,13.7,2.5));
#2019=CARTESIAN_POINT('Origin',(58.8000005215406,13.7,5.5));
#2020=CARTESIAN_POINT('',(49.8000005215406,13.7,2.5));
#2021=CARTESIAN_POINT('',(62.8000005215406,13.7,2.5));
#2022=CARTESIAN_POINT('',(49.8000005215406,13.7,-5.));
#2023=CARTESIAN_POINT('',(49.8000005215406,13.7,30.));
#2024=CARTESIAN_POINT('',(66.8000005215406,13.7,-5.));
#2025=CARTESIAN_POINT('',(66.8000005215406,13.7,-5.));
#2026=CARTESIAN_POINT('',(66.8000005215406,13.7,3.75));
#2027=CARTESIAN_POINT('',(53.5499790105286,13.7,24.7500004025958));
#2028=CARTESIAN_POINT('',(53.5500005215406,13.7,28.2500004023314));
#2029=CARTESIAN_POINT('Origin',(53.5500005215406,13.7,26.5000004023314));
#2030=CARTESIAN_POINT('',(60.0500005215406,13.7,28.2500004023314));
#2031=CARTESIAN_POINT('',(63.4250005215406,13.7,28.2500004023314));
#2032=CARTESIAN_POINT('',(61.8000005215406,13.7,26.5000004023314));
#2033=CARTESIAN_POINT('Origin',(60.0500005215406,13.7,26.5000004023314));
#2034=CARTESIAN_POINT('',(61.8000005215406,13.7,26.499920504419));
#2035=CARTESIAN_POINT('',(61.8000005215406,13.7,10.7499602522095));
#2036=CARTESIAN_POINT('',(60.0499790105286,13.7,24.7499205045512));
#2037=CARTESIAN_POINT('Origin',(60.0500005215406,13.7,26.499920504419));
#2038=CARTESIAN_POINT('',(60.1751726086381,13.7,24.7499189656706));
#2039=CARTESIAN_POINT('',(60.0499790105286,13.7,0.250079495448801));
#2040=CARTESIAN_POINT('',(61.8000005215406,13.7,-1.49992050441899));
#2041=CARTESIAN_POINT('Origin',(60.0500005215406,13.7,-1.49992050441897));
#2042=CARTESIAN_POINT('',(61.8000005215406,13.7,-1.5000004023314));
#2043=CARTESIAN_POINT('',(61.8000005215406,13.7,-3.2500002011657));
#2044=CARTESIAN_POINT('',(60.0500005215406,13.7,-3.2500004023314));
#2045=CARTESIAN_POINT('Origin',(60.0500005215406,13.7,-1.5000004023314));
#2046=CARTESIAN_POINT('',(53.5500005215406,13.7,-3.2500004023314));
#2047=CARTESIAN_POINT('',(60.1750005215406,13.7,-3.2500004023314));
#2048=CARTESIAN_POINT('',(53.5499790105286,13.7,0.249999597536397));
#2049=CARTESIAN_POINT('Origin',(53.5500005215406,13.7,-1.50000040233139));
#2050=CARTESIAN_POINT('',(63.4249574985181,13.7,0.250120980707538));
#2051=CARTESIAN_POINT('Origin',(49.8000005215406,-17.3,12.5));
#2052=CARTESIAN_POINT('',(49.8000005215406,-9.4,30.1));
#2053=CARTESIAN_POINT('',(49.8000005215406,-1.8,22.5));
#2054=CARTESIAN_POINT('Origin',(59.3000005215406,-1.5,30.1));
#2055=CARTESIAN_POINT('',(66.8000005215406,-16.7,30.1));
#2056=CARTESIAN_POINT('',(66.8000005215406,-1.5,30.1));
#2057=CARTESIAN_POINT('',(63.0500005215406,-16.7,30.1));
#2058=CARTESIAN_POINT('Origin',(60.0500005215406,14.9,-1.5000004023314));
#2059=CARTESIAN_POINT('',(60.0500005215406,14.9,-3.2500004023314));
#2060=CARTESIAN_POINT('',(61.8000005215406,14.9,-1.5000004023314));
#2061=CARTESIAN_POINT('Origin',(53.5500005215406,14.9,-3.2500004023314));
#2062=CARTESIAN_POINT('',(53.5500005215406,14.9,-3.2500004023314));
#2063=CARTESIAN_POINT('Origin',(53.5500005215406,14.9,-1.50000040233139));
#2064=CARTESIAN_POINT('',(53.5499790105286,14.9,0.249999597536397));
#2065=CARTESIAN_POINT('Origin',(60.0500005215406,14.9,26.5000004023314));
#2066=CARTESIAN_POINT('',(61.8000005215406,14.9,26.5000004023314));
#2067=CARTESIAN_POINT('',(60.0500005215406,14.9,28.2500004023314));
#2068=CARTESIAN_POINT('Origin',(61.8000005215406,14.9,26.499920504419));
#2069=CARTESIAN_POINT('',(61.8000005215406,14.9,26.499920504419));
#2070=CARTESIAN_POINT('Origin',(60.0500005215406,14.9,26.499920504419));
#2071=CARTESIAN_POINT('',(60.0499790105286,14.9,24.7499205045512));
#2072=CARTESIAN_POINT('Origin',(58.8000005215406,-17.9,19.5));
#2073=CARTESIAN_POINT('',(61.8000005215406,14.9,19.5));
#2074=CARTESIAN_POINT('',(58.8000005215406,14.9,22.5));
#2075=CARTESIAN_POINT('Origin',(61.8000005215406,-17.9,19.5));
#2076=CARTESIAN_POINT('',(61.8000005215406,14.9,5.5));
#2077=CARTESIAN_POINT('Origin',(58.8000005215406,-17.9,5.5));
#2078=CARTESIAN_POINT('',(58.8000005215406,14.9,2.5));
#2079=CARTESIAN_POINT('Origin',(58.8000005215406,-17.9,2.5));
#2080=CARTESIAN_POINT('',(49.8000005215406,14.9,2.5));
#2081=CARTESIAN_POINT('Origin',(49.8000005215406,14.3,12.5));
#2082=CARTESIAN_POINT('',(49.8000005215406,14.9,-5.));
#2083=CARTESIAN_POINT('Origin',(60.0500005215406,14.9,26.499920504419));
#2084=CARTESIAN_POINT('',(61.8000005215406,-16.7,26.499920504419));
#2085=CARTESIAN_POINT('',(61.8000005215406,-17.9,26.499920504419));
#2086=CARTESIAN_POINT('',(60.0499790105286,-16.7,24.7499205045512));
#2087=CARTESIAN_POINT('Origin',(60.0500005215406,-16.7,26.499920504419));
#2088=CARTESIAN_POINT('',(60.0499790105286,-17.9,24.7499205045512));
#2089=CARTESIAN_POINT('Origin',(61.8000005215406,14.9,26.499920504419));
#2090=CARTESIAN_POINT('',(61.8000005215406,-16.7,26.5000004023314));
#2091=CARTESIAN_POINT('',(61.8000005215406,-17.9,26.5000004023314));
#2092=CARTESIAN_POINT('',(61.8000005215406,-16.7,28.2499602522095));
#2093=CARTESIAN_POINT('Origin',(60.0500005215406,14.9,26.5000004023314));
#2094=CARTESIAN_POINT('',(60.0500005215406,-16.7,28.2500004023314));
#2095=CARTESIAN_POINT('',(60.0500005215406,-17.9,28.2500004023314));
#2096=CARTESIAN_POINT('Origin',(60.0500005215406,-16.7,26.5000004023314));
#2097=CARTESIAN_POINT('Origin',(53.5500005215406,14.9,-1.50000040233139));
#2098=CARTESIAN_POINT('',(53.5500005215406,-16.7,-3.2500004023314));
#2099=CARTESIAN_POINT('',(53.5500005215406,-17.9,-3.2500004023314));
#2100=CARTESIAN_POINT('',(53.5499790105286,-16.7,0.249999597536397));
#2101=CARTESIAN_POINT('Origin',(53.5500005215406,-16.7,-1.50000040233139));
#2102=CARTESIAN_POINT('',(53.5499790105286,-17.9,0.249999597536397));
#2103=CARTESIAN_POINT('Origin',(53.5500005215406,14.9,-3.2500004023314));
#2104=CARTESIAN_POINT('',(60.0500005215406,-16.7,-3.2500004023314));
#2105=CARTESIAN_POINT('',(60.0500005215406,-17.9,-3.2500004023314));
#2106=CARTESIAN_POINT('',(60.1750005215406,-16.7,-3.2500004023314));
#2107=CARTESIAN_POINT('Origin',(60.0500005215406,14.9,-1.5000004023314));
#2108=CARTESIAN_POINT('',(61.8000005215406,-16.7,-1.5000004023314));
#2109=CARTESIAN_POINT('',(61.8000005215406,-17.9,-1.5000004023314));
#2110=CARTESIAN_POINT('Origin',(60.0500005215406,-16.7,-1.5000004023314));
#2111=CARTESIAN_POINT('Origin',(58.8000005215406,-17.9,5.5));
#2112=CARTESIAN_POINT('',(61.8000005215406,-16.7,5.5));
#2113=CARTESIAN_POINT('',(61.8000005215406,-17.9,5.5));
#2114=CARTESIAN_POINT('',(58.8000005215406,-16.7,2.5));
#2115=CARTESIAN_POINT('Origin',(58.8000005215406,-16.7,5.5));
#2116=CARTESIAN_POINT('',(58.8000005215406,-17.9,2.5));
#2117=CARTESIAN_POINT('Origin',(61.8000005215406,-17.9,19.5));
#2118=CARTESIAN_POINT('',(61.8000005215406,-16.7,19.5));
#2119=CARTESIAN_POINT('',(61.8000005215406,-17.9,19.5));
#2120=CARTESIAN_POINT('',(61.8000005215406,-16.7,24.75));
#2121=CARTESIAN_POINT('Origin',(58.8000005215406,-17.9,19.5));
#2122=CARTESIAN_POINT('',(58.8000005215406,-16.7,22.5));
#2123=CARTESIAN_POINT('',(58.8000005215406,-17.9,22.5));
#2124=CARTESIAN_POINT('Origin',(58.8000005215406,-16.7,19.5));
#2125=CARTESIAN_POINT('Origin',(50.8000005215406,-17.9,22.5));
#2126=CARTESIAN_POINT('',(58.8000005215406,-16.7,22.5));
#2127=CARTESIAN_POINT('Origin',(49.8000005215406,-17.3,12.5));
#2128=CARTESIAN_POINT('',(49.8000005215406,-16.7,2.5));
#2129=CARTESIAN_POINT('',(49.8000005215406,-17.6,2.5));
#2130=CARTESIAN_POINT('',(49.8000005215406,-16.7,-5.));
#2131=CARTESIAN_POINT('',(49.8000005215406,-16.7,30.));
#2132=CARTESIAN_POINT('',(49.8000005215406,-17.9,-5.));
#2133=CARTESIAN_POINT('Origin',(50.8000005215406,-17.9,22.5));
#2134=CARTESIAN_POINT('Origin',(58.8000005215406,-17.9,2.5));
#2135=CARTESIAN_POINT('',(62.8000005215406,-16.7,2.5));
#2136=CARTESIAN_POINT('Origin',(60.0500005215406,14.9,28.2500004023314));
#2137=CARTESIAN_POINT('',(53.5500005215406,14.9,28.2500004023314));
#2138=CARTESIAN_POINT('Origin',(60.0500005215406,14.9,28.2500004023314));
#2139=CARTESIAN_POINT('',(53.5500005215406,-16.7,28.2500004023314));
#2140=CARTESIAN_POINT('',(53.5500005215406,-17.9,28.2500004023314));
#2141=CARTESIAN_POINT('',(63.4250005215406,-16.7,28.2500004023314));
#2142=CARTESIAN_POINT('Origin',(53.5499790105286,14.9,24.7500004025958));
#2143=CARTESIAN_POINT('',(53.5499790105286,14.9,24.7500004025958));
#2144=CARTESIAN_POINT('Origin',(53.5500005215406,14.9,26.5000004023314));
#2145=CARTESIAN_POINT('Origin',(53.5500005215406,14.9,26.5000004023314));
#2146=CARTESIAN_POINT('',(53.5499790105286,-16.7,24.7500004025958));
#2147=CARTESIAN_POINT('',(53.5499790105286,14.9,24.7500004025958));
#2148=CARTESIAN_POINT('Origin',(53.5500005215406,-16.7,26.5000004023314));
#2149=CARTESIAN_POINT('Origin',(53.5499790105286,14.9,24.7500004025958));
#2150=CARTESIAN_POINT('',(60.1749574985181,-16.7,24.7499189683148));
#2151=CARTESIAN_POINT('Origin',(61.8000005215406,14.9,-1.5000004023314));
#2152=CARTESIAN_POINT('',(61.8000005215406,14.9,-1.49992050441899));
#2153=CARTESIAN_POINT('Origin',(61.8000005215406,14.9,-1.5000004023314));
#2154=CARTESIAN_POINT('',(61.8000005215406,-16.7,-1.49992050441899));
#2155=CARTESIAN_POINT('',(61.8000005215406,-17.9,-1.49992050441899));
#2156=CARTESIAN_POINT('',(61.8000005215406,-16.7,14.2499997988343));
#2157=CARTESIAN_POINT('Origin',(60.0499790105286,14.9,0.250079495448801));
#2158=CARTESIAN_POINT('',(60.0499790105286,14.9,0.250079495448801));
#2159=CARTESIAN_POINT('Origin',(60.0500005215406,14.9,-1.49992050441897));
#2160=CARTESIAN_POINT('Origin',(60.0500005215406,14.9,-1.49992050441897));
#2161=CARTESIAN_POINT('',(60.0499790105286,-16.7,0.250079495448801));
#2162=CARTESIAN_POINT('',(60.0499790105286,14.9,0.250079495448801));
#2163=CARTESIAN_POINT('Origin',(60.0500005215406,-16.7,-1.49992050441897));
#2164=CARTESIAN_POINT('Origin',(60.0499790105286,14.9,0.250079495448801));
#2165=CARTESIAN_POINT('',(63.4251726086381,-16.7,0.250120983351672));
#2166=CARTESIAN_POINT('Origin',(66.8000005215406,-16.7,30.));
#2167=CARTESIAN_POINT('',(66.8000005215406,-16.7,-5.));
#2168=CARTESIAN_POINT('',(66.8000005215406,-16.7,21.25));
#2169=CARTESIAN_POINT('',(66.8000005215406,-16.7,-5.));
#2170=CARTESIAN_POINT('Origin',(66.8000005215406,-1.5,12.5));
#2171=CARTESIAN_POINT('',(66.8000005215406,-17.9,-5.));
#2172=CARTESIAN_POINT('Origin',(66.8000005215406,-17.9,-5.));
#2173=UNCERTAINTY_MEASURE_WITH_UNIT(LENGTH_MEASURE(0.01),#2177,
'DISTANCE_ACCURACY_VALUE',
'Maximum model space distance between geometric entities at asserted c
onnectivities');
#2174=UNCERTAINTY_MEASURE_WITH_UNIT(LENGTH_MEASURE(0.01),#2177,
'DISTANCE_ACCURACY_VALUE',
'Maximum model space distance between geometric entities at asserted c
onnectivities');
#2175=(
GEOMETRIC_REPRESENTATION_CONTEXT(3)
GLOBAL_UNCERTAINTY_ASSIGNED_CONTEXT((#2173))
GLOBAL_UNIT_ASSIGNED_CONTEXT((#2177,#2178,#2179))
REPRESENTATION_CONTEXT('','3D')
);
#2176=(
GEOMETRIC_REPRESENTATION_CONTEXT(3)
GLOBAL_UNCERTAINTY_ASSIGNED_CONTEXT((#2174))
GLOBAL_UNIT_ASSIGNED_CONTEXT((#2177,#2178,#2179))
REPRESENTATION_CONTEXT('','3D')
);
#2177=(
LENGTH_UNIT()
NAMED_UNIT(*)
SI_UNIT(.MILLI.,.METRE.)
);
#2178=(
NAMED_UNIT(*)
PLANE_ANGLE_UNIT()
SI_UNIT($,.RADIAN.)
);
#2179=(
NAMED_UNIT(*)
SI_UNIT($,.STERADIAN.)
SOLID_ANGLE_UNIT()
);
#2180=SHAPE_DEFINITION_REPRESENTATION(#2181,#2182);
#2181=PRODUCT_DEFINITION_SHAPE('',$,#2184);
#2182=SHAPE_REPRESENTATION('',(#1299),#2175);
#2183=PRODUCT_DEFINITION_CONTEXT('part definition',#2188,'design');
#2184=PRODUCT_DEFINITION('B Excitation Housing',
'B Excitation Housing v14',#2185,#2183);
#2185=PRODUCT_DEFINITION_FORMATION('',$,#2190);
#2186=PRODUCT_RELATED_PRODUCT_CATEGORY('B Excitation Housing v14',
'B Excitation Housing v14',(#2190));
#2187=APPLICATION_PROTOCOL_DEFINITION('international standard',
'automotive_design',2009,#2188);
#2188=APPLICATION_CONTEXT(
'Core Data for Automotive Mechanical Design Process');
#2189=PRODUCT_CONTEXT('part definition',#2188,'mechanical');
#2190=PRODUCT('B Excitation Housing','B Excitation Housing v14',$,(#2189));
#2191=PRESENTATION_STYLE_ASSIGNMENT((#2193));
#2192=PRESENTATION_STYLE_ASSIGNMENT((#2194));
#2193=SURFACE_STYLE_USAGE(.BOTH.,#2195);
#2194=SURFACE_STYLE_USAGE(.BOTH.,#2196);
#2195=SURFACE_SIDE_STYLE('',(#2197));
#2196=SURFACE_SIDE_STYLE('',(#2198));
#2197=SURFACE_STYLE_FILL_AREA(#2199);
#2198=SURFACE_STYLE_FILL_AREA(#2200);
#2199=FILL_AREA_STYLE('Platte',(#2201));
#2200=FILL_AREA_STYLE('Opaque(160,160,160)',(#2202));
#2201=FILL_AREA_STYLE_COLOUR('Platte',#2203);
#2202=FILL_AREA_STYLE_COLOUR('Opaque(160,160,160)',#2204);
#2203=COLOUR_RGB('Platte',0.6,0.6,0.6);
#2204=COLOUR_RGB('Opaque(160,160,160)',0.627450980392157,0.627450980392157,
0.627450980392157);
ENDSEC;
END-ISO-10303-21;
