ISO-10303-21;
HEADER;
/* Generated by software containing ST-Developer
 * from STEP Tools, Inc. (www.steptools.com) 
 */

FILE_DESCRIPTION(
/* description */ (''),
/* implementation_level */ '2;1');

FILE_NAME(
/* name */ 'Cover new.step',
/* time_stamp */ '2026-08-05T19:03:29+02:00',
/* author */ (''),
/* organization */ (''),
/* preprocessor_version */ 'ST-DEVELOPER v20.1',
/* originating_system */ 'Autodesk Translation Framework v15.8.0.0',
/* authorisation */ '');

FILE_SCHEMA (('AUTOMOTIVE_DESIGN { 1 0 10303 214 3 1 1 }'));
ENDSEC;

DATA;
#10=MECHANICAL_DESIGN_GEOMETRIC_PRESENTATION_REPRESENTATION('',(#13),#1216);
#11=SHAPE_REPRESENTATION_RELATIONSHIP('SRR','None',#1222,#12);
#12=ADVANCED_BREP_SHAPE_REPRESENTATION('',(#14),#1215);
#13=STYLED_ITEM('',(#1232),#14);
#14=MANIFOLD_SOLID_BREP('Cover new',#720);
#15=FACE_BOUND('',#254,.T.);
#16=FACE_BOUND('',#266,.T.);
#17=PLANE('',#750);
#18=PLANE('',#751);
#19=PLANE('',#754);
#20=PLANE('',#755);
#21=PLANE('',#756);
#22=PLANE('',#761);
#23=PLANE('',#768);
#24=PLANE('',#772);
#25=PLANE('',#773);
#26=PLANE('',#774);
#27=PLANE('',#777);
#28=PLANE('',#778);
#29=PLANE('',#779);
#30=PLANE('',#780);
#31=PLANE('',#781);
#32=PLANE('',#782);
#33=PLANE('',#784);
#34=PLANE('',#787);
#35=PLANE('',#789);
#36=PLANE('',#790);
#37=PLANE('',#791);
#38=PLANE('',#792);
#39=LINE('',#1020,#110);
#40=LINE('',#1021,#111);
#41=LINE('',#1040,#112);
#42=LINE('',#1041,#113);
#43=LINE('',#1050,#114);
#44=LINE('',#1051,#115);
#45=LINE('',#1056,#116);
#46=LINE('',#1057,#117);
#47=LINE('',#1059,#118);
#48=LINE('',#1060,#119);
#49=LINE('',#1062,#120);
#50=LINE('',#1063,#121);
#51=LINE('',#1068,#122);
#52=LINE('',#1069,#123);
#53=LINE('',#1071,#124);
#54=LINE('',#1072,#125);
#55=LINE('',#1075,#126);
#56=LINE('',#1077,#127);
#57=LINE('',#1079,#128);
#58=LINE('',#1081,#129);
#59=LINE('',#1082,#130);
#60=LINE('',#1087,#131);
#61=LINE('',#1089,#132);
#62=LINE('',#1091,#133);
#63=LINE('',#1094,#134);
#64=LINE('',#1095,#135);
#65=LINE('',#1097,#136);
#66=LINE('',#1100,#137);
#67=LINE('',#1102,#138);
#68=LINE('',#1104,#139);
#69=LINE('',#1106,#140);
#70=LINE('',#1108,#141);
#71=LINE('',#1109,#142);
#72=LINE('',#1118,#143);
#73=LINE('',#1121,#144);
#74=LINE('',#1126,#145);
#75=LINE('',#1127,#146);
#76=LINE('',#1131,#147);
#77=LINE('',#1137,#148);
#78=LINE('',#1140,#149);
#79=LINE('',#1145,#150);
#80=LINE('',#1146,#151);
#81=LINE('',#1150,#152);
#82=LINE('',#1154,#153);
#83=LINE('',#1155,#154);
#84=LINE('',#1156,#155);
#85=LINE('',#1159,#156);
#86=LINE('',#1160,#157);
#87=LINE('',#1163,#158);
#88=LINE('',#1164,#159);
#89=LINE('',#1168,#160);
#90=LINE('',#1171,#161);
#91=LINE('',#1173,#162);
#92=LINE('',#1174,#163);
#93=LINE('',#1176,#164);
#94=LINE('',#1177,#165);
#95=LINE('',#1179,#166);
#96=LINE('',#1180,#167);
#97=LINE('',#1182,#168);
#98=LINE('',#1185,#169);
#99=LINE('',#1187,#170);
#100=LINE('',#1188,#171);
#101=LINE('',#1190,#172);
#102=LINE('',#1191,#173);
#103=LINE('',#1192,#174);
#104=LINE('',#1195,#175);
#105=LINE('',#1196,#176);
#106=LINE('',#1199,#177);
#107=LINE('',#1204,#178);
#108=LINE('',#1207,#179);
#109=LINE('',#1209,#180);
#110=VECTOR('',#807,10.);
#111=VECTOR('',#808,10.);
#112=VECTOR('',#829,10.);
#113=VECTOR('',#830,10.);
#114=VECTOR('',#841,10.);
#115=VECTOR('',#842,10.);
#116=VECTOR('',#847,10.);
#117=VECTOR('',#848,10.);
#118=VECTOR('',#851,10.);
#119=VECTOR('',#852,10.);
#120=VECTOR('',#855,10.);
#121=VECTOR('',#856,10.);
#122=VECTOR('',#861,10.);
#123=VECTOR('',#862,10.);
#124=VECTOR('',#865,10.);
#125=VECTOR('',#866,10.);
#126=VECTOR('',#869,10.);
#127=VECTOR('',#870,10.);
#128=VECTOR('',#871,10.);
#129=VECTOR('',#872,10.);
#130=VECTOR('',#873,10.);
#131=VECTOR('',#878,10.);
#132=VECTOR('',#879,10.);
#133=VECTOR('',#880,10.);
#134=VECTOR('',#883,10.);
#135=VECTOR('',#884,10.);
#136=VECTOR('',#887,10.);
#137=VECTOR('',#890,10.);
#138=VECTOR('',#891,10.);
#139=VECTOR('',#892,10.);
#140=VECTOR('',#893,10.);
#141=VECTOR('',#894,10.);
#142=VECTOR('',#895,10.);
#143=VECTOR('',#904,10.);
#144=VECTOR('',#907,10.);
#145=VECTOR('',#912,10.);
#146=VECTOR('',#913,10.);
#147=VECTOR('',#918,1.);
#148=VECTOR('',#923,10.);
#149=VECTOR('',#926,10.);
#150=VECTOR('',#931,10.);
#151=VECTOR('',#932,10.);
#152=VECTOR('',#937,1.);
#153=VECTOR('',#940,10.);
#154=VECTOR('',#941,10.);
#155=VECTOR('',#942,10.);
#156=VECTOR('',#945,10.);
#157=VECTOR('',#946,10.);
#158=VECTOR('',#949,10.);
#159=VECTOR('',#950,10.);
#160=VECTOR('',#955,11.5);
#161=VECTOR('',#958,10.);
#162=VECTOR('',#959,10.);
#163=VECTOR('',#960,10.);
#164=VECTOR('',#963,10.);
#165=VECTOR('',#964,10.);
#166=VECTOR('',#965,10.);
#167=VECTOR('',#966,10.);
#168=VECTOR('',#969,10.);
#169=VECTOR('',#972,10.);
#170=VECTOR('',#973,10.);
#171=VECTOR('',#974,10.);
#172=VECTOR('',#975,10.);
#173=VECTOR('',#976,10.);
#174=VECTOR('',#977,10.);
#175=VECTOR('',#980,10.);
#176=VECTOR('',#981,10.);
#177=VECTOR('',#984,10.);
#178=VECTOR('',#993,10.);
#179=VECTOR('',#998,10.);
#180=VECTOR('',#1001,10.);
#181=CYLINDRICAL_SURFACE('',#726,2.);
#182=CYLINDRICAL_SURFACE('',#736,2.);
#183=CYLINDRICAL_SURFACE('',#742,2.);
#184=CYLINDRICAL_SURFACE('',#743,2.);
#185=CYLINDRICAL_SURFACE('',#745,2.);
#186=CYLINDRICAL_SURFACE('',#746,2.);
#187=CYLINDRICAL_SURFACE('',#747,2.);
#188=CYLINDRICAL_SURFACE('',#749,2.);
#189=CYLINDRICAL_SURFACE('',#758,0.2);
#190=CYLINDRICAL_SURFACE('',#763,2.5);
#191=CYLINDRICAL_SURFACE('',#765,0.2);
#192=CYLINDRICAL_SURFACE('',#770,2.5);
#193=CYLINDRICAL_SURFACE('',#775,11.5);
#194=CYLINDRICAL_SURFACE('',#786,5.);
#195=CYLINDRICAL_SURFACE('',#788,5.);
#196=FACE_OUTER_BOUND('',#237,.T.);
#197=FACE_OUTER_BOUND('',#238,.T.);
#198=FACE_OUTER_BOUND('',#239,.T.);
#199=FACE_OUTER_BOUND('',#240,.T.);
#200=FACE_OUTER_BOUND('',#241,.T.);
#201=FACE_OUTER_BOUND('',#242,.T.);
#202=FACE_OUTER_BOUND('',#243,.T.);
#203=FACE_OUTER_BOUND('',#244,.T.);
#204=FACE_OUTER_BOUND('',#245,.T.);
#205=FACE_OUTER_BOUND('',#246,.T.);
#206=FACE_OUTER_BOUND('',#247,.T.);
#207=FACE_OUTER_BOUND('',#248,.T.);
#208=FACE_OUTER_BOUND('',#249,.T.);
#209=FACE_OUTER_BOUND('',#250,.T.);
#210=FACE_OUTER_BOUND('',#251,.T.);
#211=FACE_OUTER_BOUND('',#252,.T.);
#212=FACE_OUTER_BOUND('',#253,.T.);
#213=FACE_OUTER_BOUND('',#255,.T.);
#214=FACE_OUTER_BOUND('',#256,.T.);
#215=FACE_OUTER_BOUND('',#257,.T.);
#216=FACE_OUTER_BOUND('',#258,.T.);
#217=FACE_OUTER_BOUND('',#259,.T.);
#218=FACE_OUTER_BOUND('',#260,.T.);
#219=FACE_OUTER_BOUND('',#261,.T.);
#220=FACE_OUTER_BOUND('',#262,.T.);
#221=FACE_OUTER_BOUND('',#263,.T.);
#222=FACE_OUTER_BOUND('',#264,.T.);
#223=FACE_OUTER_BOUND('',#265,.T.);
#224=FACE_OUTER_BOUND('',#267,.T.);
#225=FACE_OUTER_BOUND('',#268,.T.);
#226=FACE_OUTER_BOUND('',#269,.T.);
#227=FACE_OUTER_BOUND('',#270,.T.);
#228=FACE_OUTER_BOUND('',#271,.T.);
#229=FACE_OUTER_BOUND('',#272,.T.);
#230=FACE_OUTER_BOUND('',#273,.T.);
#231=FACE_OUTER_BOUND('',#274,.T.);
#232=FACE_OUTER_BOUND('',#275,.T.);
#233=FACE_OUTER_BOUND('',#276,.T.);
#234=FACE_OUTER_BOUND('',#277,.T.);
#235=FACE_OUTER_BOUND('',#278,.T.);
#236=FACE_OUTER_BOUND('',#279,.T.);
#237=EDGE_LOOP('',(#473,#474,#475));
#238=EDGE_LOOP('',(#476,#477,#478,#479));
#239=EDGE_LOOP('',(#480,#481,#482));
#240=EDGE_LOOP('',(#483,#484,#485));
#241=EDGE_LOOP('',(#486,#487,#488,#489));
#242=EDGE_LOOP('',(#490,#491,#492));
#243=EDGE_LOOP('',(#493,#494,#495,#496));
#244=EDGE_LOOP('',(#497,#498,#499,#500));
#245=EDGE_LOOP('',(#501,#502,#503,#504));
#246=EDGE_LOOP('',(#505,#506,#507,#508));
#247=EDGE_LOOP('',(#509,#510,#511,#512));
#248=EDGE_LOOP('',(#513,#514,#515,#516));
#249=EDGE_LOOP('',(#517,#518,#519,#520,#521,#522,#523,#524));
#250=EDGE_LOOP('',(#525,#526,#527,#528,#529,#530,#531,#532,#533,#534));
#251=EDGE_LOOP('',(#535,#536,#537,#538));
#252=EDGE_LOOP('',(#539,#540,#541,#542,#543,#544,#545,#546,#547,#548));
#253=EDGE_LOOP('',(#549,#550,#551,#552));
#254=EDGE_LOOP('',(#553));
#255=EDGE_LOOP('',(#554,#555,#556,#557));
#256=EDGE_LOOP('',(#558,#559,#560,#561));
#257=EDGE_LOOP('',(#562,#563,#564,#565));
#258=EDGE_LOOP('',(#566,#567,#568,#569));
#259=EDGE_LOOP('',(#570,#571,#572,#573));
#260=EDGE_LOOP('',(#574,#575,#576,#577));
#261=EDGE_LOOP('',(#578,#579,#580,#581));
#262=EDGE_LOOP('',(#582,#583,#584,#585));
#263=EDGE_LOOP('',(#586,#587,#588,#589));
#264=EDGE_LOOP('',(#590,#591,#592,#593));
#265=EDGE_LOOP('',(#594,#595,#596,#597));
#266=EDGE_LOOP('',(#598));
#267=EDGE_LOOP('',(#599,#600,#601,#602,#603,#604,#605,#606,#607,#608,#609,
#610));
#268=EDGE_LOOP('',(#611,#612,#613,#614));
#269=EDGE_LOOP('',(#615,#616,#617,#618,#619,#620,#621,#622,#623,#624,#625,
#626));
#270=EDGE_LOOP('',(#627,#628,#629,#630));
#271=EDGE_LOOP('',(#631,#632,#633,#634));
#272=EDGE_LOOP('',(#635,#636,#637,#638));
#273=EDGE_LOOP('',(#639,#640,#641,#642,#643,#644));
#274=EDGE_LOOP('',(#645,#646,#647,#648));
#275=EDGE_LOOP('',(#649,#650,#651,#652,#653,#654));
#276=EDGE_LOOP('',(#655,#656,#657,#658));
#277=EDGE_LOOP('',(#659,#660,#661,#662,#663,#664,#665,#666));
#278=EDGE_LOOP('',(#667,#668,#669,#670));
#279=EDGE_LOOP('',(#671,#672,#673,#674));
#280=CIRCLE('',#723,2.);
#281=CIRCLE('',#724,2.);
#282=CIRCLE('',#725,2.);
#283=CIRCLE('',#727,2.);
#284=CIRCLE('',#729,2.);
#285=CIRCLE('',#730,2.);
#286=CIRCLE('',#731,2.);
#287=CIRCLE('',#733,2.);
#288=CIRCLE('',#734,2.);
#289=CIRCLE('',#735,2.);
#290=CIRCLE('',#737,2.);
#291=CIRCLE('',#739,2.);
#292=CIRCLE('',#740,2.);
#293=CIRCLE('',#741,2.);
#294=CIRCLE('',#744,2.);
#295=CIRCLE('',#748,2.);
#296=CIRCLE('',#752,5.);
#297=CIRCLE('',#753,5.);
#298=CIRCLE('',#757,11.5);
#299=CIRCLE('',#759,0.2);
#300=CIRCLE('',#760,0.2);
#301=CIRCLE('',#762,2.5);
#302=CIRCLE('',#764,2.5);
#303=CIRCLE('',#766,0.2);
#304=CIRCLE('',#767,0.2);
#305=CIRCLE('',#769,2.5);
#306=CIRCLE('',#771,2.5);
#307=CIRCLE('',#776,11.5);
#308=CIRCLE('',#783,5.);
#309=CIRCLE('',#785,5.);
#310=VERTEX_POINT('',#1010);
#311=VERTEX_POINT('',#1011);
#312=VERTEX_POINT('',#1013);
#313=VERTEX_POINT('',#1017);
#314=VERTEX_POINT('',#1018);
#315=VERTEX_POINT('',#1023);
#316=VERTEX_POINT('',#1024);
#317=VERTEX_POINT('',#1026);
#318=VERTEX_POINT('',#1030);
#319=VERTEX_POINT('',#1031);
#320=VERTEX_POINT('',#1033);
#321=VERTEX_POINT('',#1037);
#322=VERTEX_POINT('',#1038);
#323=VERTEX_POINT('',#1043);
#324=VERTEX_POINT('',#1044);
#325=VERTEX_POINT('',#1046);
#326=VERTEX_POINT('',#1053);
#327=VERTEX_POINT('',#1054);
#328=VERTEX_POINT('',#1065);
#329=VERTEX_POINT('',#1066);
#330=VERTEX_POINT('',#1074);
#331=VERTEX_POINT('',#1076);
#332=VERTEX_POINT('',#1078);
#333=VERTEX_POINT('',#1080);
#334=VERTEX_POINT('',#1084);
#335=VERTEX_POINT('',#1086);
#336=VERTEX_POINT('',#1088);
#337=VERTEX_POINT('',#1090);
#338=VERTEX_POINT('',#1092);
#339=VERTEX_POINT('',#1099);
#340=VERTEX_POINT('',#1101);
#341=VERTEX_POINT('',#1103);
#342=VERTEX_POINT('',#1105);
#343=VERTEX_POINT('',#1107);
#344=VERTEX_POINT('',#1111);
#345=VERTEX_POINT('',#1114);
#346=VERTEX_POINT('',#1115);
#347=VERTEX_POINT('',#1117);
#348=VERTEX_POINT('',#1119);
#349=VERTEX_POINT('',#1123);
#350=VERTEX_POINT('',#1125);
#351=VERTEX_POINT('',#1129);
#352=VERTEX_POINT('',#1133);
#353=VERTEX_POINT('',#1134);
#354=VERTEX_POINT('',#1136);
#355=VERTEX_POINT('',#1138);
#356=VERTEX_POINT('',#1142);
#357=VERTEX_POINT('',#1144);
#358=VERTEX_POINT('',#1148);
#359=VERTEX_POINT('',#1152);
#360=VERTEX_POINT('',#1153);
#361=VERTEX_POINT('',#1158);
#362=VERTEX_POINT('',#1162);
#363=VERTEX_POINT('',#1166);
#364=VERTEX_POINT('',#1170);
#365=VERTEX_POINT('',#1172);
#366=VERTEX_POINT('',#1178);
#367=VERTEX_POINT('',#1184);
#368=VERTEX_POINT('',#1186);
#369=VERTEX_POINT('',#1189);
#370=VERTEX_POINT('',#1194);
#371=VERTEX_POINT('',#1198);
#372=EDGE_CURVE('',#310,#311,#280,.F.);
#373=EDGE_CURVE('',#312,#310,#281,.F.);
#374=EDGE_CURVE('',#311,#312,#282,.F.);
#375=EDGE_CURVE('',#313,#314,#283,.T.);
#376=EDGE_CURVE('',#314,#312,#39,.T.);
#377=EDGE_CURVE('',#310,#313,#40,.T.);
#378=EDGE_CURVE('',#315,#316,#284,.F.);
#379=EDGE_CURVE('',#317,#315,#285,.F.);
#380=EDGE_CURVE('',#316,#317,#286,.F.);
#381=EDGE_CURVE('',#318,#319,#287,.F.);
#382=EDGE_CURVE('',#320,#318,#288,.F.);
#383=EDGE_CURVE('',#319,#320,#289,.F.);
#384=EDGE_CURVE('',#321,#322,#290,.T.);
#385=EDGE_CURVE('',#322,#320,#41,.T.);
#386=EDGE_CURVE('',#318,#321,#42,.T.);
#387=EDGE_CURVE('',#323,#324,#291,.F.);
#388=EDGE_CURVE('',#325,#323,#292,.F.);
#389=EDGE_CURVE('',#324,#325,#293,.F.);
#390=EDGE_CURVE('',#323,#319,#43,.T.);
#391=EDGE_CURVE('',#320,#325,#44,.T.);
#392=EDGE_CURVE('',#326,#327,#294,.T.);
#393=EDGE_CURVE('',#327,#324,#45,.T.);
#394=EDGE_CURVE('',#325,#326,#46,.T.);
#395=EDGE_CURVE('',#315,#323,#47,.T.);
#396=EDGE_CURVE('',#324,#317,#48,.T.);
#397=EDGE_CURVE('',#319,#311,#49,.T.);
#398=EDGE_CURVE('',#312,#318,#50,.T.);
#399=EDGE_CURVE('',#328,#329,#295,.T.);
#400=EDGE_CURVE('',#329,#316,#51,.T.);
#401=EDGE_CURVE('',#317,#328,#52,.T.);
#402=EDGE_CURVE('',#316,#310,#53,.T.);
#403=EDGE_CURVE('',#311,#315,#54,.T.);
#404=EDGE_CURVE('',#330,#329,#55,.F.);
#405=EDGE_CURVE('',#330,#331,#56,.T.);
#406=EDGE_CURVE('',#332,#331,#57,.T.);
#407=EDGE_CURVE('',#332,#333,#58,.T.);
#408=EDGE_CURVE('',#333,#313,#59,.T.);
#409=EDGE_CURVE('',#334,#333,#296,.T.);
#410=EDGE_CURVE('',#335,#334,#60,.T.);
#411=EDGE_CURVE('',#336,#335,#61,.T.);
#412=EDGE_CURVE('',#337,#336,#62,.T.);
#413=EDGE_CURVE('',#338,#337,#297,.T.);
#414=EDGE_CURVE('',#322,#338,#63,.T.);
#415=EDGE_CURVE('',#314,#321,#64,.T.);
#416=EDGE_CURVE('',#328,#327,#65,.F.);
#417=EDGE_CURVE('',#326,#339,#66,.F.);
#418=EDGE_CURVE('',#340,#339,#67,.F.);
#419=EDGE_CURVE('',#340,#341,#68,.F.);
#420=EDGE_CURVE('',#341,#342,#69,.F.);
#421=EDGE_CURVE('',#342,#343,#70,.F.);
#422=EDGE_CURVE('',#330,#343,#71,.F.);
#423=EDGE_CURVE('',#344,#344,#298,.T.);
#424=EDGE_CURVE('',#345,#346,#299,.T.);
#425=EDGE_CURVE('',#346,#347,#72,.T.);
#426=EDGE_CURVE('',#347,#348,#300,.T.);
#427=EDGE_CURVE('',#348,#345,#73,.T.);
#428=EDGE_CURVE('',#347,#349,#301,.T.);
#429=EDGE_CURVE('',#350,#349,#74,.T.);
#430=EDGE_CURVE('',#350,#348,#75,.T.);
#431=EDGE_CURVE('',#351,#346,#302,.T.);
#432=EDGE_CURVE('',#349,#351,#76,.T.);
#433=EDGE_CURVE('',#352,#353,#303,.T.);
#434=EDGE_CURVE('',#353,#354,#77,.T.);
#435=EDGE_CURVE('',#354,#355,#304,.T.);
#436=EDGE_CURVE('',#355,#352,#78,.T.);
#437=EDGE_CURVE('',#352,#356,#305,.T.);
#438=EDGE_CURVE('',#357,#356,#79,.T.);
#439=EDGE_CURVE('',#353,#357,#80,.T.);
#440=EDGE_CURVE('',#358,#355,#306,.T.);
#441=EDGE_CURVE('',#356,#358,#81,.T.);
#442=EDGE_CURVE('',#359,#360,#82,.T.);
#443=EDGE_CURVE('',#359,#342,#83,.T.);
#444=EDGE_CURVE('',#360,#341,#84,.T.);
#445=EDGE_CURVE('',#343,#361,#85,.T.);
#446=EDGE_CURVE('',#331,#361,#86,.F.);
#447=EDGE_CURVE('',#350,#362,#87,.T.);
#448=EDGE_CURVE('',#345,#362,#88,.T.);
#449=EDGE_CURVE('',#363,#363,#307,.T.);
#450=EDGE_CURVE('',#363,#344,#89,.T.);
#451=EDGE_CURVE('',#360,#364,#90,.T.);
#452=EDGE_CURVE('',#365,#364,#91,.T.);
#453=EDGE_CURVE('',#359,#365,#92,.T.);
#454=EDGE_CURVE('',#365,#335,#93,.T.);
#455=EDGE_CURVE('',#362,#334,#94,.T.);
#456=EDGE_CURVE('',#351,#366,#95,.T.);
#457=EDGE_CURVE('',#361,#366,#96,.F.);
#458=EDGE_CURVE('',#364,#336,#97,.T.);
#459=EDGE_CURVE('',#340,#367,#98,.T.);
#460=EDGE_CURVE('',#368,#367,#99,.F.);
#461=EDGE_CURVE('',#356,#368,#100,.T.);
#462=EDGE_CURVE('',#358,#369,#101,.T.);
#463=EDGE_CURVE('',#357,#369,#102,.T.);
#464=EDGE_CURVE('',#357,#337,#103,.T.);
#465=EDGE_CURVE('',#339,#370,#104,.F.);
#466=EDGE_CURVE('',#367,#370,#105,.F.);
#467=EDGE_CURVE('',#370,#371,#106,.T.);
#468=EDGE_CURVE('',#368,#371,#308,.F.);
#469=EDGE_CURVE('',#332,#366,#309,.F.);
#470=EDGE_CURVE('',#362,#351,#107,.T.);
#471=EDGE_CURVE('',#371,#338,#108,.F.);
#472=EDGE_CURVE('',#369,#354,#109,.T.);
#473=ORIENTED_EDGE('',*,*,#372,.F.);
#474=ORIENTED_EDGE('',*,*,#373,.F.);
#475=ORIENTED_EDGE('',*,*,#374,.F.);
#476=ORIENTED_EDGE('',*,*,#375,.T.);
#477=ORIENTED_EDGE('',*,*,#376,.T.);
#478=ORIENTED_EDGE('',*,*,#373,.T.);
#479=ORIENTED_EDGE('',*,*,#377,.T.);
#480=ORIENTED_EDGE('',*,*,#378,.F.);
#481=ORIENTED_EDGE('',*,*,#379,.F.);
#482=ORIENTED_EDGE('',*,*,#380,.F.);
#483=ORIENTED_EDGE('',*,*,#381,.F.);
#484=ORIENTED_EDGE('',*,*,#382,.F.);
#485=ORIENTED_EDGE('',*,*,#383,.F.);
#486=ORIENTED_EDGE('',*,*,#384,.T.);
#487=ORIENTED_EDGE('',*,*,#385,.T.);
#488=ORIENTED_EDGE('',*,*,#382,.T.);
#489=ORIENTED_EDGE('',*,*,#386,.T.);
#490=ORIENTED_EDGE('',*,*,#387,.F.);
#491=ORIENTED_EDGE('',*,*,#388,.F.);
#492=ORIENTED_EDGE('',*,*,#389,.F.);
#493=ORIENTED_EDGE('',*,*,#388,.T.);
#494=ORIENTED_EDGE('',*,*,#390,.T.);
#495=ORIENTED_EDGE('',*,*,#383,.T.);
#496=ORIENTED_EDGE('',*,*,#391,.T.);
#497=ORIENTED_EDGE('',*,*,#392,.T.);
#498=ORIENTED_EDGE('',*,*,#393,.T.);
#499=ORIENTED_EDGE('',*,*,#389,.T.);
#500=ORIENTED_EDGE('',*,*,#394,.T.);
#501=ORIENTED_EDGE('',*,*,#379,.T.);
#502=ORIENTED_EDGE('',*,*,#395,.T.);
#503=ORIENTED_EDGE('',*,*,#387,.T.);
#504=ORIENTED_EDGE('',*,*,#396,.T.);
#505=ORIENTED_EDGE('',*,*,#381,.T.);
#506=ORIENTED_EDGE('',*,*,#397,.T.);
#507=ORIENTED_EDGE('',*,*,#374,.T.);
#508=ORIENTED_EDGE('',*,*,#398,.T.);
#509=ORIENTED_EDGE('',*,*,#399,.T.);
#510=ORIENTED_EDGE('',*,*,#400,.T.);
#511=ORIENTED_EDGE('',*,*,#380,.T.);
#512=ORIENTED_EDGE('',*,*,#401,.T.);
#513=ORIENTED_EDGE('',*,*,#378,.T.);
#514=ORIENTED_EDGE('',*,*,#402,.T.);
#515=ORIENTED_EDGE('',*,*,#372,.T.);
#516=ORIENTED_EDGE('',*,*,#403,.T.);
#517=ORIENTED_EDGE('',*,*,#377,.F.);
#518=ORIENTED_EDGE('',*,*,#402,.F.);
#519=ORIENTED_EDGE('',*,*,#400,.F.);
#520=ORIENTED_EDGE('',*,*,#404,.F.);
#521=ORIENTED_EDGE('',*,*,#405,.T.);
#522=ORIENTED_EDGE('',*,*,#406,.F.);
#523=ORIENTED_EDGE('',*,*,#407,.T.);
#524=ORIENTED_EDGE('',*,*,#408,.T.);
#525=ORIENTED_EDGE('',*,*,#375,.F.);
#526=ORIENTED_EDGE('',*,*,#408,.F.);
#527=ORIENTED_EDGE('',*,*,#409,.F.);
#528=ORIENTED_EDGE('',*,*,#410,.F.);
#529=ORIENTED_EDGE('',*,*,#411,.F.);
#530=ORIENTED_EDGE('',*,*,#412,.F.);
#531=ORIENTED_EDGE('',*,*,#413,.F.);
#532=ORIENTED_EDGE('',*,*,#414,.F.);
#533=ORIENTED_EDGE('',*,*,#384,.F.);
#534=ORIENTED_EDGE('',*,*,#415,.F.);
#535=ORIENTED_EDGE('',*,*,#401,.F.);
#536=ORIENTED_EDGE('',*,*,#396,.F.);
#537=ORIENTED_EDGE('',*,*,#393,.F.);
#538=ORIENTED_EDGE('',*,*,#416,.F.);
#539=ORIENTED_EDGE('',*,*,#399,.F.);
#540=ORIENTED_EDGE('',*,*,#416,.T.);
#541=ORIENTED_EDGE('',*,*,#392,.F.);
#542=ORIENTED_EDGE('',*,*,#417,.T.);
#543=ORIENTED_EDGE('',*,*,#418,.F.);
#544=ORIENTED_EDGE('',*,*,#419,.T.);
#545=ORIENTED_EDGE('',*,*,#420,.T.);
#546=ORIENTED_EDGE('',*,*,#421,.T.);
#547=ORIENTED_EDGE('',*,*,#422,.F.);
#548=ORIENTED_EDGE('',*,*,#404,.T.);
#549=ORIENTED_EDGE('',*,*,#390,.F.);
#550=ORIENTED_EDGE('',*,*,#395,.F.);
#551=ORIENTED_EDGE('',*,*,#403,.F.);
#552=ORIENTED_EDGE('',*,*,#397,.F.);
#553=ORIENTED_EDGE('',*,*,#423,.T.);
#554=ORIENTED_EDGE('',*,*,#424,.T.);
#555=ORIENTED_EDGE('',*,*,#425,.T.);
#556=ORIENTED_EDGE('',*,*,#426,.T.);
#557=ORIENTED_EDGE('',*,*,#427,.T.);
#558=ORIENTED_EDGE('',*,*,#426,.F.);
#559=ORIENTED_EDGE('',*,*,#428,.T.);
#560=ORIENTED_EDGE('',*,*,#429,.F.);
#561=ORIENTED_EDGE('',*,*,#430,.T.);
#562=ORIENTED_EDGE('',*,*,#425,.F.);
#563=ORIENTED_EDGE('',*,*,#431,.F.);
#564=ORIENTED_EDGE('',*,*,#432,.F.);
#565=ORIENTED_EDGE('',*,*,#428,.F.);
#566=ORIENTED_EDGE('',*,*,#433,.T.);
#567=ORIENTED_EDGE('',*,*,#434,.T.);
#568=ORIENTED_EDGE('',*,*,#435,.T.);
#569=ORIENTED_EDGE('',*,*,#436,.T.);
#570=ORIENTED_EDGE('',*,*,#433,.F.);
#571=ORIENTED_EDGE('',*,*,#437,.T.);
#572=ORIENTED_EDGE('',*,*,#438,.F.);
#573=ORIENTED_EDGE('',*,*,#439,.F.);
#574=ORIENTED_EDGE('',*,*,#436,.F.);
#575=ORIENTED_EDGE('',*,*,#440,.F.);
#576=ORIENTED_EDGE('',*,*,#441,.F.);
#577=ORIENTED_EDGE('',*,*,#437,.F.);
#578=ORIENTED_EDGE('',*,*,#442,.F.);
#579=ORIENTED_EDGE('',*,*,#443,.T.);
#580=ORIENTED_EDGE('',*,*,#420,.F.);
#581=ORIENTED_EDGE('',*,*,#444,.F.);
#582=ORIENTED_EDGE('',*,*,#422,.T.);
#583=ORIENTED_EDGE('',*,*,#445,.T.);
#584=ORIENTED_EDGE('',*,*,#446,.F.);
#585=ORIENTED_EDGE('',*,*,#405,.F.);
#586=ORIENTED_EDGE('',*,*,#427,.F.);
#587=ORIENTED_EDGE('',*,*,#430,.F.);
#588=ORIENTED_EDGE('',*,*,#447,.T.);
#589=ORIENTED_EDGE('',*,*,#448,.F.);
#590=ORIENTED_EDGE('',*,*,#449,.F.);
#591=ORIENTED_EDGE('',*,*,#450,.T.);
#592=ORIENTED_EDGE('',*,*,#423,.F.);
#593=ORIENTED_EDGE('',*,*,#450,.F.);
#594=ORIENTED_EDGE('',*,*,#451,.T.);
#595=ORIENTED_EDGE('',*,*,#452,.F.);
#596=ORIENTED_EDGE('',*,*,#453,.F.);
#597=ORIENTED_EDGE('',*,*,#442,.T.);
#598=ORIENTED_EDGE('',*,*,#449,.T.);
#599=ORIENTED_EDGE('',*,*,#453,.T.);
#600=ORIENTED_EDGE('',*,*,#454,.T.);
#601=ORIENTED_EDGE('',*,*,#410,.T.);
#602=ORIENTED_EDGE('',*,*,#455,.F.);
#603=ORIENTED_EDGE('',*,*,#447,.F.);
#604=ORIENTED_EDGE('',*,*,#429,.T.);
#605=ORIENTED_EDGE('',*,*,#432,.T.);
#606=ORIENTED_EDGE('',*,*,#456,.T.);
#607=ORIENTED_EDGE('',*,*,#457,.F.);
#608=ORIENTED_EDGE('',*,*,#445,.F.);
#609=ORIENTED_EDGE('',*,*,#421,.F.);
#610=ORIENTED_EDGE('',*,*,#443,.F.);
#611=ORIENTED_EDGE('',*,*,#452,.T.);
#612=ORIENTED_EDGE('',*,*,#458,.T.);
#613=ORIENTED_EDGE('',*,*,#411,.T.);
#614=ORIENTED_EDGE('',*,*,#454,.F.);
#615=ORIENTED_EDGE('',*,*,#451,.F.);
#616=ORIENTED_EDGE('',*,*,#444,.T.);
#617=ORIENTED_EDGE('',*,*,#419,.F.);
#618=ORIENTED_EDGE('',*,*,#459,.T.);
#619=ORIENTED_EDGE('',*,*,#460,.F.);
#620=ORIENTED_EDGE('',*,*,#461,.F.);
#621=ORIENTED_EDGE('',*,*,#441,.T.);
#622=ORIENTED_EDGE('',*,*,#462,.T.);
#623=ORIENTED_EDGE('',*,*,#463,.F.);
#624=ORIENTED_EDGE('',*,*,#464,.T.);
#625=ORIENTED_EDGE('',*,*,#412,.T.);
#626=ORIENTED_EDGE('',*,*,#458,.F.);
#627=ORIENTED_EDGE('',*,*,#418,.T.);
#628=ORIENTED_EDGE('',*,*,#465,.T.);
#629=ORIENTED_EDGE('',*,*,#466,.F.);
#630=ORIENTED_EDGE('',*,*,#459,.F.);
#631=ORIENTED_EDGE('',*,*,#466,.T.);
#632=ORIENTED_EDGE('',*,*,#467,.T.);
#633=ORIENTED_EDGE('',*,*,#468,.F.);
#634=ORIENTED_EDGE('',*,*,#460,.T.);
#635=ORIENTED_EDGE('',*,*,#446,.T.);
#636=ORIENTED_EDGE('',*,*,#457,.T.);
#637=ORIENTED_EDGE('',*,*,#469,.F.);
#638=ORIENTED_EDGE('',*,*,#406,.T.);
#639=ORIENTED_EDGE('',*,*,#469,.T.);
#640=ORIENTED_EDGE('',*,*,#456,.F.);
#641=ORIENTED_EDGE('',*,*,#470,.F.);
#642=ORIENTED_EDGE('',*,*,#455,.T.);
#643=ORIENTED_EDGE('',*,*,#409,.T.);
#644=ORIENTED_EDGE('',*,*,#407,.F.);
#645=ORIENTED_EDGE('',*,*,#424,.F.);
#646=ORIENTED_EDGE('',*,*,#448,.T.);
#647=ORIENTED_EDGE('',*,*,#470,.T.);
#648=ORIENTED_EDGE('',*,*,#431,.T.);
#649=ORIENTED_EDGE('',*,*,#468,.T.);
#650=ORIENTED_EDGE('',*,*,#471,.T.);
#651=ORIENTED_EDGE('',*,*,#413,.T.);
#652=ORIENTED_EDGE('',*,*,#464,.F.);
#653=ORIENTED_EDGE('',*,*,#438,.T.);
#654=ORIENTED_EDGE('',*,*,#461,.T.);
#655=ORIENTED_EDGE('',*,*,#435,.F.);
#656=ORIENTED_EDGE('',*,*,#472,.F.);
#657=ORIENTED_EDGE('',*,*,#462,.F.);
#658=ORIENTED_EDGE('',*,*,#440,.T.);
#659=ORIENTED_EDGE('',*,*,#385,.F.);
#660=ORIENTED_EDGE('',*,*,#414,.T.);
#661=ORIENTED_EDGE('',*,*,#471,.F.);
#662=ORIENTED_EDGE('',*,*,#467,.F.);
#663=ORIENTED_EDGE('',*,*,#465,.F.);
#664=ORIENTED_EDGE('',*,*,#417,.F.);
#665=ORIENTED_EDGE('',*,*,#394,.F.);
#666=ORIENTED_EDGE('',*,*,#391,.F.);
#667=ORIENTED_EDGE('',*,*,#376,.F.);
#668=ORIENTED_EDGE('',*,*,#415,.T.);
#669=ORIENTED_EDGE('',*,*,#386,.F.);
#670=ORIENTED_EDGE('',*,*,#398,.F.);
#671=ORIENTED_EDGE('',*,*,#434,.F.);
#672=ORIENTED_EDGE('',*,*,#439,.T.);
#673=ORIENTED_EDGE('',*,*,#463,.T.);
#674=ORIENTED_EDGE('',*,*,#472,.T.);
#675=SPHERICAL_SURFACE('',#722,2.);
#676=SPHERICAL_SURFACE('',#728,2.);
#677=SPHERICAL_SURFACE('',#732,2.);
#678=SPHERICAL_SURFACE('',#738,2.);
#679=ADVANCED_FACE('',(#196),#675,.T.);
#680=ADVANCED_FACE('',(#197),#181,.T.);
#681=ADVANCED_FACE('',(#198),#676,.T.);
#682=ADVANCED_FACE('',(#199),#677,.T.);
#683=ADVANCED_FACE('',(#200),#182,.T.);
#684=ADVANCED_FACE('',(#201),#678,.T.);
#685=ADVANCED_FACE('',(#202),#183,.T.);
#686=ADVANCED_FACE('',(#203),#184,.T.);
#687=ADVANCED_FACE('',(#204),#185,.T.);
#688=ADVANCED_FACE('',(#205),#186,.T.);
#689=ADVANCED_FACE('',(#206),#187,.T.);
#690=ADVANCED_FACE('',(#207),#188,.T.);
#691=ADVANCED_FACE('',(#208),#17,.T.);
#692=ADVANCED_FACE('',(#209),#18,.T.);
#693=ADVANCED_FACE('',(#210),#19,.T.);
#694=ADVANCED_FACE('',(#211),#20,.F.);
#695=ADVANCED_FACE('',(#212,#15),#21,.F.);
#696=ADVANCED_FACE('',(#213),#189,.T.);
#697=ADVANCED_FACE('',(#214),#22,.T.);
#698=ADVANCED_FACE('',(#215),#190,.F.);
#699=ADVANCED_FACE('',(#216),#191,.T.);
#700=ADVANCED_FACE('',(#217),#23,.T.);
#701=ADVANCED_FACE('',(#218),#192,.F.);
#702=ADVANCED_FACE('',(#219),#24,.T.);
#703=ADVANCED_FACE('',(#220),#25,.T.);
#704=ADVANCED_FACE('',(#221),#26,.T.);
#705=ADVANCED_FACE('',(#222),#193,.F.);
#706=ADVANCED_FACE('',(#223,#16),#27,.F.);
#707=ADVANCED_FACE('',(#224),#28,.T.);
#708=ADVANCED_FACE('',(#225),#29,.T.);
#709=ADVANCED_FACE('',(#226),#30,.T.);
#710=ADVANCED_FACE('',(#227),#31,.T.);
#711=ADVANCED_FACE('',(#228),#32,.F.);
#712=ADVANCED_FACE('',(#229),#33,.F.);
#713=ADVANCED_FACE('',(#230),#194,.T.);
#714=ADVANCED_FACE('',(#231),#34,.T.);
#715=ADVANCED_FACE('',(#232),#195,.T.);
#716=ADVANCED_FACE('',(#233),#35,.T.);
#717=ADVANCED_FACE('',(#234),#36,.T.);
#718=ADVANCED_FACE('',(#235),#37,.T.);
#719=ADVANCED_FACE('',(#236),#38,.T.);
#720=CLOSED_SHELL('',(#679,#680,#681,#682,#683,#684,#685,#686,#687,#688,
#689,#690,#691,#692,#693,#694,#695,#696,#697,#698,#699,#700,#701,#702,#703,
#704,#705,#706,#707,#708,#709,#710,#711,#712,#713,#714,#715,#716,#717,#718,
#719));
#721=AXIS2_PLACEMENT_3D('',#1008,#793,#794);
#722=AXIS2_PLACEMENT_3D('',#1009,#795,#796);
#723=AXIS2_PLACEMENT_3D('',#1012,#797,#798);
#724=AXIS2_PLACEMENT_3D('',#1014,#799,#800);
#725=AXIS2_PLACEMENT_3D('',#1015,#801,#802);
#726=AXIS2_PLACEMENT_3D('',#1016,#803,#804);
#727=AXIS2_PLACEMENT_3D('',#1019,#805,#806);
#728=AXIS2_PLACEMENT_3D('',#1022,#809,#810);
#729=AXIS2_PLACEMENT_3D('',#1025,#811,#812);
#730=AXIS2_PLACEMENT_3D('',#1027,#813,#814);
#731=AXIS2_PLACEMENT_3D('',#1028,#815,#816);
#732=AXIS2_PLACEMENT_3D('',#1029,#817,#818);
#733=AXIS2_PLACEMENT_3D('',#1032,#819,#820);
#734=AXIS2_PLACEMENT_3D('',#1034,#821,#822);
#735=AXIS2_PLACEMENT_3D('',#1035,#823,#824);
#736=AXIS2_PLACEMENT_3D('',#1036,#825,#826);
#737=AXIS2_PLACEMENT_3D('',#1039,#827,#828);
#738=AXIS2_PLACEMENT_3D('',#1042,#831,#832);
#739=AXIS2_PLACEMENT_3D('',#1045,#833,#834);
#740=AXIS2_PLACEMENT_3D('',#1047,#835,#836);
#741=AXIS2_PLACEMENT_3D('',#1048,#837,#838);
#742=AXIS2_PLACEMENT_3D('',#1049,#839,#840);
#743=AXIS2_PLACEMENT_3D('',#1052,#843,#844);
#744=AXIS2_PLACEMENT_3D('',#1055,#845,#846);
#745=AXIS2_PLACEMENT_3D('',#1058,#849,#850);
#746=AXIS2_PLACEMENT_3D('',#1061,#853,#854);
#747=AXIS2_PLACEMENT_3D('',#1064,#857,#858);
#748=AXIS2_PLACEMENT_3D('',#1067,#859,#860);
#749=AXIS2_PLACEMENT_3D('',#1070,#863,#864);
#750=AXIS2_PLACEMENT_3D('',#1073,#867,#868);
#751=AXIS2_PLACEMENT_3D('',#1083,#874,#875);
#752=AXIS2_PLACEMENT_3D('',#1085,#876,#877);
#753=AXIS2_PLACEMENT_3D('',#1093,#881,#882);
#754=AXIS2_PLACEMENT_3D('',#1096,#885,#886);
#755=AXIS2_PLACEMENT_3D('',#1098,#888,#889);
#756=AXIS2_PLACEMENT_3D('',#1110,#896,#897);
#757=AXIS2_PLACEMENT_3D('',#1112,#898,#899);
#758=AXIS2_PLACEMENT_3D('',#1113,#900,#901);
#759=AXIS2_PLACEMENT_3D('',#1116,#902,#903);
#760=AXIS2_PLACEMENT_3D('',#1120,#905,#906);
#761=AXIS2_PLACEMENT_3D('',#1122,#908,#909);
#762=AXIS2_PLACEMENT_3D('',#1124,#910,#911);
#763=AXIS2_PLACEMENT_3D('',#1128,#914,#915);
#764=AXIS2_PLACEMENT_3D('',#1130,#916,#917);
#765=AXIS2_PLACEMENT_3D('',#1132,#919,#920);
#766=AXIS2_PLACEMENT_3D('',#1135,#921,#922);
#767=AXIS2_PLACEMENT_3D('',#1139,#924,#925);
#768=AXIS2_PLACEMENT_3D('',#1141,#927,#928);
#769=AXIS2_PLACEMENT_3D('',#1143,#929,#930);
#770=AXIS2_PLACEMENT_3D('',#1147,#933,#934);
#771=AXIS2_PLACEMENT_3D('',#1149,#935,#936);
#772=AXIS2_PLACEMENT_3D('',#1151,#938,#939);
#773=AXIS2_PLACEMENT_3D('',#1157,#943,#944);
#774=AXIS2_PLACEMENT_3D('',#1161,#947,#948);
#775=AXIS2_PLACEMENT_3D('',#1165,#951,#952);
#776=AXIS2_PLACEMENT_3D('',#1167,#953,#954);
#777=AXIS2_PLACEMENT_3D('',#1169,#956,#957);
#778=AXIS2_PLACEMENT_3D('',#1175,#961,#962);
#779=AXIS2_PLACEMENT_3D('',#1181,#967,#968);
#780=AXIS2_PLACEMENT_3D('',#1183,#970,#971);
#781=AXIS2_PLACEMENT_3D('',#1193,#978,#979);
#782=AXIS2_PLACEMENT_3D('',#1197,#982,#983);
#783=AXIS2_PLACEMENT_3D('',#1200,#985,#986);
#784=AXIS2_PLACEMENT_3D('',#1201,#987,#988);
#785=AXIS2_PLACEMENT_3D('',#1202,#989,#990);
#786=AXIS2_PLACEMENT_3D('',#1203,#991,#992);
#787=AXIS2_PLACEMENT_3D('',#1205,#994,#995);
#788=AXIS2_PLACEMENT_3D('',#1206,#996,#997);
#789=AXIS2_PLACEMENT_3D('',#1208,#999,#1000);
#790=AXIS2_PLACEMENT_3D('',#1210,#1002,#1003);
#791=AXIS2_PLACEMENT_3D('',#1211,#1004,#1005);
#792=AXIS2_PLACEMENT_3D('',#1212,#1006,#1007);
#793=DIRECTION('axis',(0.,0.,1.));
#794=DIRECTION('refdir',(1.,0.,0.));
#795=DIRECTION('center_axis',(0.408248290463863,-0.816496580927726,-0.408248290463863));
#796=DIRECTION('ref_axis',(-0.577350269189626,-0.577350269189626,0.577350269189626));
#797=DIRECTION('center_axis',(0.,-1.,0.));
#798=DIRECTION('ref_axis',(-1.,0.,0.));
#799=DIRECTION('center_axis',(0.,0.,1.));
#800=DIRECTION('ref_axis',(0.,-1.,0.));
#801=DIRECTION('center_axis',(-1.,0.,0.));
#802=DIRECTION('ref_axis',(0.,0.,1.));
#803=DIRECTION('center_axis',(0.,0.,-1.));
#804=DIRECTION('ref_axis',(-0.707106781186546,-0.707106781186549,0.));
#805=DIRECTION('center_axis',(0.,0.,1.));
#806=DIRECTION('ref_axis',(-0.707106781186546,-0.707106781186549,0.));
#807=DIRECTION('',(0.,0.,1.));
#808=DIRECTION('',(0.,0.,-1.));
#809=DIRECTION('center_axis',(-0.408248290463863,-0.816496580927726,0.408248290463863));
#810=DIRECTION('ref_axis',(-0.577350269189626,0.577350269189625,0.577350269189626));
#811=DIRECTION('center_axis',(0.,1.,0.));
#812=DIRECTION('ref_axis',(0.,0.,1.));
#813=DIRECTION('center_axis',(-1.,0.,0.));
#814=DIRECTION('ref_axis',(0.,1.,0.));
#815=DIRECTION('center_axis',(0.,0.,1.));
#816=DIRECTION('ref_axis',(-1.,0.,0.));
#817=DIRECTION('center_axis',(-0.408248290463863,-0.816496580927726,-0.408248290463863));
#818=DIRECTION('ref_axis',(0.577350269189626,-0.577350269189626,0.577350269189626));
#819=DIRECTION('center_axis',(1.,0.,0.));
#820=DIRECTION('ref_axis',(0.,-1.,0.));
#821=DIRECTION('center_axis',(0.,0.,1.));
#822=DIRECTION('ref_axis',(1.,0.,0.));
#823=DIRECTION('center_axis',(0.,-1.,0.));
#824=DIRECTION('ref_axis',(0.,0.,1.));
#825=DIRECTION('center_axis',(0.,0.,-1.));
#826=DIRECTION('ref_axis',(0.707106781186549,-0.707106781186546,0.));
#827=DIRECTION('center_axis',(0.,0.,1.));
#828=DIRECTION('ref_axis',(0.707106781186549,-0.707106781186546,0.));
#829=DIRECTION('',(0.,0.,1.));
#830=DIRECTION('',(0.,0.,-1.));
#831=DIRECTION('center_axis',(-0.816496580927726,0.408248290463864,0.408248290463863));
#832=DIRECTION('ref_axis',(0.577350269189626,0.577350269189626,0.577350269189626));
#833=DIRECTION('center_axis',(1.,0.,0.));
#834=DIRECTION('ref_axis',(0.,0.,1.));
#835=DIRECTION('center_axis',(0.,1.,-2.22044604925031E-15));
#836=DIRECTION('ref_axis',(1.,0.,0.));
#837=DIRECTION('center_axis',(0.,0.,1.));
#838=DIRECTION('ref_axis',(0.,1.,0.));
#839=DIRECTION('center_axis',(0.,1.,0.));
#840=DIRECTION('ref_axis',(0.707106781186548,0.,0.707106781186548));
#841=DIRECTION('',(0.,-1.,0.));
#842=DIRECTION('',(0.,1.,0.));
#843=DIRECTION('center_axis',(0.,0.,-1.));
#844=DIRECTION('ref_axis',(0.707106781186548,0.707106781186548,0.));
#845=DIRECTION('center_axis',(6.93889390390722E-17,-5.47382212626881E-48,
1.));
#846=DIRECTION('ref_axis',(0.707106781186548,0.707106781186548,0.));
#847=DIRECTION('',(0.,0.,1.));
#848=DIRECTION('',(0.,0.,-1.));
#849=DIRECTION('center_axis',(-1.,0.,0.));
#850=DIRECTION('ref_axis',(0.,0.707106781186547,0.707106781186548));
#851=DIRECTION('',(1.,0.,0.));
#852=DIRECTION('',(-1.,0.,0.));
#853=DIRECTION('center_axis',(1.,-6.78925457049057E-16,0.));
#854=DIRECTION('ref_axis',(0.,-0.707106781186546,0.707106781186549));
#855=DIRECTION('',(-1.,6.78925457049057E-16,0.));
#856=DIRECTION('',(1.,-6.78925457049057E-16,0.));
#857=DIRECTION('center_axis',(0.,0.,-1.));
#858=DIRECTION('ref_axis',(-0.707106781186548,0.707106781186547,0.));
#859=DIRECTION('center_axis',(6.93889390390722E-17,-5.47382212626881E-48,
1.));
#860=DIRECTION('ref_axis',(-0.707106781186548,0.707106781186547,0.));
#861=DIRECTION('',(0.,0.,1.));
#862=DIRECTION('',(0.,0.,-1.));
#863=DIRECTION('center_axis',(0.,1.,0.));
#864=DIRECTION('ref_axis',(-0.707106781186548,0.,0.707106781186548));
#865=DIRECTION('',(0.,-1.,0.));
#866=DIRECTION('',(0.,1.,0.));
#867=DIRECTION('center_axis',(-1.,0.,0.));
#868=DIRECTION('ref_axis',(0.,-1.,0.));
#869=DIRECTION('',(0.,-1.,-5.47382212626881E-48));
#870=DIRECTION('',(0.,0.,-1.));
#871=DIRECTION('',(0.,1.,0.));
#872=DIRECTION('',(0.,0.,-1.));
#873=DIRECTION('',(0.,-1.,0.));
#874=DIRECTION('center_axis',(0.,0.,-1.));
#875=DIRECTION('ref_axis',(-1.,0.,0.));
#876=DIRECTION('center_axis',(0.,0.,1.));
#877=DIRECTION('ref_axis',(0.6,0.8,0.));
#878=DIRECTION('',(0.,1.,0.));
#879=DIRECTION('',(-1.,0.,0.));
#880=DIRECTION('',(1.11022302462516E-16,-1.,0.));
#881=DIRECTION('center_axis',(0.,0.,1.));
#882=DIRECTION('ref_axis',(-1.,8.88178419700124E-16,0.));
#883=DIRECTION('',(0.,1.,0.));
#884=DIRECTION('',(1.,-6.99353086378051E-16,0.));
#885=DIRECTION('center_axis',(0.,1.,0.));
#886=DIRECTION('ref_axis',(1.,0.,0.));
#887=DIRECTION('',(-1.,0.,6.93889390390722E-17));
#888=DIRECTION('center_axis',(6.93889390390722E-17,-5.47382212626881E-48,
1.));
#889=DIRECTION('ref_axis',(1.,0.,-6.93889390390722E-17));
#890=DIRECTION('',(0.,1.,5.47382212626881E-48));
#891=DIRECTION('',(-1.,0.,6.93889390390722E-17));
#892=DIRECTION('',(0.,-1.,-5.47382212626881E-48));
#893=DIRECTION('',(1.,0.,-6.93889390390722E-17));
#894=DIRECTION('',(0.,1.,5.47382212626881E-48));
#895=DIRECTION('',(-1.,0.,6.93889390390722E-17));
#896=DIRECTION('center_axis',(0.,0.,-1.));
#897=DIRECTION('ref_axis',(1.,0.,0.));
#898=DIRECTION('center_axis',(0.,0.,-1.));
#899=DIRECTION('ref_axis',(-1.,0.,0.));
#900=DIRECTION('center_axis',(0.,1.,0.));
#901=DIRECTION('ref_axis',(0.962250448649379,0.,-0.272165526975897));
#902=DIRECTION('center_axis',(0.,-1.,0.));
#903=DIRECTION('ref_axis',(0.962250448649379,0.,-0.272165526975897));
#904=DIRECTION('',(0.,-1.,0.));
#905=DIRECTION('center_axis',(0.,1.,0.));
#906=DIRECTION('ref_axis',(0.962250448649379,0.,-0.272165526975897));
#907=DIRECTION('',(0.,1.,0.));
#908=DIRECTION('center_axis',(0.,-1.,0.));
#909=DIRECTION('ref_axis',(1.,0.,0.));
#910=DIRECTION('center_axis',(0.,1.,0.));
#911=DIRECTION('ref_axis',(-1.,0.,0.));
#912=DIRECTION('',(0.,0.,1.));
#913=DIRECTION('',(1.,0.,0.));
#914=DIRECTION('center_axis',(0.,1.,0.));
#915=DIRECTION('ref_axis',(-1.,0.,0.));
#916=DIRECTION('center_axis',(0.,-1.,0.));
#917=DIRECTION('ref_axis',(1.,0.,0.));
#918=DIRECTION('',(0.,1.,0.));
#919=DIRECTION('center_axis',(0.,1.,0.));
#920=DIRECTION('ref_axis',(-0.962250448649379,0.,-0.272165526975897));
#921=DIRECTION('center_axis',(0.,-1.,0.));
#922=DIRECTION('ref_axis',(-0.962250448649379,0.,-0.272165526975897));
#923=DIRECTION('',(0.,-1.,0.));
#924=DIRECTION('center_axis',(0.,1.,0.));
#925=DIRECTION('ref_axis',(-0.962250448649379,0.,-0.272165526975897));
#926=DIRECTION('',(0.,1.,0.));
#927=DIRECTION('center_axis',(0.,1.,0.));
#928=DIRECTION('ref_axis',(-1.,0.,0.));
#929=DIRECTION('center_axis',(0.,-1.,0.));
#930=DIRECTION('ref_axis',(-1.,0.,0.));
#931=DIRECTION('',(0.,0.,1.));
#932=DIRECTION('',(1.,0.,0.));
#933=DIRECTION('center_axis',(0.,-1.,0.));
#934=DIRECTION('ref_axis',(0.,0.,-1.));
#935=DIRECTION('center_axis',(0.,1.,0.));
#936=DIRECTION('ref_axis',(0.,0.,-1.));
#937=DIRECTION('',(0.,-1.,0.));
#938=DIRECTION('center_axis',(0.,-1.,0.));
#939=DIRECTION('ref_axis',(-1.,0.,0.));
#940=DIRECTION('',(1.,0.,0.));
#941=DIRECTION('',(0.,0.,-1.));
#942=DIRECTION('',(0.,0.,-1.));
#943=DIRECTION('center_axis',(0.,1.,0.));
#944=DIRECTION('ref_axis',(1.,0.,0.));
#945=DIRECTION('',(0.,0.,-1.));
#946=DIRECTION('',(-1.,0.,0.));
#947=DIRECTION('center_axis',(0.,0.,-1.));
#948=DIRECTION('ref_axis',(1.,0.,0.));
#949=DIRECTION('',(0.,1.,0.));
#950=DIRECTION('',(-1.,0.,0.));
#951=DIRECTION('center_axis',(0.,0.,-1.));
#952=DIRECTION('ref_axis',(-1.,0.,0.));
#953=DIRECTION('center_axis',(0.,0.,1.));
#954=DIRECTION('ref_axis',(-1.,0.,0.));
#955=DIRECTION('',(0.,0.,1.));
#956=DIRECTION('center_axis',(0.,0.,1.));
#957=DIRECTION('ref_axis',(-1.,0.,0.));
#958=DIRECTION('',(2.22044604925031E-16,-1.,0.));
#959=DIRECTION('',(1.,0.,0.));
#960=DIRECTION('',(0.,-1.,0.));
#961=DIRECTION('center_axis',(1.,0.,0.));
#962=DIRECTION('ref_axis',(0.,1.,0.));
#963=DIRECTION('',(0.,0.,-1.));
#964=DIRECTION('',(0.,0.,-1.));
#965=DIRECTION('',(0.,0.,1.));
#966=DIRECTION('',(0.,1.,0.));
#967=DIRECTION('center_axis',(0.,1.,0.));
#968=DIRECTION('ref_axis',(-1.,0.,0.));
#969=DIRECTION('',(0.,0.,-1.));
#970=DIRECTION('center_axis',(-1.,0.,0.));
#971=DIRECTION('ref_axis',(0.,-1.,0.));
#972=DIRECTION('',(0.,0.,-1.));
#973=DIRECTION('',(0.,-1.,0.));
#974=DIRECTION('',(0.,0.,1.));
#975=DIRECTION('',(0.,0.,-1.));
#976=DIRECTION('',(1.11022302462516E-16,-1.,0.));
#977=DIRECTION('',(0.,0.,-1.));
#978=DIRECTION('center_axis',(0.,1.,0.));
#979=DIRECTION('ref_axis',(1.,0.,0.));
#980=DIRECTION('',(0.,0.,1.));
#981=DIRECTION('',(-1.,0.,0.));
#982=DIRECTION('center_axis',(0.,0.,1.));
#983=DIRECTION('ref_axis',(1.,0.,0.));
#984=DIRECTION('',(0.,-1.,0.));
#985=DIRECTION('center_axis',(0.,0.,1.));
#986=DIRECTION('ref_axis',(-1.,8.88178419700124E-16,0.));
#987=DIRECTION('center_axis',(0.,0.,1.));
#988=DIRECTION('ref_axis',(1.,0.,0.));
#989=DIRECTION('center_axis',(0.,0.,1.));
#990=DIRECTION('ref_axis',(-8.88178419700126E-16,1.,0.));
#991=DIRECTION('center_axis',(0.,0.,1.));
#992=DIRECTION('ref_axis',(-8.88178419700126E-16,1.,0.));
#993=DIRECTION('',(0.,0.,1.));
#994=DIRECTION('center_axis',(0.,1.,0.));
#995=DIRECTION('ref_axis',(-1.,0.,0.));
#996=DIRECTION('center_axis',(0.,0.,1.));
#997=DIRECTION('ref_axis',(-1.,8.88178419700124E-16,0.));
#998=DIRECTION('',(0.,0.,1.));
#999=DIRECTION('center_axis',(0.,-1.,0.));
#1000=DIRECTION('ref_axis',(1.,0.,0.));
#1001=DIRECTION('',(-1.,0.,0.));
#1002=DIRECTION('center_axis',(1.,0.,0.));
#1003=DIRECTION('ref_axis',(0.,1.,0.));
#1004=DIRECTION('center_axis',(-6.78925457049057E-16,-1.,0.));
#1005=DIRECTION('ref_axis',(1.,-6.78925457049057E-16,0.));
#1006=DIRECTION('center_axis',(0.,0.,-1.));
#1007=DIRECTION('ref_axis',(1.,0.,0.));
#1008=CARTESIAN_POINT('',(0.,0.,0.));
#1009=CARTESIAN_POINT('Origin',(-29.95,-45.,23.));
#1010=CARTESIAN_POINT('',(-31.95,-45.,23.));
#1011=CARTESIAN_POINT('',(-29.95,-45.,25.));
#1012=CARTESIAN_POINT('Origin',(-29.95,-45.,23.));
#1013=CARTESIAN_POINT('',(-29.95,-47.,23.));
#1014=CARTESIAN_POINT('Origin',(-29.95,-45.,23.));
#1015=CARTESIAN_POINT('Origin',(-29.95,-45.,23.));
#1016=CARTESIAN_POINT('Origin',(-29.95,-45.,-35.));
#1017=CARTESIAN_POINT('',(-31.95,-45.,-37.5));
#1018=CARTESIAN_POINT('',(-29.95,-47.,-37.5));
#1019=CARTESIAN_POINT('Origin',(-29.95,-45.,-37.5));
#1020=CARTESIAN_POINT('',(-29.95,-47.,-35.));
#1021=CARTESIAN_POINT('',(-31.95,-45.,-35.));
#1022=CARTESIAN_POINT('Origin',(-29.95,8.,23.));
#1023=CARTESIAN_POINT('',(-29.95,8.,25.));
#1024=CARTESIAN_POINT('',(-31.95,8.,23.));
#1025=CARTESIAN_POINT('Origin',(-29.95,8.,23.));
#1026=CARTESIAN_POINT('',(-29.95,10.,23.));
#1027=CARTESIAN_POINT('Origin',(-29.95,8.,23.));
#1028=CARTESIAN_POINT('Origin',(-29.95,8.,23.));
#1029=CARTESIAN_POINT('Origin',(29.95,-45.,23.));
#1030=CARTESIAN_POINT('',(29.95,-47.,23.));
#1031=CARTESIAN_POINT('',(29.95,-45.,25.));
#1032=CARTESIAN_POINT('Origin',(29.95,-45.,23.));
#1033=CARTESIAN_POINT('',(31.95,-45.,23.));
#1034=CARTESIAN_POINT('Origin',(29.95,-45.,23.));
#1035=CARTESIAN_POINT('Origin',(29.95,-45.,23.));
#1036=CARTESIAN_POINT('Origin',(29.95,-45.,-35.));
#1037=CARTESIAN_POINT('',(29.95,-47.,-37.5));
#1038=CARTESIAN_POINT('',(31.95,-45.,-37.5));
#1039=CARTESIAN_POINT('Origin',(29.95,-45.,-37.5));
#1040=CARTESIAN_POINT('',(31.95,-45.,-35.));
#1041=CARTESIAN_POINT('',(29.95,-47.,-35.));
#1042=CARTESIAN_POINT('Origin',(29.95,8.,23.));
#1043=CARTESIAN_POINT('',(29.95,8.,25.));
#1044=CARTESIAN_POINT('',(29.95,10.,23.));
#1045=CARTESIAN_POINT('Origin',(29.95,8.,23.));
#1046=CARTESIAN_POINT('',(31.95,8.,23.));
#1047=CARTESIAN_POINT('Origin',(29.95,8.,23.));
#1048=CARTESIAN_POINT('Origin',(29.95,8.,23.));
#1049=CARTESIAN_POINT('Origin',(29.95,-18.9745,23.));
#1050=CARTESIAN_POINT('',(29.95,-18.9745,25.));
#1051=CARTESIAN_POINT('',(31.95,-18.9745,23.));
#1052=CARTESIAN_POINT('Origin',(29.95,8.,-5.));
#1053=CARTESIAN_POINT('',(31.95,8.,-10.65));
#1054=CARTESIAN_POINT('',(29.95,10.,-10.65));
#1055=CARTESIAN_POINT('Origin',(29.95,8.,-10.65));
#1056=CARTESIAN_POINT('',(29.95,10.,-5.));
#1057=CARTESIAN_POINT('',(31.95,8.,-5.));
#1058=CARTESIAN_POINT('Origin',(-15.875,8.,23.));
#1059=CARTESIAN_POINT('',(-15.875,8.,25.));
#1060=CARTESIAN_POINT('',(-15.875,10.,23.));
#1061=CARTESIAN_POINT('Origin',(-15.875,-45.,23.));
#1062=CARTESIAN_POINT('',(-15.875,-45.,25.));
#1063=CARTESIAN_POINT('',(-15.875,-47.,23.));
#1064=CARTESIAN_POINT('Origin',(-29.95,8.,-5.));
#1065=CARTESIAN_POINT('',(-29.95,10.,-10.65));
#1066=CARTESIAN_POINT('',(-31.95,8.,-10.65));
#1067=CARTESIAN_POINT('Origin',(-29.95,8.,-10.65));
#1068=CARTESIAN_POINT('',(-31.95,8.,-5.));
#1069=CARTESIAN_POINT('',(-29.95,10.,-5.));
#1070=CARTESIAN_POINT('Origin',(-29.95,4.0255,23.));
#1071=CARTESIAN_POINT('',(-31.95,4.0255,23.));
#1072=CARTESIAN_POINT('',(-29.95,4.0255,25.));
#1073=CARTESIAN_POINT('Origin',(-31.95,-1.,-35.));
#1074=CARTESIAN_POINT('',(-31.95,2.5,-10.65));
#1075=CARTESIAN_POINT('',(-31.95,2.625,-10.65));
#1076=CARTESIAN_POINT('',(-31.95,2.5,-14.8));
#1077=CARTESIAN_POINT('',(-31.95,2.5,-5.));
#1078=CARTESIAN_POINT('',(-31.9500000000001,-0.857536964558261,-14.8));
#1079=CARTESIAN_POINT('',(-31.95,-1.125,-14.8));
#1080=CARTESIAN_POINT('',(-31.9500000000001,-0.857536964558262,-37.5));
#1081=CARTESIAN_POINT('',(-31.95,-0.857536964558397,-35.));
#1082=CARTESIAN_POINT('',(-31.95,-12.5,-37.5));
#1083=CARTESIAN_POINT('Origin',(-4.44089209850063E-15,-24.,-37.5));
#1084=CARTESIAN_POINT('',(-29.75,-5.,-37.5));
#1085=CARTESIAN_POINT('Origin',(-34.75,-5.,-37.5));
#1086=CARTESIAN_POINT('',(-29.75,-45.,-37.5));
#1087=CARTESIAN_POINT('',(-29.75,-14.5,-37.5));
#1088=CARTESIAN_POINT('',(29.75,-45.,-37.5));
#1089=CARTESIAN_POINT('',(-14.875,-45.,-37.5));
#1090=CARTESIAN_POINT('',(29.75,-5.,-37.5));
#1091=CARTESIAN_POINT('',(29.75,-34.5,-37.5));
#1092=CARTESIAN_POINT('',(31.9500000000001,-0.857536964558268,-37.5));
#1093=CARTESIAN_POINT('Origin',(34.75,-5.,-37.5));
#1094=CARTESIAN_POINT('',(31.95,-35.5,-37.5));
#1095=CARTESIAN_POINT('',(15.875,-47.,-37.5));
#1096=CARTESIAN_POINT('Origin',(-31.75,10.,25.));
#1097=CARTESIAN_POINT('',(-15.875,10.,-10.65));
#1098=CARTESIAN_POINT('Origin',(2.25514051876985E-15,6.25,-10.65));
#1099=CARTESIAN_POINT('',(31.95,2.5,-10.65));
#1100=CARTESIAN_POINT('',(31.95,-20.375,-10.65));
#1101=CARTESIAN_POINT('',(29.75,2.5,-10.65));
#1102=CARTESIAN_POINT('',(14.875,2.5,-10.65));
#1103=CARTESIAN_POINT('',(29.75,8.,-10.65));
#1104=CARTESIAN_POINT('',(29.75,0.625,-10.65));
#1105=CARTESIAN_POINT('',(-29.75,8.,-10.65));
#1106=CARTESIAN_POINT('',(14.875,8.,-10.65));
#1107=CARTESIAN_POINT('',(-29.75,2.5,-10.65));
#1108=CARTESIAN_POINT('',(-29.75,-19.375,-10.65));
#1109=CARTESIAN_POINT('',(-15.875,2.5,-10.65));
#1110=CARTESIAN_POINT('Origin',(0.,9.05099999999999,25.));
#1111=CARTESIAN_POINT('',(12.,-17.6999999999964,25.));
#1112=CARTESIAN_POINT('Origin',(0.500000000000004,-17.6999999999964,25.));
#1113=CARTESIAN_POINT('Origin',(-28.6642135623731,-37.5,-34.8));
#1114=CARTESIAN_POINT('',(-28.6642135623731,-5.,-35.));
#1115=CARTESIAN_POINT('',(-28.5594570021973,-5.,-34.6296296296296));
#1116=CARTESIAN_POINT('Origin',(-28.6642135623731,-5.,-34.8));
#1117=CARTESIAN_POINT('',(-28.5594570021973,-25.,-34.6296296296296));
#1118=CARTESIAN_POINT('',(-28.5594570021973,-37.5,-34.6296296296296));
#1119=CARTESIAN_POINT('',(-28.6642135623731,-25.,-35.));
#1120=CARTESIAN_POINT('Origin',(-28.6642135623731,-25.,-34.8));
#1121=CARTESIAN_POINT('',(-28.6642135623731,-37.5,-35.));
#1122=CARTESIAN_POINT('Origin',(-29.75,-25.,-35.));
#1123=CARTESIAN_POINT('',(-29.75,-25.,-32.5));
#1124=CARTESIAN_POINT('Origin',(-27.25,-25.,-32.5));
#1125=CARTESIAN_POINT('',(-29.75,-25.,-35.));
#1126=CARTESIAN_POINT('',(-29.75,-25.,-35.));
#1127=CARTESIAN_POINT('',(-29.75,-25.,-35.));
#1128=CARTESIAN_POINT('Origin',(-27.25,-37.5,-32.5));
#1129=CARTESIAN_POINT('',(-29.75,-5.,-32.5));
#1130=CARTESIAN_POINT('Origin',(-27.25,-5.,-32.5));
#1131=CARTESIAN_POINT('',(-29.75,-37.5,-32.5));
#1132=CARTESIAN_POINT('Origin',(28.6642135623731,-5.,-34.8));
#1133=CARTESIAN_POINT('',(28.5594570021973,-5.,-34.6296296296296));
#1134=CARTESIAN_POINT('',(28.6642135623731,-5.,-35.));
#1135=CARTESIAN_POINT('Origin',(28.6642135623731,-5.,-34.8));
#1136=CARTESIAN_POINT('',(28.6642135623731,-25.,-35.));
#1137=CARTESIAN_POINT('',(28.6642135623731,-5.,-35.));
#1138=CARTESIAN_POINT('',(28.5594570021973,-25.,-34.6296296296296));
#1139=CARTESIAN_POINT('Origin',(28.6642135623731,-25.,-34.8));
#1140=CARTESIAN_POINT('',(28.5594570021973,-5.,-34.6296296296296));
#1141=CARTESIAN_POINT('Origin',(29.75,-5.,-35.));
#1142=CARTESIAN_POINT('',(29.75,-5.,-32.5));
#1143=CARTESIAN_POINT('Origin',(27.25,-5.,-32.5));
#1144=CARTESIAN_POINT('',(29.75,-5.,-35.));
#1145=CARTESIAN_POINT('',(29.75,-5.,-35.));
#1146=CARTESIAN_POINT('',(27.25,-5.,-35.));
#1147=CARTESIAN_POINT('Origin',(27.25,-5.,-32.5));
#1148=CARTESIAN_POINT('',(29.75,-25.,-32.5));
#1149=CARTESIAN_POINT('Origin',(27.25,-25.,-32.5));
#1150=CARTESIAN_POINT('',(29.75,-5.,-32.5));
#1151=CARTESIAN_POINT('Origin',(29.75,8.,25.));
#1152=CARTESIAN_POINT('',(-29.75,8.,23.));
#1153=CARTESIAN_POINT('',(29.75,8.,23.));
#1154=CARTESIAN_POINT('',(29.75,8.,23.));
#1155=CARTESIAN_POINT('',(-29.75,8.,25.));
#1156=CARTESIAN_POINT('',(29.75,8.,25.));
#1157=CARTESIAN_POINT('Origin',(-31.75,2.5,25.));
#1158=CARTESIAN_POINT('',(-29.75,2.5,-14.8));
#1159=CARTESIAN_POINT('',(-29.75,2.5,25.));
#1160=CARTESIAN_POINT('',(-15.875,2.5,-14.8));
#1161=CARTESIAN_POINT('Origin',(0.,9.05099999999999,-35.));
#1162=CARTESIAN_POINT('',(-29.75,-5.,-35.));
#1163=CARTESIAN_POINT('',(-29.75,2.0255,-35.));
#1164=CARTESIAN_POINT('',(-27.25,-5.,-35.));
#1165=CARTESIAN_POINT('Origin',(0.500000000000004,-17.6999999999964,25.));
#1166=CARTESIAN_POINT('',(12.,-17.6999999999964,23.));
#1167=CARTESIAN_POINT('Origin',(0.500000000000004,-17.6999999999964,23.));
#1168=CARTESIAN_POINT('',(12.,-17.6999999999964,25.));
#1169=CARTESIAN_POINT('Origin',(0.,-19.5,23.));
#1170=CARTESIAN_POINT('',(29.75,-45.,23.));
#1171=CARTESIAN_POINT('',(29.75,-5.,23.));
#1172=CARTESIAN_POINT('',(-29.75,-45.,23.));
#1173=CARTESIAN_POINT('',(14.875,-45.,23.));
#1174=CARTESIAN_POINT('',(-29.75,-32.25,23.));
#1175=CARTESIAN_POINT('Origin',(-29.75,-45.,-35.));
#1176=CARTESIAN_POINT('',(-29.75,-45.,-35.));
#1177=CARTESIAN_POINT('',(-29.75,-5.,-35.));
#1178=CARTESIAN_POINT('',(-29.75,-5.,-14.8));
#1179=CARTESIAN_POINT('',(-29.75,-5.,-35.));
#1180=CARTESIAN_POINT('',(-29.75,-23.125,-14.8));
#1181=CARTESIAN_POINT('Origin',(29.75,-45.,-35.));
#1182=CARTESIAN_POINT('',(29.75,-45.,-35.));
#1183=CARTESIAN_POINT('Origin',(29.75,-5.,-35.));
#1184=CARTESIAN_POINT('',(29.75,2.5,-14.8));
#1185=CARTESIAN_POINT('',(29.75,2.5,25.));
#1186=CARTESIAN_POINT('',(29.75,-5.,-14.8));
#1187=CARTESIAN_POINT('',(29.75,-3.125,-14.8));
#1188=CARTESIAN_POINT('',(29.75,-5.,-35.));
#1189=CARTESIAN_POINT('',(29.75,-25.,-35.));
#1190=CARTESIAN_POINT('',(29.75,-25.,-35.));
#1191=CARTESIAN_POINT('',(29.75,-17.9745,-35.));
#1192=CARTESIAN_POINT('',(29.75,-5.,-35.));
#1193=CARTESIAN_POINT('Origin',(29.75,2.5,25.));
#1194=CARTESIAN_POINT('',(31.95,2.5,-14.8));
#1195=CARTESIAN_POINT('',(31.95,2.5,-5.));
#1196=CARTESIAN_POINT('',(14.875,2.5,-14.8));
#1197=CARTESIAN_POINT('Origin',(2.22044604925031E-15,-1.25,-14.8));
#1198=CARTESIAN_POINT('',(31.9500000000001,-0.857536964558268,-14.8));
#1199=CARTESIAN_POINT('',(31.95,-24.125,-14.8));
#1200=CARTESIAN_POINT('Origin',(34.75,-5.,-14.8));
#1201=CARTESIAN_POINT('Origin',(2.22044604925031E-15,-1.25,-14.8));
#1202=CARTESIAN_POINT('Origin',(-34.75,-5.,-14.8));
#1203=CARTESIAN_POINT('Origin',(-34.75,-5.,-35.));
#1204=CARTESIAN_POINT('',(-29.75,-5.,-35.));
#1205=CARTESIAN_POINT('Origin',(-27.25,-5.,-35.));
#1206=CARTESIAN_POINT('Origin',(34.75,-5.,-35.));
#1207=CARTESIAN_POINT('',(31.95,-0.857536964558405,-35.));
#1208=CARTESIAN_POINT('Origin',(27.25,-25.,-35.));
#1209=CARTESIAN_POINT('',(29.75,-25.,-35.));
#1210=CARTESIAN_POINT('Origin',(31.95,-47.,-35.));
#1211=CARTESIAN_POINT('Origin',(-31.75,-47.,-35.));
#1212=CARTESIAN_POINT('Origin',(0.,9.05099999999999,-35.));
#1213=UNCERTAINTY_MEASURE_WITH_UNIT(LENGTH_MEASURE(0.01),#1217,
'DISTANCE_ACCURACY_VALUE',
'Maximum model space distance between geometric entities at asserted c
onnectivities');
#1214=UNCERTAINTY_MEASURE_WITH_UNIT(LENGTH_MEASURE(0.01),#1217,
'DISTANCE_ACCURACY_VALUE',
'Maximum model space distance between geometric entities at asserted c
onnectivities');
#1215=(
GEOMETRIC_REPRESENTATION_CONTEXT(3)
GLOBAL_UNCERTAINTY_ASSIGNED_CONTEXT((#1213))
GLOBAL_UNIT_ASSIGNED_CONTEXT((#1217,#1218,#1219))
REPRESENTATION_CONTEXT('','3D')
);
#1216=(
GEOMETRIC_REPRESENTATION_CONTEXT(3)
GLOBAL_UNCERTAINTY_ASSIGNED_CONTEXT((#1214))
GLOBAL_UNIT_ASSIGNED_CONTEXT((#1217,#1218,#1219))
REPRESENTATION_CONTEXT('','3D')
);
#1217=(
LENGTH_UNIT()
NAMED_UNIT(*)
SI_UNIT(.MILLI.,.METRE.)
);
#1218=(
NAMED_UNIT(*)
PLANE_ANGLE_UNIT()
SI_UNIT($,.RADIAN.)
);
#1219=(
NAMED_UNIT(*)
SI_UNIT($,.STERADIAN.)
SOLID_ANGLE_UNIT()
);
#1220=SHAPE_DEFINITION_REPRESENTATION(#1221,#1222);
#1221=PRODUCT_DEFINITION_SHAPE('',$,#1224);
#1222=SHAPE_REPRESENTATION('',(#721),#1215);
#1223=PRODUCT_DEFINITION_CONTEXT('part definition',#1228,'design');
#1224=PRODUCT_DEFINITION('A Main Body','A Main Body v13',#1225,#1223);
#1225=PRODUCT_DEFINITION_FORMATION('',$,#1230);
#1226=PRODUCT_RELATED_PRODUCT_CATEGORY('A Main Body v13',
'A Main Body v13',(#1230));
#1227=APPLICATION_PROTOCOL_DEFINITION('international standard',
'automotive_design',2009,#1228);
#1228=APPLICATION_CONTEXT(
'Core Data for Automotive Mechanical Design Process');
#1229=PRODUCT_CONTEXT('part definition',#1228,'mechanical');
#1230=PRODUCT('A Main Body','A Main Body v13',$,(#1229));
#1231=PRESENTATION_STYLE_ASSIGNMENT((#1233));
#1232=PRESENTATION_STYLE_ASSIGNMENT((#1234));
#1233=SURFACE_STYLE_USAGE(.BOTH.,#1235);
#1234=SURFACE_STYLE_USAGE(.BOTH.,#1236);
#1235=SURFACE_SIDE_STYLE('',(#1237));
#1236=SURFACE_SIDE_STYLE('',(#1238));
#1237=SURFACE_STYLE_FILL_AREA(#1239);
#1238=SURFACE_STYLE_FILL_AREA(#1240);
#1239=FILL_AREA_STYLE('Platte',(#1241));
#1240=FILL_AREA_STYLE('Opaque(160,160,160)',(#1242));
#1241=FILL_AREA_STYLE_COLOUR('Platte',#1243);
#1242=FILL_AREA_STYLE_COLOUR('Opaque(160,160,160)',#1244);
#1243=COLOUR_RGB('Platte',0.6,0.6,0.6);
#1244=COLOUR_RGB('Opaque(160,160,160)',0.627450980392157,0.627450980392157,
0.627450980392157);
ENDSEC;
END-ISO-10303-21;
